<svg width="43" height="43" viewBox="0 0 43 43" fill="none" xmlns="http://www.w3.org/2000/svg">
<path d="M37.5201 25.7899L25.0653 38.2447C24.7169 38.5931 24.3249 38.8544 23.8895 39.0286C23.454 39.2028 23.0185 39.2899 22.583 39.2899C22.1475 39.2899 21.712 39.2028 21.2766 39.0286C20.8411 38.8544 20.4491 38.5931 20.1008 38.2447L4.72818 22.8721C4.40882 22.5528 4.16205 22.1829 3.98785 21.7625C3.81366 21.3421 3.72656 20.8991 3.72656 20.4334V7.93504C3.72656 6.97698 4.06798 6.15711 4.75082 5.47543C5.43366 4.79375 6.25353 4.45233 7.21043 4.45117H19.7088C20.1733 4.45117 20.6233 4.54582 21.0588 4.73511C21.4943 4.9244 21.8717 5.17814 22.1911 5.49633L37.5201 20.8689C37.8685 21.2173 38.1228 21.6092 38.2831 22.0447C38.4433 22.4802 38.5229 22.9157 38.5217 23.3512C38.5206 23.7867 38.441 24.2152 38.2831 24.6367C38.1251 25.0583 37.8708 25.4427 37.5201 25.7899ZM11.5653 14.9028C12.2911 14.9028 12.9083 14.649 13.4169 14.1416C13.9256 13.6341 14.1793 13.0168 14.1782 12.2899C14.177 11.5629 13.9233 10.9463 13.4169 10.4399C12.9106 9.93362 12.2934 9.6793 11.5653 9.67698C10.8371 9.67466 10.2205 9.92898 9.71534 10.4399C9.21018 10.9509 8.95585 11.5676 8.95237 12.2899C8.94888 13.0122 9.20321 13.6294 9.71534 14.1416C10.2275 14.6537 10.8441 14.9074 11.5653 14.9028Z" fill="#2192FF"/>
</svg>
