<svg width="43" height="43" viewBox="0 0 43 43" fill="none" xmlns="http://www.w3.org/2000/svg">
<path d="M24.9376 19.2229C24.611 18.8963 24.168 18.7129 23.7061 18.7129C23.2442 18.7129 22.8012 18.8963 22.4745 19.2229L21.243 20.4527C20.5859 21.0873 19.7059 21.4384 18.7924 21.4305C17.879 21.4226 17.0052 21.0562 16.3592 20.4102C15.7133 19.7643 15.3469 18.8905 15.339 17.977C15.331 17.0636 15.6822 16.1835 16.3168 15.5265L26.1239 5.7159C28.4458 5.18779 30.875 5.40514 33.0663 6.33703C35.2575 7.26893 37.0992 8.86793 38.3294 10.9067C39.5597 12.9454 40.1158 15.3201 39.9189 17.6932C39.7219 20.0662 38.7818 22.3167 37.2322 24.1247L33.5602 27.8437L24.9376 19.2229ZM5.84603 8.75036C7.64803 6.94728 10.0058 5.80505 12.5376 5.50852C15.0695 5.21199 17.6273 5.77852 19.7972 7.11642L13.852 13.0634C12.5643 14.3485 11.8303 16.0862 11.8068 17.9052C11.7833 19.7242 12.4722 21.4803 13.7262 22.7983C14.9802 24.1162 16.6999 24.8914 18.5178 24.9583C20.3358 25.0252 22.1078 24.3784 23.4553 23.1562L23.7061 22.9175L31.0971 30.3068L23.7061 37.6978C23.0528 38.351 22.1668 38.7179 21.243 38.7179C20.3192 38.7179 19.4332 38.351 18.7799 37.6978L5.84429 24.7622C3.7211 22.6389 2.52832 19.7591 2.52832 16.7563C2.52832 13.7535 3.72284 10.8737 5.84603 8.75036Z" fill="#2192FF"/>
</svg>
