<svg width="48" height="48" viewBox="0 0 48 48" fill="none" xmlns="http://www.w3.org/2000/svg">
<g clip-path="url(#clip0_581_55799)">
<path fill-rule="evenodd" clip-rule="evenodd" d="M33.8338 13.8102C33.8338 17.2712 32.9738 21.7852 31.6508 21.1002C31.1098 22.8669 29.974 24.3919 28.4363 25.4163C26.8986 26.4407 25.0537 26.9013 23.215 26.7199C21.3762 26.5385 19.6569 25.7263 18.349 24.4212C17.0411 23.1161 16.2252 21.3985 16.0398 19.5602C14.7268 17.2632 13.0048 12.6602 17.4318 9.07216C17.5118 9.04616 17.5598 8.83016 17.6318 8.51216C17.9058 7.30916 18.5128 4.63516 22.3418 5.14616C25.2948 5.53916 33.8338 7.06316 33.8338 13.8102ZM30.0278 15.9932C30.0278 15.9932 29.5758 17.3152 29.9998 18.7882C29.9943 20.3587 29.3732 21.8646 28.2698 22.9823C27.1664 24.1 25.6687 24.7405 24.0984 24.7663C22.528 24.7921 21.0101 24.2011 19.8706 23.1202C18.7311 22.0393 18.0609 20.5547 18.0038 18.9852C18.1488 18.4352 18.1488 17.5042 18.1478 16.4692C18.1468 14.6022 18.1448 12.3992 18.9998 11.5012C24.9888 15.4902 30.0278 15.9932 30.0278 15.9932Z" fill="#2192FF"/>
<path d="M13 35.9997C13 34.9177 13.573 33.9697 14.433 33.4417C14.4003 33.3172 14.3697 33.1922 14.341 33.0667C14.1898 32.3834 14.0714 31.6933 13.986 30.9987C13.9007 30.3331 13.849 29.6636 13.831 28.9927C9.61 30.6497 6 33.5377 6 36.5697V41.9997H42V36.5697C42 33.6657 38.69 30.8947 34.702 29.2097V29.2377C34.72 29.8477 34.686 30.5477 34.62 31.2207C34.56 31.8447 34.471 32.4667 34.364 32.9997H35C35.1857 32.9998 35.3676 33.0516 35.5255 33.1493C35.6834 33.2469 35.811 33.3866 35.894 33.5527L36.894 35.5527C36.964 35.6917 37 35.8447 37 35.9997V37.9997C37 38.2649 36.8946 38.5193 36.7071 38.7068C36.5196 38.8944 36.2652 38.9997 36 38.9997H34V36.9997H35V36.2357L34.382 34.9997H31.618L31 36.2357V36.9997H32V38.9997H30C29.7348 38.9997 29.4804 38.8944 29.2929 38.7068C29.1054 38.5193 29 38.2649 29 37.9997V35.9997C29 35.8447 29.036 35.6917 29.106 35.5527L30.106 33.5527C30.189 33.3866 30.3166 33.2469 30.4745 33.1493C30.6324 33.0516 30.8143 32.9998 31 32.9997H32.315C32.337 32.9137 32.359 32.8184 32.381 32.7137C32.481 32.2427 32.57 31.6457 32.63 31.0287C32.69 30.4107 32.718 29.7977 32.703 29.2937C32.6997 29.0849 32.6833 28.8765 32.654 28.6697C32.632 28.5277 32.61 28.4627 32.606 28.4487C32.6047 28.4454 32.6047 28.4447 32.606 28.4467L32.609 28.4457C32.0783 28.2811 31.5416 28.1367 31 28.0127C30.497 27.8977 29.977 28.5897 29.75 29.0227H18L17.914 28.8547C17.702 28.4327 17.441 27.9117 17 28.0127C16.6147 28.1 16.2297 28.199 15.845 28.3097C15.8331 28.4851 15.8277 28.6609 15.829 28.8367C15.833 29.3897 15.886 30.0667 15.971 30.7507C16.056 31.4327 16.171 32.0967 16.291 32.6207C16.3257 32.772 16.359 32.9067 16.391 33.0247C16.9627 33.0999 17.5007 33.3382 17.9404 33.7112C18.3802 34.0841 18.7032 34.5759 18.8707 35.1277C19.0381 35.6795 19.0431 36.2678 18.8848 36.8223C18.7266 37.3768 18.4119 37.874 17.9785 38.2543C17.545 38.6345 17.0111 38.8818 16.4408 38.9666C15.8704 39.0513 15.2877 38.9698 14.7624 38.732C14.2371 38.4941 13.7915 38.1099 13.479 37.6253C13.1664 37.1407 13.0001 36.5763 13 35.9997Z" fill="#2192FF"/>
<path d="M17 36.0004C17 36.5744 16.538 37.0154 16 37.0154C15.462 37.0154 15 36.5754 15 36.0004C15 35.4264 15.462 34.9854 16 34.9854C16.538 34.9854 17 35.4254 17 36.0004Z" fill="#2192FF"/>
</g>
<defs>
<clipPath id="clip0_581_55799">
<rect width="48" height="48" fill="white"/>
</clipPath>
</defs>
</svg>
