<svg width="48" height="48" viewBox="0 0 48 48" fill="none" xmlns="http://www.w3.org/2000/svg">
<path d="M27.7531 13.2578C27.6628 13.2579 27.5752 13.2278 27.5041 13.1723C26.84 12.7357 26.0433 12.5472 25.2541 12.6398C25.1999 12.6474 25.1447 12.6442 25.0918 12.6303C25.0388 12.6164 24.9892 12.592 24.9458 12.5586C24.9025 12.5253 24.8662 12.4836 24.8391 12.436C24.8121 12.3884 24.7948 12.3359 24.7883 12.2816C24.7818 12.2273 24.7862 12.1722 24.8013 12.1196C24.8164 12.0669 24.8418 12.0179 24.8761 11.9752C24.9104 11.9326 24.9529 11.8972 25.0011 11.8712C25.0492 11.8452 25.1021 11.8291 25.1565 11.8238C26.1605 11.6958 27.1763 11.9455 28.0065 12.5243C28.0735 12.5771 28.1223 12.6495 28.1462 12.7313C28.1702 12.8132 28.1681 12.9004 28.1402 12.981C28.1124 13.0616 28.0601 13.1316 27.9908 13.1811C27.9214 13.2307 27.8383 13.2575 27.7531 13.2578ZM17.2546 13.2593C17.169 13.2591 17.0857 13.2322 17.0162 13.1825C16.9466 13.1327 16.8944 13.0625 16.8666 12.9816C16.8389 12.9007 16.8371 12.8131 16.8615 12.7312C16.8858 12.6492 16.9351 12.5769 17.0026 12.5243C17.8334 11.9467 18.8486 11.6971 19.8525 11.8238C19.9191 11.8318 19.9826 11.8559 20.0377 11.8939C20.0928 11.932 20.1378 11.9829 20.1688 12.0423C20.1999 12.1017 20.216 12.1677 20.2157 12.2347C20.2155 12.3017 20.199 12.3676 20.1675 12.4268C20.1285 12.4979 20.0691 12.5556 19.9969 12.5925C19.9246 12.6294 19.843 12.6438 19.7626 12.6338C18.9734 12.5393 18.1762 12.7274 17.5126 13.1648C17.4404 13.2257 17.349 13.2592 17.2546 13.2593ZM18.8401 13.7858C17.8351 13.7858 16.9951 14.4758 16.7701 15.4058C16.6951 15.6758 16.89 15.9308 17.175 15.9308H17.8351C17.7806 15.728 17.7734 15.5155 17.8141 15.3095C17.8549 15.1036 17.9424 14.9097 18.07 14.743C18.1976 14.5763 18.3618 14.4411 18.5499 14.348C18.7381 14.2548 18.9451 14.2062 19.1551 14.2058C19.365 14.2062 19.572 14.2548 19.7602 14.348C19.9483 14.4411 20.1125 14.5763 20.2401 14.743C20.3677 14.9097 20.4552 15.1036 20.496 15.3095C20.5367 15.5155 20.5295 15.728 20.475 15.9308H20.5801C20.8051 15.9308 20.97 15.7358 20.925 15.5108C20.745 14.5358 19.8751 13.7858 18.8401 13.7858ZM26.1601 13.7858C27.1651 13.7858 28.005 14.4758 28.23 15.4058C28.29 15.6758 28.095 15.9308 27.825 15.9308H27.1651C27.2195 15.728 27.2267 15.5155 27.186 15.3095C27.1452 15.1036 27.0577 14.9097 26.9301 14.743C26.8025 14.5763 26.6383 14.4411 26.4502 14.348C26.262 14.2548 26.055 14.2062 25.845 14.2058C25.08 14.2058 24.48 14.8208 24.48 15.5708C24.48 15.6908 24.4951 15.8108 24.5251 15.9308H24.4201C24.3677 15.932 24.3157 15.9213 24.2681 15.8995C24.2205 15.8777 24.1784 15.8453 24.1452 15.8049C24.1119 15.7644 24.0883 15.7169 24.0762 15.6659C24.064 15.6149 24.0636 15.5619 24.075 15.5108C24.255 14.5358 25.1101 13.7858 26.1601 13.7858Z" fill="#2192FF"/>
<path d="M19.1551 14.7901C19.5901 14.7901 19.9351 15.1351 19.9351 15.5701C19.9351 15.6901 19.8901 15.8251 19.8451 15.9301H18.4651C18.4036 15.8127 18.3728 15.6817 18.3757 15.5492C18.3786 15.4167 18.415 15.2871 18.4816 15.1726C18.5019 15.1982 18.5272 15.2195 18.5559 15.235C18.5847 15.2505 18.6163 15.26 18.6488 15.2629C18.6814 15.2658 18.7142 15.262 18.7452 15.2518C18.7762 15.2415 18.8048 15.2251 18.8293 15.2034C18.8537 15.1817 18.8735 15.1553 18.8873 15.1257C18.9012 15.0961 18.9089 15.064 18.9099 15.0313C18.9109 14.9987 18.9052 14.9662 18.8933 14.9358C18.8813 14.9054 18.8632 14.8777 18.8401 14.8546C18.9396 14.8116 19.0468 14.7897 19.1551 14.7901ZM25.8451 14.7901C25.7515 14.7897 25.6586 14.806 25.5707 14.8381C25.5995 14.8605 25.6229 14.8893 25.6389 14.9222C25.655 14.955 25.6633 14.9911 25.6633 15.0277C25.6633 15.0643 25.6549 15.1004 25.6388 15.1332C25.6227 15.166 25.5993 15.1948 25.5704 15.2172C25.5415 15.2396 25.5078 15.2551 25.472 15.2625C25.4362 15.27 25.3992 15.2691 25.3637 15.26C25.3283 15.2509 25.2954 15.2339 25.2676 15.2101C25.2398 15.1864 25.2177 15.1566 25.2031 15.1231C25.1222 15.2404 25.0749 15.3776 25.0664 15.5199C25.058 15.6621 25.0887 15.804 25.1551 15.9301H26.5352C26.5988 15.8116 26.6304 15.6785 26.6269 15.544C26.6234 15.4096 26.585 15.2783 26.5153 15.1633C26.4457 15.0482 26.3472 14.9532 26.2297 14.8878C26.1122 14.8224 25.9797 14.7887 25.8451 14.7901ZM22.0201 15.4501L21.2251 18.0151C21.0601 18.5401 21.4501 19.0651 22.0051 19.0651H23.1751C23.7301 19.0651 24.1201 18.5401 23.9551 18.0151L23.1751 15.4501C23.137 15.3267 23.0603 15.2188 22.9564 15.1422C22.8525 15.0656 22.7268 15.0242 22.5976 15.0242C22.4685 15.0242 22.3428 15.0656 22.2389 15.1422C22.135 15.2188 22.0583 15.3267 22.0201 15.4501ZM20.2801 19.9801C20.9251 20.3251 21.6901 20.5201 22.5001 20.5201C23.3101 20.5201 24.0751 20.3251 24.7201 19.9801C24.9301 19.8751 25.1702 20.1151 25.0352 20.3251C24.4952 21.1501 23.5651 21.7051 22.5001 21.7051C21.4351 21.7051 20.5051 21.1501 19.9651 20.3251C19.8301 20.1151 20.0551 19.8601 20.2801 19.9801Z" fill="#2192FF"/>
<path d="M17.4075 2.69729C19.7774 1.51241 22.4878 1.19611 25.0669 1.80347C27.646 2.41083 29.9304 3.90337 31.5225 6.02129C32.6064 6.12712 33.6586 6.4465 34.6185 6.96102C35.5784 7.47554 36.4268 8.17501 37.115 9.01909C37.8032 9.86317 38.3174 10.8352 38.6281 11.879C38.9387 12.9228 39.0397 14.0178 38.925 15.1008C39.3753 15.2548 39.7661 15.546 40.0427 15.9333C40.3192 16.3207 40.4676 16.7849 40.467 17.2608C40.4667 16.6869 40.6827 16.134 41.0719 15.7122C41.4611 15.2905 41.9949 15.0309 42.567 14.9853H42.72C43.315 14.9908 43.8842 15.2296 44.3049 15.6504C44.7257 16.0711 44.9645 16.6403 44.97 17.2353V27.8553C44.9688 28.8137 44.5876 29.7325 43.9099 30.4102C43.2322 31.0879 42.3134 31.4691 41.355 31.4703H40.845V32.6403C40.845 32.8233 40.8165 33.0048 40.764 33.1773C41.5057 33.2507 42.1936 33.5974 42.6938 34.15C43.194 34.7025 43.4706 35.4215 43.47 36.1668V43.5723C43.4857 44.3324 43.1991 45.0676 42.6732 45.6166C42.1473 46.1655 41.425 46.4834 40.665 46.5003H35.715C35.5544 46.5005 35.3942 46.4854 35.2365 46.4553H6C5.60218 46.4553 5.22065 46.2973 4.93934 46.016C4.65804 45.7346 4.5 45.3531 4.5 44.9553V39.7053C4.49795 36.4458 5.38293 33.2472 7.06008 30.4523C8.73724 27.6574 11.1433 25.3715 14.0205 23.8398C13.8098 23.4373 13.6332 23.0178 13.4925 22.5858C13.4434 22.5383 13.3968 22.4882 13.353 22.4358C11.33 22.2112 9.4614 21.2466 8.10656 19.7275C6.75171 18.2085 6.00626 16.2422 6.01351 14.2068C6.02077 12.1713 6.78023 10.2104 8.14588 8.70106C9.51152 7.19171 11.3869 6.24049 13.4115 6.03029C14.4666 4.62468 15.8356 3.48364 17.4075 2.69729ZM38.619 16.6128C38.5135 16.5403 38.391 16.4964 38.2635 16.4853H38.211C38.0134 16.4873 37.8245 16.5672 37.6855 16.7076C37.5465 16.848 37.4685 17.0377 37.4685 17.2353V23.9403C37.4733 24.3311 37.3283 24.7089 37.0633 24.9962C36.7983 25.2835 36.4334 25.4585 36.0435 25.4853H35.964C35.5662 25.4853 35.1846 25.3273 34.9033 25.046C34.622 24.7646 34.464 24.3831 34.464 23.9853V21.3528H34.4535V17.2653C34.4535 16.8603 34.1535 16.5153 33.7485 16.4853H33.7065C33.5089 16.4873 33.32 16.5672 33.181 16.7076C33.042 16.848 32.964 17.0377 32.964 17.2353V26.9913L33.0285 27.0453V28.3758C33.1099 28.6947 33.2643 28.9902 33.4796 29.2391C33.6949 29.488 33.9652 29.6834 34.269 29.8098C34.524 29.9148 34.7955 29.9703 35.0715 29.9703H37.089V32.6403C37.0898 32.7276 37.1248 32.8111 37.1865 32.8728C37.2482 32.9345 37.3317 32.9695 37.419 32.9703H39.015C39.1023 32.9695 39.1858 32.9345 39.2475 32.8728C39.3092 32.8111 39.3442 32.7276 39.345 32.6403V29.9703H41.355C41.6329 29.9709 41.9082 29.9166 42.1651 29.8105C42.422 29.7044 42.6553 29.5487 42.8519 29.3521C43.0484 29.1556 43.2041 28.9222 43.3102 28.6654C43.4163 28.4085 43.4706 28.1332 43.47 27.8553V17.2338C43.4662 17.0361 43.3859 16.8475 43.2461 16.7077C43.1063 16.5679 42.9177 16.4876 42.72 16.4838L42.7305 16.4853H42.678C42.4836 16.502 42.3028 16.5917 42.1719 16.7365C42.0411 16.8812 41.97 17.0702 41.973 17.2653V23.9403C41.9778 24.3311 41.8328 24.7089 41.5678 24.9962C41.3028 25.2835 40.9379 25.4585 40.548 25.4853H40.4685C40.0707 25.4853 39.6891 25.3273 39.4078 25.046C39.1265 24.7646 38.9685 24.3831 38.9685 23.9853V17.2653C38.9706 17.1353 38.9398 17.0069 38.8789 16.8921C38.8181 16.7772 38.7292 16.6796 38.6205 16.6083L38.619 16.6128ZM35.0025 31.4703C34.2971 31.4574 33.6109 31.2384 33.0285 30.8403V43.4478H33.8505C33.8895 43.2633 33.9555 43.0878 34.047 42.9273C33.8818 42.644 33.7944 42.3219 33.7939 41.9939C33.7934 41.6659 33.8797 41.3437 34.044 41.0598C33.8786 40.7744 33.7922 40.4501 33.7938 40.1203C33.7954 39.7905 33.8849 39.467 34.053 39.1833C33.8814 38.8839 33.7967 38.5426 33.8085 38.1978C33.8355 37.2258 34.6155 36.4923 35.5215 36.3993C35.5842 36.3831 35.6487 36.375 35.7135 36.3753H35.9685V33.7683C35.716 33.4471 35.5787 33.0504 35.5785 32.6418V32.4168C35.3988 32.0939 35.2067 31.7782 35.0025 31.4703ZM35.8635 37.8753C35.8141 37.8853 35.7639 37.8904 35.7135 37.8903C35.4705 37.8903 35.313 38.0793 35.3085 38.2383V38.2473C35.3081 38.313 35.3239 38.3777 35.3545 38.4358C35.3851 38.4939 35.4296 38.5435 35.484 38.5803C35.5849 38.6507 35.6669 38.7449 35.7228 38.8545C35.7787 38.9641 35.8067 39.0858 35.8045 39.2088C35.8023 39.3318 35.7699 39.4524 35.71 39.5599C35.6502 39.6674 35.5649 39.7585 35.4615 39.8253C35.4112 39.8578 35.3695 39.9021 35.3403 39.9544C35.311 40.0067 35.2949 40.0654 35.2935 40.1253C35.2935 40.2603 35.358 40.3608 35.448 40.4178C35.5554 40.4842 35.6442 40.5767 35.7063 40.6866C35.7684 40.7966 35.8018 40.9204 35.8033 41.0467C35.8048 41.1729 35.7744 41.2975 35.7149 41.4089C35.6554 41.5203 35.5688 41.6148 35.463 41.6838C35.4122 41.7163 35.3701 41.7608 35.3406 41.8134C35.311 41.8659 35.2948 41.925 35.2935 41.9853C35.2935 42.1203 35.358 42.2208 35.448 42.2778C35.5452 42.3381 35.6273 42.4199 35.688 42.5169C35.7487 42.6138 35.7865 42.7234 35.7984 42.8372C35.8102 42.9509 35.7959 43.0659 35.7565 43.1733C35.7171 43.2807 35.6536 43.3777 35.571 43.4568C35.6385 43.4643 35.706 43.4763 35.7705 43.4928H40.4685V37.8753H35.8635ZM37.47 34.5003V36.3753H38.97V34.5003H37.47ZM28.485 43.4478V39.4503C28.4785 39.2509 28.3953 39.0616 28.2528 38.922C28.1103 38.7823 27.9195 38.7029 27.72 38.7003H17.31C16.89 38.7003 16.56 39.0303 16.56 39.4503V43.4478H28.485ZM12 43.4478V29.0028C10.5773 30.3969 9.44713 32.061 8.67571 33.8974C7.90429 35.7339 7.50713 37.7059 7.5075 39.6978V43.4478H12ZM15.09 26.6763V33.8553C15.09 34.2003 15.36 34.4703 15.705 34.4703H29.31C29.655 34.4703 29.925 34.2003 29.925 33.8553V26.7003C29.4584 26.4335 28.9777 26.1922 28.485 25.9773V31.6053C28.485 32.2953 27.72 32.6853 27.165 32.2953L24.2085 30.2193L23.3835 30.9543C23.1333 31.175 22.8111 31.2968 22.4775 31.2968C22.1439 31.2968 21.8217 31.175 21.5715 30.9543L21.5655 30.9498L20.754 30.2253L17.805 32.2953C17.68 32.3823 17.5338 32.4338 17.3818 32.4441C17.2299 32.4544 17.078 32.4233 16.9424 32.3539C16.8069 32.2846 16.6927 32.1797 16.6121 32.0505C16.5315 31.9212 16.4876 31.7726 16.485 31.6203V25.9788C16.0065 26.1873 15.54 26.4198 15.09 26.6763ZM28.962 21.0378C29.0385 20.7828 29.097 20.5203 29.133 20.2503L29.307 17.6703L29.955 17.6208C30.3761 17.5891 30.7716 17.4066 31.069 17.1069C31.3664 16.8072 31.5458 16.4102 31.5742 15.9889C31.6027 15.5677 31.4783 15.1502 31.2238 14.8132C30.9694 14.4763 30.602 14.2423 30.189 14.1543L29.538 14.0148L29.6115 13.2138C29.6205 12.8656 29.5477 12.5201 29.3989 12.2052C29.2502 11.8902 29.0296 11.6146 28.755 11.4003H26.2995C25.7032 11.3991 25.1173 11.2442 24.5985 10.9503H17.715C16.443 10.9503 15.456 12.0303 15.567 13.2843L15.5685 13.3023L15.57 13.3368L15.615 14.0418L14.9145 14.1288C14.471 14.1841 14.0654 14.4065 13.7803 14.7507C13.4952 15.0948 13.3521 15.5347 13.3802 15.9808C13.4083 16.4268 13.6056 16.8452 13.9316 17.1508C14.2577 17.4564 14.6881 17.6261 15.135 17.6253H15.141L15.846 17.6223L16.017 20.2518C16.1875 21.4914 16.8015 22.6273 17.7453 23.4489C18.6891 24.2705 19.8987 24.7222 21.15 24.7203H24C25.0679 24.7193 26.1095 24.3889 26.9828 23.7742C27.856 23.1595 28.5184 22.2903 28.8795 21.2853L28.881 21.2823C28.9009 21.1986 28.928 21.1168 28.962 21.0378ZM22.485 27.2403C23.382 27.2403 24.117 26.8068 24.51 26.2008C24.3403 26.2138 24.1702 26.2203 24 26.2203H21.15C20.91 26.2203 20.6715 26.2068 20.4375 26.1828C20.8245 26.7978 21.5655 27.2403 22.485 27.2403ZM22.485 28.7403C22.0275 28.7403 21.585 28.6653 21.1695 28.5258C21.3 28.6803 21.4395 28.8258 21.591 28.9608L22.4775 29.7528L23.364 28.9623C23.514 28.8273 23.652 28.6833 23.781 28.5303C23.3715 28.6653 22.935 28.7403 22.485 28.7403Z" fill="#2192FF"/>
</svg>
