<svg width="97" height="100" viewBox="0 0 97 100" fill="none" xmlns="http://www.w3.org/2000/svg">
<g clip-path="url(#clip0_244_57223)">
<path d="M48.4999 96.4891C75.1447 96.4891 96.7445 74.8893 96.7445 48.2446C96.7445 21.5998 75.1447 0 48.4999 0C21.8552 0 0.255371 21.5998 0.255371 48.2446C0.255371 74.8893 21.8552 96.4891 48.4999 96.4891Z" fill="#8FC8FF"/>
<path d="M17.905 75.444L9.73875 76.207C9.45401 76.2334 9.16877 76.1621 8.92994 76.0048C8.6911 75.8476 8.51291 75.6137 8.42466 75.3417L2.85914 58.0691C2.79963 57.8902 2.78147 57.7002 2.80603 57.5132C2.83059 57.3263 2.89722 57.1474 3.00091 56.9899C3.10461 56.8325 3.24266 56.7006 3.40468 56.6042C3.5667 56.5078 3.74848 56.4494 3.93633 56.4334L12.1051 55.6704C12.3898 55.6422 12.6755 55.7128 12.9143 55.8704C13.1532 56.0279 13.3305 56.2628 13.4167 56.5356L18.9847 73.8057C19.0422 73.9849 19.0588 74.1748 19.0333 74.3613C19.0077 74.5478 18.9407 74.7262 18.8371 74.8833C18.7335 75.0405 18.596 75.1725 18.4347 75.2695C18.2734 75.3665 18.0924 75.4261 17.905 75.444Z" fill="#3A222B"/>
<path d="M5.09588 58.0292C5.09343 58.1273 5.06211 58.2225 5.00584 58.3028C4.94958 58.3832 4.87086 58.4452 4.77955 58.481C4.68823 58.5168 4.58837 58.525 4.49247 58.5043C4.39657 58.4837 4.30888 58.4352 4.24037 58.365C4.17187 58.2948 4.1256 58.206 4.10734 58.1096C4.08909 58.0132 4.09967 57.9136 4.13775 57.8232C4.17584 57.7328 4.23974 57.6556 4.32145 57.6013C4.40317 57.5471 4.49908 57.5181 4.59718 57.5181C4.66373 57.518 4.72962 57.5313 4.79095 57.5572C4.85228 57.583 4.90782 57.6209 4.9543 57.6685C5.00078 57.7162 5.03725 57.7726 5.06156 57.8346C5.08588 57.8965 5.09755 57.9627 5.09588 58.0292Z" fill="white"/>
<path d="M33.8084 79.9245L23.9192 75.0547L18.2115 83.4503C14.8477 78.2364 13.4239 75.0547 13.4239 75.0547L14.4213 69.948C14.4751 69.6702 14.4716 69.3844 14.411 69.1081C14.3505 68.8318 14.2341 68.5707 14.069 68.341C13.9039 68.1112 13.6937 67.9176 13.4511 67.7721C13.2086 67.6265 12.9388 67.532 12.6584 67.4943L8.15015 66.2476L12.5712 63.1681C12.869 62.9491 13.0699 62.6229 13.1316 62.2585C13.1933 61.894 13.1108 61.5199 12.9016 61.2151C12.6924 60.9104 12.3729 60.699 12.0106 60.6255C11.6483 60.5521 11.2717 60.6225 10.9603 60.8217L5.31253 64.8861C5.08764 65.048 4.90453 65.2612 4.77835 65.5079C4.65218 65.7546 4.58655 66.0278 4.58692 66.3049V68.589C5.60676 75.3838 9.29218 77.2066 9.29218 77.2066C9.29218 77.2066 11.095 84.3106 11.6136 88.4274C12.0675 92.0231 15.1295 98.9625 17.6155 99.8652C19.0917 100.404 21.8545 99.4512 23.1886 97.1921L33.8084 79.9245Z" fill="#F0A76E"/>
<path d="M31.0532 84.6749C30.8487 89.834 30.6393 95.0804 30.4473 99.9427H68.5532L68.3038 90.1158L69.1791 76.9799L73.5452 82.3809C73.6369 82.4942 73.7668 82.5701 73.9105 82.5944C74.0542 82.6188 74.2018 82.5898 74.3257 82.513L88.2894 73.7982C88.3578 73.7555 88.4169 73.6993 88.4631 73.6332C88.5092 73.5671 88.5416 73.4923 88.5581 73.4133C88.5746 73.3343 88.575 73.2529 88.5593 73.1737C88.5435 73.0946 88.5119 73.0195 88.4664 72.9529L78.4101 58.281C77.2203 56.544 75.625 55.1231 73.7623 54.1416C71.8997 53.1601 69.8258 52.6475 67.7203 52.6482H56.2252L41.142 53.3239L36.9628 54.4111C33.0641 55.7181 29.805 58.4533 27.8415 62.0662L21.2138 74.257C21.1896 74.3014 21.1745 74.3502 21.1694 74.4005C21.1643 74.4508 21.1694 74.5016 21.1842 74.55C21.1991 74.5983 21.2235 74.6432 21.256 74.6819C21.2885 74.7207 21.3284 74.7526 21.3734 74.7757L31.3823 79.9323C31.2452 81.4658 31.118 83.0367 31.0532 84.6749Z" fill="white"/>
<path d="M70.6598 52.992C69.9693 52.8318 69.2673 52.726 68.5603 52.6753H68.4082H68.1888C68.0342 52.6753 67.882 52.6753 67.7299 52.6753H64.6829C60.3791 52.6753 60.1521 69.8806 60.1521 69.8806L36.8228 68.923C36.8228 68.923 36.8228 66.4969 37.8551 62.0559C38.7827 58.0663 41.1416 53.351 41.1416 53.351L38.9498 53.9196C38.3189 54.9943 37.7479 55.9742 37.3564 56.6824C35.2993 60.3927 32.0577 68.1525 31.372 79.9593C31.3421 80.488 31.2897 81.059 31.2298 81.615C31.1525 82.6125 31.0852 83.6473 31.0428 84.702C30.9905 86.0261 30.9381 87.3551 30.8857 88.6917C30.8533 89.502 30.8209 90.3074 30.7885 91.1129C30.7386 92.3895 30.6863 93.6612 30.6364 94.918C30.5965 95.9553 30.5566 96.9851 30.5142 97.9999C30.5142 98.0598 30.5142 98.1196 30.5142 98.1795C30.4893 98.7854 30.4643 99.3814 30.4419 99.9773H68.5528L68.3035 90.1504L69.1787 77.0145C69.1787 77.0145 67.134 74.6357 67.0567 72.399C66.937 68.6862 65.9172 54.2238 70.6598 52.992Z" fill="#2192FF"/>
<path d="M76.6274 99.9427H88.8133L92.3266 96.2548C93.2513 95.2844 93.8704 94.0637 94.1071 92.7444C94.3439 91.4251 94.1877 90.0654 93.6582 88.8341L86.7262 74.7881L76.7521 81.0019L83.6143 89.9786L76.6274 99.9427Z" fill="#F0A76E"/>
<path d="M60.1918 21.631C60.0905 20.921 59.9312 20.2205 59.7156 19.5365C57.2794 11.7841 48.2454 7.34069 39.5355 9.61229C34.753 10.859 31.0576 13.8737 29.1126 17.6215C21.9737 18.7186 17.0565 21.4091 16.5827 25.102C15.8072 31.1488 27.2151 37.597 42.064 39.5046C56.9129 41.4121 69.5824 38.0558 70.3579 32.0091C70.8317 28.3286 66.7847 24.4961 60.1918 21.631Z" fill="#CDAB5D"/>
<path d="M55.7611 46.1774L55.6813 41.3301C55.9458 40.386 56.1482 39.4256 56.2872 38.455C56.4654 38.5273 56.6559 38.5646 56.8482 38.5647C58.095 38.5647 59.1148 36.9714 59.1148 35.0065C59.1148 33.0416 58.1 31.4457 56.8482 31.4457C56.7281 31.4459 56.6084 31.4601 56.4917 31.4881C56.367 29.7427 56.165 28.6256 56.165 28.6256C56.0436 27.948 55.8557 27.284 55.604 26.6432C52.0632 25.0698 44.8569 22.7184 36.733 24.8978C34.4764 25.5037 32.9354 25.9351 31.8582 26.364C30.9 28.4215 30.5955 30.7233 30.9855 32.9593C30.9855 32.9593 33.2646 49.3991 43.7498 50.2643C43.7498 51.2892 43.6949 52.1569 43.4157 52.6431C43.3907 52.688 41.1516 53.3189 41.1516 53.3189C41.1516 53.3189 39.5258 64.5397 49.6869 64.5397C59.8479 64.5397 58.0376 52.6456 58.0376 52.6456C56.5129 50.8408 55.7029 48.5394 55.7611 46.1774Z" fill="#F0A76E"/>
<path d="M56.6263 36.4627C56.5837 36.4717 56.5397 36.4722 56.4969 36.464C56.4541 36.4559 56.4133 36.4393 56.377 36.4153C56.3127 36.3755 56.2635 36.3154 56.2373 36.2445C56.2111 36.1735 56.2094 36.0959 56.2324 36.0239L57.125 33.1987C57.1545 33.1149 57.2154 33.0458 57.2949 33.0061C57.3744 32.9665 57.4662 32.9594 57.5509 32.9863C57.6356 33.0132 57.7064 33.0721 57.7484 33.1504C57.7904 33.2287 57.8003 33.3202 57.7758 33.4057L57.2771 34.9491L57.7983 34.4504C57.8627 34.3868 57.9496 34.3511 58.0402 34.3511C58.1307 34.3511 58.2176 34.3868 58.282 34.4504C58.3142 34.482 58.3397 34.5196 58.3571 34.5612C58.3745 34.6027 58.3835 34.6473 58.3835 34.6923C58.3835 34.7373 58.3745 34.7819 58.3571 34.8235C58.3397 34.865 58.3142 34.9026 58.282 34.9342L56.7859 36.3655C56.7431 36.4124 56.6877 36.4461 56.6263 36.4627Z" fill="#3A222B"/>
<path d="M37.8308 37.6047C37.953 38.3154 37.6014 38.9711 37.0454 39.0659C36.4893 39.1606 35.9382 38.6644 35.8136 37.9538C35.6889 37.2431 36.043 36.5873 36.599 36.4901C37.1551 36.3928 37.7062 36.894 37.8308 37.6047Z" fill="#3A222B"/>
<path d="M47.2031 35.4729C47.3277 36.1835 46.9762 36.8368 46.4201 36.9341C45.864 37.0313 45.3105 36.5301 45.1883 35.8195C45.0661 35.1088 45.4177 34.453 45.9738 34.3583C46.5298 34.2635 47.0759 34.7597 47.2031 35.4729Z" fill="#3A222B"/>
<path d="M42.334 40.2828L42.2991 40.2654C41.6558 39.8614 41.3441 39.4176 41.374 38.9488C41.4164 38.2431 42.2143 37.8492 42.3066 37.8068C42.347 37.7874 42.3909 37.7762 42.4356 37.7739C42.4804 37.7716 42.5251 37.7781 42.5673 37.7932C42.6095 37.8083 42.6483 37.8316 42.6815 37.8617C42.7146 37.8919 42.7414 37.9283 42.7604 37.9689C42.7983 38.051 42.8026 38.1448 42.7723 38.23C42.742 38.3153 42.6796 38.3853 42.5984 38.4252C42.4263 38.505 42.0697 38.7518 42.0573 38.9912C42.0448 39.1857 42.2592 39.4326 42.6632 39.6844C42.7401 39.7294 42.7963 39.8025 42.82 39.8884C42.8437 39.9742 42.833 40.0659 42.7901 40.1439C42.7472 40.2219 42.6755 40.2801 42.5903 40.3061C42.5051 40.332 42.4132 40.3237 42.334 40.2828Z" fill="#3A222B"/>
<path d="M33.4889 35.2408C33.4171 35.2532 33.3432 35.2423 33.2781 35.2097C33.2129 35.177 33.1599 35.1244 33.1267 35.0595C33.0936 34.9946 33.0821 34.9209 33.0938 34.8489C33.1056 34.777 33.1401 34.7108 33.1922 34.6598C33.272 34.58 35.212 32.7299 37.5085 33.6624C37.5539 33.6759 37.596 33.6987 37.6321 33.7293C37.6682 33.7599 37.6976 33.7977 37.7183 33.8402C37.7391 33.8828 37.7508 33.9292 37.7526 33.9765C37.7545 34.0238 37.7465 34.071 37.7291 34.1151C37.7118 34.1591 37.6855 34.1991 37.6519 34.2324C37.6183 34.2658 37.5781 34.2918 37.5339 34.3088C37.4897 34.3258 37.4424 34.3334 37.3952 34.3311C37.3479 34.3289 37.3015 34.3169 37.2591 34.2958C35.3716 33.5203 33.6959 35.1236 33.6785 35.1386C33.6285 35.1929 33.5618 35.229 33.4889 35.2408Z" fill="#3A222B"/>
<path d="M47.849 31.6924C47.7733 31.7198 47.6904 31.7198 47.6146 31.6924C47.5249 31.6575 45.4104 30.8845 43.994 32.3382C43.9309 32.4043 43.8441 32.4427 43.7526 32.4448C43.6612 32.4469 43.5727 32.4126 43.5066 32.3494C43.4404 32.2863 43.4021 32.1994 43.4 32.108C43.3979 32.0166 43.4322 31.9281 43.4953 31.8619C45.2283 30.0841 47.7343 31.0116 47.849 31.054C47.9145 31.0782 47.971 31.1219 48.0109 31.1792C48.0508 31.2365 48.0722 31.3046 48.0722 31.3744C48.0722 31.4443 48.0508 31.5124 48.0109 31.5697C47.971 31.627 47.9145 31.6707 47.849 31.6949V31.6924Z" fill="#3A222B"/>
<path d="M43.2141 45.0726C42.1091 45.0433 41.038 44.6857 40.1371 44.0453C40.0761 43.9889 40.0385 43.9116 40.0318 43.8287C40.0251 43.7459 40.0498 43.6636 40.1009 43.598C40.152 43.5325 40.2258 43.4886 40.3078 43.4749C40.3898 43.4612 40.4739 43.4788 40.5435 43.5242C40.6408 43.599 42.9223 45.332 45.2812 43.7735C47.6401 42.2151 47.4356 40.7813 47.4256 40.7215C47.4111 40.6359 47.431 40.548 47.481 40.477C47.531 40.406 47.607 40.3577 47.6924 40.3424C47.776 40.3254 47.863 40.3421 47.9344 40.3888C48.0058 40.4354 48.056 40.5084 48.0739 40.5918C48.0889 40.6691 48.4006 42.4968 45.6452 44.3121C44.9286 44.8019 44.0821 45.0667 43.2141 45.0726Z" fill="#3A222B"/>
<path d="M29.1579 29.8548C29.103 31.4557 29.906 34.4429 31.5741 35.8542C31.1403 34.1312 30.9757 32.9642 30.9757 32.9642C30.5866 30.7328 30.8893 28.4357 31.8434 26.3813H31.8185C30.851 26.7703 30.26 27.1568 29.871 27.6705C29.4346 28.318 29.1876 29.0745 29.1579 29.8548Z" fill="#3A222B"/>
<path d="M57.5814 20.913C57.5229 20.9229 57.4628 20.9177 57.4068 20.8981C53.3336 19.4679 49.1187 18.479 44.8345 17.9482C40.2748 17.3338 35.6592 17.2502 31.0803 17.6989C30.9901 17.708 30.9 17.6811 30.8295 17.6242C30.759 17.5672 30.7138 17.4848 30.7038 17.3947C30.6971 17.3499 30.6998 17.3042 30.7116 17.2605C30.7234 17.2168 30.7442 17.176 30.7725 17.1406C30.8008 17.1053 30.8361 17.0762 30.8762 17.0551C30.9163 17.034 30.9603 17.0214 31.0055 17.0182C35.6383 16.5644 40.3081 16.6481 44.9218 17.2675C49.2553 17.8087 53.5185 18.8118 57.6387 20.2597C57.7098 20.2852 57.7704 20.3334 57.8111 20.397C57.8519 20.4605 57.8704 20.5358 57.8639 20.611C57.8573 20.6862 57.826 20.7571 57.7749 20.8126C57.7238 20.8682 57.6558 20.9052 57.5814 20.918V20.913Z" fill="#3A222B"/>
<path d="M46.6428 50.1246C45.6833 50.2926 44.7062 50.337 43.7354 50.2567C43.7479 51.2816 43.6855 52.1593 43.4062 52.648C43.4062 52.6605 51.3855 53.6205 53.9239 45.3445V45.332C52.4228 47.6859 50.1313 49.5236 46.6428 50.1246Z" fill="#3A222B"/>
<path d="M57.8958 27.8079C57.1539 27.3755 56.387 26.9875 55.5993 26.6459V26.6633L55.5868 26.6434C52.9137 25.454 48.1536 23.8282 42.4858 24.0377C42.5656 24.2671 45.0168 30.9721 56.4745 31.5008C56.5908 31.4688 56.7105 31.4503 56.831 31.4459C57.115 31.4623 57.3913 31.5442 57.6383 31.6853C57.8853 31.8263 58.0964 32.0226 58.2548 32.2588C58.368 30.7655 58.2469 29.2637 57.8958 27.8079Z" fill="#3A222B"/>
</g>
<defs>
<clipPath id="clip0_244_57223">
<rect width="96.4891" height="100" fill="white" transform="translate(0.255371)"/>
</clipPath>
</defs>
</svg>
