<svg width="95" height="102" viewBox="0 0 95 102" fill="none" xmlns="http://www.w3.org/2000/svg">
<g clip-path="url(#clip0_244_57258)">
<path d="M47.5 95.9456C73.7335 95.9456 95 74.6791 95 48.4456C95 22.212 73.7335 0.945557 47.5 0.945557C21.2665 0.945557 0 22.212 0 48.4456C0 74.6791 21.2665 95.9456 47.5 95.9456Z" fill="#D3EAD5"/>
<path d="M35.5932 54.8604C35.5266 54.8608 35.4611 54.8767 35.4018 54.907L21.3786 61.9628C21.277 62.0148 21.1999 62.1048 21.164 62.2132C21.1282 62.3216 21.1365 62.4398 21.1871 62.5422L33.6587 87.3233C33.6834 87.3736 33.7178 87.4187 33.7599 87.4557C33.8021 87.4928 33.8511 87.5212 33.9042 87.5393C34.0129 87.5739 34.1308 87.5651 34.2332 87.5148L48.2539 80.459C48.3043 80.4344 48.3494 80.4 48.3864 80.3579C48.4235 80.3157 48.4519 80.2667 48.4699 80.2135C48.4877 80.1597 48.4947 80.103 48.4905 80.0466C48.4862 79.9901 48.4709 79.935 48.4454 79.8845L35.9738 55.1034C35.9236 55.0018 35.8354 54.9242 35.7283 54.8874C35.6848 54.8718 35.6393 54.8627 35.5932 54.8604Z" fill="#E3F7F1"/>
<path d="M65.2601 33.8258C65.2601 30.0277 63.7515 26.385 61.066 23.6991C58.3805 21.0131 54.7381 19.5038 50.9399 19.5032C45.8163 19.5032 40.835 22.1301 38.3039 26.1735C37.3366 27.482 35.8979 31.1106 34.9135 34.8545C34.9135 34.8545 31.7219 35.8537 31.1352 36.8333C30.5484 37.8128 32.8537 39.5657 32.8537 39.5657C32.8537 39.5657 32.3185 47.0167 34.3267 48.3326C34.8475 48.6551 35.4004 48.9224 35.9765 49.1305C38.0104 49.8903 40.1664 50.2706 42.3375 50.2525L45.669 58.7985L56.5963 54.539L53.9744 47.8097C57.1693 47.1174 60.0311 45.3527 62.0842 42.8088C64.1373 40.2648 65.2581 37.0949 65.2601 33.8258Z" fill="#F0A76E"/>
<path d="M38.9536 35.2427C38.6639 35.8712 38.0305 36.2001 37.5371 35.9792C37.0436 35.7582 36.8791 35.0585 37.1688 34.4276C37.4585 33.7967 38.0944 33.4701 38.5878 33.6911C39.0813 33.912 39.2359 34.6117 38.9536 35.2427Z" fill="#3A222B"/>
<path d="M40.859 33.286C40.791 33.2649 40.7338 33.2182 40.6994 33.1558C40.6553 33.0797 39.629 31.3293 37.8811 31.7025C37.8429 31.7102 37.8036 31.7099 37.7657 31.7014C37.7277 31.693 37.6919 31.6767 37.6607 31.6535C37.6294 31.6304 37.6034 31.6009 37.5842 31.567C37.5651 31.5332 37.5533 31.4957 37.5496 31.457C37.5374 31.3742 37.5555 31.2899 37.6006 31.2195C37.6458 31.1491 37.7149 31.0974 37.7951 31.074C39.931 30.6173 41.1487 32.7066 41.2003 32.7925C41.2402 32.8678 41.2521 32.9549 41.2336 33.0381C41.2152 33.1214 41.1677 33.1953 41.0996 33.2467C41.0648 33.2703 41.0252 33.2861 40.9836 33.2929C40.9421 33.2996 40.8996 33.2973 40.859 33.286Z" fill="#3A222B"/>
<path d="M36.2089 41.8562C35.1263 41.5714 33.6508 41.2449 32.8014 41.0608C32.7724 42.3209 32.8282 43.5815 32.9683 44.8342C35.1508 44.5568 36.2089 41.8562 36.2089 41.8562Z" fill="white"/>
<path d="M34.0468 89.4397C33.7965 89.4404 33.5478 89.4006 33.3102 89.3218C33.0221 89.2274 32.7554 89.0769 32.5258 88.8788C32.2961 88.6808 32.108 88.4392 31.9722 88.168L19.5007 63.3869C19.2258 62.8396 19.1794 62.2055 19.3719 61.6241C19.5643 61.0426 19.9797 60.5614 20.5269 60.2862L34.5476 53.2304C34.8182 53.0939 35.113 53.0121 35.4153 52.9897C35.7175 52.9673 36.0212 53.0047 36.309 53.0998C36.5968 53.1949 36.863 53.3458 37.0923 53.5439C37.3217 53.7419 37.5098 53.9833 37.6458 54.2541L50.1174 79.0352C50.3925 79.5822 50.4392 80.2161 50.2472 80.7975C50.0553 81.3789 49.6404 81.8603 49.0937 82.136L35.0828 89.1942C34.7614 89.356 34.4065 89.4401 34.0468 89.4397ZM35.5934 54.8605C35.5268 54.8609 35.4613 54.8769 35.4019 54.9072L21.3788 61.9629C21.2771 62.015 21.2001 62.1049 21.1642 62.2134C21.1284 62.3218 21.1367 62.44 21.1873 62.5423L33.6589 87.3234C33.6836 87.3738 33.718 87.4188 33.7601 87.4559C33.8022 87.493 33.8513 87.5214 33.9044 87.5395C34.0131 87.5741 34.131 87.5653 34.2333 87.5149L48.254 80.4592C48.3045 80.4346 48.3495 80.4002 48.3866 80.358C48.4237 80.3159 48.4521 80.2668 48.4701 80.2137C48.4879 80.1599 48.4948 80.1032 48.4906 80.0467C48.4864 79.9903 48.4711 79.9352 48.4455 79.8847L35.974 55.1036C35.9238 55.002 35.8356 54.9244 35.7285 54.8875C35.685 54.872 35.6395 54.8629 35.5934 54.8605Z" fill="#3A222B"/>
<path d="M67.813 88.433H75.6421C75.6336 88.2609 75.6139 88.0895 75.5832 87.9199C75.3131 81.4043 72.3671 69.7355 71.0586 65.2281C70.1428 62.0733 55.5035 51.853 55.5035 51.853L43.8666 56.1248L42.5949 59.7337C38.6374 61.6265 34.6676 68.2134 33.6979 71.2723L33.6488 71.4737C33.5702 71.7462 33.5015 72.0211 33.4499 72.2986L29.6323 88.0648L37.7045 92.0935C37.6824 92.2064 37.6775 92.3218 37.6505 92.4372V101.052H68.3458L67.813 88.433Z" fill="#407BFF"/>
<path d="M74.6944 49.5824C74.6944 45.1094 70.3269 45.102 67.975 38.9227C65.6231 32.7434 69.8237 22.0492 58.7024 18.0868C49.1449 14.6841 40.1079 17.4976 37.8812 22.6998C36.5751 24.7228 36.7053 29.3947 36.7053 29.3947C36.9729 28.6778 37.6873 27.5853 38.4017 26.5739C39.8747 27.8627 42.5384 30.6247 43.1841 34.371C44.0925 39.642 38.6374 43.1846 39.256 48.2985C39.8747 53.4123 48.0254 55.9287 44.392 61.0916C38.8681 68.9281 58.4028 70.1753 62.2548 68.5746C66.1067 66.9739 71.1126 63.365 70.4374 58.2512C69.7623 53.1373 74.6969 53.8886 74.6944 49.5824Z" fill="#3A222B"/>
<path d="M67.8492 31.923C71.1365 26.2765 68.5464 18.5799 62.0111 14.6543C55.4758 10.7287 47.4577 12.0594 44.0231 17.6126L30.486 16.1985C30.1973 16.1685 29.9058 16.218 29.6431 16.3416C29.3804 16.4652 29.1564 16.6582 28.9954 16.8998C28.8344 17.1414 28.7425 17.4225 28.7296 17.7125C28.7167 18.0025 28.7833 18.2906 28.9222 18.5456C30.8052 22.0489 35.8233 28.7339 48.8546 36.5606C61.8859 44.3872 70.1398 45.6761 74.1194 45.6933C74.4096 45.6956 74.695 45.6187 74.9448 45.4709C75.1946 45.323 75.3994 45.1098 75.537 44.8542C75.6746 44.5987 75.7399 44.3104 75.7259 44.0205C75.7119 43.7305 75.619 43.4499 75.4574 43.2088L67.8492 31.923Z" fill="#8FC8FF"/>
<path d="M53.7205 26.8193C52.3408 25.8373 51.6853 25.8815 51.8596 26.0828C56.8311 31.9381 67.3902 32.3923 67.837 32.4094H67.8542C67.9512 32.4065 68.0452 32.3749 68.1242 32.3186L67.8542 31.9184C67.9376 31.776 67.999 31.6263 68.0751 31.4814C68.0117 31.4495 67.9423 31.4311 67.8714 31.4274C67.7953 31.4274 62.3647 31.1819 57.5749 29.0068C55.6968 28.1573 55.4391 28.0444 53.7205 26.8193Z" fill="#3A222B"/>
<path d="M75.6421 88.4329H67.813L68.2058 97.6441C70.1281 96.3577 72.1682 94.9019 73.4006 93.7627C74.1495 93.0989 74.7397 92.2753 75.1277 91.3528C75.5156 90.4303 75.6914 89.4324 75.6421 88.4329Z" fill="#F0A76E"/>
<path d="M37.6974 92.0962L29.6253 88.0675L30.5263 84.3407L27.2611 78.7874L22.5965 69.4927L21.4034 72.4731C20.2127 75.456 23.7897 80.2408 23.7897 80.2408C23.7897 80.2408 26.176 98.1208 32.9519 99.724C34.9724 100.2 36.4945 99.233 37.6361 97.6446V92.4399C37.6704 92.3245 37.6753 92.2091 37.6974 92.0962Z" fill="#F0A76E"/>
</g>
<defs>
<clipPath id="clip0_244_57258">
<rect width="95" height="100.109" fill="white" transform="translate(0 0.945557)"/>
</clipPath>
</defs>
</svg>
