<svg width="95" height="102" viewBox="0 0 95 102" fill="none" xmlns="http://www.w3.org/2000/svg">
<g clip-path="url(#clip0_244_57189)">
<path d="M81.0869 82.0356C99.6368 63.4857 99.6368 33.4103 81.0869 14.8604C62.537 -3.68949 32.4617 -3.68948 13.9118 14.8604C-4.63811 33.4103 -4.63812 63.4857 13.9118 82.0356C32.4617 100.585 62.537 100.585 81.0869 82.0356Z" fill="#2192FF" fill-opacity="0.5"/>
<path d="M65.4486 23.9738C65.4688 23.2715 65.4319 22.5686 65.3381 21.8723C64.28 13.9916 56.3084 8.20268 47.5317 8.9441C42.7125 9.34918 38.6543 11.6446 36.1502 14.9295C29.0821 14.7994 23.8946 16.5743 22.8218 20.0605C21.0664 25.7611 30.9921 33.8774 44.9932 38.1885C58.9943 42.4995 71.7678 41.38 73.5231 35.6721C74.5886 32.2006 71.3284 27.8331 65.4486 23.9738Z" fill="#797979"/>
<path d="M63.0503 22.8443C62.9926 22.8442 62.9359 22.8289 62.8859 22.8001C59.1995 20.7454 55.3042 19.0903 51.2662 17.863C46.9708 16.5147 42.5336 15.6686 38.0434 15.3417C37.9552 15.3361 37.8729 15.2956 37.8144 15.2294C37.756 15.1631 37.7262 15.0764 37.7316 14.9882C37.7327 14.9439 37.743 14.9003 37.7617 14.8601C37.7804 14.8199 37.8071 14.7839 37.8402 14.7545C37.8734 14.725 37.9122 14.7027 37.9543 14.6888C37.9964 14.675 38.041 14.6699 38.0851 14.674C42.6237 15.0054 47.1086 15.8614 51.4503 17.2247C55.5398 18.4651 59.4846 20.14 63.2173 22.2207C63.2812 22.2574 63.3312 22.3141 63.3595 22.3821C63.3878 22.4501 63.3929 22.5256 63.3738 22.5968C63.3548 22.6679 63.3127 22.7308 63.2542 22.7756C63.1957 22.8204 63.124 22.8445 63.0503 22.8443Z" fill="#3A222B"/>
<path d="M80.1839 76.1581L77.4834 63.4557C76.8887 60.7858 75.3837 58.4059 73.2264 56.724C71.7804 55.5702 68.633 54.706 66.777 54.1954L57.6492 51.6814H41.1415L32.0113 54.1954C30.1872 54.6908 28.4826 55.551 27.0005 56.724C24.8423 58.405 23.3371 60.7853 22.7435 63.4557L20.043 76.1581H29.7944V99.0267H73.4449V76.1581H80.1839Z" fill="#2192FF"/>
<path d="M51.6661 87.8857H32.2271C32.0573 87.8857 31.8896 87.8477 31.7363 87.7747C31.583 87.7016 31.4479 87.5953 31.3409 87.4634L14.9437 67.2585C14.8771 67.1724 14.8347 67.07 14.8209 66.962C14.807 66.854 14.8223 66.7443 14.8651 66.6442C14.9079 66.544 14.9767 66.4572 15.0643 66.3925C15.1519 66.3279 15.2552 66.2878 15.3635 66.2765L34.5373 64.5432C34.8746 64.5132 35.2139 64.5701 35.5229 64.7085C35.832 64.8468 36.1003 65.0621 36.3025 65.3337L52.2479 86.7465C52.3279 86.8532 52.3764 86.9801 52.3878 87.1129C52.3992 87.2457 52.3731 87.379 52.3125 87.4977C52.2519 87.6164 52.1592 87.7157 52.0449 87.7843C51.9306 87.8529 51.7994 87.888 51.6661 87.8857Z" fill="#3A222B"/>
<path d="M18.1231 67.9214C18.1231 68.0185 18.0943 68.1135 18.0404 68.1942C17.9864 68.275 17.9097 68.3379 17.82 68.3751C17.7303 68.4122 17.6316 68.4219 17.5363 68.403C17.4411 68.384 17.3536 68.3373 17.2849 68.2686C17.2163 68.1999 17.1695 68.1125 17.1506 68.0172C17.1316 67.922 17.1413 67.8232 17.1785 67.7335C17.2156 67.6438 17.2786 67.5671 17.3593 67.5132C17.4401 67.4592 17.535 67.4304 17.6321 67.4304C17.7623 67.4304 17.8872 67.4822 17.9793 67.5742C18.0714 67.6663 18.1231 67.7912 18.1231 67.9214Z" fill="white"/>
<path d="M24.9112 83.4912C24.8694 83.6298 24.8609 83.7764 24.8865 83.9189C24.9121 84.0614 24.9711 84.1958 25.0585 84.3112L29.8041 90.4488V85.5682L25.5397 80.3193C25.4534 81.3974 25.2425 82.4617 24.9112 83.4912Z" fill="#F0A76E"/>
<path d="M14.8726 73.3222C15.0616 73.0374 16.5101 71.2526 16.9201 70.7444C16.9926 70.6568 17.0809 70.5835 17.1803 70.5284L21.2851 68.2427C21.4601 68.1452 21.6625 68.1085 21.8607 68.1382C22.0588 68.168 22.2415 68.2626 22.3801 68.4072C22.4703 68.5021 22.5388 68.6154 22.581 68.7393C22.6232 68.8632 22.638 68.9948 22.6245 69.125C22.611 69.2552 22.5694 69.3809 22.5026 69.4935C22.4358 69.6061 22.3455 69.7028 22.2377 69.7771L19.434 71.7068C19.3412 71.7721 19.2627 71.8556 19.2033 71.9523L17.9144 73.8328L25.4317 70.3C25.6313 70.2062 25.8582 70.1886 26.0699 70.2506C26.2815 70.3126 26.4632 70.4498 26.5806 70.6364L26.6003 70.6708C26.6649 70.7725 26.7084 70.8861 26.7283 71.0049C26.7482 71.1237 26.744 71.2453 26.7161 71.3625C26.6882 71.4797 26.637 71.5901 26.5657 71.6872C26.4944 71.7843 26.4043 71.8661 26.3008 71.9277L19.9594 75.7109L28.1175 72.1413C28.3224 72.051 28.5535 72.0402 28.7659 72.111C28.9783 72.1818 29.1568 72.3291 29.2665 72.5243L29.2787 72.5464C29.3921 72.745 29.4258 72.9792 29.3729 73.2017C29.3201 73.4241 29.1846 73.6182 28.994 73.7445L26.7157 75.2568L29.566 74.2109C29.701 74.1627 29.8483 74.1606 29.9847 74.205C30.1211 74.2494 30.2389 74.3379 30.3197 74.4564C30.3692 74.5263 30.4043 74.6054 30.4229 74.6889C30.4416 74.7725 30.4434 74.859 30.4284 74.9433C30.4133 75.0276 30.3816 75.1081 30.3351 75.18C30.2886 75.252 30.2283 75.3139 30.1576 75.3623L25.881 78.3084C25.7366 78.4109 25.6244 78.5523 25.5575 78.7162C25.4905 78.8801 25.4716 79.0597 25.5029 79.2339C25.6109 79.8747 25.6183 81.1587 24.9186 83.4934C24.8767 83.632 24.8683 83.7786 24.8939 83.9211C24.9195 84.0636 24.9784 84.198 25.0659 84.3134L30.2215 90.9886C30.6904 91.595 31.228 93.2399 31.5963 94.8848C32.1364 97.2981 31.1053 100.114 28.7656 100.909C27.462 101.351 25.5078 100.664 25.5078 100.664C23.8089 100.232 21.9161 97.6319 21.3833 95.9601C21.3833 95.9601 20.2221 86.7242 19.9815 83.653C20.0115 83.4178 19.9471 83.1803 19.8023 82.9926L15.722 77.6873C15.6438 77.5866 15.5886 77.4702 15.56 77.346C15.3611 76.5579 14.686 73.6094 14.8726 73.3222Z" fill="#F0A76E"/>
<path d="M24.9112 83.4912C24.8694 83.6298 24.8609 83.7764 24.8865 83.9189C24.9121 84.0614 24.9711 84.1958 25.0585 84.3112L29.8041 90.4488V89.1084L25.6551 84.1492C25.3924 83.8448 25.4906 83.3145 25.6183 82.9217C25.8312 82.2821 25.9865 81.6248 26.0823 80.9576L25.5397 80.3193C25.4534 81.3974 25.2425 82.4617 24.9112 83.4912Z" fill="#3A222B"/>
<path d="M60.4917 32.8536C60.376 32.832 60.2579 32.8263 60.1406 32.8365C60.31 31.1474 60.3027 30.0303 60.3027 30.0303C60.303 29.3576 60.2363 28.6866 60.1038 28.027C56.9638 25.928 50.431 22.4738 42.2606 23.2225C39.9946 23.4312 38.443 23.5908 37.3358 23.824C36.073 25.6415 35.3978 27.8025 35.4012 30.0156C35.4012 30.0156 35.3644 31.1548 35.4945 32.8757C34.3701 33.1802 33.722 34.825 34.0362 36.6442C34.3505 38.4634 35.5535 39.8358 36.7368 39.6983C37.7777 43.0592 39.6239 46.3956 42.8891 48.0454C42.4388 49.3108 41.863 50.528 41.1706 51.6788L49.4293 65.5424L57.6488 51.6813C57.6488 51.6813 55.6676 48.5364 55.3631 45.7352C56.9663 43.9799 58.0489 41.736 58.7781 39.4945C58.9381 39.594 59.1156 39.6623 59.301 39.6958C60.5015 39.9021 61.7413 38.5395 62.0678 36.6491C62.3943 34.7587 61.6947 33.0599 60.4917 32.8536Z" fill="#F0A76E"/>
<path d="M43.2206 33.6367C43.2206 34.3413 42.7737 34.9109 42.2238 34.9109C41.6739 34.9109 41.2246 34.3413 41.2246 33.6367C41.2246 32.9321 41.6714 32.3625 42.2238 32.3625C42.7762 32.3625 43.2206 32.937 43.2206 33.6367Z" fill="#3A222B"/>
<path d="M53.0511 33.6367C53.0511 34.3413 52.6043 34.9109 52.0544 34.9109C51.5044 34.9109 51.0576 34.3413 51.0576 33.6367C51.0576 32.9321 51.5044 32.3625 52.0544 32.3625C52.6043 32.3625 53.0511 32.937 53.0511 33.6367Z" fill="#3A222B"/>
<path d="M51.7399 40.7661C51.2313 41.8004 50.4164 42.653 49.4061 43.2078C48.3958 43.7626 47.2391 43.9927 46.0933 43.8668C43.3486 43.6459 42.2954 40.7661 42.2954 40.7661H51.7399Z" fill="white"/>
<path d="M59.4537 37.4076C59.3958 37.4084 59.3387 37.3939 59.2881 37.3657C59.2375 37.3374 59.1952 37.2964 59.1654 37.2468C59.1356 37.1971 59.1193 37.1405 59.1182 37.0825C59.1171 37.0246 59.1312 36.9674 59.1591 36.9166L60.4848 34.3511C60.5261 34.2733 60.5964 34.2147 60.6804 34.1881C60.7644 34.1615 60.8555 34.1689 60.9341 34.2087C60.9737 34.2278 61.009 34.2546 61.0381 34.2875C61.0672 34.3204 61.0895 34.3587 61.1037 34.4003C61.1179 34.4419 61.1236 34.4858 61.1206 34.5297C61.1176 34.5735 61.106 34.6163 61.0863 34.6555L60.3498 36.0598L60.9341 35.6646C61.0074 35.6211 61.0944 35.6073 61.1775 35.6259C61.2606 35.6446 61.3335 35.6943 61.3811 35.7648C61.4288 35.8354 61.4477 35.9215 61.434 36.0055C61.4203 36.0896 61.3749 36.1652 61.3073 36.2169L59.6428 37.3561C59.5863 37.3918 59.5205 37.4098 59.4537 37.4076Z" fill="#3A222B"/>
<path d="M46.7906 38.1147H46.7538C46.0173 38.0312 45.5582 37.7759 45.3839 37.3512C45.1237 36.7104 45.6589 36.0279 45.7202 35.9518C45.7776 35.8885 45.857 35.8496 45.9421 35.843C46.0272 35.8365 46.1116 35.8628 46.178 35.9165C46.2443 35.9703 46.2875 36.0474 46.2987 36.1321C46.3099 36.2167 46.2883 36.3024 46.2383 36.3716C46.1229 36.5165 45.9117 36.8823 45.9928 37.1081C46.064 37.2824 46.3586 37.4076 46.8176 37.4592C46.9018 37.4694 46.9789 37.5113 47.0333 37.5762C47.0878 37.6412 47.1154 37.7245 47.1108 37.8091C47.1061 37.8937 47.0694 37.9734 47.0081 38.032C46.9468 38.0906 46.8656 38.1236 46.7808 38.1245L46.7906 38.1147Z" fill="#3A222B"/>
<path d="M39.3345 31.2382C39.2631 31.2391 39.1934 31.2169 39.1357 31.1749C39.0779 31.133 39.0353 31.0736 39.014 31.0054C38.9928 30.9373 38.9941 30.8642 39.0178 30.7968C39.0415 30.7295 39.0862 30.6716 39.1455 30.6318C39.2387 30.568 41.4065 29.1097 43.4589 30.3863C43.4974 30.409 43.5308 30.4392 43.5574 30.4751C43.5839 30.511 43.603 30.5519 43.6135 30.5953C43.624 30.6387 43.6256 30.6837 43.6184 30.7278C43.6112 30.7718 43.5952 30.814 43.5714 30.8517C43.5476 30.8895 43.5164 30.9221 43.4798 30.9476C43.4432 30.9731 43.4018 30.9911 43.3581 31.0003C43.3145 31.0096 43.2694 31.01 43.2256 31.0015C43.1817 30.993 43.14 30.9758 43.103 30.951C41.4188 29.8928 39.5432 31.1547 39.5235 31.1695C39.4692 31.2116 39.4031 31.2356 39.3345 31.2382Z" fill="#3A222B"/>
<path d="M54.0181 31.3413C53.9392 31.3407 53.8629 31.313 53.802 31.2628C53.7309 31.2014 52.0418 29.7898 50.2643 30.6711C50.2252 30.6903 50.1826 30.7016 50.1391 30.7043C50.0955 30.707 50.0519 30.7012 50.0106 30.687C49.9694 30.6729 49.9313 30.6508 49.8986 30.6219C49.8659 30.5931 49.8392 30.5581 49.82 30.5189C49.8008 30.4797 49.7895 30.4372 49.7868 30.3936C49.7841 30.3501 49.7899 30.3064 49.8041 30.2652C49.8182 30.2239 49.8403 30.1858 49.8692 30.1531C49.898 30.1204 49.933 30.0937 49.9722 30.0745C52.1473 29.0041 54.1458 30.6834 54.2341 30.7546C54.3013 30.8117 54.3431 30.8931 54.3504 30.9809C54.3578 31.0688 54.3301 31.156 54.2734 31.2235C54.2421 31.2607 54.203 31.2905 54.1589 31.3108C54.1147 31.3312 54.0667 31.3416 54.0181 31.3413Z" fill="#3A222B"/>
<path d="M79.1699 76.1579H67.5158V83.2775L53.0876 78.333L51.811 76.5114L49.2504 72.5072L49.1424 72.3133C49.0164 72.0857 48.8081 71.9149 48.5602 71.8359C48.3124 71.757 48.0437 71.7758 47.8093 71.8886L46.2896 72.6717C46.2416 72.5681 46.175 72.474 46.0932 72.3943L44.4262 70.828C44.3024 70.7117 44.1493 70.631 43.9834 70.5947C43.8174 70.5584 43.6446 70.5678 43.4835 70.6218L42.8918 70.8182C42.7593 70.8632 42.6379 70.936 42.5359 71.0318L40.7486 72.7503C40.6269 72.8581 40.5276 72.9889 40.4564 73.1351C40.3853 73.2813 40.3436 73.4401 40.3338 73.6024C40.324 73.7647 40.3463 73.9274 40.3993 74.0811C40.4524 74.2348 40.5352 74.3766 40.643 74.4983C40.7509 74.62 40.8816 74.7192 41.0278 74.7904C41.174 74.8616 41.3328 74.9033 41.4952 74.9131C41.6575 74.9229 41.8201 74.9006 41.9738 74.8476C42.1276 74.7945 42.2693 74.7117 42.391 74.6038L42.8967 74.1889L49.0982 82.5361L50.4681 82.9559L69.6517 97.7278C70.3247 98.2452 71.095 98.6216 71.9167 98.8347C72.7384 99.0477 73.5946 99.0929 74.4341 98.9676L74.8638 98.9038C76.0201 98.7316 77.1059 98.2415 77.9998 97.488C78.8937 96.7346 79.5606 95.7474 79.926 94.6369C80.0416 94.2753 80.1238 93.9039 80.1715 93.5272C80.2943 92.6974 79.1699 76.1579 79.1699 76.1579Z" fill="#F0A76E"/>
<path d="M43.5863 74.4837C43.6061 74.7601 43.6957 75.027 43.8466 75.2595C44.0604 75.5855 44.3798 75.8282 44.7512 75.9466C45.1227 76.0651 45.5237 76.0522 45.8867 75.91L47.7575 75.0974C47.7575 75.0974 49.9007 77.4518 50.1167 77.4518L48.003 74.2602L45.6191 75.2987C45.4019 75.3804 45.1631 75.3851 44.9428 75.312C44.7225 75.2389 44.534 75.0924 44.4087 74.8969C44.2834 74.7015 44.229 74.4691 44.2545 74.2384C44.2799 74.0076 44.3838 73.7927 44.5487 73.6293C44.3837 73.5313 44.1926 73.4863 44.0012 73.5003C43.8098 73.5144 43.6273 73.5868 43.4783 73.7079L42.8965 74.1817L43.2942 74.7169L43.5863 74.4837Z" fill="#3A222B"/>
<path d="M67.5156 83.28L75.7056 86.0861L67.5156 81.6204V83.28Z" fill="#3A222B"/>
<path d="M39.0278 52.2632L34.2847 63.1857L42.293 60.3747L49.4003 65.545L41.1416 51.6814L39.0278 52.2632Z" fill="#797979"/>
<path d="M59.7729 52.2632L64.516 63.1857L56.5102 60.3747L49.4004 65.545L57.6591 51.6814L59.7729 52.2632Z" fill="#797979"/>
<path d="M34.1597 26.7306C33.8406 28.2601 33.7866 30.5654 34.2972 34.0393C34.3995 33.7732 34.5589 33.5329 34.7642 33.3352C34.9695 33.1375 35.2157 32.9873 35.4854 32.8952C35.3529 31.1767 35.3897 30.0204 35.3897 30.0204C35.3861 27.8114 36.0586 25.6542 37.3169 23.8386H37.2924C36.2981 24.0498 35.6647 24.3296 35.208 24.7543C34.6813 25.3026 34.3182 25.9871 34.1597 26.7306Z" fill="#3A222B"/>
<path d="M60.1045 28.0271C60.2396 28.6838 60.3079 29.3526 60.3083 30.023C60.3083 30.023 60.3083 31.145 60.1438 32.8414C60.2611 32.8255 60.38 32.8255 60.4973 32.8414C60.7661 32.9054 61.0167 33.0303 61.2295 33.2065C61.4424 33.3828 61.6118 33.6056 61.7248 33.8578C62.0771 32.4413 62.2064 30.9785 62.1078 29.5222C61.4701 28.9848 60.8011 28.4856 60.1045 28.0271Z" fill="#3A222B"/>
<path d="M42.8727 48.0479C42.5071 49.0735 42.0571 50.0671 41.5273 51.0185C41.5273 51.0185 45.7549 54.4555 51.6372 48.367C50.3497 48.8687 48.9779 49.1187 47.5962 49.1035C45.9602 49.1314 44.3411 48.7695 42.8727 48.0479Z" fill="#3A222B"/>
</g>
<defs>
<clipPath id="clip0_244_57189">
<rect width="95" height="100.109" fill="white" transform="translate(0 0.945557)"/>
</clipPath>
</defs>
</svg>
