<svg width="154" height="114" viewBox="0 0 154 114" fill="none" xmlns="http://www.w3.org/2000/svg">
<path d="M153.497 100.182H0.501953V100.258H153.497V100.182Z" fill="#EBEBEB"/>
<path d="M26.6891 103.094H16.5547V103.171H26.6891V103.094Z" fill="#EBEBEB"/>
<path d="M65.8839 102.265H52.8701V102.341H65.8839V102.265Z" fill="#EBEBEB"/>
<path d="M34.9745 104.168H29.1025V104.245H34.9745V104.168Z" fill="#EBEBEB"/>
<path d="M138.167 105.423H133.507V105.5H138.167V105.423Z" fill="#EBEBEB"/>
<path d="M130.781 105.423H120.288V105.5H130.781V105.423Z" fill="#EBEBEB"/>
<path d="M102.038 103.22H94.7461V103.297H102.038V103.22Z" fill="#EBEBEB"/>
<path d="M73.0222 86.5341H13.9415C13.4782 86.5341 13.0337 86.35 12.7061 86.0223C12.3784 85.6947 12.1943 85.2503 12.1943 84.7869V1.73191C12.1984 1.27117 12.3842 0.830687 12.7115 0.506324C13.0387 0.181961 13.4808 -1.76636e-05 13.9415 1.28594e-09H73.0222C73.4856 1.28594e-09 73.93 0.18408 74.2576 0.511745C74.5853 0.839409 74.7694 1.28382 74.7694 1.7472V84.7869C74.7694 85.2503 74.5853 85.6947 74.2576 86.0223C73.93 86.35 73.4856 86.5341 73.0222 86.5341ZM13.9415 0.0611983C13.4987 0.0620072 13.0742 0.238287 12.7611 0.55143C12.4479 0.864574 12.2716 1.28905 12.2708 1.73191V84.7869C12.2716 85.2297 12.4479 85.6542 12.7611 85.9674C13.0742 86.2805 13.4987 86.4568 13.9415 86.4576H73.0222C73.465 86.4568 73.8895 86.2805 74.2027 85.9674C74.5158 85.6542 74.6921 85.2297 74.6929 84.7869V1.73191C74.6921 1.28905 74.5158 0.864574 74.2027 0.55143C73.8895 0.238287 73.465 0.0620072 73.0222 0.0611983H13.9415Z" fill="#EBEBEB"/>
<path d="M139.211 86.5341H80.1242C79.661 86.5333 79.2171 86.3489 78.8896 86.0214C78.5621 85.694 78.3778 85.25 78.377 84.7869V1.73191C78.3818 1.27142 78.5679 0.831399 78.895 0.507207C79.222 0.183016 79.6637 0.000779752 80.1242 0H139.211C139.671 0.00159253 140.111 0.184282 140.437 0.508473C140.763 0.832663 140.948 1.27223 140.952 1.73191V84.7869C140.952 85.2492 140.769 85.6927 140.442 86.0202C140.116 86.3477 139.673 86.5325 139.211 86.5341ZM80.1242 0.0611983C79.6813 0.0620072 79.2568 0.238287 78.9437 0.55143C78.6305 0.864574 78.4543 1.28905 78.4535 1.73191V84.7869C78.4543 85.2297 78.6305 85.6542 78.9437 85.9674C79.2568 86.2805 79.6813 86.4568 80.1242 86.4576H139.211C139.654 86.4568 140.078 86.2805 140.391 85.9674C140.705 85.6542 140.881 85.2297 140.882 84.7869V1.73191C140.881 1.28905 140.705 0.864574 140.391 0.55143C140.078 0.238287 139.654 0.0620072 139.211 0.0611983H80.1242Z" fill="#EBEBEB"/>
<path d="M94.5944 43.2578L127.602 43.2578V10.1619L94.5944 10.1619V43.2578Z" fill="#F0F0F0"/>
<path d="M94.5945 10.165H94.0254V43.261H94.5945V10.165Z" fill="#E0E0E0"/>
<path d="M97.5104 41.168H124.688V12.2519L97.5104 12.2519V41.168Z" fill="#FAFAFA"/>
<path d="M108.211 34.8829H116.818C118.685 34.8829 119.933 33.3713 119.606 31.517L117.932 21.9303C117.746 21.0028 117.252 20.1654 116.53 19.5543C115.807 18.9432 114.9 18.5943 113.954 18.5645H105.368C103.501 18.5645 102.253 20.076 102.58 21.9303L104.254 31.517C104.439 32.4414 104.93 33.2765 105.648 33.8873C106.366 34.4981 107.269 34.8488 108.211 34.8829Z" fill="#F0F0F0"/>
<path d="M32.6211 53.3096H25.2773V98.6115H32.6211V53.3096Z" fill="#F0F0F0"/>
<path d="M64.8453 98.6147H26.0273V100.178H64.8453V98.6147Z" fill="#F0F0F0"/>
<path d="M32.6227 98.6147H65.4922V53.3129L32.6227 53.3129L32.6227 98.6147Z" fill="#F5F5F5"/>
<path d="M33.9442 84.9888H64.1699V76.8984H33.9442V84.9888Z" fill="#F0F0F0"/>
<path d="M33.9442 95.5762H64.1699V87.4858H33.9442V95.5762Z" fill="#F0F0F0"/>
<path d="M60.5919 76.4028H37.5202C37.3208 76.4028 37.1592 76.5645 37.1592 76.7639V77.1525C37.1592 77.3519 37.3208 77.5136 37.5202 77.5136H60.5919C60.7913 77.5136 60.953 77.3519 60.953 77.1525V76.7639C60.953 76.5645 60.7913 76.4028 60.5919 76.4028Z" fill="#F5F5F5"/>
<path d="M60.5919 86.9932H37.5202C37.3208 86.9932 37.1592 87.1548 37.1592 87.3542V87.7428C37.1592 87.9423 37.3208 88.1039 37.5202 88.1039H60.5919C60.7913 88.1039 60.953 87.9423 60.953 87.7428V87.3542C60.953 87.1548 60.7913 86.9932 60.5919 86.9932Z" fill="#F5F5F5"/>
<path d="M33.9442 63.897L64.1699 63.897V55.8066H33.9442V63.897Z" fill="#F0F0F0"/>
<path d="M33.9442 74.4048H64.1699V66.3144H33.9442V74.4048Z" fill="#F0F0F0"/>
<path d="M60.5919 55.314H37.5202C37.3208 55.314 37.1592 55.4756 37.1592 55.675V56.0636C37.1592 56.2631 37.3208 56.4247 37.5202 56.4247H60.5919C60.7913 56.4247 60.953 56.2631 60.953 56.0636V55.675C60.953 55.4756 60.7913 55.314 60.5919 55.314Z" fill="#F5F5F5"/>
<path d="M60.5919 65.8154H37.5202C37.3208 65.8154 37.1592 65.9771 37.1592 66.1765V66.5651C37.1592 66.7645 37.3208 66.9262 37.5202 66.9262H60.5919C60.7913 66.9262 60.953 66.7645 60.953 66.5651V66.1765C60.953 65.9771 60.7913 65.8154 60.5919 65.8154Z" fill="#F5F5F5"/>
<path d="M64.301 7.66797H23.0811V43.8544H64.301V7.66797Z" fill="#E6E6E6"/>
<path d="M68.7196 6.26025H20.4128C20.3591 6.26025 20.306 6.27088 20.2564 6.29152C20.2068 6.31217 20.1618 6.34242 20.124 6.38053C20.0861 6.41865 20.0562 6.46387 20.036 6.5136C20.0157 6.56333 20.0055 6.61658 20.0059 6.67028C20.0059 6.77822 20.0487 6.88173 20.1251 6.95805C20.2014 7.03437 20.3049 7.07725 20.4128 7.07725H68.7196C68.8278 7.07725 68.9316 7.03447 69.0084 6.95824C69.0852 6.882 69.1288 6.7785 69.1296 6.67028C69.1296 6.56154 69.0864 6.45724 69.0095 6.38035C68.9326 6.30345 68.8283 6.26025 68.7196 6.26025Z" fill="#E6E6E6"/>
<path d="M66.0507 7.66797H23.8975V43.8544H66.0507V7.66797Z" fill="#F0F0F0"/>
<path d="M64.301 43.8545H23.0811V45.0142H65.5066L64.301 43.8545Z" fill="#E6E6E6"/>
<path d="M68.9646 43.8545H26.8145L28.017 45.0142H70.1702L68.9646 43.8545Z" fill="#F0F0F0"/>
<path d="M63.6035 41.4068V10.1162L26.3492 10.1162V41.4068H63.6035Z" fill="#FAFAFA"/>
<path d="M34.8057 41.4068L49.175 10.1162H55.9618L41.5895 41.4068H34.8057Z" fill="white"/>
<path d="M43.0469 41.4068L57.4192 10.1162H60.063L45.6937 41.4068H43.0469Z" fill="white"/>
<path d="M63.6035 41.4068V10.1162H63.2914V41.4068H63.6035Z" fill="#E6E6E6"/>
<g opacity="0.4">
<path d="M26.3766 5.52881H22.1631V35.3904H26.3766V5.52881Z" fill="#F0F0F0"/>
<path d="M28.0186 5.52881H24.7354V35.3904H28.0186V5.52881Z" fill="#E6E6E6"/>
<path d="M30.5895 5.52881H26.376V35.3904H30.5895V5.52881Z" fill="#F0F0F0"/>
<path d="M32.2335 5.52881H28.9502V35.3904H32.2335V5.52881Z" fill="#E6E6E6"/>
<path d="M34.8033 5.52881H30.5898V35.3904H34.8033V5.52881Z" fill="#F0F0F0"/>
</g>
<g opacity="0.4">
<path d="M62.037 5.5293H59.6074V35.3909H62.037V5.5293Z" fill="#F0F0F0"/>
<path d="M62.9789 5.5293H61.0879V35.3909H62.9789V5.5293Z" fill="#E6E6E6"/>
<path d="M64.4647 5.5293H62.0352V35.3909H64.4647V5.5293Z" fill="#F0F0F0"/>
<path d="M65.4096 5.5293H63.5186V35.3909H65.4096V5.5293Z" fill="#E6E6E6"/>
<path d="M66.8934 5.5293H64.4639V35.3909H66.8934V5.5293Z" fill="#F0F0F0"/>
</g>
<path d="M109.695 65.5461C109.659 65.9887 109.755 66.4321 109.971 66.8201C110.187 67.2082 110.513 67.5236 110.908 67.7263C111.303 67.9291 111.749 68.0102 112.191 67.9594C112.632 67.9085 113.048 67.7281 113.387 67.4407C113.725 67.1534 113.971 66.7722 114.093 66.3452C114.215 65.9181 114.208 65.4646 114.072 65.0417C113.936 64.6189 113.678 64.2458 113.33 63.9695C112.983 63.6933 112.561 63.5264 112.118 63.4898C111.524 63.4416 110.936 63.631 110.481 64.0166C110.027 64.4021 109.744 64.9522 109.695 65.5461Z" fill="#E0E0E0"/>
<path d="M115.938 69.1228C117.167 68.942 118.017 67.7992 117.836 66.5703C117.655 65.3414 116.513 64.4918 115.284 64.6726C114.055 64.8534 113.205 65.9962 113.386 67.2251C113.567 68.454 114.71 69.3036 115.938 69.1228Z" fill="#E0E0E0"/>
<path d="M117.304 67.1803C117.268 67.623 117.364 68.0663 117.58 68.4544C117.796 68.8425 118.122 69.1578 118.517 69.3606C118.912 69.5634 119.359 69.6445 119.8 69.5936C120.241 69.5428 120.657 69.3623 120.996 69.075C121.335 68.7877 121.58 68.4064 121.702 67.9794C121.824 67.5524 121.817 67.0988 121.681 66.676C121.546 66.2531 121.288 65.88 120.94 65.6038C120.592 65.3276 120.17 65.1606 119.728 65.1241C119.433 65.0994 119.137 65.133 118.856 65.2231C118.575 65.3131 118.314 65.4578 118.089 65.6489C117.864 65.8399 117.679 66.0736 117.544 66.3364C117.409 66.5992 117.328 66.886 117.304 67.1803Z" fill="#E0E0E0"/>
<path d="M105.518 66.7248C105.482 67.1674 105.578 67.6108 105.794 67.9988C106.01 68.3869 106.336 68.7023 106.731 68.905C107.126 69.1078 107.573 69.1889 108.014 69.1381C108.455 69.0872 108.871 68.9068 109.21 68.6194C109.548 68.3321 109.794 67.9509 109.916 67.5239C110.038 67.0969 110.031 66.6433 109.895 66.2204C109.759 65.7976 109.501 65.4245 109.154 65.1482C108.806 64.872 108.384 64.7051 107.942 64.6685C107.348 64.6203 106.759 64.8097 106.304 65.1953C105.85 65.5808 105.567 66.1309 105.518 66.7248Z" fill="#E0E0E0"/>
<path d="M123.118 69.1213C124.347 68.9405 125.197 67.7977 125.016 66.5689C124.835 65.34 123.692 64.4903 122.463 64.6712C121.234 64.852 120.385 65.9947 120.566 67.2236C120.746 68.4525 121.889 69.3021 123.118 69.1213Z" fill="#E0E0E0"/>
<path d="M106.19 66.7159C107.134 65.9086 107.244 64.4888 106.437 63.5448C105.63 62.6008 104.21 62.49 103.266 63.2974C102.322 64.1048 102.211 65.5245 103.019 66.4685C103.826 67.4125 105.246 67.5233 106.19 66.7159Z" fill="#E0E0E0"/>
<path d="M99.3121 66.2135C99.2761 66.6562 99.3721 67.0995 99.588 67.4876C99.8039 67.8757 100.13 68.191 100.525 68.3938C100.92 68.5966 101.367 68.6777 101.808 68.6268C102.249 68.576 102.665 68.3955 103.004 68.1082C103.342 67.8209 103.588 67.4396 103.71 67.0126C103.832 66.5856 103.825 66.132 103.689 65.7092C103.553 65.2863 103.295 64.9132 102.948 64.637C102.6 64.3608 102.178 64.1938 101.736 64.1573C101.142 64.109 100.553 64.2985 100.098 64.684C99.644 65.0696 99.3612 65.6197 99.3121 66.2135Z" fill="#E0E0E0"/>
<path d="M96.7451 66.8193C96.7451 66.8193 97.1307 76.0205 111.916 76.0205C126.702 76.0205 127.087 66.8193 127.087 66.8193H96.7451Z" fill="#F0F0F0"/>
<path d="M135.524 76.02H132.712V100.178H135.524V76.02Z" fill="#E6E6E6"/>
<path d="M136.273 76.02H134.617V100.178H136.273V76.02Z" fill="#F0F0F0"/>
<path d="M123.558 76.02H120.746V100.178H123.558V76.02Z" fill="#E6E6E6"/>
<path d="M124.085 76.02H122.43V100.178H124.085V76.02Z" fill="#F0F0F0"/>
<path d="M96.8676 78.9517H136.787V76.0233H96.8676V78.9517Z" fill="#F0F0F0"/>
<path d="M84.6675 76.02H81.8555V100.178H84.6675V76.02Z" fill="#E6E6E6"/>
<path d="M85.1945 76.02H83.5391V100.178H85.1945V76.02Z" fill="#F0F0F0"/>
<path d="M81.3539 78.9517H95.665V76.0233H81.3539V78.9517Z" fill="#E6E6E6"/>
<path d="M96.6285 76.02H93.8164V100.178H96.6285V76.02Z" fill="#E6E6E6"/>
<path d="M97.382 76.02H95.7266V100.178H97.382V76.02Z" fill="#F0F0F0"/>
<path d="M76.9984 114C109.765 114 136.327 112.449 136.327 110.536C136.327 108.623 109.765 107.072 76.9984 107.072C44.2322 107.072 17.6699 108.623 17.6699 110.536C17.6699 112.449 44.2322 114 76.9984 114Z" fill="#F5F5F5"/>
<path d="M109.275 107.497C109.276 108.109 109.059 108.7 108.664 109.167C108.269 109.634 107.721 109.945 107.118 110.046C99.694 111.299 92.1127 111.299 84.6888 110.046C84.0882 109.943 83.5436 109.63 83.1516 109.163C82.7595 108.697 82.5453 108.107 82.5469 107.497V82.7119H109.287L109.275 107.497Z" fill="#2192FF"/>
<path opacity="0.3" d="M82.5312 83.1592V86.6383C84.1408 87.235 89.4252 87.6725 95.903 87.6725C102.381 87.6725 107.674 87.235 109.275 86.6383V83.1592H82.5312Z" fill="black"/>
<path d="M109.778 85.8122C109.778 86.5986 103.707 87.235 95.9039 87.235C88.1012 87.235 82.0303 86.5986 82.0303 85.8122L81.7764 82.7217H110.047L109.778 85.8122Z" fill="#2192FF"/>
<path d="M95.9039 84.1413C103.706 84.1413 110.032 83.5057 110.032 82.7215C110.032 81.9374 103.706 81.3018 95.9039 81.3018C88.1015 81.3018 81.7764 81.9374 81.7764 82.7215C81.7764 83.5057 88.1015 84.1413 95.9039 84.1413Z" fill="#2192FF"/>
<path opacity="0.3" d="M95.9039 84.1413C103.706 84.1413 110.032 83.5057 110.032 82.7215C110.032 81.9374 103.706 81.3018 95.9039 81.3018C88.1015 81.3018 81.7764 81.9374 81.7764 82.7215C81.7764 83.5057 88.1015 84.1413 95.9039 84.1413Z" fill="black"/>
<path opacity="0.2" d="M86.1184 105.753C85.8435 105.752 85.5801 105.643 85.3858 105.448C85.1914 105.254 85.0819 104.991 85.0811 104.716V90.5056C85.0819 90.2307 85.1914 89.9673 85.3858 89.773C85.5801 89.5786 85.8435 89.4691 86.1184 89.4683C86.393 89.4699 86.6559 89.5797 86.8501 89.7739C87.0443 89.968 87.1541 90.2309 87.1557 90.5056V104.716C87.1541 104.99 87.0443 105.253 86.8501 105.447C86.6559 105.642 86.393 105.751 86.1184 105.753Z" fill="black"/>
<path opacity="0.2" d="M105.694 105.753C105.419 105.752 105.155 105.643 104.961 105.448C104.767 105.254 104.657 104.991 104.656 104.716V90.5056C104.657 90.2307 104.767 89.9673 104.961 89.773C105.155 89.5786 105.419 89.4691 105.694 89.4683C105.968 89.4699 106.231 89.5797 106.425 89.7739C106.619 89.968 106.729 90.2309 106.731 90.5056V104.716C106.729 104.99 106.619 105.253 106.425 105.447C106.231 105.642 105.968 105.751 105.694 105.753Z" fill="black"/>
<path opacity="0.2" d="M99.1652 105.753C98.8906 105.751 98.6277 105.642 98.4335 105.447C98.2393 105.253 98.1295 104.99 98.1279 104.716V90.5056C98.1295 90.2309 98.2393 89.968 98.4335 89.7739C98.6277 89.5797 98.8906 89.4699 99.1652 89.4683C99.4401 89.4691 99.7035 89.5786 99.8978 89.773C100.092 89.9673 100.202 90.2307 100.203 90.5056V104.716C100.202 104.991 100.092 105.254 99.8978 105.448C99.7035 105.643 99.4401 105.752 99.1652 105.753Z" fill="black"/>
<path opacity="0.2" d="M92.6418 105.753C92.3672 105.751 92.1043 105.642 91.9101 105.447C91.7159 105.253 91.6061 104.99 91.6045 104.716V90.5056C91.6061 90.2309 91.7159 89.968 91.9101 89.7739C92.1043 89.5797 92.3672 89.4699 92.6418 89.4683C92.9167 89.4691 93.18 89.5786 93.3744 89.773C93.5688 89.9673 93.6783 90.2307 93.6791 90.5056V104.716C93.6783 104.991 93.5688 105.254 93.3744 105.448C93.18 105.643 92.9167 105.752 92.6418 105.753Z" fill="black"/>
<path d="M59.5203 25.7523C59.5203 26.0331 59.437 26.3076 59.281 26.5411C59.125 26.7746 58.9032 26.9566 58.6438 27.064C58.3844 27.1715 58.0989 27.1996 57.8235 27.1448C57.5481 27.09 57.2951 26.9548 57.0965 26.7563C56.898 26.5577 56.7627 26.3047 56.7079 26.0293C56.6532 25.7539 56.6813 25.4684 56.7887 25.209C56.8962 24.9495 57.0782 24.7278 57.3117 24.5718C57.5451 24.4158 57.8197 24.3325 58.1005 24.3325C58.477 24.3325 58.8381 24.4821 59.1044 24.7484C59.3707 25.0146 59.5203 25.3758 59.5203 25.7523Z" fill="#263238"/>
<path d="M56.9581 25.9573C56.9443 25.9577 56.9307 25.9542 56.9188 25.9471C56.9068 25.9401 56.8972 25.9298 56.8908 25.9175C56.797 25.7451 56.738 25.556 56.7173 25.3608C56.6966 25.1656 56.7145 24.9683 56.7701 24.78C56.8256 24.5918 56.9177 24.4163 57.0411 24.2637C57.1644 24.111 57.3167 23.9842 57.489 23.8903C57.6614 23.7965 57.8506 23.7376 58.0458 23.7168C58.2409 23.6961 58.4383 23.7141 58.6265 23.7696C58.8148 23.8252 58.9902 23.9172 59.1429 24.0406C59.2955 24.1639 59.4224 24.3162 59.5162 24.4886C59.5252 24.5066 59.5271 24.5273 59.5214 24.5466C59.5157 24.5659 59.5029 24.5823 59.4856 24.5926C59.4768 24.5974 59.4671 24.6005 59.4571 24.6016C59.4471 24.6027 59.4369 24.6018 59.4273 24.5989C59.4176 24.5961 59.4086 24.5913 59.4007 24.585C59.3929 24.5787 59.3864 24.5709 59.3816 24.562C59.2116 24.2496 58.9244 24.0174 58.5833 23.9167C58.2421 23.816 57.8749 23.855 57.5625 24.025C57.25 24.195 57.0179 24.4822 56.9172 24.8233C56.8165 25.1645 56.8554 25.5317 57.0255 25.8441C57.0303 25.8529 57.0334 25.8626 57.0345 25.8726C57.0355 25.8827 57.0346 25.8928 57.0318 25.9025C57.0289 25.9121 57.0242 25.9211 57.0179 25.929C57.0115 25.9368 57.0037 25.9433 56.9949 25.9481C56.9835 25.954 56.9709 25.9571 56.9581 25.9573Z" fill="#263238"/>
<path d="M55.5781 32.2389C55.3015 32.2378 55.0307 32.16 54.7956 32.0142C54.5605 31.8685 54.3705 31.6604 54.2465 31.4131C54.1226 31.1659 54.0696 30.8891 54.0935 30.6135C54.1173 30.338 54.2171 30.0744 54.3817 29.8521C54.499 29.695 54.6461 29.5625 54.8147 29.4622C54.9832 29.362 55.1698 29.2959 55.3639 29.2677C55.3738 29.266 55.3839 29.2663 55.3937 29.2686C55.4035 29.271 55.4126 29.2753 55.4207 29.2813C55.4287 29.2873 55.4354 29.2949 55.4404 29.3036C55.4454 29.3123 55.4485 29.322 55.4496 29.332C55.4522 29.3518 55.447 29.3719 55.435 29.3879C55.4229 29.4039 55.4051 29.4146 55.3853 29.4176C55.0335 29.4692 54.7166 29.6583 54.5043 29.9435C54.292 30.2287 54.2016 30.5866 54.2532 30.9384C54.3047 31.2902 54.4939 31.6071 54.7791 31.8195C55.0643 32.0318 55.4221 32.1221 55.7739 32.0706C55.7942 32.0673 55.815 32.0723 55.8316 32.0843C55.8483 32.0964 55.8594 32.1145 55.8627 32.1348C55.8659 32.1551 55.861 32.1759 55.8489 32.1925C55.8369 32.2092 55.8187 32.2203 55.7984 32.2236C55.7254 32.2332 55.6518 32.2383 55.5781 32.2389Z" fill="#263238"/>
<path d="M63.2927 34.5524C63.0057 34.552 62.725 34.468 62.4849 34.3107C62.4678 34.2994 62.4558 34.282 62.4512 34.262C62.4467 34.2421 62.45 34.2211 62.4604 34.2036C62.4722 34.187 62.4898 34.1756 62.5097 34.1716C62.5296 34.1676 62.5503 34.1714 62.5675 34.1821C62.8658 34.3757 63.2287 34.4428 63.5764 34.3688C63.9242 34.2948 64.2283 34.0857 64.4218 33.7874C64.6154 33.4892 64.6825 33.1263 64.6085 32.7785C64.5345 32.4308 64.3253 32.1267 64.0271 31.9331C64.01 31.9218 63.998 31.9044 63.9934 31.8845C63.9889 31.8645 63.9922 31.8436 64.0026 31.826C64.0144 31.8095 64.032 31.798 64.0519 31.794C64.0718 31.79 64.0925 31.7938 64.1097 31.8046C64.4414 32.0206 64.674 32.3592 64.7566 32.7463C64.8392 33.1334 64.765 33.5375 64.5504 33.87C64.4444 34.0355 64.3064 34.1781 64.1446 34.2895C63.9827 34.4009 63.8003 34.4788 63.6079 34.5187C63.5042 34.5405 63.3987 34.5518 63.2927 34.5524Z" fill="#263238"/>
<path d="M57.3042 30.1796C58.4128 30.1796 59.3115 29.2809 59.3115 28.1723C59.3115 27.0637 58.4128 26.165 57.3042 26.165C56.1956 26.165 55.2969 27.0637 55.2969 28.1723C55.2969 29.2809 56.1956 30.1796 57.3042 30.1796Z" fill="#263238"/>
<path d="M59.1882 32.7574C60.2278 31.7178 60.2278 30.0322 59.1882 28.9926C58.1486 27.953 56.463 27.953 55.4234 28.9926C54.3838 30.0322 54.3838 31.7178 55.4234 32.7574C56.463 33.797 58.1486 33.797 59.1882 32.7574Z" fill="#263238"/>
<path d="M57.5852 37.2022C59.2109 37.2022 60.5289 35.8843 60.5289 34.2586C60.5289 32.6329 59.2109 31.3149 57.5852 31.3149C55.9595 31.3149 54.6416 32.6329 54.6416 34.2586C54.6416 35.8843 55.9595 37.2022 57.5852 37.2022Z" fill="#263238"/>
<path d="M63.3953 35.1344C63.7687 33.5522 62.7888 31.9668 61.2065 31.5933C59.6243 31.2199 58.0389 32.1998 57.6654 33.7821C57.292 35.3643 58.2719 36.9497 59.8542 37.3232C61.4364 37.6966 63.0218 36.7167 63.3953 35.1344Z" fill="#263238"/>
<path d="M70.2935 40.5314C70.2935 40.7701 70.2935 41.073 70.315 41.3484C70.3364 41.6238 70.3364 41.9176 70.3547 42.2022C70.3945 42.7713 70.4343 43.3466 70.4955 43.9188C70.6057 45.0672 70.7597 46.2106 70.9575 47.3489C71.0096 47.6304 71.0555 47.9181 71.1136 48.1996L71.2482 48.8942C71.2819 49.0043 71.2482 48.9829 71.2054 48.9798C71.1626 48.9768 71.2054 49.0349 71.3859 49.0349C71.848 48.9886 72.298 48.859 72.7139 48.6524C72.9587 48.5423 73.2096 48.4229 73.4605 48.2944C73.7115 48.1659 73.9654 48.019 74.1949 47.8905L75.0884 48.9217C74.8752 49.1659 74.6485 49.3978 74.4091 49.6163C74.1735 49.8407 73.9241 50.0502 73.6625 50.2436C73.3883 50.4499 73.0988 50.6351 72.7965 50.7974C72.4526 50.9852 72.0838 51.1232 71.7011 51.2075C71.4651 51.2589 71.2233 51.2795 70.982 51.2687C70.6875 51.2516 70.3989 51.1789 70.1314 51.0545C69.8468 50.9209 69.5935 50.7291 69.3878 50.4914C69.2111 50.2849 69.0667 50.0527 68.9594 49.803C68.8763 49.6119 68.8088 49.4144 68.7575 49.2124L68.6381 48.7656C68.5525 48.4597 68.4821 48.169 68.4086 47.8691C68.1224 46.6662 67.9017 45.4486 67.7477 44.2217C67.6712 43.6097 67.61 42.9977 67.5733 42.3704C67.5549 42.0645 67.5396 41.7585 67.5304 41.4341C67.5213 41.1098 67.5304 40.8221 67.5304 40.458L70.2935 40.5314Z" fill="#FFB573"/>
<path d="M68.8091 37.2328C71.4192 39.231 71.3152 42.9977 71.3152 42.9977L66.6458 44.1146C66.6458 44.1146 65.2137 40.3264 65.7951 38.9403C66.401 37.496 67.3404 36.1068 68.8091 37.2328Z" fill="#2192FF"/>
<path opacity="0.7" d="M68.8091 37.2328C71.4192 39.231 71.3152 42.9977 71.3152 42.9977L66.6458 44.1146C66.6458 44.1146 65.2137 40.3264 65.7951 38.9403C66.401 37.496 67.3404 36.1068 68.8091 37.2328Z" fill="white"/>
<path d="M74.0207 48.2427L74.7918 46.9453L76.7257 49.0138C76.7257 49.0138 75.3395 49.9012 73.9014 49.2678L74.0207 48.2427Z" fill="#FFB573"/>
<path d="M75.7426 46.3242L78.2242 47.7869L76.7249 49.0139L74.791 46.9454L75.7426 46.3242Z" fill="#FFB573"/>
<path d="M54.1992 108.278L56.8675 108.535L58.5259 102.283L55.8546 102.026L54.1992 108.278Z" fill="#FFB573"/>
<path d="M40.5205 103.024L42.9164 104.279L45.7652 98.63L43.3693 97.3755L40.5205 103.024Z" fill="#FFB573"/>
<path d="M43.5562 103.18L41.4143 101.004C41.3786 100.966 41.3302 100.942 41.2782 100.938C41.2262 100.933 41.1744 100.948 41.1327 100.98L39.1652 102.427C39.1175 102.465 39.0784 102.513 39.0504 102.568C39.0224 102.622 39.0061 102.682 39.0027 102.743C38.9992 102.804 39.0086 102.865 39.0303 102.923C39.052 102.98 39.0854 103.032 39.1285 103.076C39.8874 103.822 40.2913 104.144 41.2337 105.101C41.8151 105.689 43.0085 107.075 43.8102 107.889C44.6118 108.703 45.4564 107.953 45.1963 107.543C44.0274 105.707 43.8316 104.554 43.7581 103.62C43.7449 103.454 43.6733 103.298 43.5562 103.18Z" fill="#263238"/>
<path d="M57.2822 107.724H54.0479C53.99 107.725 53.9339 107.744 53.8881 107.779C53.8423 107.815 53.8092 107.864 53.7939 107.92L53.1024 110.463C53.0851 110.523 53.0823 110.587 53.0941 110.648C53.1059 110.71 53.1321 110.768 53.1705 110.818C53.209 110.868 53.2585 110.908 53.3153 110.935C53.372 110.962 53.4343 110.975 53.4971 110.974C54.6323 110.974 55.1709 110.974 56.5876 110.974H60.9235C62.1016 110.974 62.3494 109.783 61.8598 109.673C59.6751 109.19 58.4144 108.523 57.7412 107.886C57.6136 107.777 57.45 107.719 57.2822 107.724Z" fill="#263238"/>
<path opacity="0.2" d="M58.523 102.286L57.6693 105.508H54.9307L55.8517 102.029L58.523 102.286Z" fill="black"/>
<path opacity="0.2" d="M43.3662 97.3755L45.7652 98.6331L44.2964 101.543L41.8975 100.285L43.3662 97.3755Z" fill="black"/>
<path d="M68.0199 36.8476C68.0199 36.8476 69.201 37.3647 65.2415 53.0314L54.2442 52.0798C54.8164 47.6215 55.0581 44.8615 53.7148 35.489C55.2826 35.3054 56.8615 35.2348 58.4393 35.2778C60.112 35.3032 61.7808 35.4473 63.4331 35.7093C64.9803 36.011 66.5112 36.3909 68.0199 36.8476Z" fill="#2192FF"/>
<path opacity="0.7" d="M68.0199 36.8476C68.0199 36.8476 69.201 37.3647 65.2415 53.0314L54.2442 52.0798C54.8164 47.6215 55.0581 44.8615 53.7148 35.489C55.2826 35.3054 56.8615 35.2348 58.4393 35.2778C60.112 35.3032 61.7808 35.4473 63.4331 35.7093C64.9803 36.011 66.5112 36.3909 68.0199 36.8476Z" fill="white"/>
<path d="M58.4388 35.189C58.4388 35.189 57.8268 35.189 57.0771 35.189C56.6335 35.8713 58.5061 37.8633 60.8867 39.8217C61.462 38.0377 62.3677 38.0439 62.3677 38.0439L58.4388 35.189Z" fill="white"/>
<path d="M63.4308 35.6694C63.4308 35.6694 63.7092 35.7092 64.3763 35.8622C64.8169 36.5446 65.0648 38.252 63.7643 39.7391C63.2533 37.9032 62.3721 38.0684 62.3721 38.0684L63.4308 35.6694Z" fill="white"/>
<path d="M59.4186 29.6963C59.5961 31.3303 59.6542 34.2861 58.4395 35.2776C58.4395 35.2776 59.7369 36.6056 62.3684 38.0682C64.2777 36.7463 63.4332 35.709 63.4332 35.709C61.6768 35.1276 61.839 33.8027 62.2582 32.5787L59.4186 29.6963Z" fill="#FFB573"/>
<path opacity="0.2" d="M60.5776 30.8745L62.2575 32.5789C62.1544 32.8621 62.0766 33.154 62.0249 33.451C61.3518 33.2949 60.3726 32.5911 60.3604 31.869C60.3721 31.5271 60.4457 31.1901 60.5776 30.8745Z" fill="black"/>
<path d="M65.7284 24.3662C66.8544 25.3637 67.1849 27.7933 66.1139 29.4426C65.7924 27.7707 65.663 26.0675 65.7284 24.3662Z" fill="#263238"/>
<path d="M59.0763 26.2664C58.8805 28.9561 58.7428 30.0913 59.9056 31.6427C61.6558 33.9774 65.0034 33.6255 65.9978 31.0491C66.8944 28.7266 67.0627 24.7181 64.5933 23.3044C64.0507 22.9877 63.4359 22.8155 62.8077 22.8043C62.1795 22.7931 61.5589 22.9433 61.0054 23.2405C60.4518 23.5377 59.9838 23.9719 59.646 24.5017C59.3083 25.0315 59.1121 25.6391 59.0763 26.2664Z" fill="#FFB573"/>
<path d="M58.7179 28.4327C60.7068 28.3562 61.8084 25.7553 61.3096 24.6567C63.5648 25.8318 66.9796 26.7558 66.6002 25.2443C66.0892 23.2033 63.6198 21.707 60.5814 22.7963C58.8219 23.5613 57.3164 25.2443 58.7179 28.4327Z" fill="#263238"/>
<path d="M58.1122 28.4294C58.1971 28.9438 58.4806 29.4041 58.9016 29.7115C59.4647 30.1124 59.9787 29.6656 60.0185 29.0139C60.0552 28.4233 59.8074 27.5054 59.1464 27.3646C59.0017 27.3359 58.8521 27.3438 58.7112 27.3877C58.5703 27.4316 58.4426 27.51 58.3398 27.6158C58.237 27.7217 58.1623 27.8516 58.1225 27.9937C58.0828 28.1358 58.0792 28.2856 58.1122 28.4294Z" fill="#FFB573"/>
<path d="M65.2426 53.0311C65.2426 53.0311 67.7303 69.2639 66.3442 79.6921C65.2946 87.5713 58.5231 104.572 58.5231 104.572L54.126 104.453C54.126 104.453 58.6669 87.9752 59.6063 81.5035C61.2127 70.4206 57.1889 52.3457 57.1889 52.3457L65.2426 53.0311Z" fill="#263238"/>
<path opacity="0.2" d="M60.9514 56.3574L58.6045 60.0568C59.3112 64.4432 59.7597 68.8673 59.9478 73.3062C63.2464 67.4006 61.6981 59.4816 60.9514 56.3574Z" fill="black"/>
<path d="M59.2078 104.817L53.6816 104.667L54.0182 102.89L59.728 102.923L59.2078 104.817Z" fill="#2192FF"/>
<path d="M62.837 52.8573C62.837 52.8573 61.001 70.8311 56.8059 80.6106C53.4125 88.5051 45.3221 101.133 45.3221 101.133L42.0908 99.2423C42.0908 99.2423 47.2927 85.2004 49.8599 79.9374C56.1235 67.0338 50.2975 56.6821 54.2448 52.0923L62.837 52.8573Z" fill="#263238"/>
<path d="M45.6734 101.409L41.5518 99.1473L42.2219 97.3848L46.6128 99.8633L45.6734 101.409Z" fill="#2192FF"/>
<path d="M54.1348 51.4217L53.5534 52.3642C53.5106 52.4346 53.5932 52.5233 53.7217 52.5325L65.2545 53.53C65.3524 53.53 65.4411 53.4963 65.4503 53.4352L65.637 52.459C65.637 52.3917 65.5666 52.3275 65.4595 52.3183L54.3214 51.3544C54.2872 51.3492 54.2522 51.3526 54.2196 51.3644C54.187 51.3761 54.1578 51.3959 54.1348 51.4217Z" fill="#2192FF"/>
<path d="M55.5235 52.795L55.2175 52.7705C55.1594 52.7705 55.1165 52.7308 55.1227 52.694L55.3736 51.4272C55.3736 51.3875 55.4378 51.363 55.496 51.3691L55.802 51.3936C55.8631 51.3936 55.906 51.4334 55.8968 51.4701L55.649 52.7369C55.6367 52.7736 55.5786 52.8011 55.5235 52.795Z" fill="#263238"/>
<path d="M64.406 53.5635L64.1 53.539C64.0388 53.539 63.996 53.4992 64.0051 53.4625L64.2561 52.1957C64.2561 52.159 64.3173 52.1315 64.3754 52.1376L64.6814 52.1621C64.7395 52.1621 64.7824 52.2018 64.7762 52.2386L64.5253 53.5054C64.5192 53.5482 64.4519 53.5696 64.406 53.5635Z" fill="#263238"/>
<path d="M59.963 53.1818L59.657 53.1542C59.5988 53.1542 59.556 53.1145 59.5621 53.0777L59.813 51.8109C59.813 51.7742 59.8742 51.7467 59.9354 51.7528L60.2414 51.7803C60.2995 51.7803 60.3424 51.8201 60.3363 51.8568L60.0853 53.1236C60.0792 53.1604 60.0242 53.1848 59.963 53.1818Z" fill="#263238"/>
<path d="M63.2901 27.6031C63.2595 27.8204 63.3513 28.0131 63.492 28.0315C63.6328 28.0499 63.7735 27.8907 63.798 27.6735C63.8225 27.4562 63.7338 27.2635 63.593 27.2451C63.4522 27.2267 63.3176 27.3859 63.2901 27.6031Z" fill="#263238"/>
<path d="M65.7432 27.9342C65.7156 28.1514 65.8074 28.3442 65.9482 28.3625C66.0889 28.3809 66.2297 28.2218 66.2542 28.0045C66.2786 27.7873 66.193 27.5945 66.0522 27.5761C65.9115 27.5578 65.7738 27.7169 65.7432 27.9342Z" fill="#263238"/>
<path d="M65.9824 27.5791L66.5271 27.4995C66.5271 27.4995 66.2089 27.8698 65.9824 27.5791Z" fill="#263238"/>
<path d="M64.7792 28.1724C64.9068 28.6934 65.1044 29.1947 65.3667 29.6625C65.2457 29.7269 65.1121 29.764 64.9752 29.7714C64.8383 29.7788 64.7015 29.7563 64.5742 29.7054L64.7792 28.1724Z" fill="#ED893E"/>
<path d="M63.3014 30.3543C62.871 30.214 62.5101 29.9154 62.2916 29.5189C62.2862 29.5062 62.2856 29.492 62.2902 29.479C62.2947 29.4659 62.304 29.4551 62.3161 29.4485C62.3291 29.4421 62.3441 29.4411 62.3579 29.4457C62.3716 29.4503 62.383 29.4601 62.3896 29.473C62.5255 29.7114 62.7158 29.9144 62.945 30.0654C63.1741 30.2164 63.4357 30.3111 63.7084 30.342C63.7222 30.342 63.7354 30.3475 63.7452 30.3573C63.7549 30.367 63.7604 30.3802 63.7604 30.394C63.7604 30.4078 63.7549 30.4211 63.7452 30.4308C63.7354 30.4406 63.7222 30.4461 63.7084 30.4461C63.5697 30.4308 63.4332 30.4 63.3014 30.3543Z" fill="#263238"/>
<path d="M62.1725 26.3456C62.1547 26.3382 62.139 26.3267 62.1266 26.3119C62.1165 26.3022 62.1085 26.2906 62.103 26.2777C62.0976 26.2648 62.0947 26.2509 62.0947 26.2369C62.0947 26.2229 62.0976 26.2091 62.103 26.1962C62.1085 26.1833 62.1165 26.1717 62.1266 26.162C62.2766 26.0279 62.4568 25.9322 62.6519 25.8832C62.847 25.8341 63.051 25.8332 63.2466 25.8805C63.2599 25.8843 63.2724 25.8908 63.2832 25.8995C63.294 25.9083 63.303 25.9191 63.3095 25.9314C63.3161 25.9436 63.3201 25.9571 63.3214 25.971C63.3227 25.9848 63.3212 25.9988 63.3169 26.012C63.3091 26.0391 63.2909 26.0621 63.2662 26.0758C63.2416 26.0896 63.2125 26.093 63.1854 26.0855C63.0244 26.0497 62.8572 26.0526 62.6976 26.0941C62.538 26.1356 62.3905 26.2145 62.2674 26.3241C62.2541 26.3344 62.2387 26.3416 62.2223 26.3452C62.2059 26.3489 62.1889 26.3491 62.1725 26.3456Z" fill="#263238"/>
<path d="M66.7742 26.9976C66.7583 26.9914 66.7437 26.982 66.7314 26.9701C66.6241 26.8442 66.4887 26.7454 66.3362 26.6816C66.1836 26.6178 66.0181 26.5908 65.8532 26.6029C65.8392 26.606 65.8248 26.6061 65.8108 26.6032C65.7968 26.6003 65.7836 26.5945 65.772 26.5861C65.7605 26.5777 65.7508 26.567 65.7437 26.5546C65.7366 26.5422 65.7322 26.5284 65.7308 26.5142C65.7264 26.4862 65.7333 26.4576 65.7499 26.4346C65.7665 26.4117 65.7916 26.3963 65.8195 26.3918C66.0193 26.3738 66.2204 26.4039 66.4062 26.4795C66.592 26.555 66.757 26.674 66.8874 26.8263C66.9023 26.844 66.9111 26.866 66.9124 26.889C66.9137 26.9121 66.9076 26.935 66.8948 26.9542C66.8821 26.9735 66.8635 26.9882 66.8417 26.996C66.82 27.0038 66.7963 27.0044 66.7742 26.9976Z" fill="#263238"/>
<path d="M69.1943 50.0849C69.3924 49.4677 69.7101 48.8955 70.1293 48.4011C70.5486 47.9067 71.0611 47.4997 71.6376 47.2033C72.2141 46.9069 72.8433 46.727 73.4894 46.6739C74.1354 46.6207 74.7856 46.6953 75.4028 46.8934C76.02 47.0915 76.5922 47.4092 77.0866 47.8284C77.581 48.2477 77.988 48.7602 78.2844 49.3367C78.5808 49.9132 78.7607 50.5424 78.8138 51.1885C78.867 51.8345 78.7924 52.4847 78.5943 53.1019L76.691 59.0565L67.291 56.0364L69.1943 50.0849Z" fill="#2192FF"/>
<path opacity="0.3" d="M69.1943 50.0849C69.3924 49.4677 69.7101 48.8955 70.1293 48.4011C70.5486 47.9067 71.0611 47.4997 71.6376 47.2033C72.2141 46.9069 72.8433 46.727 73.4894 46.6739C74.1354 46.6207 74.7856 46.6953 75.4028 46.8934C76.02 47.0915 76.5922 47.4092 77.0866 47.8284C77.581 48.2477 77.988 48.7602 78.2844 49.3367C78.5808 49.9132 78.7607 50.5424 78.8138 51.1885C78.867 51.8345 78.7924 52.4847 78.5943 53.1019L76.691 59.0565L67.291 56.0364L69.1943 50.0849Z" fill="black"/>
<path d="M59.9209 47.1039L58.2013 52.4588C58.1761 52.5357 58.1664 52.6169 58.1728 52.6976C58.1792 52.7783 58.2016 52.8569 58.2386 52.9289C58.2755 53.0009 58.3265 53.0649 58.3883 53.117C58.4502 53.1692 58.5219 53.2086 58.5991 53.2329L67.2892 56.0236L69.1986 50.0812C69.5992 48.8359 70.4778 47.8006 71.6414 47.2027C72.805 46.6048 74.1583 46.4934 75.4041 46.8928L66.1295 43.9125C64.883 43.5139 63.5292 43.6261 62.3653 44.2244C61.2014 44.8227 60.3223 45.8583 59.9209 47.1039Z" fill="#2192FF"/>
<path d="M64.5827 51.1647L66.9786 43.7077C66.9868 43.6809 66.9892 43.6527 66.9856 43.6249C66.982 43.5971 66.9725 43.5705 66.9577 43.5467C66.9429 43.5229 66.9232 43.5026 66.8999 43.4871C66.8766 43.4716 66.8502 43.4612 66.8225 43.4568L64.3746 43.0957L64.0686 44.0626L65.8525 44.6348L63.833 50.9199L64.5827 51.1647Z" fill="#263238"/>
<path d="M63.3113 50.7548C63.256 50.9276 63.2531 51.113 63.3031 51.2874C63.353 51.4618 63.4535 51.6175 63.5919 51.7349C63.7303 51.8522 63.9004 51.9259 64.0807 51.9466C64.2609 51.9674 64.4433 51.9342 64.6047 51.8514C64.7661 51.7685 64.8994 51.6397 64.9876 51.4811C65.0759 51.3226 65.1152 51.1415 65.1005 50.9606C65.0859 50.7798 65.018 50.6073 64.9054 50.465C64.7928 50.3227 64.6406 50.217 64.4679 50.1612C64.353 50.1241 64.2319 50.1099 64.1115 50.1197C63.9911 50.1294 63.8738 50.1628 63.7664 50.218C63.6589 50.2731 63.5634 50.3489 63.4853 50.4411C63.4072 50.5332 63.3481 50.6398 63.3113 50.7548Z" fill="#263238"/>
<path d="M67.7422 56.914L79.7983 60.7847C79.8421 60.799 79.8882 60.8045 79.9342 60.8008C79.9801 60.7971 80.0248 60.7844 80.0658 60.7633C80.1067 60.7423 80.1431 60.7133 80.1728 60.6781C80.2025 60.6429 80.225 60.6022 80.2389 60.5583C80.2536 60.5145 80.2594 60.4683 80.2559 60.4222C80.2524 60.3762 80.2397 60.3313 80.2186 60.2902C80.1975 60.2492 80.1684 60.2127 80.133 60.1831C80.0976 60.1535 80.0566 60.1312 80.0125 60.1177L67.2894 56.0327C67.2326 56.2096 67.2484 56.4019 67.3333 56.5671C67.4183 56.7324 67.5653 56.8571 67.7422 56.914Z" fill="#2192FF"/>
<path opacity="0.2" d="M67.7422 56.914L72.6687 58.4959C72.7127 58.5103 72.7591 58.5157 72.8052 58.5121C72.8513 58.5085 72.8963 58.4958 72.9375 58.4747C72.9787 58.4537 73.0154 58.4248 73.0454 58.3895C73.0754 58.3543 73.0981 58.3135 73.1124 58.2695C73.1403 58.181 73.1322 58.0851 73.0898 58.0026C73.0474 57.9201 72.9741 57.8576 72.8859 57.8289L67.2894 56.0327C67.2326 56.2096 67.2484 56.4019 67.3333 56.5671C67.4183 56.7324 67.5653 56.8571 67.7422 56.914Z" fill="black"/>
<path d="M55.0092 39.8094L54.8409 39.9961L54.6512 40.2133C54.5227 40.3602 54.3941 40.5193 54.2717 40.6692C54.0208 40.9752 53.7822 41.3026 53.5588 41.6331C52.6342 42.9418 51.9064 44.3789 51.3985 45.8986C51.2761 46.2781 51.1629 46.6575 51.0741 47.0461C51.0435 47.1593 51.0405 47.2052 51.0252 47.2572C51.0228 47.3021 51.0228 47.347 51.0252 47.3919C51.0203 47.4397 51.0203 47.4879 51.0252 47.5357C51.0252 47.5908 51.1292 47.7193 51.3801 47.8417C51.6818 47.9774 51.9995 48.074 52.3256 48.1293C53.1127 48.2544 53.9096 48.3067 54.7062 48.2853C55.5385 48.2853 56.3831 48.2119 57.2276 48.1232C58.0721 48.0344 58.9289 47.9243 59.7582 47.7988L60.0917 49.1238C58.3838 49.6796 56.6265 50.07 54.8439 50.2896C53.9054 50.4117 52.9565 50.4322 52.0135 50.3508C51.4744 50.3002 50.9451 50.1745 50.4407 49.9775C50.1382 49.8562 49.854 49.6935 49.5962 49.494C49.2926 49.256 49.0424 48.9568 48.8618 48.6158C48.551 47.9763 48.4679 47.2497 48.6262 46.5565C48.6997 46.0883 48.8068 45.6385 48.9322 45.1673C49.1723 44.2627 49.4918 43.3811 49.8869 42.5327C50.283 41.6824 50.7444 40.8639 51.2669 40.0848C51.5301 39.6962 51.8116 39.3198 52.1053 38.9496C52.2553 38.766 52.4113 38.5855 52.5643 38.4049L52.8122 38.1387C52.9009 38.0438 52.9713 37.9674 53.0937 37.8511L55.0092 39.8094Z" fill="#FFB573"/>
<path d="M59.0911 48.0805L61.2331 46.9453L61.3279 49.2464C61.3279 49.2464 59.798 49.8798 58.9229 49.1821L59.0911 48.0805Z" fill="#FFB573"/>
<path d="M62.9988 46.7705L62.6775 48.891L61.3312 49.246L61.2363 46.9449L62.9988 46.7705Z" fill="#FFB573"/>
<path d="M53.7149 35.4948C52.3655 35.7334 50.4775 39.6012 50.4775 39.6012L53.8771 42.6611C53.8771 42.6611 56.579 39.7113 56.4352 37.9549C56.3128 36.4709 55.4315 35.1888 53.7149 35.4948Z" fill="#2192FF"/>
<path opacity="0.7" d="M53.7149 35.4948C52.3655 35.7334 50.4775 39.6012 50.4775 39.6012L53.8771 42.6611C53.8771 42.6611 56.579 39.7113 56.4352 37.9549C56.3128 36.4709 55.4315 35.1888 53.7149 35.4948Z" fill="white"/>
<path d="M44.6088 104.361C44.5733 104.366 44.5373 104.366 44.5017 104.361C44.1621 104.343 43.801 103.822 43.6143 103.516C43.6086 103.508 43.6055 103.498 43.6055 103.487C43.6055 103.477 43.6086 103.467 43.6143 103.458C43.6199 103.449 43.6284 103.442 43.6383 103.438C43.6482 103.435 43.6592 103.434 43.6694 103.437C43.7796 103.458 44.7312 103.673 44.8506 103.994C44.8629 104.029 44.8661 104.066 44.8596 104.103C44.8532 104.139 44.8374 104.173 44.8138 104.202C44.7649 104.276 44.6928 104.332 44.6088 104.361ZM43.7735 103.584C44.0458 104.003 44.3151 104.254 44.5078 104.266C44.5518 104.267 44.5951 104.256 44.6337 104.236C44.6724 104.215 44.7049 104.184 44.7282 104.147C44.7414 104.133 44.7504 104.116 44.7542 104.098C44.758 104.08 44.7564 104.06 44.7496 104.043C44.6761 103.847 44.1039 103.663 43.7735 103.584Z" fill="#2192FF"/>
<path d="M44.5098 103.517C44.2276 103.594 43.9315 103.607 43.6438 103.553C43.6348 103.55 43.6267 103.545 43.6202 103.538C43.6138 103.531 43.6093 103.523 43.6071 103.513C43.6028 103.505 43.6006 103.497 43.6006 103.487C43.6006 103.478 43.6028 103.469 43.6071 103.461C43.6316 103.44 44.1885 102.895 44.5771 102.923C44.6251 102.924 44.6723 102.936 44.7148 102.958C44.7574 102.98 44.794 103.012 44.8219 103.051C44.8553 103.087 44.8759 103.133 44.8803 103.182C44.8847 103.231 44.8728 103.279 44.8464 103.321C44.7585 103.421 44.6403 103.49 44.5098 103.517ZM43.7723 103.468C44.0783 103.51 44.6505 103.434 44.7699 103.259C44.7882 103.232 44.8035 103.189 44.7485 103.119C44.73 103.092 44.7053 103.07 44.6766 103.054C44.6478 103.039 44.6158 103.031 44.5832 103.03C44.317 103.012 43.9315 103.324 43.7723 103.468Z" fill="#2192FF"/>
<path d="M58.4244 108.135C58.1285 108.128 57.8342 108.09 57.5462 108.021C57.5361 108.018 57.5274 108.011 57.5212 108.002C57.515 107.994 57.5117 107.983 57.5117 107.972C57.5117 107.962 57.515 107.951 57.5212 107.942C57.5274 107.934 57.5361 107.927 57.5462 107.923C57.6777 107.859 58.8497 107.311 59.1434 107.52C59.1699 107.538 59.191 107.563 59.2045 107.592C59.218 107.621 59.2233 107.653 59.2199 107.685C59.2185 107.745 59.2034 107.803 59.1759 107.856C59.1483 107.909 59.1089 107.955 59.0608 107.991C58.8689 108.104 58.6463 108.154 58.4244 108.135ZM57.7298 107.951C58.0755 108.015 58.7181 108.101 58.9843 107.902C59.0184 107.875 59.0464 107.841 59.0665 107.803C59.0865 107.764 59.0982 107.722 59.1006 107.679C59.1033 107.665 59.1018 107.651 59.0963 107.639C59.0908 107.626 59.0817 107.616 59.07 107.608C58.9048 107.495 58.2132 107.737 57.7206 107.951H57.7298Z" fill="#2192FF"/>
<path d="M57.5549 108.015C57.5439 108.018 57.5322 108.018 57.5212 108.015C57.5138 108.008 57.5083 107.999 57.5051 107.989C57.5019 107.98 57.5011 107.97 57.5029 107.96C57.5029 107.911 57.7813 106.757 58.4208 106.831C58.5799 106.852 58.6228 106.928 58.632 106.993C58.6717 107.299 57.9343 107.877 57.5824 108.024L57.5549 108.015ZM58.3566 106.922C57.9527 106.922 57.7171 107.595 57.6375 107.865C58.02 107.663 58.5555 107.182 58.5218 106.996C58.5218 106.98 58.5218 106.938 58.4025 106.925L58.3566 106.922Z" fill="#2192FF"/>
<path d="M63.5342 27.2485L64.0758 27.1689C64.0758 27.1689 63.7545 27.5392 63.5342 27.2485Z" fill="#263238"/>
<path d="M82.3634 52.8472L70.5154 55.2951C70.3128 55.3332 70.1033 55.2905 69.9318 55.1761C69.7603 55.0618 69.6403 54.8848 69.5975 54.6832L69.0436 52.1128L68.8447 51.1643L69.1936 50.0811C69.2421 49.9256 69.3003 49.7733 69.368 49.6251C69.3756 49.6016 69.3859 49.579 69.3986 49.5578C69.594 49.1121 69.8572 48.6992 70.1788 48.3339L70.7908 48.2053L80.9497 46.0971C81.1523 46.059 81.3618 46.1017 81.5333 46.2161C81.7049 46.3304 81.8249 46.5074 81.8677 46.709L82.9478 51.9109C82.9921 52.1124 82.9557 52.3232 82.8464 52.4982C82.7372 52.6732 82.5638 52.7984 82.3634 52.8472Z" fill="#2192FF"/>
<path opacity="0.3" d="M81.7755 46.4334L76.0596 52.2472L74.8356 51.7515L70.0744 49.8207L69.4043 49.5484C69.5997 49.1026 69.8629 48.6897 70.1846 48.3244L70.7966 48.1959L80.9554 46.0876C81.111 46.0565 81.2724 46.0729 81.4186 46.1345C81.5648 46.1962 81.6891 46.3003 81.7755 46.4334Z" fill="black"/>
<path d="M81.7758 46.4334L74.836 51.7607L74.3831 52.1095L70.0227 49.9462L69.374 49.6402C69.3816 49.6167 69.3919 49.5941 69.4046 49.5729C69.6001 49.1271 69.8633 48.7142 70.1849 48.3489L70.7969 48.2204L80.9558 46.1121C81.1089 46.0786 81.2686 46.0912 81.4145 46.1484C81.5605 46.2056 81.6862 46.3048 81.7758 46.4334Z" fill="#2192FF"/>
<path opacity="0.2" d="M81.7758 46.4334L74.836 51.7607L74.3831 52.1095L70.0227 49.9462L69.374 49.6402C69.3816 49.6167 69.3919 49.5941 69.4046 49.5729C69.6001 49.1271 69.8633 48.7142 70.1849 48.3489L70.7969 48.2204L80.9558 46.1121C81.1089 46.0786 81.2686 46.0912 81.4145 46.1484C81.5605 46.2056 81.6862 46.3048 81.7758 46.4334Z" fill="white"/>
<path d="M96.828 63.5778L93.2173 67.47C93.0748 67.6217 92.8782 67.711 92.6701 67.7185C92.4621 67.7259 92.2596 67.6509 92.1066 67.5098L83.2512 59.2633C83.0988 59.1212 83.0089 58.9244 83.0015 58.7162C82.994 58.5079 83.0695 58.3052 83.2114 58.1526L86.8344 54.2604C86.9045 54.1841 86.9892 54.1225 87.0833 54.0791C87.1775 54.0358 87.2793 54.0115 87.3829 54.0078C87.4866 54.0041 87.5899 54.021 87.6869 54.0575C87.7839 54.0941 87.8727 54.1495 87.9482 54.2206L96.8005 62.467C96.9152 62.5738 96.9955 62.7124 97.0309 62.865C97.0663 63.0177 97.0554 63.1774 96.9994 63.3238C96.9611 63.4198 96.9026 63.5064 96.828 63.5778Z" fill="#2192FF"/>
<path opacity="0.3" d="M96.9867 63.339L88.9331 62.0263L87.0635 54.0705C87.2062 54.0048 87.3652 53.9828 87.5204 54.0073C87.6756 54.0318 87.82 54.1017 87.9355 54.2082L96.7879 62.4546C96.9082 62.5635 96.9919 62.7069 97.0275 62.8653C97.0631 63.0236 97.0489 63.1891 96.9867 63.339Z" fill="black"/>
<path d="M96.9867 63.3393L89.1442 61.0015L87.0635 54.0983C87.2062 54.0326 87.3652 54.0106 87.5204 54.0351C87.6756 54.0596 87.82 54.1295 87.9355 54.236L96.7879 62.4825C96.9026 62.5892 96.9828 62.7278 97.0183 62.8805C97.0537 63.0331 97.0427 63.1929 96.9867 63.3393Z" fill="#2192FF"/>
<path opacity="0.2" d="M96.9867 63.3393L89.1442 61.0015L87.0635 54.0983C87.2062 54.0326 87.3652 54.0106 87.5204 54.0351C87.6756 54.0596 87.82 54.1295 87.9355 54.236L96.7879 62.4825C96.9026 62.5892 96.9828 62.7278 97.0183 62.8805C97.0537 63.0331 97.0427 63.1929 96.9867 63.3393Z" fill="white"/>
<path d="M99.9759 69.9887L103.954 74.6337C104.03 74.7225 104.087 74.8259 104.122 74.9376C104.156 75.0493 104.168 75.1669 104.155 75.2831C104.143 75.3994 104.107 75.512 104.05 75.6139C103.993 75.7158 103.915 75.805 103.822 75.876L95.1811 82.6078C95.0359 82.6952 94.8633 82.7255 94.697 82.6927C94.5307 82.6599 94.3826 82.5663 94.2815 82.4303L91.1695 78.8808C91.111 78.8126 91.0626 78.7363 91.0257 78.6544C90.9679 78.5418 90.9439 78.415 90.9563 78.2891C90.9688 78.1631 91.0173 78.0435 91.0961 77.9445L98.7459 69.9551C98.8653 69.8257 99.0231 69.7381 99.196 69.7051C99.369 69.672 99.5479 69.6953 99.7067 69.7715C99.8094 69.8262 99.9008 69.8999 99.9759 69.9887Z" fill="#2192FF"/>
<path opacity="0.3" d="M99.7061 69.7806L97.806 78.2321L91.0374 78.6635C90.9797 78.551 90.9556 78.4241 90.9681 78.2982C90.9805 78.1723 91.0291 78.0527 91.1078 77.9536L98.7576 69.9642C98.8762 69.8375 99.0317 69.7516 99.2021 69.7186C99.3725 69.6856 99.5489 69.7073 99.7061 69.7806Z" fill="black"/>
<path d="M99.7064 69.7807L96.521 78.7493L91.0316 78.6636C90.9738 78.551 90.9497 78.4242 90.9622 78.2983C90.9747 78.1723 91.0232 78.0527 91.102 77.9537L98.7517 69.9643C98.8707 69.8363 99.0274 69.7495 99.1991 69.7165C99.3707 69.6835 99.5484 69.7059 99.7064 69.7807Z" fill="#2192FF"/>
<path opacity="0.2" d="M99.7064 69.7807L96.521 78.7493L91.0316 78.6636C90.9738 78.551 90.9497 78.4242 90.9622 78.2983C90.9747 78.1723 91.0232 78.0527 91.102 77.9537L98.7517 69.9643C98.8707 69.8363 99.0274 69.7495 99.1991 69.7165C99.3707 69.6835 99.5484 69.7059 99.7064 69.7807Z" fill="white"/>
</svg>
