
<svg width="24" height="18" viewBox="0 0 24 18" fill="none" xmlns="http://www.w3.org/2000/svg">
<path fill-rule="evenodd" clip-rule="evenodd" d="M4.305 9.00285L7.26 12.3483C7.37053 12.4649 7.45918 12.6055 7.52067 12.7617C7.58216 12.9179 7.61522 13.0866 7.61789 13.2576C7.62055 13.4286 7.59277 13.5985 7.53618 13.7571C7.4796 13.9157 7.39539 14.0597 7.28856 14.1807C7.18173 14.3016 7.05448 14.397 6.9144 14.461C6.77431 14.5251 6.62427 14.5565 6.47322 14.5535C6.32216 14.5505 6.17319 14.5131 6.03519 14.4435C5.89719 14.3738 5.77299 14.2735 5.67 14.1483L0.795 8.62925L0 7.72922L0.795 6.82918L5.67 1.31009C5.88326 1.08512 6.16533 0.962638 6.45678 0.96846C6.74824 0.974282 7.02631 1.10795 7.23243 1.3413C7.43855 1.57465 7.55662 1.88947 7.56176 2.21943C7.5669 2.54939 7.45872 2.86873 7.26 3.11016L4.305 6.45558H19.125C20.4179 6.45558 21.6579 7.03705 22.5721 8.07208C23.4864 9.10711 24 10.5109 24 11.9747C24 13.4384 23.4864 14.8422 22.5721 15.8773C21.6579 16.9123 20.4179 17.4938 19.125 17.4938H16.125C15.8266 17.4938 15.5405 17.3596 15.3295 17.1207C15.1185 16.8819 15 16.5579 15 16.2201C15 15.8823 15.1185 15.5584 15.3295 15.3195C15.5405 15.0807 15.8266 14.9465 16.125 14.9465H19.125C19.8212 14.9465 20.4889 14.6334 20.9812 14.0761C21.4734 13.5187 21.75 12.7628 21.75 11.9747C21.75 11.1865 21.4734 10.4306 20.9812 9.87328C20.4889 9.31595 19.8212 9.00285 19.125 9.00285H4.305Z" fill="#38E54D"/>
</svg>
