
<svg width="35" height="35" viewBox="0 0 35 35" fill="none" xmlns="http://www.w3.org/2000/svg">
<g clip-path="url(#clip0_550_40245)">
<path fill-rule="evenodd" clip-rule="evenodd" d="M17.4434 4.44873C16.6609 4.44873 16.0267 5.083 16.0267 5.8654C16.0267 6.64779 16.6609 7.28206 17.4434 7.28206H19.6512C20.261 7.28206 20.8024 7.67226 20.9952 8.25074L22.0889 11.5321H12.8393L11.7768 10.1154C12.5592 10.1153 13.1934 9.4811 13.1934 8.69873C13.1934 7.91633 12.5591 7.28206 11.7767 7.28206H7.52669C6.7443 7.28206 6.11003 7.91633 6.11003 8.69873C6.11003 9.48113 6.7443 10.1154 7.52669 10.1154H8.23515L10.3028 12.8722C10.2288 12.9917 10.1631 13.1175 10.1066 13.2493L8.95904 15.927C8.49644 15.8319 8.0174 15.7821 7.52669 15.7821C3.61468 15.7821 0.443359 18.9534 0.443359 22.8654C0.443359 26.7774 3.61468 29.9487 7.52669 29.9487C11.4387 29.9487 14.61 26.7774 14.61 22.8654C14.61 22.6821 14.6031 22.5005 14.5894 22.3207L17.3979 21.5183C17.9634 21.3568 18.4646 21.0232 18.832 20.564L23.2562 15.0338L23.8211 16.7281C21.7023 17.9525 20.2767 20.2424 20.2767 22.8654C20.2767 26.7774 23.448 29.9487 27.36 29.9487C31.272 29.9487 34.4434 26.7774 34.4434 22.8654C34.4434 18.9534 31.272 15.7821 27.36 15.7821C27.072 15.7821 26.7881 15.7992 26.509 15.8326L23.6831 7.35477C23.1046 5.61931 21.4806 4.44873 19.6512 4.44873H17.4434ZM24.7332 19.4651L26.016 23.3133C26.2635 24.0557 27.0658 24.4567 27.808 24.2094C28.5503 23.9619 28.9514 23.1596 28.704 22.4174L27.4212 18.5692C29.7659 18.6021 31.6566 20.5129 31.6566 22.8654C31.6566 25.2383 29.7329 27.162 27.36 27.162C24.9871 27.162 23.0634 25.2383 23.0634 22.8654C23.0634 21.4817 23.7175 20.2509 24.7332 19.4651ZM11.563 17.0437L12.2424 15.4584L15.0751 19.2353L13.8121 19.5962C13.2792 18.5737 12.5041 17.6975 11.563 17.0437ZM14.9643 14.3654L17.4795 17.7191L20.1624 14.3654H14.9643ZM11.0089 20.397C10.8349 20.1519 10.6355 19.926 10.4148 19.7229L10.0027 20.6846L11.0089 20.397ZM7.93372 24.2224C7.62657 24.3146 7.28651 24.3037 6.96865 24.1675C6.24951 23.8593 5.91638 23.0265 6.22459 22.3074L7.81059 18.6066C7.71675 18.6005 7.62209 18.5974 7.52669 18.5974C5.16953 18.5974 3.25867 20.5082 3.25867 22.8654C3.25867 25.2226 5.16953 27.1334 7.52669 27.1334C9.79791 27.1334 11.6548 25.3594 11.7872 23.1214L7.93372 24.2224Z" fill="#2192FF"/>
</g>
<defs>
<clipPath id="clip0_550_40245">
<rect width="34" height="34" fill="white" transform="translate(0.443359 0.19873)"/>
</clipPath>
</defs>
</svg>
