
<svg width="16" height="16" viewBox="0 0 16 16" fill="none" xmlns="http://www.w3.org/2000/svg">
<g clip-path="url(#clip0_573_46616)">
<path d="M4.39912 0.811523C4.53976 0.811523 4.67464 0.867392 4.77408 0.966839C4.87353 1.06629 4.9294 1.20117 4.9294 1.34181V2.33343H10.6239V1.34862C10.6239 1.20798 10.6797 1.0731 10.7792 0.973657C10.8786 0.87421 11.0135 0.818341 11.1541 0.818341C11.2948 0.818341 11.4297 0.87421 11.5291 0.973657C11.6286 1.0731 11.6844 1.20798 11.6844 1.34862V2.33343H13.7374C14.1391 2.33343 14.5243 2.49295 14.8084 2.77692C15.0926 3.06089 15.2523 3.44607 15.2525 3.84777V14.4481C15.2523 14.8498 15.0926 15.235 14.8084 15.5189C14.5243 15.8029 14.1391 15.9624 13.7374 15.9624H1.61665C1.21496 15.9624 0.829703 15.8029 0.54559 15.5189C0.261477 15.235 0.101763 14.8498 0.101563 14.4481L0.101562 3.84777C0.101763 3.44607 0.261477 3.06089 0.54559 2.77692C0.829703 2.49295 1.21496 2.33343 1.61665 2.33343H3.86884V1.34105C3.86904 1.20054 3.92499 1.06585 4.02442 0.966571C4.12384 0.867288 4.25861 0.811523 4.39912 0.811523ZM1.16213 6.67644V14.4481C1.16213 14.5078 1.17388 14.5669 1.19672 14.622C1.21957 14.6772 1.25305 14.7273 1.29525 14.7695C1.33746 14.8117 1.38757 14.8452 1.44271 14.868C1.49786 14.8909 1.55696 14.9026 1.61665 14.9026H13.7374C13.7971 14.9026 13.8562 14.8909 13.9113 14.868C13.9665 14.8452 14.0166 14.8117 14.0588 14.7695C14.101 14.7273 14.1345 14.6772 14.1573 14.622C14.1801 14.5669 14.1919 14.5078 14.1919 14.4481V6.68705L1.16213 6.67644ZM5.15212 11.8861V13.1481H3.88929V11.8861H5.15212ZM8.30805 11.8861V13.1481H7.04598V11.8861H8.30805ZM11.4647 11.8861V13.1481H10.2019V11.8861H11.4647ZM5.15212 8.87332V10.1354H3.88929V8.87332H5.15212ZM8.30805 8.87332V10.1354H7.04598V8.87332H8.30805ZM11.4647 8.87332V10.1354H10.2019V8.87332H11.4647ZM3.86884 3.39324H1.61665C1.55696 3.39324 1.49786 3.40499 1.44271 3.42784C1.38757 3.45068 1.33746 3.48416 1.29525 3.52637C1.25305 3.56857 1.21957 3.61868 1.19672 3.67383C1.17388 3.72897 1.16213 3.78808 1.16213 3.84777V5.61663L14.1919 5.62724V3.84777C14.1919 3.78808 14.1801 3.72897 14.1573 3.67383C14.1345 3.61868 14.101 3.56857 14.0588 3.52637C14.0166 3.48416 13.9665 3.45068 13.9113 3.42784C13.8562 3.40499 13.7971 3.39324 13.7374 3.39324H11.6844V4.097C11.6844 4.23764 11.6286 4.37252 11.5291 4.47196C11.4297 4.57141 11.2948 4.62728 11.1541 4.62728C11.0135 4.62728 10.8786 4.57141 10.7792 4.47196C10.6797 4.37252 10.6239 4.23764 10.6239 4.097V3.39324H4.9294V4.09018C4.9294 4.23082 4.87353 4.3657 4.77408 4.46515C4.67464 4.56459 4.53976 4.62046 4.39912 4.62046C4.25848 4.62046 4.1236 4.56459 4.02415 4.46515C3.9247 4.3657 3.86884 4.23082 3.86884 4.09018V3.39324Z" fill="#2192FF"/>
</g>
<defs>
<clipPath id="clip0_573_46616">
<rect width="15.1509" height="15.1509" fill="white" transform="translate(0.101562 0.811523)"/>
</clipPath>
</defs>
</svg>
