
<svg width="31" height="31" viewBox="0 0 31 31" fill="none" xmlns="http://www.w3.org/2000/svg">
<path d="M28.5693 13.0559C28.5693 8.60891 26.2181 0.19873 17.3193 0.19873H13.5693C4.67059 0.19873 2.31934 8.60891 2.31934 13.0559C1.28293 13.0559 0.444336 14.0143 0.444336 15.1987V23.7702C0.444336 24.9546 1.28293 25.913 2.31934 25.913H4.19434V28.0559C4.19434 29.2403 5.03293 30.1987 6.06934 30.1987H7.94434C8.98074 30.1987 9.81934 29.2403 9.81934 28.0559V25.913H21.0693V28.0559C21.0693 29.2403 21.9079 30.1987 22.9443 30.1987H24.8193C25.8557 30.1987 26.6943 29.2403 26.6943 28.0559V25.913H28.5693C29.6057 25.913 30.4443 24.9546 30.4443 23.7702V15.1987C30.4443 14.0143 29.6057 13.0559 28.5693 13.0559ZM7.94434 21.6273C6.90793 21.6273 6.06934 20.6689 6.06934 19.4844C6.06934 18.3 6.90793 17.3416 7.94434 17.3416C8.98074 17.3416 9.81934 18.3 9.81934 19.4844C9.81934 20.6689 8.98074 21.6273 7.94434 21.6273ZM6.06934 13.0559C6.06934 12.7066 6.15559 4.48445 13.5693 4.48445H17.3193C24.5428 4.48445 24.8118 12.1875 24.8193 13.0559H6.06934ZM22.9443 21.6273C21.9079 21.6273 21.0693 20.6689 21.0693 19.4844C21.0693 18.3 21.9079 17.3416 22.9443 17.3416C23.9807 17.3416 24.8193 18.3 24.8193 19.4844C24.8193 20.6689 23.9807 21.6273 22.9443 21.6273Z" fill="#2192FF"/>
</svg>
