
<svg width="17" height="17" viewBox="0 0 17 17" fill="none" xmlns="http://www.w3.org/2000/svg">
<path d="M8.73425 1.6626C7.40428 1.6626 6.10417 2.05698 4.99833 2.79588C3.89249 3.53477 3.0306 4.58499 2.52164 5.81373C2.01268 7.04247 1.87951 8.39454 2.13898 9.69896C2.39844 11.0034 3.03889 12.2016 3.97932 13.142C4.91976 14.0824 6.11795 14.7229 7.42237 14.9824C8.72679 15.2418 10.0789 15.1087 11.3076 14.5997C12.5363 14.0907 13.5866 13.2288 14.3255 12.123C15.0644 11.0172 15.4587 9.71706 15.4587 8.38708C15.4569 6.60422 14.7478 4.89491 13.4871 3.63423C12.2264 2.37356 10.5171 1.66448 8.73425 1.6626ZM8.73425 14.077C7.60889 14.077 6.50879 13.7433 5.57309 13.1181C4.63738 12.4929 3.90808 11.6042 3.47743 10.5645C3.04677 9.52483 2.93409 8.38077 3.15364 7.27703C3.37318 6.17329 3.9151 5.15943 4.71085 4.36368C5.50661 3.56793 6.52046 3.02601 7.6242 2.80646C8.72794 2.58692 9.872 2.6996 10.9117 3.13026C11.9514 3.56091 12.8401 4.29021 13.4653 5.22592C14.0905 6.16162 14.4242 7.26172 14.4242 8.38708C14.4225 9.89562 13.8225 11.3419 12.7558 12.4086C11.6891 13.4753 10.2428 14.0753 8.73425 14.077ZM12.8724 8.38708C12.8724 8.52427 12.8179 8.65584 12.7209 8.75285C12.6239 8.84985 12.4923 8.90435 12.3551 8.90435H8.73425C8.59706 8.90435 8.4655 8.84985 8.36849 8.75285C8.27148 8.65584 8.21698 8.52427 8.21698 8.38708V4.76621C8.21698 4.62902 8.27148 4.49745 8.36849 4.40044C8.4655 4.30344 8.59706 4.24894 8.73425 4.24894C8.87144 4.24894 9.00301 4.30344 9.10002 4.40044C9.19702 4.49745 9.25152 4.62902 9.25152 4.76621V7.86981H12.3551C12.4923 7.86981 12.6239 7.92431 12.7209 8.02132C12.8179 8.11832 12.8724 8.24989 12.8724 8.38708Z" fill="#2192FF"/>
</svg>
