
<svg width="15" height="14" viewBox="0 0 15 14" fill="none" xmlns="http://www.w3.org/2000/svg">
<path d="M12.0625 12.5786V10.905C12.0625 9.3274 12.0625 8.53802 11.5721 8.04822C11.0823 7.55786 10.293 7.55786 8.71533 7.55786L7.59961 8.67358L6.48389 7.55786C4.90625 7.55786 4.11688 7.55786 3.62708 8.04822C3.13672 8.53802 3.13672 9.3274 3.13672 10.905V12.5786M9.83105 7.55786V10.6261" stroke="#2192FF" stroke-width="0.836792" stroke-linecap="round" stroke-linejoin="round"/>
<path d="M5.64697 7.55786V9.78931M5.64697 9.78931C5.94288 9.78931 6.22667 9.90686 6.43591 10.1161C6.64515 10.3253 6.7627 10.6091 6.7627 10.905V11.4629M5.64697 9.78931C5.35106 9.78931 5.06728 9.90686 4.85804 10.1161C4.6488 10.3253 4.53125 10.6091 4.53125 10.905V11.4629M9.552 3.93176V3.3739C9.552 3.11749 9.5015 2.8636 9.40338 2.62671C9.30525 2.38982 9.16143 2.17457 8.98012 1.99327C8.79882 1.81196 8.58357 1.66814 8.34668 1.57001C8.10979 1.47189 7.8559 1.42139 7.59949 1.42139C7.34308 1.42139 7.08918 1.47189 6.85229 1.57001C6.6154 1.66814 6.40016 1.81196 6.21885 1.99327C6.03754 2.17457 5.89372 2.38982 5.7956 2.62671C5.69748 2.8636 5.64697 3.11749 5.64697 3.3739V3.93176C5.64697 4.18817 5.69748 4.44207 5.7956 4.67896C5.89372 4.91585 6.03754 5.13109 6.21885 5.3124C6.40016 5.49371 6.6154 5.63753 6.85229 5.73565C7.08918 5.83377 7.34308 5.88428 7.59949 5.88428C7.8559 5.88428 8.10979 5.83377 8.34668 5.73565C8.58357 5.63753 8.79882 5.49371 8.98012 5.3124C9.16143 5.13109 9.30525 4.91585 9.40338 4.67896C9.5015 4.44207 9.552 4.18817 9.552 3.93176ZM10.2493 11.0445C10.2493 11.1555 10.2052 11.2619 10.1268 11.3403C10.0483 11.4188 9.9419 11.4629 9.83093 11.4629C9.71997 11.4629 9.61355 11.4188 9.53508 11.3403C9.45662 11.2619 9.41254 11.1555 9.41254 11.0445C9.41254 10.9335 9.45662 10.8271 9.53508 10.7486C9.61355 10.6702 9.71997 10.6261 9.83093 10.6261C9.9419 10.6261 10.0483 10.6702 10.1268 10.7486C10.2052 10.8271 10.2493 10.9335 10.2493 11.0445Z" stroke="#2192FF" stroke-width="0.836792" stroke-linecap="round" stroke-linejoin="round"/>
</svg>
