
<svg width="30" height="30" viewBox="0 0 30 30" fill="none" xmlns="http://www.w3.org/2000/svg">
<path d="M11.5379 19.6157C11.5379 19.3709 11.6352 19.1361 11.8083 18.963C11.9814 18.7899 12.2162 18.6926 12.461 18.6926H17.9995C18.2443 18.6926 18.4791 18.7899 18.6522 18.963C18.8253 19.1361 18.9226 19.3709 18.9226 19.6157C18.9226 19.8605 18.8253 20.0953 18.6522 20.2684C18.4791 20.4415 18.2443 20.5388 17.9995 20.5388H12.461C12.2162 20.5388 11.9814 20.4415 11.8083 20.2684C11.6352 20.0953 11.5379 19.8605 11.5379 19.6157ZM7.84563 14.0773C7.84563 13.8324 7.94288 13.5977 8.11599 13.4245C8.2891 13.2514 8.52389 13.1542 8.7687 13.1542H21.6918C21.9366 13.1542 22.1714 13.2514 22.3445 13.4245C22.5176 13.5977 22.6149 13.8324 22.6149 14.0773C22.6149 14.3221 22.5176 14.5569 22.3445 14.73C22.1714 14.9031 21.9366 15.0003 21.6918 15.0003H8.7687C8.52389 15.0003 8.2891 14.9031 8.11599 14.73C7.94288 14.5569 7.84563 14.3221 7.84563 14.0773ZM4.15332 8.5388C4.15332 8.29398 4.25057 8.0592 4.42368 7.88609C4.59679 7.71298 4.83158 7.61572 5.0764 7.61572H25.3841C25.6289 7.61572 25.8637 7.71298 26.0368 7.88609C26.2099 8.0592 26.3072 8.29398 26.3072 8.5388C26.3072 8.78361 26.2099 9.0184 26.0368 9.19151C25.8637 9.36462 25.6289 9.46188 25.3841 9.46188H5.0764C4.83158 9.46188 4.59679 9.36462 4.42368 9.19151C4.25057 9.0184 4.15332 8.78361 4.15332 8.5388Z" fill="#38E54D"/>
</svg>
