
<svg width="11" height="12" viewBox="0 0 11 12" fill="none" xmlns="http://www.w3.org/2000/svg">
<path d="M8.70671 2.79248L6.23171 5.26748M8.70671 2.79248H6.41504M8.70671 2.79248V5.08415M2.29004 6.91748C2.29004 7.52527 2.53148 8.10816 2.96125 8.53793C3.39102 8.9677 3.97392 9.20915 4.58171 9.20915C5.18949 9.20915 5.77239 8.9677 6.20216 8.53793C6.63193 8.10816 6.87337 7.52527 6.87337 6.91748C6.87337 6.30969 6.63193 5.7268 6.20216 5.29703C5.77239 4.86726 5.18949 4.62581 4.58171 4.62581C3.97392 4.62581 3.39102 4.86726 2.96125 5.29703C2.53148 5.7268 2.29004 6.30969 2.29004 6.91748Z" stroke="#2192FF" stroke-width="0.916667" stroke-linecap="round" stroke-linejoin="round"/>
</svg>
