
<svg width="12" height="16" viewBox="0 0 12 16" fill="none" xmlns="http://www.w3.org/2000/svg">
<path d="M1.51317 15.5C1.13984 15.5 0.82206 15.3689 0.559837 15.1067C0.297615 14.8444 0.166504 14.5269 0.166504 14.1542V6.84583C0.166504 6.47361 0.297615 6.15611 0.559837 5.89333C0.82206 5.63111 1.13984 5.5 1.51317 5.5H2.6665V3.83333C2.6665 2.905 2.99012 2.1175 3.63734 1.47083C4.284 0.823611 5.0715 0.5 5.99984 0.5C6.92817 0.5 7.71595 0.823611 8.36317 1.47083C9.01039 2.11806 9.33373 2.90556 9.33317 3.83333V5.5H10.4873C10.8596 5.5 11.1771 5.63111 11.4398 5.89333C11.7021 6.15556 11.8332 6.47333 11.8332 6.84667V14.1542C11.8332 14.5264 11.7021 14.8439 11.4398 15.1067C11.1776 15.3689 10.8601 15.5 10.4873 15.5H1.51317ZM1.51317 14.6667H10.4873C10.6368 14.6667 10.7596 14.6186 10.8557 14.5225C10.9518 14.4264 10.9998 14.3036 10.9998 14.1542V6.84583C10.9998 6.69639 10.9518 6.57361 10.8557 6.4775C10.7596 6.38139 10.6368 6.33333 10.4873 6.33333H1.51234C1.36289 6.33333 1.24011 6.38139 1.144 6.4775C1.04789 6.57361 0.999837 6.69667 0.999837 6.84667V14.1542C0.999837 14.3036 1.04789 14.4264 1.144 14.5225C1.24011 14.6186 1.36317 14.6667 1.51317 14.6667ZM5.99984 11.75C6.3515 11.75 6.64762 11.6294 6.88817 11.3883C7.12928 11.1478 7.24984 10.8517 7.24984 10.5C7.24984 10.1483 7.12928 9.85222 6.88817 9.61167C6.64706 9.37111 6.35095 9.25056 5.99984 9.25C5.64873 9.24944 5.35262 9.37 5.1115 9.61167C4.87039 9.85222 4.74984 10.1483 4.74984 10.5C4.74984 10.8517 4.87039 11.1478 5.1115 11.3883C5.35206 11.6294 5.64817 11.75 5.99984 11.75ZM3.49984 5.5H8.49984V3.83333C8.49984 3.13889 8.25678 2.54861 7.77067 2.0625C7.28456 1.57639 6.69428 1.33333 5.99984 1.33333C5.30539 1.33333 4.71512 1.57639 4.229 2.0625C3.74289 2.54861 3.49984 3.13889 3.49984 3.83333V5.5Z" fill="#2192FF"/>
</svg>