
<svg width="31" height="29" viewBox="0 0 31 29" fill="none" xmlns="http://www.w3.org/2000/svg">
<path d="M9.49976 9.10278H21.4998M9.49976 15.1028H18.4998M24.4998 1.60278C25.6932 1.60278 26.8378 2.07689 27.6817 2.9208C28.5257 3.76472 28.9998 4.90931 28.9998 6.10278V18.1028C28.9998 19.2963 28.5257 20.4409 27.6817 21.2848C26.8378 22.1287 25.6932 22.6028 24.4998 22.6028H16.9998L9.49976 27.1028V22.6028H6.49976C5.30628 22.6028 4.16169 22.1287 3.31778 21.2848C2.47386 20.4409 1.99976 19.2963 1.99976 18.1028V6.10278C1.99976 4.90931 2.47386 3.76472 3.31778 2.9208C4.16169 2.07689 5.30628 1.60278 6.49976 1.60278H24.4998Z" stroke="white" stroke-width="3" stroke-linecap="round" stroke-linejoin="round"/>
</svg>
