
<svg width="12" height="12" viewBox="0 0 12 12" fill="none" xmlns="http://www.w3.org/2000/svg">
<path d="M6 0C5.00544 0 4.05161 0.395088 3.34835 1.09835C2.64509 1.80161 2.25 2.75544 2.25 3.75C2.25 7.5 6 12 6 12C6 12 9.75 7.5 9.75 3.75C9.75 2.75544 9.35491 1.80161 8.65165 1.09835C7.94839 0.395088 6.99456 0 6 0ZM6 6.04725C5.69832 6.04725 5.3996 5.98783 5.12088 5.87238C4.84217 5.75693 4.58892 5.58772 4.3756 5.3744C4.16228 5.16108 3.99307 4.90783 3.87762 4.62912C3.76217 4.3504 3.70275 4.05168 3.70275 3.75C3.70275 3.44832 3.76217 3.1496 3.87762 2.87088C3.99307 2.59217 4.16228 2.33892 4.3756 2.1256C4.58892 1.91228 4.84217 1.74307 5.12088 1.62762C5.3996 1.51217 5.69832 1.45275 6 1.45275C6.60927 1.45275 7.19358 1.69478 7.6244 2.1256C8.05522 2.55642 8.29725 3.14073 8.29725 3.75C8.29725 4.35927 8.05522 4.94358 7.6244 5.3744C7.19358 5.80522 6.60927 6.04725 6 6.04725ZM4.54725 3.75C4.54725 3.36451 4.70039 2.9948 4.97297 2.72222C5.24555 2.44964 5.61526 2.2965 6.00075 2.2965C6.38624 2.2965 6.75595 2.44964 7.02853 2.72222C7.30111 2.9948 7.45425 3.36451 7.45425 3.75C7.45425 4.13549 7.30111 4.5052 7.02853 4.77778C6.75595 5.05036 6.38624 5.2035 6.00075 5.2035C5.61526 5.2035 5.24555 5.05036 4.97297 4.77778C4.70039 4.5052 4.54725 4.13549 4.54725 3.75Z" fill="#2192FF"/>
</svg>
