
<svg width="20" height="19" viewBox="0 0 20 19" fill="none" xmlns="http://www.w3.org/2000/svg">
<path d="M10.4432 16.4825C10.3138 16.5748 10.1588 16.6245 9.99983 16.6245C9.84087 16.6245 9.68588 16.5748 9.55649 16.4825C5.73353 13.7576 1.67624 8.15259 5.77787 4.10242C6.90351 2.99418 8.42019 2.37363 9.99983 2.375C11.5832 2.375 13.1024 2.99646 14.2218 4.10163C18.3234 8.15179 14.2661 13.756 10.4432 16.4825Z" stroke="#2192FF" stroke-width="1.1875" stroke-linecap="round" stroke-linejoin="round"/>
<path d="M9.99984 9.49992C10.4198 9.49992 10.8225 9.3331 11.1194 9.03617C11.4164 8.73924 11.5832 8.33651 11.5832 7.91659C11.5832 7.49666 11.4164 7.09393 11.1194 6.797C10.8225 6.50007 10.4198 6.33325 9.99984 6.33325C9.57991 6.33325 9.17718 6.50007 8.88025 6.797C8.58332 7.09393 8.4165 7.49666 8.4165 7.91659C8.4165 8.33651 8.58332 8.73924 8.88025 9.03617C9.17718 9.3331 9.57991 9.49992 9.99984 9.49992Z" stroke="#2192FF" stroke-width="1.1875" stroke-linecap="round" stroke-linejoin="round"/>
</svg>
