
<svg width="37" height="24" viewBox="0 0 37 24" fill="none" xmlns="http://www.w3.org/2000/svg">
<path d="M22.7758 0.198918C22.7758 0.198918 20.3563 0.145573 18.6618 1.83855C18.3752 2.12493 18.3752 2.58537 18.6618 2.87175C18.9484 3.15812 19.4093 3.15812 19.6959 2.87175C20.6401 1.9284 21.7951 1.75433 22.3262 1.70379C22.4723 2.01262 22.6353 2.35515 22.7084 2.71452C22.7168 2.76787 22.7337 2.82121 22.7534 2.87175C22.7 3.20024 22.5342 3.68595 22.1913 4.08463C21.9047 4.371 21.6237 4.51138 21.3371 4.51138C16.9476 4.51138 16.0821 6.60023 15.6493 7.67835C15.5763 7.82154 15.5145 7.96192 15.5145 8.1051C13.213 8.1051 11.4847 7.45936 11.1981 7.02699C10.1921 5.30313 9.39399 5.23013 6.22977 5.23013C1.26708 5.23013 0.547685 7.68397 0.474621 7.97034C0.401557 8.18652 0.46619 8.38306 0.609507 8.59924C0.682571 8.67224 1.55933 9.54259 3.28475 9.54259H3.64445C4.65048 9.11022 5.72957 8.82385 6.88173 8.82385C11.2712 8.82385 14.7951 12.3446 14.7951 16.73C14.7951 17.3056 14.7136 17.884 14.5703 18.4595C15.8657 18.8189 17.3186 18.8863 17.9649 18.8863H18.0998C19.3953 18.8863 21.264 18.5325 22.0564 17.7408C22.4161 17.3814 22.4836 17.022 22.4836 16.6627C21.8569 12.3361 24.0235 10.3736 25.024 9.69982C25.3106 10.354 25.6028 11.011 25.9232 11.6539C24.4282 12.805 23.4952 14.6608 23.4952 16.6627C23.4952 20.2564 26.3728 23.1313 29.9698 23.1313C33.5668 23.1313 36.4443 20.2564 36.4443 16.6627C36.4443 13.0689 33.5668 10.2613 29.9698 10.2613C28.9638 10.2613 28.0224 10.4803 27.1597 10.9127C27.5924 11.7746 28.0954 12.6366 28.5984 13.4283C29.0312 13.2851 29.4668 13.1363 29.9698 13.1363C31.9847 13.1363 33.5668 14.717 33.5668 16.73C33.5668 18.7431 31.9847 20.3238 29.9698 20.3238C27.9549 20.3238 26.3728 18.7431 26.3728 16.73C26.3728 15.7249 26.7381 14.8602 27.3845 14.2144C26.8899 13.4367 26.3953 12.5916 25.9682 11.6764C26.3222 11.3956 26.7381 11.1233 27.1597 10.9127C26.5133 9.6184 25.8614 8.25671 25.4286 6.89222C25.4033 6.82765 25.378 6.76588 25.3387 6.71254C24.7598 4.81741 24.2006 2.47588 24.1472 2.42253C24.1388 2.38323 24.1163 2.34673 24.1022 2.31023C23.8999 1.43145 23.4053 0.580751 23.4053 0.580751C23.2817 0.34772 23.04 0.201725 22.7758 0.198918ZM27.3845 14.2144C28.2472 15.6519 29.2588 16.9378 30.1946 17.9429C30.3379 18.0861 30.5459 18.1675 30.6892 18.1675C30.8325 18.1675 31.0404 18.0861 31.1838 17.9429C31.4704 17.6565 31.4704 17.241 31.1838 16.9546C30.3211 16.0197 29.3937 14.7928 28.531 13.4283C28.0982 13.6445 27.7442 13.8551 27.3845 14.2144ZM27.5194 3.07389C26.9433 3.07389 26.3812 3.15531 25.8782 3.2985C26.311 4.87918 26.8674 6.94557 27.2271 7.8805C27.2271 7.95349 27.317 8.03211 27.317 8.1051H27.5194C28.4551 8.1051 29.0424 7.8805 29.4752 7.52112C29.9782 7.01856 29.9698 6.29982 29.9698 5.72426V5.45473C29.9698 4.87918 29.9782 4.16043 29.4752 3.65787C29.0424 3.2985 28.4551 3.07389 27.5194 3.07389ZM6.94917 10.2613C3.3522 10.2613 0.474621 13.1363 0.474621 16.73C0.474621 20.3238 3.3522 23.1987 6.94917 23.1987C10.2595 23.1987 12.9966 20.6831 13.3563 17.4488H10.4787C10.119 19.1025 8.67459 20.3238 6.94917 20.3238C4.9343 20.3238 3.3522 18.7431 3.3522 16.73C3.3522 14.717 4.9343 13.1363 6.94917 13.1363C8.67459 13.1363 10.119 14.3576 10.4787 16.0113H13.3563C12.9966 12.7769 10.2595 10.2613 6.94917 10.2613ZM10.4787 16.0113H8.99495C8.70831 15.1606 7.91867 14.5738 6.94917 14.5738C5.72676 14.5738 4.79099 15.5087 4.79099 16.73C4.79099 17.9513 5.72676 18.8863 6.94917 18.8863C7.91867 18.8863 8.70831 18.2995 8.99495 17.4488H10.4787C10.5518 17.2326 10.5461 16.9462 10.5461 16.73C10.5461 16.5138 10.5518 16.2275 10.4787 16.0113Z" fill="#2192FF"/>
</svg>
