
<svg width="36" height="36" viewBox="0 0 36 36" fill="none" xmlns="http://www.w3.org/2000/svg">
<path fill-rule="evenodd" clip-rule="evenodd" d="M19.4034 8.94857C21.0143 8.94857 22.3201 7.64273 22.3201 6.0319C22.3201 4.42107 21.0143 3.11523 19.4034 3.11523C17.7927 3.11523 16.4868 4.42107 16.4868 6.0319C16.4868 7.64273 17.7927 8.94857 19.4034 8.94857ZM16.5638 9.83169C17.0469 9.59012 17.6241 9.6354 18.0637 9.94938L19.522 10.9911C19.9859 11.3224 20.2141 11.8938 20.1064 12.4536L18.5769 20.3921L24.9919 30.0146C25.4386 30.6847 25.2576 31.5902 24.5874 32.0371C23.9173 32.4837 23.0118 32.3026 22.5651 31.6325L15.8183 21.5124L14.629 19.7284C14.4208 19.4162 14.3411 19.0357 14.4063 18.666L15.2762 13.7364L12.6727 15.0381L11.8388 19.2056C11.6808 19.9954 10.9124 20.5075 10.1227 20.3495C9.33291 20.1914 8.8208 19.423 8.97882 18.6334L9.95267 13.7666C10.041 13.3254 10.328 12.9496 10.7305 12.7484L16.5638 9.83169ZM24.7757 19.0821L20.5837 17.6847L21.1402 14.7959L25.698 16.315C26.4621 16.5698 26.8751 17.3957 26.6203 18.1597C26.3657 18.9239 25.5398 19.3369 24.7757 19.0821ZM9.38242 30.1086L14.1481 21.6362L14.6049 22.3213L15.9632 24.3586L11.9245 31.5386C11.5297 32.2405 10.6405 32.4894 9.93851 32.0947C9.23652 31.6997 8.98756 30.8106 9.38242 30.1086Z" fill="#2192FF"/>
</svg>
