
<svg width="16" height="16" viewBox="0 0 16 16" fill="none" xmlns="http://www.w3.org/2000/svg">
<path d="M15.3117 10.5234L11.6211 8.86945C11.4539 8.7978 11.2714 8.769 11.0903 8.78564C10.9091 8.80228 10.735 8.86385 10.5836 8.96477C10.5683 8.97467 10.5537 8.98563 10.5399 8.99758L8.61095 10.6382C8.59093 10.6491 8.56866 10.6552 8.54588 10.656C8.52309 10.6568 8.50044 10.6523 8.4797 10.6429C7.23985 10.0445 5.95548 8.76789 5.3547 7.54524C5.34469 7.52481 5.33949 7.50236 5.33949 7.47961C5.33949 7.45686 5.34469 7.43442 5.3547 7.41399L7.00079 5.46086C7.01262 5.44642 7.02358 5.43129 7.0336 5.41555C7.13313 5.2636 7.19324 5.08926 7.20852 4.90826C7.22379 4.72726 7.19375 4.54531 7.1211 4.37883L5.47892 0.694454C5.38566 0.476961 5.22437 0.295581 5.01927 0.177536C4.81418 0.0594911 4.57632 0.0111495 4.34142 0.0397664C3.3205 0.173982 2.38338 0.675343 1.70518 1.45016C1.02699 2.22497 0.654119 3.22022 0.656259 4.24992C0.656259 10.3671 5.63282 15.3437 11.75 15.3437C12.7797 15.3456 13.7748 14.9727 14.5496 14.2946C15.3244 13.6164 15.8258 12.6794 15.9602 11.6585C15.9887 11.4247 15.941 11.1879 15.8242 10.9834C15.7074 10.7789 15.5276 10.6175 15.3117 10.5234ZM11.75 14.4062C6.15001 14.4062 1.59376 9.84992 1.59376 4.24992C1.59115 3.4483 1.88048 2.67316 2.4077 2.06931C2.93492 1.46545 3.66396 1.07421 4.4586 0.968673H4.47657C4.50806 0.96926 4.53863 0.979347 4.56428 0.997609C4.58993 1.01587 4.60946 1.04146 4.62032 1.07102L6.26876 4.75148C6.27816 4.77195 6.28303 4.7942 6.28303 4.81672C6.28303 4.83924 6.27816 4.86149 6.26876 4.88195L4.61954 6.83977C4.6073 6.85379 4.59607 6.86867 4.58595 6.8843C4.48275 7.04184 4.42198 7.22337 4.40952 7.41129C4.39707 7.59921 4.43335 7.78717 4.51485 7.95695C5.20782 9.3757 6.63751 10.7945 8.07188 11.4874C8.24266 11.5685 8.43153 11.6039 8.62008 11.5902C8.80862 11.5765 8.99039 11.5142 9.14767 11.4093C9.16251 11.3991 9.17735 11.3882 9.19142 11.3765L11.1195 9.73586C11.1386 9.72563 11.1596 9.71963 11.1812 9.71828C11.2028 9.71694 11.2244 9.72027 11.2445 9.72805L14.9359 11.382C14.9661 11.3948 14.9915 11.4168 15.0084 11.4448C15.0254 11.4729 15.0331 11.5055 15.0305 11.5382C14.9255 12.3332 14.5346 13.0628 13.9309 13.5906C13.3272 14.1184 12.5519 14.4083 11.75 14.4062Z" fill="#2192FF"/>
</svg>