
<svg width="20" height="23" viewBox="0 0 20 23" fill="none" xmlns="http://www.w3.org/2000/svg">
<path d="M18.0003 13.3394H11.3337V21.1634C11.3337 21.5784 11.1932 21.9764 10.9431 22.2699C10.6931 22.5634 10.3539 22.7282 10.0003 22.7282C9.6467 22.7282 9.30756 22.5634 9.05752 22.2699C8.80747 21.9764 8.66699 21.5784 8.66699 21.1634V13.3394H2.00033C1.6467 13.3394 1.30757 13.1746 1.05752 12.8811C0.807468 12.5877 0.666992 12.1896 0.666992 11.7746C0.666992 11.3596 0.807468 10.9616 1.05752 10.6682C1.30757 10.3747 1.6467 10.2098 2.00033 10.2098H8.66699V2.38584C8.66699 1.97083 8.80747 1.57282 9.05752 1.27936C9.30756 0.985907 9.6467 0.821045 10.0003 0.821045C10.3539 0.821045 10.6931 0.985907 10.9431 1.27936C11.1932 1.57282 11.3337 1.97083 11.3337 2.38584V10.2098H18.0003C18.3539 10.2098 18.6931 10.3747 18.9431 10.6682C19.1932 10.9616 19.3337 11.3596 19.3337 11.7746C19.3337 12.1896 19.1932 12.5877 18.9431 12.8811C18.6931 13.1746 18.3539 13.3394 18.0003 13.3394Z" fill="white"/>
</svg>
