
<svg width="20" height="20" viewBox="0 0 20 20" fill="none" xmlns="http://www.w3.org/2000/svg">
<path d="M8.50335 2.61548C7.30837 2.61548 6.14023 2.96983 5.14664 3.63373C4.15305 4.29762 3.37864 5.24124 2.92134 6.34526C2.46404 7.44927 2.34439 8.6641 2.57752 9.83612C2.81065 11.0081 3.38609 12.0847 4.23107 12.9297C5.07605 13.7747 6.15261 14.3501 7.32463 14.5832C8.49665 14.8164 9.71148 14.6967 10.8155 14.2394C11.9195 13.7821 12.8631 13.0077 13.527 12.0141C14.1909 11.0205 14.5453 9.85238 14.5453 8.6574C14.5452 7.05501 13.9086 5.51829 12.7755 4.38523C11.6425 3.25217 10.1057 2.61558 8.50335 2.61548Z" stroke="#2192FF" stroke-width="1.23077" stroke-miterlimit="10"/>
<path d="M13.0107 13.1646L17.2304 17.3842" stroke="#2192FF" stroke-width="1.23077" stroke-miterlimit="10" stroke-linecap="round"/>
</svg>
