
<svg width="10" height="11" viewBox="0 0 10 11" fill="none" xmlns="http://www.w3.org/2000/svg">
<path d="M9.5 10L6.5 7M0.5 4.5C0.5 4.95963 0.59053 5.41475 0.766422 5.83939C0.942313 6.26403 1.20012 6.64987 1.52513 6.97487C1.85013 7.29988 2.23597 7.55769 2.66061 7.73358C3.08525 7.90947 3.54037 8 4 8C4.45963 8 4.91475 7.90947 5.33939 7.73358C5.76403 7.55769 6.14987 7.29988 6.47487 6.97487C6.79988 6.64987 7.05769 6.26403 7.23358 5.83939C7.40947 5.41475 7.5 4.95963 7.5 4.5C7.5 4.04037 7.40947 3.58525 7.23358 3.16061C7.05769 2.73597 6.79988 2.35013 6.47487 2.02513C6.14987 1.70012 5.76403 1.44231 5.33939 1.26642C4.91475 1.09053 4.45963 1 4 1C3.54037 1 3.08525 1.09053 2.66061 1.26642C2.23597 1.44231 1.85013 1.70012 1.52513 2.02513C1.20012 2.35013 0.942313 2.73597 0.766422 3.16061C0.59053 3.58525 0.5 4.04037 0.5 4.5Z" stroke="white" stroke-linecap="round" stroke-linejoin="round"/>
</svg>
