
<svg width="430" height="932" viewBox="0 0 430 932" fill="none" xmlns="http://www.w3.org/2000/svg">
<rect x="281.441" y="95.7495" width="30.482" height="5.28" transform="rotate(-153 281.441 95.7495)" fill="#ECB43C"/>
<rect x="70.082" y="319.75" width="11.482" height="9.28" transform="rotate(30 70.082 319.75)" fill="#FDA5A5" fill-opacity="0.85"/>
<rect x="314.441" y="583.75" width="17.482" height="8.28" transform="rotate(-25 314.441 583.75)" fill="#38E54D"/>
<rect x="392.441" y="263.75" width="15.482" height="7.28" transform="rotate(-27 392.441 263.75)" fill="#56B8A5" fill-opacity="0.85"/>
<rect x="77.4414" y="624.75" width="14.482" height="8.28" transform="rotate(-51 77.4414 624.75)" fill="#38E54D"/>
<rect x="81.4414" y="385.75" width="8.482" height="4.28" transform="rotate(-168 81.4414 385.75)" fill="#ECB43C" fill-opacity="0.35"/>
<rect x="6.44141" y="394.75" width="16.482" height="4.28" transform="rotate(-176 6.44141 394.75)" fill="#56B8A5"/>
<rect x="142.724" y="289.445" width="14.482" height="8.28" transform="rotate(-148 142.724 289.445)" fill="#38E54D"/>
<rect x="262.441" y="25.7495" width="37.482" height="5.28" transform="rotate(6 262.441 25.7495)" fill="#56B8A5" fill-opacity="0.9"/>
<rect x="104.441" y="3.74951" width="9.482" height="7.28" transform="rotate(-131 104.441 3.74951)" fill="#3DBD96" fill-opacity="0.65"/>
<rect x="364.441" y="403.75" width="22.482" height="8.28" transform="rotate(-159 364.441 403.75)" fill="#3DBD96"/>
<rect x="125.441" y="89.7495" width="25.482" height="4.28" transform="rotate(-171 125.441 89.7495)" fill="#ECB43C"/>
<rect x="121.441" y="696.75" width="33.482" height="7.28" transform="rotate(-19 121.441 696.75)" fill="#56B8A5" fill-opacity="0.45"/>
<rect x="379.441" y="563.75" width="29.482" height="4.28" transform="rotate(-178 379.441 563.75)" fill="#2192FF"/>
<rect x="350.919" y="131.596" width="32.482" height="4.28" transform="rotate(-179 350.919 131.596)" fill="#2192FF"/>
<rect x="98.8711" y="271.718" width="36.482" height="4.28" transform="rotate(158 98.8711 271.718)" fill="#2192FF"/>
<rect x="388.441" y="720.75" width="16.482" height="8.28" transform="rotate(-136 388.441 720.75)" fill="#FDA5A5" fill-opacity="0.85"/>
<rect x="21.4414" y="128.75" width="16.482" height="7.28" transform="rotate(90 21.4414 128.75)" fill="#2192FF"/>
<rect x="324.441" y="599.75" width="31.482" height="6.28" transform="rotate(-136 324.441 599.75)" fill="#38E54D"/>
<rect x="20.4414" y="831.75" width="21.482" height="6.28" transform="rotate(39 20.4414 831.75)" fill="#2192FF"/>
<rect x="358.441" y="778.75" width="15.482" height="6.28" transform="rotate(96 358.441 778.75)" fill="#3DBD96" fill-opacity="0.85"/>
<rect x="191.439" y="300.75" width="11.482" height="7.28" transform="rotate(74 191.439 300.75)" fill="#2192FF"/>
<rect x="83.4414" y="19.7495" width="29.482" height="6.28" transform="rotate(133 83.4414 19.7495)" fill="#2192FF"/>
<rect x="208.441" y="586.218" width="23.482" height="8.28" transform="rotate(-35 208.441 586.218)" fill="#FDA5A5" fill-opacity="0.85"/>
<rect x="368.441" y="264.75" width="36.482" height="4.28" transform="rotate(62 368.441 264.75)" fill="#38E54D"/>
<rect x="336.441" y="912.75" width="10.482" height="6.28" transform="rotate(-59 336.441 912.75)" fill="#FDA5A5" fill-opacity="0.35"/>
<rect x="115.441" y="890.75" width="8.482" height="9.28" transform="rotate(-4 115.441 890.75)" fill="#2192FF"/>
<rect x="354.441" y="558.75" width="17.482" height="7.28" transform="rotate(-91 354.441 558.75)" fill="#2192FF"/>
<rect x="396.441" y="278.75" width="27.482" height="8.28" transform="rotate(-68 396.441 278.75)" fill="#38E54D"/>
<rect x="17.4414" y="549.75" width="8.482" height="8.28" transform="rotate(-52 17.4414 549.75)" fill="#2192FF"/>
<rect x="435.441" y="404.75" width="28.482" height="6.28" transform="rotate(-133 435.441 404.75)" fill="#2192FF"/>
<rect x="392.441" y="331.75" width="29.482" height="6.28" transform="rotate(109 392.441 331.75)" fill="#2192FF"/>
<rect x="406.441" y="103.75" width="14.482" height="4.28" transform="rotate(99 406.441 103.75)" fill="#38E54D"/>
<rect x="318.713" y="277.208" width="36.482" height="4.28" transform="rotate(-149 318.713 277.208)" fill="#2192FF"/>
<rect x="398.441" y="579.75" width="33.482" height="4.28" transform="rotate(-115 398.441 579.75)" fill="#FDA5A5" fill-opacity="0.75"/>
<rect x="201.441" y="749.75" width="6.482" height="6.28" transform="rotate(113 201.441 749.75)" fill="#FDA5A5" fill-opacity="0.45"/>
<rect x="29.4414" y="708.75" width="35.482" height="7.28" transform="rotate(57 29.4414 708.75)" fill="#FDA5A5" fill-opacity="0.45"/>
<rect x="53.4414" y="146.75" width="36.482" height="8.28" transform="rotate(57 53.4414 146.75)" fill="#2192FF"/>
<rect x="120.164" y="220.379" width="7.482" height="8.28" transform="rotate(116 120.164 220.379)" fill="#3DBD96" fill-opacity="0.65"/>
<rect x="15.4414" y="254.75" width="20.482" height="4.28" transform="rotate(-19 15.4414 254.75)" fill="#56B8A5" fill-opacity="0.9"/>
<rect x="30.4414" y="377.75" width="25.482" height="7.28" transform="rotate(7 30.4414 377.75)" fill="#2192FF"/>
<rect x="305.441" y="13.7495" width="10.482" height="9.28" transform="rotate(170 305.441 13.7495)" fill="#2192FF"/>
<rect x="135.441" y="148.75" width="10.482" height="6.28" transform="rotate(-129 135.441 148.75)" fill="#38E54D"/>
<rect x="310.441" y="174.75" width="18.482" height="8.28" transform="rotate(92 310.441 174.75)" fill="#FDA5A5" fill-opacity="0.85"/>
<rect x="79.4414" y="782.75" width="31.482" height="8.28" transform="rotate(100 79.4414 782.75)" fill="#38E54D"/>
<rect x="230.441" y="626.75" width="15.482" height="8.28" transform="rotate(120 230.441 626.75)" fill="#3DBD96" fill-opacity="0.85"/>
<rect x="98.4414" y="917.75" width="24.482" height="8.28" transform="rotate(136 98.4414 917.75)" fill="#2192FF"/>
<rect x="32.4414" y="177.75" width="27.482" height="4.28" transform="rotate(-27 32.4414 177.75)" fill="#56B8A5"/>
<rect x="265.441" y="160.434" width="8.482" height="9.28" transform="rotate(-52 265.441 160.434)" fill="#38E54D"/>
<rect x="316.441" y="194.75" width="32.482" height="6.28" transform="rotate(71 316.441 194.75)" fill="#ECB43C"/>
<rect x="350.441" y="393.75" width="20.482" height="5.28" transform="rotate(66 350.441 393.75)" fill="#2192FF"/>
<rect x="93.4414" y="763.75" width="21.482" height="5.28" transform="rotate(-16 93.4414 763.75)" fill="#FDA5A5" fill-opacity="0.6"/>
<rect x="368.441" y="16.7495" width="35.482" height="7.28" transform="rotate(52 368.441 16.7495)" fill="#FDA5A5" fill-opacity="0.45"/>
<circle cx="65.2564" cy="666.565" r="2.815" fill="#2192FF"/>
<circle cx="201.256" cy="117.565" r="6.815" fill="#3DBD96" fill-opacity="0.65"/>
<circle cx="80.2564" cy="534.565" r="6.815" fill="#38E54D"/>
<circle cx="34.2564" cy="214.565" r="5.815" fill="#2192FF"/>
<circle cx="307.756" cy="189.065" r="6.315" fill="#FDA5A5" fill-opacity="0.75"/>
<circle cx="320.756" cy="591.065" r="2.315" fill="#38E54D"/>
<circle cx="411.756" cy="777.065" r="3.315" fill="#2192FF"/>
<circle cx="244.256" cy="322.565" r="2.815" fill="#2192FF"/>
<circle cx="226.256" cy="772.565" r="3.815" fill="#FDA5A5" fill-opacity="0.9"/>
<circle cx="103.256" cy="884.565" r="4.815" fill="#2192FF"/>
<circle cx="126.256" cy="731.565" r="4.815" fill="#2192FF"/>
<circle cx="53.2564" cy="360.565" r="4.815" fill="#2192FF"/>
<circle cx="326.756" cy="47.0645" r="5.315" fill="#2192FF"/>
<circle cx="126.256" cy="441.565" r="3.815" fill="#FDA5A5" fill-opacity="0.35"/>
<circle cx="361.756" cy="384.065" r="3.315" fill="#56B8A5" fill-opacity="0.85"/>
<circle cx="361.756" cy="166.065" r="3.315" fill="#3DBD96" fill-opacity="0.75"/>
<circle cx="38.2564" cy="278.565" r="5.815" fill="#38E54D"/>
<circle cx="80.2564" cy="792.565" r="5.815" fill="#FDA5A5" fill-opacity="0.6"/>
<circle cx="293.256" cy="735.565" r="6.815" fill="#2192FF"/>
<circle cx="112.256" cy="842.565" r="6.815" fill="#2192FF"/>
<circle cx="371.256" cy="522.565" r="2.815" fill="#56B8A5" fill-opacity="0.9"/>
<circle cx="155.756" cy="0.0645118" r="3.315" fill="#2192FF"/>
<circle cx="57.2564" cy="922.565" r="2.815" fill="#3DBD96" fill-opacity="0.75"/>
<circle cx="431.256" cy="493.565" r="3.815" fill="#2192FF"/>
<circle cx="336.756" cy="105.065" r="2.315" fill="#2192FF"/>
<circle cx="58.2564" cy="71.5645" r="6.815" fill="#2192FF"/>
<circle cx="142.756" cy="151.065" r="3.315" fill="#2192FF"/>
<circle cx="257.756" cy="249.065" r="2.315" fill="#38E54D"/>
<circle cx="394.756" cy="517.065" r="3.315" fill="#3DBD96" fill-opacity="0.45"/>
<circle cx="284.256" cy="918.565" r="5.815" fill="#FDA5A5" fill-opacity="0.9"/>
<circle cx="169.756" cy="145.065" r="3.315" fill="#2192FF"/>
<circle cx="132.756" cy="475.065" r="6.315" fill="#2192FF"/>
<circle cx="256.256" cy="875.565" r="6.815" fill="#FDA5A5" fill-opacity="0.45"/>
<circle cx="270.756" cy="440.065" r="6.315" fill="#38E54D"/>
<circle cx="138.756" cy="633.065" r="6.315" fill="#38E54D"/>
<circle cx="91.2564" cy="724.565" r="4.815" fill="#2192FF"/>
<circle cx="309.756" cy="911.065" r="3.315" fill="#2192FF"/>
<circle cx="180.756" cy="554.065" r="4.315" fill="#ECB43C" fill-opacity="0.35"/>
<circle cx="428.756" cy="186.065" r="4.315" fill="#3DBD96" fill-opacity="0.85"/>
<circle cx="177.256" cy="450.565" r="6.815" fill="#2192FF"/>
<circle cx="419.256" cy="904.565" r="3.815" fill="#FDA5A5" fill-opacity="0.9"/>
<circle cx="252.756" cy="128.065" r="5.315" fill="#2192FF"/>
<circle cx="379.256" cy="605.565" r="5.815" fill="#FDA5A5" fill-opacity="0.75"/>
<circle cx="414.256" cy="470.565" r="5.815" fill="#2192FF"/>
<circle cx="52.7564" cy="429.065" r="4.315" fill="#3DBD96" fill-opacity="0.45"/>
<circle cx="117.256" cy="669.565" r="2.815" fill="#2192FF"/>
<circle cx="175.256" cy="537.565" r="4.815" fill="#38E54D"/>
<circle cx="178.756" cy="39.0645" r="2.315" fill="#56B8A5" fill-opacity="0.85"/>
<circle cx="313.256" cy="11.5645" r="6.815" fill="#38E54D"/>
<circle cx="250.256" cy="884.565" r="5.815" fill="#2192FF"/>
<circle cx="117.256" cy="168.565" r="2.815" fill="#38E54D"/>
<circle cx="116.756" cy="5.06451" r="4.315" fill="#FDA5A5" fill-opacity="0.35"/>
<circle cx="28.2564" cy="420.565" r="5.815" fill="#FDA5A5" fill-opacity="0.75"/>
<circle cx="290.756" cy="803.065" r="6.315" fill="#3DBD96" fill-opacity="0.75"/>
</svg>
