
<svg width="44" height="45" viewBox="0 0 44 45" fill="none" xmlns="http://www.w3.org/2000/svg">
<path d="M21.0837 29.5257V13.6674L16.812 17.939L15.514 16.6227L22.0003 10.1345L28.4885 16.6227L27.1905 17.9409L22.917 13.6674V29.5257H21.0837ZM12.1297 35.8012C11.2851 35.8012 10.5805 35.5189 10.0158 34.9542C9.45116 34.3895 9.16821 33.6843 9.16699 32.8385V28.3964H11.0003V32.8385C11.0003 33.1209 11.1177 33.38 11.3523 33.6159C11.587 33.8517 11.8455 33.9691 12.1278 33.9679H31.8728C32.1539 33.9679 32.4124 33.8505 32.6483 33.6159C32.8842 33.3812 33.0015 33.1221 33.0003 32.8385V28.3964H34.8337V32.8385C34.8337 33.6831 34.5513 34.3877 33.9867 34.9524C33.422 35.517 32.7168 35.8 31.871 35.8012H12.1297Z" fill="white"/>
</svg>
