
<svg width="16" height="16" viewBox="0 0 16 16" fill="none" xmlns="http://www.w3.org/2000/svg">
<path d="M13.2872 2.86998C12.5996 2.17545 11.7807 1.62477 10.878 1.25007C9.9754 0.875365 9.00719 0.68414 8.02988 0.687545C3.935 0.687545 0.597596 4.02495 0.597596 8.11983C0.597596 9.43229 0.942586 10.7073 1.58757 11.8322L0.537598 15.6871L4.47498 14.6521C5.56245 15.2446 6.78492 15.5596 8.02988 15.5596C12.1248 15.5596 15.4622 12.2222 15.4622 8.12733C15.4622 6.13989 14.6897 4.27244 13.2872 2.86998ZM8.02988 14.2996C6.91991 14.2996 5.83244 13.9997 4.87997 13.4372L4.65498 13.3022L2.31505 13.9172L2.93753 11.6372L2.78753 11.4047C2.17086 10.42 1.84341 9.28173 1.84256 8.11983C1.84256 4.71493 4.61748 1.94001 8.02238 1.94001C9.67233 1.94001 11.2248 2.58499 12.3873 3.75496C12.9628 4.32791 13.419 5.00942 13.7293 5.75997C14.0395 6.51052 14.1977 7.31518 14.1947 8.12733C14.2097 11.5322 11.4348 14.2996 8.02988 14.2996ZM11.4198 9.67978C11.2323 9.58979 10.3173 9.1398 10.1523 9.0723C9.97982 9.0123 9.85983 8.9823 9.73233 9.1623C9.60483 9.34979 9.25234 9.76978 9.14735 9.88978C9.04235 10.0173 8.92985 10.0323 8.74236 9.93478C8.55486 9.84478 7.95488 9.64228 7.2499 9.0123C6.69492 8.51732 6.32743 7.90983 6.21493 7.72234C6.10994 7.53485 6.19993 7.43735 6.29743 7.33985C6.37993 7.25735 6.48493 7.12236 6.57492 7.01736C6.66492 6.91236 6.70242 6.82987 6.76242 6.70987C6.82242 6.58237 6.79242 6.47738 6.74742 6.38738C6.70242 6.29738 6.32743 5.38241 6.17743 5.00742C6.02744 4.64743 5.86994 4.69243 5.75745 4.68493H5.39746C5.26996 4.68493 5.07497 4.72993 4.90247 4.91742C4.73748 5.10492 4.25749 5.5549 4.25749 6.46988C4.25749 7.38485 4.92497 8.26982 5.01497 8.38982C5.10497 8.51732 6.32743 10.3923 8.18738 11.1947C8.62986 11.3897 8.97485 11.5022 9.24484 11.5847C9.68733 11.7272 10.0923 11.7047 10.4148 11.6597C10.7748 11.6072 11.5173 11.2097 11.6673 10.7748C11.8248 10.3398 11.8248 9.97228 11.7723 9.88978C11.7198 9.80728 11.6073 9.76978 11.4198 9.67978Z" fill="white"/>
</svg>
