<svg width="140" height="105" viewBox="0 0 140 105" fill="none" xmlns="http://www.w3.org/2000/svg">
<path d="M140 92.0933H0V92.1633H140V92.0933Z" fill="#EBEBEB"/>
<path d="M125.972 96.5986H119.901V96.6686H125.972V96.5986Z" fill="#EBEBEB"/>
<path d="M96.5069 95.1484H86.9561V95.2184H96.5069V95.1484Z" fill="#EBEBEB"/>
<path d="M123.513 94H111.044V94.07H123.513V94Z" fill="#EBEBEB"/>
<path d="M48.4459 95.4116H45.3267V95.4816H48.4459V95.4116Z" fill="#EBEBEB"/>
<path d="M42.8317 95.4116H32.0825V95.4816H42.8317V95.4116Z" fill="#EBEBEB"/>
<path d="M26.3229 94.23H18.5669V94.3H26.3229V94.23Z" fill="#EBEBEB"/>
<path d="M66.3599 79.6054H12.2947C11.8712 79.6047 11.4652 79.4359 11.166 79.1361C10.8668 78.8364 10.6987 78.4301 10.6987 78.0066V2.00619C10.7024 1.58507 10.8721 1.18242 11.1709 0.885688C11.4698 0.588955 11.8736 0.422108 12.2947 0.421387H66.3599C66.784 0.421387 67.1906 0.589831 67.4905 0.889665C67.7903 1.1895 67.9587 1.59616 67.9587 2.02019V78.0066C67.9587 78.4306 67.7903 78.8373 67.4905 79.1371C67.1906 79.437 66.784 79.6054 66.3599 79.6054ZM12.2947 0.477387C11.8898 0.478129 11.5016 0.639525 11.2155 0.92615C10.9294 1.21278 10.7687 1.60121 10.7687 2.00619V78.0066C10.7687 78.4116 10.9294 78.8 11.2155 79.0866C11.5016 79.3733 11.8898 79.5347 12.2947 79.5354H66.3599C66.7652 79.5347 67.1536 79.3733 67.4401 79.0868C67.7267 78.8003 67.888 78.4118 67.8887 78.0066V2.00619C67.888 1.60095 67.7267 1.21252 67.4401 0.925979C67.1536 0.639434 66.7652 0.478127 66.3599 0.477387H12.2947Z" fill="#EBEBEB"/>
<path d="M126.927 79.6054H72.8586C72.4348 79.6047 72.0285 79.436 71.7289 79.1363C71.4292 78.8366 71.2605 78.4304 71.2598 78.0066V2.00619C71.2642 1.58482 71.4345 1.18217 71.7338 0.885513C72.033 0.588857 72.4372 0.4221 72.8586 0.421387H126.927C127.347 0.422844 127.75 0.590016 128.049 0.886671C128.347 1.18332 128.516 1.58556 128.52 2.00619V78.0066C128.52 78.4297 128.352 78.8355 128.053 79.1351C127.755 79.4348 127.35 79.6039 126.927 79.6054ZM72.8586 0.477387C72.4533 0.478127 72.0649 0.639434 71.7784 0.925979C71.4918 1.21252 71.3305 1.60095 71.3298 2.00619V78.0066C71.3305 78.4118 71.4918 78.8003 71.7784 79.0868C72.0649 79.3733 72.4533 79.5347 72.8586 79.5354H126.927C127.332 79.5347 127.72 79.3733 128.007 79.0868C128.293 78.8003 128.455 78.4118 128.455 78.0066V2.00619C128.455 1.60095 128.293 1.21252 128.007 0.925979C127.72 0.639434 127.332 0.478127 126.927 0.477387H72.8586Z" fill="#EBEBEB"/>
<path d="M18.1103 44.4092L63.6523 44.4092L63.6523 6.09678L18.1103 6.09678L18.1103 44.4092Z" fill="#E6E6E6"/>
<path d="M17.0287 44.4092L63.1475 44.4092L63.1475 6.09678L17.0287 6.09678L17.0287 44.4092Z" fill="#F0F0F0"/>
<path d="M18.1103 46.0532L63.6523 46.0532V44.4096L18.1103 44.4096V46.0532Z" fill="#E6E6E6"/>
<path d="M15.2235 46.0532L61.3423 46.0532V44.4096L15.2235 44.4096V46.0532Z" fill="#F0F0F0"/>
<path d="M61.6309 42.8944V7.61719L18.5473 7.61719V42.8944H61.6309Z" fill="#FAFAFA"/>
<path d="M44.1477 42.8944L39.9253 7.61719H33.3369L37.5593 42.8944H44.1477Z" fill="white"/>
<path d="M60.9276 41.3857C60.9563 41.385 60.9837 41.3733 61.004 41.353C61.0243 41.3326 61.036 41.3053 61.0368 41.2765V8.60334C61.0368 8.57438 61.0253 8.5466 61.0048 8.52612C60.9843 8.50565 60.9565 8.49414 60.9276 8.49414C60.8986 8.49414 60.8708 8.50565 60.8503 8.52612C60.8299 8.5466 60.8184 8.57438 60.8184 8.60334V41.2765C60.8191 41.3053 60.8308 41.3326 60.8511 41.353C60.8715 41.3733 60.8988 41.385 60.9276 41.3857Z" fill="#F0F0F0"/>
<path d="M36.1453 42.8944L31.9229 7.61719H29.3525L33.5749 42.8944H36.1453Z" fill="white"/>
<path d="M18.7378 42.8924L18.7378 7.61523H18.5446L18.5446 42.8924H18.7378Z" fill="#E6E6E6"/>
<path opacity="0.6" d="M16.6709 10.4759H62.2101L62.3501 8.20508H16.8109L16.6709 10.4759Z" fill="#EBEBEB"/>
<path opacity="0.6" d="M16.6709 14.2H62.2101L62.3501 11.9292H16.8109L16.6709 14.2Z" fill="#EBEBEB"/>
<path opacity="0.6" d="M16.6709 17.9236H62.2101L62.3501 15.6528H16.8109L16.6709 17.9236Z" fill="#EBEBEB"/>
<path opacity="0.6" d="M16.6709 21.6478H62.2101L62.3501 19.377H16.8109L16.6709 21.6478Z" fill="#EBEBEB"/>
<path opacity="0.6" d="M16.6709 25.3748H62.2101L62.3501 23.104H16.8109L16.6709 25.3748Z" fill="#EBEBEB"/>
<path opacity="0.6" d="M16.6709 29.0989H62.2101L62.3501 26.8281H16.8109L16.6709 29.0989Z" fill="#EBEBEB"/>
<path d="M118.983 12.6094H73.3516V43.2554H118.983V12.6094Z" fill="#F5F5F5"/>
<path d="M118.984 43.2559H120.056V12.6099H118.984V43.2559Z" fill="#E0E0E0"/>
<path d="M89.2553 18.6416H80.1553V32.4932H89.2553V18.6416Z" fill="white"/>
<path d="M94.494 36.149H85.394L85.6236 22.2974H94.7236L94.494 36.149Z" fill="white"/>
<path d="M113.493 15.46H104.393V29.3116H113.493V15.46Z" fill="white"/>
<path d="M105.401 39.3691H96.9922L97.5606 26.5703H105.969L105.401 39.3691Z" fill="white"/>
<path d="M100.218 51.6753C100.218 51.6753 100.433 57.9249 108.671 57.9249C116.909 57.9249 117.124 51.6753 117.124 51.6753H100.218Z" fill="#F0F0F0"/>
<path d="M112.238 89.4082H124.183V60.515H112.238V89.4082Z" fill="#F0F0F0"/>
<path d="M62.989 92.0933L121.893 92.0933V89.4109H62.989V92.0933Z" fill="#F0F0F0"/>
<path d="M112.239 60.5176H60.6934V89.4108H112.239V60.5176Z" fill="#F5F5F5"/>
<path d="M107.542 64.0317H65.3882V72.9217H107.542V64.0317Z" fill="#F0F0F0"/>
<path d="M107.542 75.4561H65.3882V84.3461H107.542V75.4561Z" fill="#F0F0F0"/>
<path d="M81.5213 65.5524H91.4109C91.6632 65.5517 91.9049 65.4512 92.0833 65.2728C92.2617 65.0944 92.3622 64.8527 92.3629 64.6004C92.3622 64.3482 92.2617 64.1065 92.0833 63.9281C91.9049 63.7497 91.6632 63.6492 91.4109 63.6484H81.5213C81.2691 63.6492 81.0274 63.7497 80.849 63.9281C80.6706 64.1065 80.5701 64.3482 80.5693 64.6004C80.5701 64.8527 80.6706 65.0944 80.849 65.2728C81.0274 65.4512 81.2691 65.5517 81.5213 65.5524Z" fill="#F5F5F5"/>
<path d="M81.5213 76.9763H91.4109C91.6632 76.9755 91.9049 76.875 92.0833 76.6966C92.2617 76.5182 92.3622 76.2765 92.3629 76.0243C92.3622 75.772 92.2617 75.5303 92.0833 75.3519C91.9049 75.1735 91.6632 75.073 91.4109 75.0723H81.5213C81.2691 75.073 81.0274 75.1735 80.849 75.3519C80.6706 75.5303 80.5701 75.772 80.5693 76.0243C80.5701 76.2765 80.6706 76.5182 80.849 76.6966C81.0274 76.875 81.2691 76.9755 81.5213 76.9763Z" fill="#F5F5F5"/>
<path d="M59.0999 60.5176L112.238 60.5176V57.9276L59.0999 57.9276V60.5176Z" fill="#F0F0F0"/>
<path d="M125.854 57.9248H112.241V60.5148H125.854V57.9248Z" fill="#E6E6E6"/>
<path d="M35.0084 56.5952H18.1328V92.0936H35.0084V56.5952Z" fill="#F5F5F5"/>
<path d="M20.0337 90.0576L20.0337 58.6304H19.7397L19.7397 90.0576H20.0337Z" fill="#E6E6E6"/>
<path d="M33.1354 58.6304H19.7402V59.0028H33.1354V58.6304Z" fill="#E6E6E6"/>
<path d="M52.1774 56.5952H35.3018V92.0936H52.1774V56.5952Z" fill="#F5F5F5"/>
<path d="M52.181 92.0933H53.8638L53.8638 56.5949H52.181L52.181 92.0933Z" fill="#E0E0E0"/>
<path d="M37.2031 90.0576V58.6304H36.9091V90.0576H37.2031Z" fill="#E6E6E6"/>
<path d="M35.3018 92.0932V56.8916H35.0078V92.0932H35.3018Z" fill="#E6E6E6"/>
<path d="M50.3044 58.6304H36.9092V59.0028H50.3044V58.6304Z" fill="#E6E6E6"/>
<path d="M34.1372 58.8154C34.2209 58.8162 34.3009 58.8497 34.3601 58.9089C34.4193 58.9681 34.4529 59.0481 34.4536 59.1318V64.2754C34.4529 64.3591 34.4193 64.4392 34.3601 64.4983C34.3009 64.5575 34.2209 64.5911 34.1372 64.5918C34.0535 64.5911 33.9735 64.5575 33.9143 64.4983C33.8551 64.4392 33.8215 64.3591 33.8208 64.2754V59.1318C33.8215 59.0481 33.8551 58.9681 33.9143 58.9089C33.9735 58.8497 34.0535 58.8162 34.1372 58.8154Z" fill="#E0E0E0"/>
<path d="M36.1758 58.8154C36.2597 58.8154 36.3402 58.8488 36.3995 58.9081C36.4588 58.9674 36.4922 59.0479 36.4922 59.1318V64.2754C36.4922 64.3593 36.4588 64.4398 36.3995 64.4992C36.3402 64.5585 36.2597 64.5918 36.1758 64.5918C36.0921 64.5911 36.012 64.5575 35.9529 64.4983C35.8937 64.4392 35.8601 64.3591 35.8594 64.2754V59.1318C35.8601 59.0481 35.8937 58.9681 35.9529 58.9089C36.012 58.8497 36.0921 58.8162 36.1758 58.8154Z" fill="#E0E0E0"/>
<path d="M70.0001 104.738C99.9832 104.738 124.289 103.319 124.289 101.569C124.289 99.818 99.9832 98.3989 70.0001 98.3989C40.017 98.3989 15.7109 99.818 15.7109 101.569C15.7109 103.319 40.017 104.738 70.0001 104.738Z" fill="#F5F5F5"/>
<path d="M85.1588 61.4981C86.1276 66.0593 80.9308 67.9885 78.772 65.9781C76.6132 63.9677 76.7196 57.8217 73.8076 57.6593C78.0104 54.4057 84.2152 57.0601 85.1588 61.4981Z" fill="#263238"/>
<path d="M80.9199 89.9541C80.8011 89.9542 80.6863 89.9106 80.5975 89.8316C80.5087 89.7526 80.4521 89.6437 80.4383 89.5257C79.3631 80.4789 80.7183 58.8685 91.8007 49.8077C91.8496 49.7631 91.9071 49.729 91.9696 49.7074C92.0322 49.6858 92.0985 49.6771 92.1644 49.682C92.2304 49.6868 92.2947 49.705 92.3534 49.7356C92.4122 49.7661 92.464 49.8082 92.5059 49.8594C92.5478 49.9106 92.5788 49.9699 92.5971 50.0334C92.6153 50.097 92.6204 50.1637 92.6121 50.2293C92.6037 50.295 92.5821 50.3582 92.5485 50.4152C92.5149 50.4722 92.4701 50.5218 92.4167 50.5609C81.6535 59.3641 80.3487 80.5377 81.4043 89.4109C81.4186 89.5388 81.3819 89.6672 81.3023 89.7683C81.2226 89.8694 81.1064 89.9352 80.9787 89.9513L80.9199 89.9541Z" fill="#407BFF"/>
<path d="M76.9722 101.568H84.8626C85.1273 101.568 85.3841 101.478 85.5908 101.313C85.7974 101.148 85.9415 100.917 85.9994 100.658L89.2922 86.062C89.3304 85.8913 89.3297 85.7141 89.2902 85.5436C89.2507 85.3732 89.1734 85.2138 89.064 85.0772C88.9546 84.9406 88.8159 84.8304 88.6581 84.7547C88.5004 84.6789 88.3276 84.6396 88.1526 84.6396H73.6822C73.5073 84.6395 73.3346 84.6788 73.177 84.7546C73.0193 84.8303 72.8807 84.9406 72.7715 85.0772C72.6623 85.2139 72.5853 85.3734 72.5461 85.5439C72.507 85.7143 72.5068 85.8915 72.5454 86.062L75.8354 100.661C75.8944 100.919 76.0389 101.149 76.2453 101.313C76.4518 101.478 76.7081 101.568 76.9722 101.568Z" fill="#407BFF"/>
<path opacity="0.6" d="M76.9722 101.568H84.8626C85.1273 101.568 85.3841 101.478 85.5908 101.313C85.7974 101.148 85.9415 100.917 85.9994 100.658L89.2922 86.062C89.3304 85.8913 89.3297 85.7141 89.2902 85.5436C89.2507 85.3732 89.1734 85.2138 89.064 85.0772C88.9546 84.9406 88.8159 84.8304 88.6581 84.7547C88.5004 84.6789 88.3276 84.6396 88.1526 84.6396H73.6822C73.5073 84.6395 73.3346 84.6788 73.177 84.7546C73.0193 84.8303 72.8807 84.9406 72.7715 85.0772C72.6623 85.2139 72.5853 85.3734 72.5461 85.5439C72.507 85.7143 72.5068 85.8915 72.5454 86.062L75.8354 100.661C75.8944 100.919 76.0389 101.149 76.2453 101.313C76.4518 101.478 76.7081 101.568 76.9722 101.568Z" fill="white"/>
<path d="M84.2791 62.4078C84.2414 62.4071 84.2038 62.4024 84.1671 62.3938C84.1051 62.3793 84.0466 62.3527 83.9949 62.3156C83.9432 62.2784 83.8994 62.2315 83.8658 62.1774C83.8323 62.1233 83.8097 62.0632 83.7994 62.0003C83.7891 61.9375 83.7913 61.8733 83.8059 61.8114C83.8059 61.7414 85.3879 54.8562 82.9827 50.8102C82.917 50.6988 82.8982 50.5658 82.9305 50.4406C82.9628 50.3154 83.0435 50.2081 83.1549 50.1424C83.2663 50.0766 83.3992 50.0579 83.5245 50.0902C83.6497 50.1224 83.757 50.2032 83.8227 50.3146C86.4379 54.6966 84.8391 61.7414 84.7635 62.0214C84.7401 62.132 84.679 62.231 84.5906 62.3015C84.5023 62.372 84.3921 62.4096 84.2791 62.4078Z" fill="#407BFF"/>
<path d="M88.3736 48.1218C88.1776 52.5178 97.72 54.615 100.778 52.7558C103.835 50.8966 101.676 44.9158 106.618 44.871C98.3556 41.525 88.564 43.8434 88.3736 48.1218Z" fill="#407BFF"/>
<path d="M86.0639 48.763C87.8783 52.3442 82.8803 54.4611 80.3183 53.0611C77.7563 51.6611 76.7399 46.6826 73.7271 46.8646C77.4539 43.793 84.2971 45.277 86.0639 48.763Z" fill="#407BFF"/>
<path d="M80.6395 82.5588H80.6199C80.4914 82.553 80.3704 82.4969 80.2829 82.4026C80.1954 82.3083 80.1485 82.1834 80.1523 82.0548C80.1523 81.982 80.3679 74.73 76.2939 73.8536C76.1681 73.8265 76.0581 73.7505 75.9883 73.6424C75.9184 73.5342 75.8944 73.4027 75.9215 73.2768C75.9486 73.151 76.0246 73.041 76.1328 72.9712C76.241 72.9013 76.3725 72.8773 76.4983 72.9044C81.3675 73.9488 81.1379 81.758 81.1239 82.0912C81.1196 82.2168 81.0666 82.3357 80.9762 82.4229C80.8859 82.5102 80.7651 82.5589 80.6395 82.5588Z" fill="#407BFF"/>
<path d="M79.2678 72.185C80.5334 74.5314 76.6526 77.3902 74.7346 76.945C72.8166 76.4998 72.2146 72.8514 69.9102 73.7306C72.8614 70.421 78.0358 69.903 79.2678 72.185Z" fill="#407BFF"/>
<path d="M81.1415 75.6988C81.1062 75.7029 81.0705 75.7029 81.0351 75.6988C80.9098 75.67 80.8008 75.5931 80.7316 75.4847C80.6625 75.3763 80.6387 75.245 80.6655 75.1192C80.7383 74.7888 82.5135 67.0132 87.8167 64.944C87.877 64.9174 87.9419 64.9032 88.0078 64.9024C88.0736 64.9016 88.139 64.9141 88.1998 64.9392C88.2607 64.9644 88.3158 65.0016 88.3619 65.0486C88.408 65.0957 88.444 65.1516 88.4679 65.213C88.4918 65.2743 88.503 65.3399 88.5008 65.4057C88.4986 65.4715 88.4831 65.5362 88.4552 65.5959C88.4273 65.6555 88.3876 65.7089 88.3385 65.7528C88.2894 65.7967 88.2319 65.8302 88.1695 65.8512C83.3451 67.7328 81.6315 75.2536 81.6147 75.3292C81.5889 75.435 81.5282 75.5291 81.4423 75.5962C81.3564 75.6632 81.2505 75.6994 81.1415 75.6988Z" fill="#407BFF"/>
<path d="M86.965 62.3903C83.143 64.3895 85.7218 68.6623 88.701 68.8303C91.6802 68.9983 95.785 65.4451 98.0726 67.1307C97.1374 62.7263 90.689 60.4443 86.965 62.3903Z" fill="#407BFF"/>
<path d="M55.3749 45.527C55.2531 45.4365 55.172 45.3015 55.1494 45.1514C55.1269 45.0014 55.1647 44.8485 55.2545 44.7262L79.3513 11.9438C79.4418 11.8219 79.5768 11.7409 79.7269 11.7183C79.877 11.6957 80.0299 11.7335 80.1521 11.8234C80.274 11.9138 80.3551 12.0489 80.3776 12.1989C80.4002 12.349 80.3624 12.5019 80.2725 12.6242L56.1757 45.4038C56.1324 45.4659 56.0769 45.5186 56.0126 45.5586C55.9483 45.5986 55.8766 45.6252 55.8017 45.6367C55.7268 45.6483 55.6504 45.6445 55.5771 45.6256C55.5037 45.6067 55.435 45.5732 55.3749 45.527Z" fill="#407BFF"/>
<path d="M91.9318 26.4551L91.0381 27.6821L91.2694 27.8506L92.1632 26.6236L91.9318 26.4551Z" fill="#407BFF"/>
<path d="M93.1197 25.9015L92.8873 25.7335C93.172 25.3447 93.2912 24.859 93.2188 24.3825C93.1464 23.9061 92.8883 23.4777 92.5009 23.1911L86.3633 18.6803L86.5313 18.4507L92.6801 22.9531C92.9028 23.1176 93.0909 23.3245 93.2335 23.5618C93.3762 23.7991 93.4706 24.0622 93.5115 24.3361C93.5523 24.61 93.5387 24.8892 93.4715 25.1578C93.4042 25.4264 93.2847 25.6791 93.1197 25.9015Z" fill="#407BFF"/>
<path d="M82.8802 36.2865L56.0002 16.5325C55.8834 16.4467 55.7846 16.3387 55.7096 16.2147C55.6346 16.0907 55.5847 15.9531 55.5629 15.8099C55.5411 15.6666 55.5477 15.5204 55.5823 15.3797C55.617 15.239 55.6791 15.1065 55.765 14.9897L63.6666 4.24053C63.7522 4.12345 63.86 4.02444 63.984 3.9492C64.108 3.87396 64.2457 3.82398 64.389 3.80212C64.5324 3.78026 64.6787 3.78696 64.8195 3.82184C64.9603 3.85671 65.0928 3.91907 65.2094 4.00533L92.0894 23.7593C92.206 23.8449 92.3047 23.9527 92.3797 24.0764C92.4547 24.2002 92.5045 24.3375 92.5264 24.4805C92.5482 24.6236 92.5417 24.7695 92.507 24.91C92.4724 25.0505 92.4104 25.1828 92.3246 25.2993L84.423 36.0513C84.3374 36.1684 84.2295 36.2674 84.1055 36.3427C83.9815 36.4179 83.8438 36.4679 83.7005 36.4897C83.5571 36.5116 83.4108 36.5049 83.27 36.47C83.1292 36.4352 82.9967 36.3728 82.8802 36.2865Z" fill="white"/>
<path d="M83.5186 36.6448C83.2539 36.6445 82.996 36.5602 82.7822 36.404L55.9022 16.6472C55.7698 16.5508 55.6578 16.4291 55.5727 16.2891C55.4876 16.1492 55.431 15.9938 55.4063 15.8319C55.3816 15.6699 55.3892 15.5047 55.4286 15.3457C55.4681 15.1868 55.5386 15.0372 55.6362 14.9056L63.5378 4.15362C63.7319 3.88587 64.0242 3.70602 64.3507 3.65353C64.6772 3.60104 65.0112 3.68019 65.2794 3.87362L92.1594 23.6304C92.4246 23.8265 92.6017 24.1193 92.6522 24.4452C92.6776 24.6072 92.6703 24.7726 92.6309 24.9318C92.5914 25.0909 92.5206 25.2406 92.4226 25.372L84.521 36.124C84.325 36.3892 84.0322 36.5663 83.7062 36.6168C83.6444 36.6301 83.5817 36.6395 83.5186 36.6448ZM82.9586 36.1716C83.1601 36.3189 83.4112 36.3814 83.6582 36.3459C83.9053 36.3103 84.1285 36.1794 84.2802 35.9812L92.1846 25.2292C92.3349 25.0246 92.3979 24.7687 92.3595 24.5177C92.3212 24.2667 92.1848 24.0412 91.9802 23.8908L65.1002 4.13402C64.999 4.05923 64.8841 4.00518 64.7619 3.97497C64.6398 3.94476 64.5129 3.93898 64.3885 3.95798C64.2642 3.97697 64.1448 4.02036 64.0372 4.08565C63.9297 4.15094 63.8361 4.23684 63.7618 4.33842L55.8574 15.0904C55.7069 15.2949 55.6435 15.5506 55.681 15.8016C55.6996 15.9263 55.7428 16.0459 55.8082 16.1536C55.8736 16.2613 55.9598 16.3549 56.0618 16.4288L82.9586 36.1716Z" fill="#407BFF"/>
<path d="M61.1436 12.0223L62.4652 12.8623C62.3543 13.0399 62.2924 13.2438 62.286 13.4531C62.2918 13.5915 62.3307 13.7265 62.3994 13.8468C62.4681 13.9671 62.5646 14.0693 62.6808 14.1447C62.8305 14.2699 63.0205 14.3365 63.2156 14.3323C63.2897 14.3302 63.3624 14.3115 63.4283 14.2775C63.4942 14.2436 63.5516 14.1953 63.5964 14.1363C63.6373 14.078 63.665 14.0114 63.6776 13.9413C63.6902 13.8712 63.6873 13.7992 63.6692 13.7303C63.5604 13.448 63.3913 13.1928 63.1736 12.9827C62.7783 12.5775 62.4831 12.0856 62.3112 11.5463C62.2631 11.354 62.2593 11.1532 62.3001 10.9592C62.3408 10.7652 62.425 10.583 62.5464 10.4263C62.7116 10.2049 62.9386 10.0373 63.1988 9.94468C63.4984 9.85013 63.8198 9.84916 64.12 9.94188C64.5502 10.0622 64.9513 10.2689 65.2988 10.5495C65.7594 10.8435 66.119 11.2715 66.3292 11.7759C66.3952 12.0025 66.4113 12.2407 66.3765 12.4742C66.3417 12.7076 66.2568 12.9308 66.1276 13.1283L64.8228 12.2883C64.8778 12.2058 64.9153 12.1128 64.933 12.0153C64.9507 11.9177 64.9482 11.8175 64.9256 11.7209C64.903 11.6243 64.8609 11.5334 64.8018 11.4538C64.7427 11.3741 64.6679 11.3075 64.582 11.2579C64.4641 11.1569 64.3145 11.1004 64.1592 11.0983C64.1039 11.1012 64.05 11.1165 64.0015 11.1432C63.9531 11.1699 63.9112 11.2072 63.8792 11.2523C63.8527 11.2885 63.8353 11.3306 63.8285 11.3749C63.8217 11.4192 63.8256 11.4646 63.84 11.5071C63.9113 11.6912 64.0233 11.8568 64.1676 11.9915C64.5409 12.3836 64.8661 12.8188 65.1364 13.2879C65.2832 13.5556 65.3512 13.8595 65.3324 14.1643C65.3067 14.4404 65.2049 14.7041 65.0384 14.9259C64.8406 15.1984 64.5655 15.4052 64.2488 15.5195C63.9206 15.6402 63.5639 15.6607 63.224 15.5783C62.7984 15.4693 62.4005 15.2718 62.0564 14.9987C61.3256 14.4639 60.9364 13.9515 60.8496 13.4643C60.7684 12.9638 60.8729 12.451 61.1436 12.0223Z" fill="#263238"/>
<path d="M66.08 14.528C66.2697 14.2074 66.5282 13.9329 66.8368 13.7241C67.1454 13.5154 67.4964 13.3777 67.8646 13.3209C68.2328 13.2642 68.609 13.2897 68.9661 13.3958C69.3233 13.5019 69.6524 13.6858 69.93 13.9344C70.6449 14.4608 71.0546 15.0572 71.1592 15.7236C71.2019 16.0868 71.17 16.455 71.0655 16.8055C70.9611 17.156 70.7862 17.4815 70.5516 17.762C70.2556 18.2005 69.8579 18.5607 69.3924 18.812C68.995 19.0072 68.5488 19.0803 68.11 19.022C67.5987 18.9436 67.1164 18.7343 66.71 18.4144C66.2859 18.1241 65.9336 17.7411 65.6796 17.2944C65.4724 16.8948 65.3904 16.4421 65.4443 15.9952C65.5198 15.4577 65.7394 14.9507 66.08 14.528ZM67.4016 15.508C67.1279 15.8185 66.9705 16.2144 66.9564 16.628C66.9735 16.7806 67.0217 16.928 67.0982 17.0611C67.1746 17.1942 67.2776 17.3101 67.4008 17.4018C67.5239 17.4934 67.6646 17.5587 67.814 17.5937C67.9635 17.6287 68.1185 17.6326 68.2696 17.6052C68.5636 17.5352 68.8856 17.258 69.2384 16.7652C69.4972 16.4698 69.6413 16.0912 69.6443 15.6984C69.6303 15.5446 69.582 15.3959 69.503 15.2631C69.4241 15.1304 69.3164 15.017 69.188 14.9312C69.0706 14.8397 68.9343 14.7754 68.789 14.743C68.6438 14.7105 68.4931 14.7107 68.348 14.7436C67.9499 14.8786 67.6119 15.1491 67.3932 15.508H67.4016Z" fill="#263238"/>
<path d="M69.6748 20.4803L72.8304 16.1851L75.0396 17.8119C75.3653 18.0322 75.656 18.3002 75.902 18.6071C76.0662 18.8315 76.1501 19.1047 76.14 19.3827C76.1189 19.6681 76.0229 19.9429 75.8617 20.1794C75.7004 20.4159 75.4796 20.6056 75.2216 20.7295C74.9926 20.8287 74.7419 20.8673 74.4936 20.8415C74.2892 20.8146 74.09 20.7571 73.9028 20.6707C73.9994 20.7957 74.0768 20.9344 74.1324 21.0823C74.1628 21.207 74.1787 21.3347 74.18 21.4631C74.1916 21.5972 74.1916 21.7321 74.18 21.8663L73.9 23.5827L72.402 22.4823L72.6568 20.6483C72.6914 20.4811 72.6914 20.3086 72.6568 20.1415C72.6097 20.0053 72.5217 19.887 72.4048 19.8027L72.2872 19.7159L71.0076 21.4575L69.6748 20.4803ZM72.8836 18.9011L73.4436 19.3127C73.5685 19.3922 73.7007 19.4597 73.8384 19.5143C73.9368 19.5594 74.0482 19.5673 74.152 19.5367C74.2761 19.4973 74.3819 19.4144 74.4498 19.3033C74.5177 19.1922 74.5432 19.0603 74.5216 18.9319C74.4389 18.7331 74.2933 18.5669 74.1072 18.4587L73.5248 18.0303L72.8836 18.9011Z" fill="#263238"/>
<path d="M74.3403 23.9076L77.4959 19.6152L79.7051 21.2392C80.0305 21.4611 80.3212 21.73 80.5675 22.0372C80.731 22.2621 80.8147 22.535 80.8055 22.8128C80.7903 23.1185 80.6807 23.412 80.4919 23.6528C80.3401 23.8729 80.131 24.0472 79.8871 24.1568C79.6577 24.2548 79.4074 24.2933 79.1591 24.2688C78.9543 24.2422 78.755 24.1836 78.5683 24.0952C78.6638 24.221 78.7411 24.3595 78.7979 24.5068C78.8281 24.6325 78.8441 24.7612 78.8455 24.8904C78.857 25.0246 78.857 25.1595 78.8455 25.2936L78.5655 27.01L77.0647 25.9012L77.3195 24.07C77.3541 23.9019 77.3541 23.7285 77.3195 23.5604C77.2716 23.4247 77.1838 23.3066 77.0675 23.2216L76.9499 23.1376L75.6703 24.8792L74.3403 23.9076ZM77.5603 22.334L78.1203 22.7456C78.2449 22.8251 78.3772 22.8917 78.5151 22.9444C78.6128 22.9918 78.7247 23.0008 78.8287 22.9696C78.9354 22.9377 79.0288 22.8718 79.0947 22.782C79.1422 22.7247 79.1762 22.6575 79.1941 22.5853C79.2121 22.513 79.2135 22.4377 79.1983 22.3648C79.1159 22.1651 78.9704 21.998 78.7839 21.8888L78.2015 21.4604L77.5603 22.334Z" fill="#263238"/>
<path d="M81.4523 22.5249L82.9251 23.6057L82.7235 25.6917L84.6555 24.8797L86.1227 25.9577L82.6199 27.2261L81.2983 29.0237L79.9683 28.0465L81.2899 26.2489L81.4523 22.5249Z" fill="#263238"/>
<path d="M86.4726 26.2148L87.7466 27.15L87.027 28.13L85.347 29.9136L84.5602 29.334L85.7642 27.192L86.4726 26.2148ZM84.1346 29.488L85.3218 30.3616L84.5602 31.4144L83.373 30.5408L84.1346 29.488Z" fill="#263238"/>
<path d="M62.5664 25.9972C62.6756 26.2324 62.7484 26.4004 62.8296 26.5964C62.9108 26.7924 62.9808 26.9744 63.0536 27.1564C63.1992 27.5316 63.3336 27.9124 63.4456 28.2932C63.6848 29.0567 63.883 29.8325 64.0392 30.6172C64.1232 31.0092 64.1876 31.4068 64.252 31.8044C64.3164 32.202 64.3584 32.608 64.3892 33.014C64.4617 33.8332 64.4795 34.6564 64.4424 35.478V35.618C64.4396 35.7079 64.4265 35.7971 64.4032 35.884C64.2583 36.4385 64.0176 36.9635 63.692 37.4352C63.4387 37.8074 63.1579 38.1603 62.852 38.4908C62.3079 39.0855 61.7191 39.6378 61.0908 40.1428C60.486 40.6328 59.8672 41.0864 59.2344 41.5092C58.6012 41.9337 57.947 42.3262 57.2744 42.6852C57.0502 42.8056 56.7904 42.8423 56.5416 42.7887C56.2927 42.7351 56.071 42.5948 55.9162 42.3928C55.7613 42.1908 55.6833 41.9403 55.6962 41.6861C55.7091 41.4318 55.812 41.1905 55.9864 41.0052L56.0088 40.98L57.4592 39.4148C57.938 38.8884 58.4084 38.3648 58.8592 37.8356C59.2886 37.3321 59.6905 36.8059 60.0632 36.2592C60.2241 36.0252 60.3664 35.7789 60.4888 35.5228C60.5682 35.3822 60.6177 35.2269 60.6344 35.0664L60.5924 35.4752C60.5364 34.8256 60.4692 34.176 60.3488 33.5152C60.2284 32.8544 60.094 32.2048 59.9204 31.5552C59.7468 30.9056 59.562 30.2476 59.3604 29.5952C59.254 29.2732 59.1392 28.954 59.03 28.6376L58.8564 28.17L58.694 27.7444L58.652 27.6352C58.4614 27.1185 58.4773 26.5481 58.6966 26.0428C58.9159 25.5376 59.3216 25.1364 59.8293 24.9228C60.337 24.7092 60.9075 24.6996 61.4221 24.8961C61.9366 25.0926 62.3555 25.48 62.5916 25.9776L62.5664 25.9972Z" fill="#B55B52"/>
<path d="M48.6472 9.99732C46.8356 11.7333 47.0624 20.2201 47.8072 28.2953C48.552 36.3705 55.3924 35.0349 57.932 31.5349C61.292 26.8813 57.512 19.9149 58.0552 17.1709C58.646 14.1889 59.0884 10.8149 55.51 8.77092C51.6236 6.54492 48.2552 8.22492 48.6472 9.99732Z" fill="#263238"/>
<path d="M47.3705 29.0622H47.3565C47.3161 29.0579 47.279 29.0379 47.2533 29.0064C47.2276 28.975 47.2154 28.9346 47.2193 28.8942C47.4461 26.6542 47.2389 23.7394 47.0401 20.9226C46.6649 15.6306 46.3093 10.6298 48.6865 9.85138C48.7056 9.84485 48.7258 9.84222 48.746 9.84363C48.7661 9.84505 48.7858 9.85048 48.8038 9.85962C48.8218 9.86875 48.8378 9.8814 48.8508 9.89682C48.8639 9.91223 48.8737 9.93011 48.8797 9.94938C48.8921 9.988 48.8888 10.03 48.8704 10.0661C48.8521 10.1023 48.8202 10.1298 48.7817 10.1426C46.6341 10.8454 46.9953 15.9582 47.3453 20.903C47.5469 23.731 47.7541 26.6542 47.5245 28.925C47.5204 28.9628 47.5023 28.9978 47.4739 29.0232C47.4454 29.0485 47.4086 29.0624 47.3705 29.0622Z" fill="#263238"/>
<path d="M50.7241 27.2534L50.0325 29.2134C49.8001 29.877 49.5817 30.5406 49.3661 31.2014C49.1505 31.8622 48.9545 32.523 48.7753 33.1614C48.5961 33.7998 48.4449 34.4578 48.3357 35.0738V34.7546C48.3222 35.1015 48.3686 35.4482 48.4729 35.7794C48.5345 35.967 48.6073 36.1602 48.6941 36.3618C48.7809 36.5634 48.8957 36.7566 49.0133 36.961C49.2636 37.3831 49.5444 37.7864 49.8533 38.1678C50.0129 38.3666 50.1809 38.5654 50.3573 38.7586L50.8697 39.3186L50.9817 39.439C51.1437 39.6184 51.24 39.8475 51.2547 40.0888C51.2695 40.3301 51.2019 40.5693 51.0629 40.7671C50.924 40.9649 50.722 41.1097 50.49 41.1777C50.258 41.2457 50.0098 41.2329 49.7861 41.1414C49.6013 41.063 49.4669 41.0098 49.3157 40.9398C49.1645 40.8698 49.0357 40.8026 48.8817 40.727C48.5998 40.5777 48.3198 40.4153 48.0417 40.2398C47.4853 39.8783 46.9674 39.4608 46.4961 38.9938C45.9861 38.4852 45.5489 37.9085 45.1969 37.2802C45.0116 36.9359 44.8543 36.5773 44.7265 36.2078C44.5934 35.8158 44.4996 35.4115 44.4465 35.001C44.4423 34.9544 44.4423 34.9076 44.4465 34.861V34.6818C44.5599 33.1016 44.8281 31.5364 45.2473 30.0086C45.4377 29.2666 45.6645 28.5386 45.8997 27.8162C46.1349 27.0938 46.3897 26.3994 46.7005 25.6602C46.912 25.142 47.3182 24.7274 47.8319 24.5053C48.3456 24.2832 48.9259 24.2712 49.4483 24.472C49.9707 24.6727 50.3937 25.0702 50.6264 25.5792C50.8591 26.0882 50.8831 26.6681 50.6933 27.1946L50.7241 27.2534Z" fill="#B55B52"/>
<path d="M49.84 23.0396C47.6 23.4624 47.1324 24.3752 45.4888 27.766C45.9844 30.006 49.1036 31.966 49.1036 31.966C49.1036 31.966 53.5136 25.9264 49.84 23.0396Z" fill="#407BFF"/>
<path d="M46.2897 27.2652C46.2533 28.4552 46.3709 29.8944 46.6369 32.7252C46.8189 35.1248 46.2197 39.686 46.9757 40.0052H59.0801C59.3237 36.5696 59.2341 34.2036 61.4069 26.5344C61.535 26.1333 61.5718 25.7087 61.5146 25.2917C61.4573 24.8746 61.3075 24.4756 61.0761 24.1239C60.8447 23.7722 60.5375 23.4768 60.1772 23.2592C59.8168 23.0416 59.4123 22.9074 58.9933 22.8664C58.5117 22.8188 58.0049 22.7768 57.4813 22.7516C55.6524 22.6212 53.8165 22.6212 51.9877 22.7516C51.3913 22.8076 50.7725 22.8832 50.1789 22.9644C49.1322 23.1186 48.1718 23.632 47.4623 24.4167C46.7527 25.2013 46.3382 26.2084 46.2897 27.2652Z" fill="#407BFF"/>
<path d="M51.8003 25.714C51.7387 25.9408 51.6043 26.1004 51.5203 26.0724C51.4363 26.0444 51.3915 25.84 51.4559 25.6132C51.5203 25.3864 51.6491 25.2296 51.7499 25.2576C51.8507 25.2856 51.8675 25.49 51.8003 25.714Z" fill="white"/>
<path d="M51.3577 27.5818C51.3269 27.8142 51.2205 27.9934 51.1197 27.9794C51.0189 27.9654 50.9573 27.7694 50.9853 27.537C51.0133 27.3046 51.1197 27.1254 51.2233 27.1394C51.3269 27.1534 51.3857 27.3522 51.3577 27.5818Z" fill="white"/>
<path d="M56.3165 16.7705C56.2633 18.5989 56.0365 21.5865 57.1789 22.7653C57.1789 22.7653 55.4988 22.5161 51.9484 24.7253C50.918 23.2469 51.6824 22.7653 51.6824 22.7653C52.696 22.5805 53.5809 21.5501 53.0265 20.2705L56.3165 16.7705Z" fill="#B55B52"/>
<path d="M52.6963 24.2714C53.8667 24.4366 54.2335 26.2062 54.2335 26.2062C54.2335 26.2062 57.0335 24.2154 57.9379 22.8126C57.5841 22.6133 57.2411 22.3955 56.9103 22.1602C56.9103 22.1602 53.3795 23.5938 52.6963 24.2714Z" fill="white"/>
<path d="M51.581 24.0818C51.581 24.0818 50.6514 24.2834 50.181 25.577C49.901 22.9982 51.1358 22.7602 51.1358 22.7602C51.4581 22.5819 51.8348 22.5281 52.1942 22.609C51.9366 22.7449 51.7344 22.9662 51.6225 23.2351C51.5106 23.5039 51.4959 23.8033 51.581 24.0818Z" fill="white"/>
<path opacity="0.2" d="M54.2584 19.1821L53.7964 19.4621L53.0264 20.2797C53.2255 20.6968 53.2526 21.1755 53.102 21.6125C53.9784 21.2709 54.8632 20.5849 55.0984 19.8429V19.8261C55.1351 19.7156 55.1365 19.5964 55.1023 19.485C55.0681 19.3737 55.0001 19.2758 54.9077 19.2049C54.8153 19.1341 54.7031 19.0938 54.5867 19.0897C54.4703 19.0856 54.3555 19.1179 54.2584 19.1821Z" fill="black"/>
<path d="M55.7198 12.4845C56.5598 15.2621 56.9798 16.4045 56.1678 18.3841C54.9498 21.3437 51.461 21.9373 49.8286 19.5041C48.3614 17.3145 47.2246 13.1369 49.3974 10.9417C51.5702 8.74647 54.8798 9.70407 55.7198 12.4845Z" fill="#B55B52"/>
<path d="M51.9391 14.998C52.0203 15.2276 51.9699 15.4628 51.8271 15.5244C51.6843 15.586 51.5023 15.4488 51.4211 15.2192C51.3399 14.9896 51.3903 14.7516 51.5331 14.69C51.6759 14.6284 51.8579 14.7656 51.9391 14.998Z" fill="#263238"/>
<path d="M49.2801 16.1935C49.3613 16.4231 49.3109 16.6611 49.1681 16.7227C49.0253 16.7843 48.8461 16.6471 48.7649 16.4147C48.6837 16.1823 48.7341 15.9499 48.8769 15.8883C49.0197 15.8267 49.1933 15.9639 49.2801 16.1935Z" fill="#263238"/>
<path d="M48.938 15.875L48.3584 15.9394C48.3584 15.9394 48.7784 16.2558 48.938 15.875Z" fill="#263238"/>
<path d="M50.0587 16.062C50.0486 16.6726 49.9611 17.2794 49.7983 17.868C50.1875 18.0276 50.6383 17.686 50.6383 17.686L50.0587 16.062Z" fill="#A02724"/>
<path d="M51.8898 17.7192C52.0217 17.6933 52.1557 17.6792 52.2902 17.6772C52.2992 17.6772 52.3082 17.6791 52.3165 17.6826C52.3249 17.6862 52.3324 17.6914 52.3387 17.6979C52.345 17.7044 52.3499 17.7122 52.3531 17.7207C52.3563 17.7291 52.3577 17.7382 52.3574 17.7472C52.356 17.7666 52.3475 17.7847 52.3335 17.7982C52.3196 17.8116 52.3011 17.8194 52.2818 17.82C51.9784 17.824 51.6797 17.8959 51.4079 18.0307C51.136 18.1654 50.8978 18.3594 50.711 18.5984C50.706 18.6058 50.6996 18.6121 50.6922 18.617C50.6848 18.6219 50.6765 18.6253 50.6678 18.627C50.6591 18.6287 50.6502 18.6286 50.6415 18.6268C50.6328 18.6251 50.6245 18.6216 50.6172 18.6166C50.6098 18.6117 50.6035 18.6053 50.5986 18.5979C50.5937 18.5905 50.5903 18.5822 50.5886 18.5735C50.5869 18.5648 50.587 18.5558 50.5888 18.5472C50.5905 18.5385 50.594 18.5302 50.599 18.5228C50.9145 18.104 51.3746 17.8175 51.8898 17.7192Z" fill="#263238"/>
<path d="M57.162 14.3036C57.1785 14.5803 57.1372 14.8574 57.0408 15.1172C56.9444 15.377 56.7949 15.6139 56.602 15.8128C56.1008 16.2804 55.482 15.7428 55.3224 14.9728C55.1768 14.2728 55.2636 13.1892 55.9132 13.0296C56.5628 12.87 57.1424 13.556 57.162 14.3036Z" fill="#FFB573"/>
<path d="M53.4801 9.74528C51.3801 12.0021 54.1969 17.3445 53.9085 21.1861C53.5585 25.8957 56.4453 26.5873 58.2625 22.8157C56.9101 19.2485 58.3073 13.9061 57.9433 12.0329C57.5205 9.88528 54.9725 8.69808 53.4801 9.74528Z" fill="#263238"/>
<path d="M50.7614 13.1189C50.7799 13.1164 50.7987 13.1178 50.8165 13.1231C50.8344 13.1284 50.8509 13.1375 50.865 13.1497C50.9916 13.2671 51.1454 13.3511 51.3126 13.3941C51.4798 13.4371 51.6551 13.4378 51.8226 13.3961C51.8397 13.3905 51.8577 13.3885 51.8756 13.3902C51.8935 13.3919 51.9108 13.3973 51.9266 13.4059C51.9423 13.4146 51.9561 13.4264 51.9671 13.4406C51.9781 13.4548 51.9861 13.4711 51.9906 13.4885C51.999 13.5259 51.9933 13.5651 51.9747 13.5986C51.9562 13.6321 51.926 13.6577 51.8898 13.6705C51.6784 13.7264 51.4563 13.7282 51.2439 13.6759C51.0316 13.6235 50.8358 13.5186 50.6746 13.3709C50.655 13.3512 50.6413 13.3264 50.6351 13.2994C50.6289 13.2723 50.6304 13.244 50.6394 13.2178C50.6485 13.1915 50.6647 13.1684 50.6863 13.1509C50.7078 13.1334 50.7339 13.1223 50.7614 13.1189Z" fill="#263238"/>
<path d="M47.9975 15.4209C47.981 15.4278 47.9634 15.4313 47.9457 15.4313C47.9279 15.4313 47.9103 15.4278 47.8939 15.4209C47.8596 15.406 47.8323 15.3786 47.8177 15.3442C47.8031 15.3098 47.8023 15.2711 47.8155 15.2361C47.8874 15.0184 48.0084 14.8201 48.1691 14.6565C48.3298 14.4929 48.5259 14.3684 48.7423 14.2925C48.7598 14.2875 48.7781 14.2863 48.7961 14.289C48.8141 14.2916 48.8314 14.298 48.8467 14.3078C48.8621 14.3176 48.8752 14.3305 48.8852 14.3457C48.8951 14.361 48.9018 14.3781 48.9047 14.3961C48.9132 14.4336 48.9069 14.4729 48.887 14.5058C48.8672 14.5387 48.8354 14.5626 48.7983 14.5725C48.6282 14.6357 48.4747 14.7366 48.3491 14.8675C48.2235 14.9984 48.1292 15.156 48.0731 15.3285C48.0675 15.3483 48.058 15.3667 48.045 15.3826C48.0319 15.3985 48.0158 15.4116 47.9975 15.4209Z" fill="#263238"/>
<path d="M51.6011 14.6763L51.0215 14.7435C51.0215 14.7435 51.4415 15.0599 51.6011 14.6763Z" fill="#263238"/>
<path d="M59.1022 22.8945C61.0622 23.1997 61.8602 23.7989 63.4702 27.7581C62.7394 29.2337 59.469 32.9717 59.469 32.9717C59.469 32.9717 56.6382 25.7785 59.1022 22.8945Z" fill="#407BFF"/>
<path d="M61.1299 99.5418C62.3003 97.6742 62.3535 97.159 63.1151 96.1818C63.7647 95.3418 63.7674 95.4062 64.5654 94.6838C65.0946 94.205 64.6579 93.519 64.0811 93.2278C63.6303 93.0038 63.1402 92.805 62.597 92.5054L60.5194 94.3898C60.8806 95.4622 60.679 97.6938 59.8894 99.175C59.3266 100.231 60.6623 100.287 61.1299 99.5418Z" fill="#263238"/>
<path d="M46.9753 40.019C46.9753 40.019 46.6953 55.1138 46.3509 65.4122C46.286 67.4766 46.7344 69.5249 47.6557 71.3734C51.2957 78.6814 60.3677 94.5658 60.3677 94.5658C60.7317 94.885 62.4677 93.0146 62.6077 92.4994C62.6077 92.4994 57.6741 72.4262 53.3005 67.9294C59.1133 51.8434 57.5341 40.019 57.5341 40.019H46.9753Z" fill="#263238"/>
<g opacity="0.2">
<path d="M57.5737 40.4614L51.8701 40.8646C51.8701 40.8646 52.7997 57.4434 53.7069 66.7394C58.4053 53.0614 57.7809 42.7014 57.5737 40.4614Z" fill="black"/>
<path d="M53.9004 68.6494C54.41 73.4094 54.9364 79.6198 55.1744 85.3486C57.0448 88.7086 58.722 91.6682 59.6376 93.2782C60.0828 91.2818 60.5588 88.899 60.9396 86.3734C59.254 80.5326 56.524 72.1298 53.9004 68.6494Z" fill="black"/>
</g>
<path d="M59.2536 93.7819C59.458 94.0395 59.8136 94.4987 60.0768 94.8515C60.1201 94.9038 60.1808 94.9385 60.2478 94.9493C60.3147 94.9601 60.3833 94.9463 60.4408 94.9103C61.3222 94.218 62.1377 93.4457 62.8768 92.6031C62.9126 92.5621 62.9348 92.511 62.9403 92.4568C62.9458 92.4027 62.9344 92.3481 62.9076 92.3007L62.314 91.2451C62.2948 91.2118 62.2685 91.183 62.237 91.1609C62.2055 91.1388 62.1695 91.1239 62.1316 91.1173C62.0937 91.1106 62.0548 91.1123 62.0176 91.1223C61.9804 91.1323 61.9459 91.1503 61.9164 91.1751L59.2872 93.4151C59.2609 93.437 59.2392 93.4639 59.2233 93.4941C59.2074 93.5244 59.1976 93.5575 59.1944 93.5916C59.1913 93.6256 59.1949 93.66 59.2051 93.6926C59.2153 93.7253 59.2317 93.7556 59.2536 93.7819Z" fill="#407BFF"/>
<path opacity="0.3" d="M59.2536 93.7819C59.458 94.0395 59.8136 94.4987 60.0768 94.8515C60.1201 94.9038 60.1808 94.9385 60.2478 94.9493C60.3147 94.9601 60.3833 94.9463 60.4408 94.9103C61.3222 94.218 62.1377 93.4457 62.8768 92.6031C62.9126 92.5621 62.9348 92.511 62.9403 92.4568C62.9458 92.4027 62.9344 92.3481 62.9076 92.3007L62.314 91.2451C62.2948 91.2118 62.2685 91.183 62.237 91.1609C62.2055 91.1388 62.1695 91.1239 62.1316 91.1173C62.0937 91.1106 62.0548 91.1123 62.0176 91.1223C61.9804 91.1323 61.9459 91.1503 61.9164 91.1751L59.2872 93.4151C59.2609 93.437 59.2392 93.4639 59.2233 93.4941C59.2074 93.5244 59.1976 93.5575 59.1944 93.5916C59.1913 93.6256 59.1949 93.66 59.2051 93.6926C59.2153 93.7253 59.2317 93.7556 59.2536 93.7819Z" fill="white"/>
<path d="M53.5922 101.566C55.8322 101.566 56.689 101.53 57.9546 101.488C59.0354 101.451 59.2818 101.586 60.1498 101.566C60.875 101.549 60.9114 100.858 60.7602 100.06C60.6846 99.6593 60.5558 99.1693 60.4606 98.5225H57.0558C56.5126 99.4045 54.519 100.068 53.2394 100.236C52.0214 100.398 52.699 101.566 53.5922 101.566Z" fill="#263238"/>
<path d="M50.1396 40.0191C50.1396 40.0191 53.6592 59.4035 54.95 68.1815C56.3052 77.4215 57.974 92.3847 57.0556 98.5139C57.554 98.8191 59.3964 98.8387 60.4604 98.5139C60.4604 98.5139 65.1504 78.3903 61.348 68.5903C63.9044 46.9967 60.1216 45.8711 59.0772 40.0107L50.1396 40.0191Z" fill="#263238"/>
<path d="M56.9156 97.245C56.8673 97.6699 56.7896 98.0909 56.6832 98.505C56.6722 98.5378 56.6685 98.5726 56.6724 98.607C56.6764 98.6413 56.6879 98.6744 56.706 98.7038C56.7242 98.7332 56.7487 98.7582 56.7776 98.7771C56.8066 98.796 56.8393 98.8083 56.8736 98.8131C58.1028 99.0147 59.9312 98.7235 60.5136 98.6227C60.5694 98.6137 60.6213 98.588 60.6623 98.5491C60.7032 98.5101 60.7315 98.4596 60.7432 98.4043L61.0372 97.2283C61.0479 97.192 61.0498 97.1536 61.0428 97.1165C61.0357 97.0793 61.0199 97.0443 60.9966 97.0145C60.9733 96.9847 60.9433 96.9608 60.909 96.9449C60.8746 96.929 60.837 96.9215 60.7992 96.9231L57.1956 96.9931C57.1259 96.9927 57.0587 97.0183 57.0069 97.0649C56.9551 97.1115 56.9226 97.1757 56.9156 97.245Z" fill="#407BFF"/>
<path opacity="0.3" d="M56.9156 97.245C56.8673 97.6699 56.7896 98.0909 56.6832 98.505C56.6722 98.5378 56.6685 98.5726 56.6724 98.607C56.6764 98.6413 56.6879 98.6744 56.706 98.7038C56.7242 98.7332 56.7487 98.7582 56.7776 98.7771C56.8066 98.796 56.8393 98.8083 56.8736 98.8131C58.1028 99.0147 59.9312 98.7235 60.5136 98.6227C60.5694 98.6137 60.6213 98.588 60.6623 98.5491C60.7032 98.5101 60.7315 98.4596 60.7432 98.4043L61.0372 97.2283C61.0479 97.192 61.0498 97.1536 61.0428 97.1165C61.0357 97.0793 61.0199 97.0443 60.9966 97.0145C60.9733 96.9847 60.9433 96.9608 60.909 96.9449C60.8746 96.929 60.837 96.9215 60.7992 96.9231L57.1956 96.9931C57.1259 96.9927 57.0587 97.0183 57.0069 97.0649C56.9551 97.1115 56.9226 97.1757 56.9156 97.245Z" fill="white"/>
<path d="M53.4349 9.31987C55.8177 12.7695 49.2349 11.5291 47.8013 14.7715C47.8069 11.5291 48.0757 9.02587 53.4349 9.31987Z" fill="#263238"/>
<path d="M59.0801 40.0193C55.6053 40.7529 48.3617 42.4385 46.9785 40.0193C47.8801 39.4005 57.0697 39.5125 59.0801 40.0193Z" fill="#407BFF"/>
<path d="M50.775 41.917C50.5454 41.917 50.3298 41.917 50.1338 41.9002C47.8714 41.7826 47.2246 41.0882 47.1994 41.0602C47.1921 41.0534 47.1863 41.0452 47.1823 41.036C47.1783 41.0269 47.1763 41.017 47.1763 41.007C47.1763 40.997 47.1783 40.9872 47.1823 40.978C47.1863 40.9688 47.1921 40.9606 47.1994 40.9538C47.2135 40.9398 47.2326 40.9319 47.2526 40.9319C47.2725 40.9319 47.2916 40.9398 47.3058 40.9538C47.3058 40.9538 47.9498 41.6286 50.1366 41.7462C52.3234 41.8638 57.3046 41.2478 58.8166 40.5422C58.8353 40.5342 58.8563 40.5335 58.8755 40.5402C58.8946 40.547 58.9106 40.5607 58.9202 40.5786C58.928 40.5976 58.9283 40.6189 58.921 40.6381C58.9137 40.6574 58.8994 40.6731 58.881 40.6822C57.4614 41.3514 53.2306 41.917 50.775 41.917Z" fill="white"/>
<path d="M49.9466 47.3893C49.8713 47.3867 49.7987 47.3603 49.7394 47.3137C48.6194 46.5241 49.6806 42.6629 50.277 41.6101C50.2853 41.5959 50.2979 41.5847 50.313 41.578C50.328 41.5713 50.3448 41.5696 50.3609 41.573C50.377 41.5764 50.3917 41.5848 50.4028 41.597C50.4138 41.6092 50.4208 41.6246 50.4226 41.6409C50.4646 42.1813 50.823 46.9273 50.081 47.3529C50.0403 47.3769 49.9939 47.3895 49.9466 47.3893ZM50.2882 41.9265C49.7002 43.2117 48.8882 46.5381 49.8262 47.1877C49.9214 47.2549 49.9746 47.2381 50.0054 47.2213C50.4814 46.9469 50.4394 44.0041 50.2882 41.9265Z" fill="white"/>
<path d="M51.1307 46.4731C51.0721 46.4712 51.0143 46.4589 50.9599 46.4367C49.6663 45.9271 49.9463 42.7491 50.2711 41.6263C50.276 41.6111 50.2853 41.5977 50.2977 41.5878C50.3102 41.5778 50.3253 41.5717 50.3411 41.5703C50.3572 41.5706 50.3729 41.5755 50.3863 41.5844C50.3997 41.5933 50.4103 41.6059 50.4167 41.6207C50.5707 42.0519 51.9035 45.8375 51.3295 46.3947C51.2762 46.4461 51.2048 46.4743 51.1307 46.4731ZM50.3551 41.9091C50.0555 43.2111 49.9407 45.8711 51.0159 46.2939C51.1559 46.3499 51.2063 46.2939 51.2231 46.2939C51.5871 45.9327 50.9319 43.5611 50.3551 41.9091Z" fill="white"/>
<path d="M49.1091 44.5975C49.0909 44.5978 49.0732 44.5913 49.0593 44.5795C49.0454 44.5677 49.0362 44.5512 49.0335 44.5331C48.8991 43.6735 49.7279 41.7667 50.3215 41.5763C50.3309 41.5729 50.3409 41.5713 50.3508 41.5719C50.3608 41.5724 50.3706 41.575 50.3795 41.5795C50.3884 41.5839 50.3963 41.5902 50.4027 41.5978C50.4091 41.6055 50.4139 41.6144 50.4167 41.6239C50.4231 41.6433 50.4216 41.6643 50.4128 41.6826C50.4039 41.7009 50.3882 41.715 50.3691 41.7219C49.8483 41.8871 49.0643 43.7379 49.1847 44.5219C49.1872 44.5419 49.1819 44.5621 49.1699 44.5782C49.1579 44.5944 49.1402 44.6053 49.1203 44.6087L49.1091 44.5975Z" fill="white"/>
</svg>
