<svg viewBox="0 0 32 33" fill="#fff" xmlns="http://www.w3.org/2000/svg">
    <path d="M25.5661 2.64404H6.43311C4.23311 2.64404 2.43311 4.44404 2.43311 6.64404V25.779C2.43311 27.979 4.23311 29.779 6.43311 29.779H25.5681C27.7681 29.779 29.5681 27.979 29.5681 25.779V6.64404C29.5661 4.44404 27.7681 2.64404 25.5661 2.64404ZM25.3091 17.127H22.0891V28.777H17.2711V17.127H14.8611V13.111H17.2711V10.701C17.2711 7.42504 18.6311 5.47604 22.5011 5.47604H25.7181V9.49104H23.7061C22.2021 9.49104 22.1021 10.054 22.1021 11.101L22.0891 13.111H25.7341L25.3091 17.127Z" fill="white"/>
</svg>