<svg width="87" height="88" viewBox="0 0 87 88" fill="none" xmlns="http://www.w3.org/2000/svg">
<g opacity="0.3">
<path d="M19.1213 30.3594H5.14453L5.28603 27.6616H19.2628L19.1213 30.3594Z" stroke="black" stroke-width="0.581463" stroke-linecap="round" stroke-linejoin="round"/>
<path d="M19.1213 34.1372H5.14453L5.28603 31.4395H19.2628L19.1213 34.1372Z" stroke="black" stroke-width="0.581463" stroke-linecap="round" stroke-linejoin="round"/>
<path d="M19.1213 37.9146H5.14453L5.28603 35.2168H19.2628L19.1213 37.9146Z" stroke="black" stroke-width="0.581463" stroke-linecap="round" stroke-linejoin="round"/>
<path d="M19.1213 41.6924H5.14453L5.28603 38.9946H19.2628L19.1213 41.6924Z" stroke="black" stroke-width="0.581463" stroke-linecap="round" stroke-linejoin="round"/>
<path d="M19.1213 45.4721H5.14453L5.28603 42.7725H19.2628L19.1213 45.4721Z" stroke="black" stroke-width="0.581463" stroke-linecap="round" stroke-linejoin="round"/>
<path d="M19.1213 49.2495H5.14453L5.28603 46.5498H19.2628L19.1213 49.2495Z" stroke="black" stroke-width="0.581463" stroke-linecap="round" stroke-linejoin="round"/>
<path d="M19.1213 53.0273H5.14453L5.28603 50.3276H19.2628L19.1213 53.0273Z" stroke="black" stroke-width="0.581463" stroke-linecap="round" stroke-linejoin="round"/>
<path d="M19.1213 56.8051H5.14453L5.28603 54.1055H19.2628L19.1213 56.8051Z" stroke="black" stroke-width="0.581463" stroke-linecap="round" stroke-linejoin="round"/>
<path d="M19.1213 60.5825H5.14453L5.28603 57.8828H19.2628L19.1213 60.5825Z" stroke="black" stroke-width="0.581463" stroke-linecap="round" stroke-linejoin="round"/>
<path d="M19.1213 64.3603H5.14453L5.28603 61.6606H19.2628L19.1213 64.3603Z" stroke="black" stroke-width="0.581463" stroke-linecap="round" stroke-linejoin="round"/>
<path d="M19.1213 68.1377H5.14453L5.28603 65.4399H19.2628L19.1213 68.1377Z" stroke="black" stroke-width="0.581463" stroke-linecap="round" stroke-linejoin="round"/>
<path d="M33.9006 30.3594H19.9238L20.0653 27.6616H34.0421L33.9006 30.3594Z" stroke="black" stroke-width="0.581463" stroke-linecap="round" stroke-linejoin="round"/>
<path d="M33.9006 34.1372H19.9238L20.0653 31.4395H34.0421L33.9006 34.1372Z" stroke="black" stroke-width="0.581463" stroke-linecap="round" stroke-linejoin="round"/>
<path d="M33.9006 37.9146H19.9238L20.0653 35.2168H34.0421L33.9006 37.9146Z" stroke="black" stroke-width="0.581463" stroke-linecap="round" stroke-linejoin="round"/>
<path d="M33.9006 41.6924H19.9238L20.0653 38.9946H34.0421L33.9006 41.6924Z" stroke="black" stroke-width="0.581463" stroke-linecap="round" stroke-linejoin="round"/>
<path d="M33.9006 45.4721H19.9238L20.0653 42.7725H34.0421L33.9006 45.4721Z" stroke="black" stroke-width="0.581463" stroke-linecap="round" stroke-linejoin="round"/>
<path d="M33.9006 49.2495H19.9238L20.0653 46.5498H34.0421L33.9006 49.2495Z" stroke="black" stroke-width="0.581463" stroke-linecap="round" stroke-linejoin="round"/>
<path d="M33.9006 53.0273H19.9238L20.0653 50.3276H34.0421L33.9006 53.0273Z" stroke="black" stroke-width="0.581463" stroke-linecap="round" stroke-linejoin="round"/>
<path d="M33.9006 56.8051H19.9238L20.0653 54.1055H34.0421L33.9006 56.8051Z" stroke="black" stroke-width="0.581463" stroke-linecap="round" stroke-linejoin="round"/>
<path d="M33.9006 60.5825H19.9238L20.0653 57.8828H34.0421L33.9006 60.5825Z" stroke="black" stroke-width="0.581463" stroke-linecap="round" stroke-linejoin="round"/>
<path d="M33.9006 64.3603H19.9238L20.0653 61.6606H34.0421L33.9006 64.3603Z" stroke="black" stroke-width="0.581463" stroke-linecap="round" stroke-linejoin="round"/>
<path d="M33.9006 68.1377H19.9238L20.0653 65.4399H34.0421L33.9006 68.1377Z" stroke="black" stroke-width="0.581463" stroke-linecap="round" stroke-linejoin="round"/>
</g>
<g opacity="0.3">
<path d="M76.8771 33.1523H58.8359V46.8014H76.8771V33.1523Z" stroke="black" stroke-width="0.581463" stroke-linecap="round" stroke-linejoin="round"/>
<path d="M75.8955 34.2808H59.813V45.6752H75.8955V34.2808Z" stroke="black" stroke-width="0.581463" stroke-linecap="round" stroke-linejoin="round"/>
<path d="M65.0581 36.0752H70.6529" stroke="black" stroke-width="0.581463" stroke-linecap="round" stroke-linejoin="round"/>
<path d="M61.4346 37.7285H74.2756" stroke="black" stroke-width="0.581463" stroke-linecap="round" stroke-linejoin="round"/>
<path d="M64.2964 41.0337H71.4142" stroke="black" stroke-width="0.581463" stroke-linecap="round" stroke-linejoin="round"/>
<path d="M61.5615 44.3398H64.3599" stroke="black" stroke-width="0.581463" stroke-linecap="round" stroke-linejoin="round"/>
<path d="M71.3511 44.3398H74.1475" stroke="black" stroke-width="0.581463" stroke-linecap="round" stroke-linejoin="round"/>
</g>
<g opacity="0.3">
<path d="M81.7756 49.6797H68.4971V59.7261H81.7756V49.6797Z" stroke="black" stroke-width="0.581463" stroke-linecap="round" stroke-linejoin="round"/>
<path d="M81.0548 50.5103H69.2173V58.8978H81.0548V50.5103Z" stroke="black" stroke-width="0.581463" stroke-linecap="round" stroke-linejoin="round"/>
<path d="M73.0786 51.832H77.1951" stroke="black" stroke-width="0.581463" stroke-linecap="round" stroke-linejoin="round"/>
<path d="M70.4111 53.0479H79.8636" stroke="black" stroke-width="0.581463" stroke-linecap="round" stroke-linejoin="round"/>
<path d="M72.5166 55.481H77.7577" stroke="black" stroke-width="0.581463" stroke-linecap="round" stroke-linejoin="round"/>
<path d="M70.5044 57.9146H72.5636" stroke="black" stroke-width="0.581463" stroke-linecap="round" stroke-linejoin="round"/>
<path d="M77.7095 57.9146H79.7687" stroke="black" stroke-width="0.581463" stroke-linecap="round" stroke-linejoin="round"/>
</g>
<path d="M66.3924 56.7475L47.1169 56.0773C46.3225 56.05 45.5281 56.05 44.7337 56.0773L26.7764 56.7475L27.5732 31.5346C27.603 30.5801 27.603 29.6244 27.5732 28.6674L26.7764 4.87695H66.3924V56.7475Z" fill="#263238" stroke="#263238" stroke-width="0.581463" stroke-linecap="round" stroke-linejoin="round"/>
<path d="M67.0291 3.98682H27.4131V55.8574H67.0291V3.98682Z" fill="white" stroke="#263238" stroke-width="0.581463" stroke-linecap="round" stroke-linejoin="round"/>
<path d="M64.3948 18.1235H30.0459V52.8951H64.3948V18.1235Z" fill="white" stroke="#263238" stroke-width="0.581463" stroke-linecap="round" stroke-linejoin="round"/>
<path d="M30.3682 12.9273V6.56912H32.23C32.5537 6.55489 32.8753 6.62822 33.1609 6.78137C33.3995 6.92326 33.5847 7.13986 33.6878 7.39764C33.8073 7.70929 33.8642 8.04143 33.8554 8.3751C33.8703 8.72095 33.7972 9.06493 33.6431 9.3749C33.513 9.62143 33.3048 9.81786 33.0511 9.93345C32.7672 10.055 32.4605 10.1141 32.1518 10.1066H31.5244V12.9273H30.3682ZM31.5299 9.28553H31.9693C32.138 9.29324 32.3062 9.26202 32.4609 9.1943C32.519 9.16514 32.5705 9.12429 32.6122 9.07432C32.6538 9.02434 32.6847 8.96631 32.7029 8.90386C32.7531 8.72908 32.7757 8.54754 32.7699 8.36579C32.7738 8.17832 32.7569 7.99101 32.7197 7.80724C32.7067 7.742 32.6805 7.6801 32.6427 7.62534C32.6049 7.57059 32.5564 7.52415 32.5 7.48887C32.3348 7.40992 32.1521 7.37466 31.9693 7.38647H31.5299V9.28553Z" fill="#2192FF"/>
<path d="M31.7808 15.9937L33.0598 12.62L31.8199 9.64111H32.9034L33.7264 11.6109L34.4488 9.64111H35.4542L34.2235 12.8397L35.5417 15.9937H34.4655L33.5625 13.8582L32.7768 15.9918L31.7808 15.9937Z" fill="#2192FF"/>
<path d="M49.5972 8.52979H64.2814" stroke="#263238" stroke-width="0.581463" stroke-linecap="round" stroke-linejoin="round"/>
<path d="M49.5972 11.6987H64.2814" stroke="#263238" stroke-width="0.581463" stroke-linecap="round" stroke-linejoin="round"/>
<path d="M52.7671 10.3262H64.2806" stroke="#263238" stroke-width="0.581463" stroke-linecap="round" stroke-linejoin="round"/>
<path d="M52.7671 13.1787H64.2806" stroke="#263238" stroke-width="0.581463" stroke-linecap="round" stroke-linejoin="round"/>
<path d="M31.2153 21.9458H42.7308" stroke="#263238" stroke-width="0.581463" stroke-linecap="round" stroke-linejoin="round"/>
<path d="M31.2153 24.9526H42.7308" stroke="#263238" stroke-width="0.581463" stroke-linecap="round" stroke-linejoin="round"/>
<path d="M31.2153 23.5005H48.6476" stroke="#263238" stroke-width="0.581463" stroke-linecap="round" stroke-linejoin="round"/>
<path d="M31.2153 28.6172H42.7308" stroke="#263238" stroke-width="0.581463" stroke-linecap="round" stroke-linejoin="round"/>
<path d="M31.2153 31.624H42.7308" stroke="#263238" stroke-width="0.581463" stroke-linecap="round" stroke-linejoin="round"/>
<path d="M31.2153 30.1714H48.6476" stroke="#263238" stroke-width="0.581463" stroke-linecap="round" stroke-linejoin="round"/>
<path d="M30.9692 51.0205H41.8851" stroke="#263238" stroke-width="0.581463" stroke-linecap="round" stroke-linejoin="round"/>
<path d="M51.6689 51.0205H62.5849" stroke="#263238" stroke-width="0.581463" stroke-linecap="round" stroke-linejoin="round"/>
<path d="M32.5091 39.0356C31.8564 39.4498 31.341 40.0481 31.0282 40.755C30.7154 41.4619 30.6192 42.2457 30.7517 43.0073C30.8842 43.7689 31.2395 44.4741 31.7727 45.0338C32.3059 45.5936 32.993 45.9827 33.7473 46.152C34.5016 46.3213 35.2891 46.2632 36.0104 45.9851C36.7316 45.707 37.3543 45.2213 37.7996 44.5894C38.2449 43.9576 38.4929 43.2078 38.5123 42.4351C38.5317 41.6623 38.3215 40.9011 37.9084 40.2477C37.6338 39.8133 37.2761 39.4373 36.856 39.1412C36.4359 38.8451 35.9616 38.6348 35.4601 38.5222C34.9586 38.4096 34.4398 38.397 33.9335 38.4851C33.4271 38.5732 32.9431 38.7603 32.5091 39.0356ZM36.2607 44.9507C35.7447 45.2776 35.1434 45.4442 34.5327 45.4294C33.9221 45.4146 33.3295 45.2191 32.83 44.8676C32.3304 44.516 31.9463 44.0243 31.7262 43.4545C31.5061 42.8847 31.4599 42.2624 31.5934 41.6663C31.727 41.0703 32.0342 40.5272 32.4764 40.1057C32.9185 39.6843 33.4757 39.4034 34.0775 39.2986C34.6793 39.1938 35.2986 39.2697 35.8572 39.5169C36.4158 39.764 36.8886 40.1713 37.2158 40.6871C37.4332 41.0297 37.5809 41.4118 37.6505 41.8115C37.7201 42.2113 37.7103 42.6208 37.6216 43.0167C37.5329 43.4127 37.3671 43.7873 37.1335 44.1191C36.9 44.4509 36.6034 44.7335 36.2607 44.9507Z" fill="#2192FF"/>
<path d="M36.0579 41.0686L32.7285 43.1782L33.0683 43.7145L36.3977 41.6049L36.0579 41.0686Z" fill="#2192FF"/>
<path d="M32.7178 49.7914C32.7178 49.7914 32.7718 51.0314 34.3934 48.8195C36.0151 46.6077 35.7972 46.7715 35.3653 48.0115C35.0344 48.8699 34.5965 49.6831 34.062 50.4319C34.062 50.4319 36.0058 47.3561 36.0058 48.2182C36.0058 49.0802 34.17 52.7517 34.548 52.4278C34.9259 52.1038 36.1137 50.4859 36.1137 50.4859C36.1137 50.4859 35.9518 51.5639 36.3819 51.0779C36.8119 50.592 37.2997 49.622 37.2457 50.1619C37.1917 50.7018 36.4898 51.3479 37.1918 50.7019C37.8937 50.0558 38.4336 49.244 38.2716 49.838C38.1096 50.4319 37.6777 50.6479 38.1096 50.4319C38.5416 50.2159 40.9694 46.1683 40.2135 46.6542C39.4576 47.1402 38.0556 51.3479 38.7036 51.0239C39.3515 50.7 40.1055 49.0821 40.0515 49.892C39.9975 50.7018 40.2135 50.7018 40.4239 50.4319" stroke="#263238" stroke-width="0.581463" stroke-linecap="round" stroke-linejoin="round"/>
<path d="M86 83.9097H1" stroke="#263238" stroke-width="0.581463" stroke-linecap="round" stroke-linejoin="round"/>
<path d="M86 85.6895H1" stroke="#263238" stroke-width="0.581463" stroke-linecap="round" stroke-linejoin="round"/>
<path d="M81.3436 64.2764H63.3211C63.0367 64.2761 62.7618 64.3784 62.5467 64.5644C62.3316 64.7504 62.1908 65.0078 62.15 65.2892L59.4541 83.7213H80.8856L82.5222 65.561C82.5364 65.3977 82.5165 65.2332 82.4637 65.078C82.4109 64.9228 82.3264 64.7802 82.2156 64.6594C82.1047 64.5386 81.97 64.4422 81.8199 64.3762C81.6698 64.3103 81.5076 64.2763 81.3436 64.2764Z" fill="#263238" stroke="#263238" stroke-width="0.581463" stroke-linecap="round" stroke-linejoin="round"/>
<path d="M56.9387 61.2679C56.9387 61.2679 52.0626 63.6883 50.3888 64.3567C48.715 65.0251 48.3035 65.3249 48.1546 65.7345C48.0056 66.1441 41.493 76.3786 40.7501 77.3095C40.0072 78.2404 38.4042 80.2493 38.6276 81.6252C38.851 83.0011 40.6384 84.1945 42.3513 84.1573C44.0641 84.12 45.144 83.7849 45.3302 83.3008C45.5164 82.8168 50.2436 74.3641 50.2436 74.3641L51.733 83.7793H70.7516C70.7516 83.7793 72.2411 70.9029 72.2411 69.0038C72.2411 67.1048 72.6134 64.8724 71.8315 64.3884C71.0495 63.9043 67.8118 62.7891 65.4286 62.0071C63.0455 61.2251 62.3026 61.0762 61.746 61.0762C61.1893 61.0762 56.9387 61.2679 56.9387 61.2679Z" fill="white" stroke="#263238" stroke-width="0.581463" stroke-linecap="round" stroke-linejoin="round"/>
<path d="M56.4231 61.3346C56.4231 61.3346 55.7901 62.5262 55.7529 63.4943C55.7156 64.4625 55.5667 66.248 55.0081 67.3278C54.4496 68.4077 54.04 69.0035 54.3379 68.8899C54.6358 68.7763 56.3468 66.881 56.533 66.4695C56.7191 66.0581 57.017 66.8419 57.017 66.8419C57.017 66.8419 56.4585 68.4412 56.384 68.6646C56.3095 68.8881 58.7281 71.9768 58.7281 71.9768C58.7281 71.9768 60.8133 70.3403 61.2974 69.9679C61.7815 69.5955 61.6325 69.2977 61.6697 68.8136C61.707 68.3295 61.8559 67.6239 62.1147 67.2143C62.3735 66.8047 63.122 68.4096 63.6414 69.1543C64.1609 69.899 64.6841 70.1597 64.6096 69.6011C64.5351 69.0426 64.2744 67.9627 64.0883 66.0637C63.9021 64.1646 63.9393 61.895 63.4552 61.1875C62.9712 60.48 60.4316 60.3404 58.7653 60.2212C58.31 60.1704 57.8495 60.2477 57.4357 60.4444C57.0219 60.6411 56.6712 60.9494 56.4231 61.3346Z" fill="white" stroke="#263238" stroke-width="0.581463" stroke-linecap="round" stroke-linejoin="round"/>
<path d="M48.9051 67.6743L50.2457 74.3695L48.5142 69.9178" stroke="#263238" stroke-width="0.581463" stroke-linecap="round" stroke-linejoin="round"/>
<path d="M56.6094 63.1298C56.6094 63.1298 57.1307 66.0323 57.6148 68.2647C57.8809 69.5353 58.2546 70.781 58.7319 71.9883C58.7319 71.9883 61.1895 67.8569 61.897 65.6991C62.2988 64.5085 62.61 63.2893 62.8279 62.0518H56.6094V63.1298Z" stroke="#263238" stroke-width="0.581463" stroke-linecap="round" stroke-linejoin="round"/>
<path d="M59.3255 64.1274L57.9868 65.8031L58.9177 67.5904L58.0017 69.8079C58.2037 70.5454 58.4474 71.2708 58.7315 71.9806C58.7315 71.9806 59.4986 70.6923 60.2973 69.1879L59.6252 67.637L60.4444 65.7752L59.3255 64.1274Z" fill="#2192FF" stroke="#263238" stroke-width="0.581463" stroke-linecap="round" stroke-linejoin="round"/>
<path d="M56.6094 62.0498V63.1297C56.6094 63.1297 56.9687 65.133 57.3671 67.0898L59.2513 65.1013L61.2379 67.302C61.4864 66.7796 61.7058 66.2438 61.8951 65.6971C62.2969 64.5066 62.6081 63.2873 62.826 62.0498H56.6094Z" fill="white" stroke="#263238" stroke-width="0.581463" stroke-linecap="round" stroke-linejoin="round"/>
<path d="M40.3833 78.4113C40.3833 78.4113 43.8593 77.1416 45.7342 80.2303" stroke="#263238" stroke-width="0.581463" stroke-linecap="round" stroke-linejoin="round"/>
<path d="M45.7955 79.2773C45.7955 79.2773 43.8537 79.7167 42.8166 81.3719C41.7796 83.0271 43.889 83.2114 44.4718 83.2114C45.0545 83.2114 45.6056 82.8204 45.6373 82.6175C45.6689 82.4145 46.4323 80.4522 46.4025 79.9941C46.399 79.8231 46.3368 79.6585 46.2263 79.528C46.1157 79.3975 45.9636 79.309 45.7955 79.2773Z" fill="white" stroke="#263238" stroke-width="0.581463" stroke-linecap="round" stroke-linejoin="round"/>
<path d="M44.9022 79.9624C44.9022 79.9624 43.8279 80.8933 43.9005 81.2657C43.9731 81.638 45.5668 83.0717 45.874 82.865C45.9295 82.8368 45.9788 82.798 46.0192 82.7507C46.0596 82.7034 46.0902 82.6486 46.1094 82.5895C46.1286 82.5303 46.136 82.468 46.131 82.406C46.1261 82.344 46.109 82.2836 46.0807 82.2283C45.9932 82.0886 44.9022 79.9624 44.9022 79.9624Z" fill="white" stroke="#263238" stroke-width="0.581463" stroke-linecap="round" stroke-linejoin="round"/>
<path d="M43.906 81.2563C43.906 81.2563 43.2748 81.9285 43.4815 82.2357C43.6882 82.5429 45.1311 83.3267 45.5053 83.0903C45.8795 82.8538 45.6375 82.6118 45.6375 82.6118L43.906 81.2563Z" fill="white" stroke="#263238" stroke-width="0.581463" stroke-linecap="round" stroke-linejoin="round"/>
<path d="M47.6036 79.927L46.3115 79.7036L46.615 81.5636L47.935 81.6045L47.6036 79.927Z" fill="white" stroke="#263238" stroke-width="0.581463" stroke-linecap="round" stroke-linejoin="round"/>
<path d="M45.2781 77.002L46.7918 82.3064L47.5272 82.9748V82.0308L45.926 76.8177C45.913 76.7743 45.8913 76.7341 45.8622 76.6993C45.8332 76.6646 45.7974 76.6361 45.757 76.6155C45.7167 76.595 45.6725 76.5828 45.6273 76.5798C45.5822 76.5768 45.5368 76.583 45.4941 76.598C45.4138 76.6257 45.3469 76.6828 45.3069 76.7577C45.2668 76.8326 45.2566 76.9199 45.2781 77.002Z" fill="#263238" stroke="#263238" stroke-width="0.581463" stroke-linecap="round" stroke-linejoin="round"/>
<path d="M45.7955 79.2772C45.7955 79.2772 44.9018 79.8003 44.9911 80.1969C45.0805 80.5935 46.0449 82.4479 46.3931 82.4721C46.7413 82.4963 46.9517 82.2859 46.9014 81.8837C46.8511 81.4816 46.529 80.0219 46.3112 79.7035C46.0934 79.3852 46.0691 79.2586 45.7955 79.2772Z" fill="white" stroke="#263238" stroke-width="0.581463" stroke-linecap="round" stroke-linejoin="round"/>
<path d="M47.6036 79.9268C47.6036 79.9268 48.555 80.0459 48.7207 80.3364C48.8864 80.6268 48.2217 81.7849 48.0095 82.0492C47.7972 82.3136 47.4174 82.3025 47.4062 81.6322C47.4241 81.0592 47.4901 80.4887 47.6036 79.9268Z" fill="white" stroke="#263238" stroke-width="0.581463" stroke-linecap="round" stroke-linejoin="round"/>
<path d="M42.4573 82.167H52.8966C53.1883 82.1675 53.4679 82.2836 53.6741 82.4898C53.8804 82.6961 53.9964 82.9757 53.9969 83.2673C53.9969 83.5142 53.8989 83.751 53.7243 83.9256C53.5497 84.1002 53.3129 84.1982 53.066 84.1982H42.6025C42.3754 84.1982 42.1576 84.108 41.9969 83.9474C41.8363 83.7868 41.7461 83.569 41.7461 83.3418V82.8764C41.7461 82.783 41.7645 82.6906 41.8003 82.6045C41.836 82.5183 41.8885 82.44 41.9545 82.3741C42.0206 82.3082 42.099 82.256 42.1853 82.2205C42.2716 82.1849 42.364 82.1667 42.4573 82.167Z" fill="white" stroke="#263238" stroke-width="0.581463" stroke-linecap="round" stroke-linejoin="round"/>
<path d="M61.0349 79.767C61.0349 79.767 58.3185 79.4691 57.6482 79.2457C56.978 79.0223 55.8981 78.8361 55.5257 79.134C55.1534 79.4319 53.3306 81.5544 53.2915 81.8131C53.2525 82.0719 52.8819 82.9302 53.0681 83.1537C53.2242 83.3093 53.4159 83.4244 53.6267 83.4888C53.6267 83.4888 56.0471 84.1591 56.3059 84.1963C56.5646 84.2335 59.0595 84.1218 59.0595 84.1218L60.3628 83.6377L62.1855 83.6005C62.1855 83.6005 62.2227 84.1963 62.26 82.7441C62.2972 81.2918 61.0349 79.767 61.0349 79.767Z" fill="white" stroke="#263238" stroke-width="0.581463" stroke-linecap="round" stroke-linejoin="round"/>
<path d="M53.6323 83.4906C53.6323 83.4906 53.6696 82.6341 53.8557 82.2618C54.0419 81.8894 56.1626 79.9922 56.1626 79.9922" stroke="#263238" stroke-width="0.581463" stroke-linecap="round" stroke-linejoin="round"/>
<path d="M54.332 83.7101C54.332 83.7101 54.7044 82.7792 54.8533 82.7048C55.0023 82.6303 56.7505 81.5132 56.7505 81.5132" stroke="#263238" stroke-width="0.581463" stroke-linecap="round" stroke-linejoin="round"/>
<path d="M55.604 83.971C55.604 83.971 55.6785 83.5986 55.8647 83.5242C56.0508 83.4497 57.6148 82.7422 57.6148 82.7422" stroke="#263238" stroke-width="0.581463" stroke-linecap="round" stroke-linejoin="round"/>
<path d="M57.2797 84.1571L57.9872 83.9709L57.9127 83.6357L57.168 83.8219" stroke="#263238" stroke-width="0.581463" stroke-linecap="round" stroke-linejoin="round"/>
<path d="M69.5605 67.7804C69.5605 67.7804 67.5888 71.9118 67.6986 73.3659C67.8085 74.82 68.2963 77.2348 68.2963 77.2348C68.2963 77.2348 65.1703 78.4617 64.0904 78.9104C63.0106 79.3591 61.0352 79.7669 61.0352 79.7669L62.0387 83.7121L61.8916 84.1217H72.72C72.72 84.1217 73.5392 83.9727 73.6882 83.7865C73.8371 83.6004 73.986 83.5259 74.0605 82.9301C74.135 82.3343 74.6191 77.1249 74.5074 75.669C74.3956 74.213 72.8689 66.6633 72.6828 65.8813C72.4966 65.0994 72.1633 64.578 71.8282 64.3919C71.4931 64.2057 70.0408 64.0586 70.0408 64.0586" fill="white"/>
<path d="M69.5605 67.7804C69.5605 67.7804 67.5888 71.9118 67.6986 73.3659C67.8085 74.82 68.2963 77.2348 68.2963 77.2348C68.2963 77.2348 65.1703 78.4617 64.0904 78.9104C63.0106 79.3591 61.0352 79.7669 61.0352 79.7669L62.0387 83.7121L61.8916 84.1217H72.72C72.72 84.1217 73.5392 83.9727 73.6882 83.7865C73.8371 83.6004 73.986 83.5259 74.0605 82.9301C74.135 82.3343 74.6191 77.1249 74.5074 75.669C74.3956 74.213 72.8689 66.6633 72.6828 65.8813C72.4966 65.0994 72.1633 64.578 71.8282 64.3919C71.4931 64.2057 70.0408 64.0586 70.0408 64.0586" stroke="#263238" stroke-width="0.581463" stroke-linecap="round" stroke-linejoin="round"/>
<path d="M68.5566 77.3091C68.5566 77.3091 71.422 77.458 72.8389 78.3499" stroke="#263238" stroke-width="0.581463" stroke-linecap="round" stroke-linejoin="round"/>
<path d="M69.0762 76.9368C69.0762 76.9368 71.0869 76.8251 72.1668 77.1602" stroke="#263238" stroke-width="0.581463" stroke-linecap="round" stroke-linejoin="round"/>
<path d="M68.5196 67.665C68.5196 67.665 67.5142 70.0109 67.4769 70.9046C67.4397 71.7983 67.3652 72.3196 67.3652 72.3196" stroke="#263238" stroke-width="0.581463" stroke-linecap="round" stroke-linejoin="round"/>
<path d="M63.9409 61.4541C63.9409 61.4541 66.2105 64.6862 64.3859 73.6994" stroke="#263238" stroke-width="1.16293" stroke-linecap="round" stroke-linejoin="round"/>
<path d="M65.4661 73.9599C65.4661 73.7389 65.4006 73.523 65.2779 73.3392C65.1551 73.1555 64.9807 73.0124 64.7765 72.9278C64.5724 72.8433 64.3478 72.8211 64.1311 72.8642C63.9144 72.9073 63.7154 73.0137 63.5591 73.17C63.4029 73.3262 63.2965 73.5252 63.2534 73.7419C63.2103 73.9586 63.2324 74.1832 63.317 74.3874C63.4015 74.5915 63.5447 74.766 63.7284 74.8887C63.9121 75.0115 64.1281 75.077 64.349 75.077C64.6453 75.077 64.9294 74.9593 65.1389 74.7498C65.3484 74.5403 65.4661 74.2561 65.4661 73.9599Z" fill="white" stroke="#263238" stroke-width="0.581463" stroke-linecap="round" stroke-linejoin="round"/>
<path d="M56.1936 61.7891C56.1936 61.7891 55.0412 62.5338 54.855 65.5481" stroke="#263238" stroke-width="1.16293" stroke-linecap="round" stroke-linejoin="round"/>
<path d="M56.457 70.1152C56.1758 72.1484 55.7923 74.3323 55.7122 74.8108C55.5261 75.8348 54.3103 76.1922 53.5283 75.8571" stroke="#263238" stroke-width="1.16293" stroke-linecap="round" stroke-linejoin="round"/>
<path d="M53.5407 70.2495C53.2857 69.11 53.1293 68.1214 53.1851 67.669C53.4458 65.5856 54.8608 65.5483 54.8608 65.5483C54.8608 65.5483 56.5364 65.7718 56.6463 67.5591C56.6578 68.415 56.5955 69.2703 56.4601 70.1154" stroke="#263238" stroke-width="1.16293" stroke-linecap="round" stroke-linejoin="round"/>
<path d="M56.6838 75.7079C56.6838 75.7079 55.9018 76.1547 55.3805 75.8569C55.0286 75.6558 54.0772 72.6247 53.541 70.249" stroke="#263238" stroke-width="1.16293" stroke-linecap="round" stroke-linejoin="round"/>
<path d="M56.9561 75.3044L56.6483 75.437C56.5001 75.5009 56.4317 75.6729 56.4956 75.8212L56.4993 75.8297C56.5632 75.978 56.7352 76.0463 56.8834 75.9824L57.1912 75.8498C57.3394 75.7859 57.4078 75.6139 57.3439 75.4656L57.3402 75.4571C57.2763 75.3088 57.1043 75.2404 56.9561 75.3044Z" stroke="#263238" stroke-width="0.581463" stroke-linecap="round" stroke-linejoin="round"/>
<path d="M53.6243 75.5067L53.337 75.3341C53.1986 75.251 53.019 75.2958 52.9359 75.4342L52.9311 75.4422C52.848 75.5805 52.8928 75.7601 53.0312 75.8432L53.3185 76.0158C53.4569 76.0989 53.6365 76.0541 53.7196 75.9157L53.7244 75.9077C53.8075 75.7694 53.7627 75.5898 53.6243 75.5067Z" stroke="#263238" stroke-width="0.581463" stroke-linecap="round" stroke-linejoin="round"/>
<path d="M54.8608 52.7834C54.8608 52.7834 54.265 54.1966 54.3767 55.0903C54.4885 55.9839 55.68 56.9521 55.68 56.9521C55.68 56.9521 56.0896 52.9696 56.0896 52.8207C56.0896 52.6717 55.343 52.3366 54.8608 52.7834Z" fill="#263238" stroke="#263238" stroke-width="0.581463" stroke-linecap="round" stroke-linejoin="round"/>
<path d="M54.4326 57.8459L55.2239 57.293" stroke="#263238" stroke-width="1.16293" stroke-linecap="round" stroke-linejoin="round"/>
<path d="M55.3058 53.0442C55.3058 53.0442 55.1568 56.9894 55.2313 57.7323C55.3058 58.4751 55.6037 60.8583 55.8643 61.603C56.125 62.3477 56.9814 64.729 57.6517 64.9897C58.3219 65.2503 59.6606 65.4365 60.1074 65.1386C60.5543 64.8407 62.1908 63.7255 62.6377 62.6456C62.9026 62.016 63.0781 61.3523 63.159 60.674C63.5305 60.4757 63.8514 60.1946 64.0968 59.8523C64.3422 59.5101 64.5055 59.1159 64.574 58.7004C64.7974 57.2854 64.2016 56.8777 64.2016 56.8777L64.2388 54.4201C64.2388 54.4201 63.8292 52.709 62.7494 51.7781C61.6695 50.8472 60.4053 50.7727 59.102 51.4802C57.7988 52.1877 55.3058 53.0442 55.3058 53.0442Z" fill="white" stroke="#263238" stroke-width="0.581463" stroke-linecap="round" stroke-linejoin="round"/>
<path d="M62.3027 52.8206C62.3027 52.8206 62.34 51.8525 61.4109 52.1876C60.4819 52.5227 60.2566 53.1558 58.8788 53.7143C57.5011 54.2729 55.6783 53.6398 55.0472 53.2675C54.416 52.8951 53.9673 52.3738 54.8238 51.4056C55.6802 50.4375 57.6891 49.4712 59.8507 49.4712C62.0123 49.4712 63.6842 51.2567 64.3917 52.0014C65.0992 52.7461 65.2109 53.6771 64.9502 54.3455C64.6896 55.0139 64.2055 56.8776 64.2055 56.8776C64.2055 56.8776 63.9076 56.8403 63.7959 57.2853C63.6842 57.7303 63.7214 58.2162 63.2374 58.2534C62.7533 58.2907 62.7905 56.9893 62.7905 56.9893C62.7905 56.9893 61.6008 56.6169 61.4519 55.7605C61.3029 54.904 62.3027 53.6398 62.3027 52.8206Z" fill="#263238" stroke="#263238" stroke-width="0.581463" stroke-linecap="round" stroke-linejoin="round"/>
<path d="M57.8698 58.4527L54.4272 57.8457L54.6265 59.3892C54.6387 59.4851 54.6815 59.5746 54.7486 59.6444C54.8157 59.7141 54.9034 59.7604 54.9988 59.7764L57.0915 60.106C57.2066 60.1245 57.3243 60.0976 57.4199 60.0309C57.5155 59.9642 57.5813 59.8629 57.6035 59.7485L57.8698 58.4527Z" stroke="#263238" stroke-width="1.16293" stroke-linecap="round" stroke-linejoin="round"/>
<path d="M58.4971 58.5178L62.4888 58.4023L62.0978 59.8471C62.0642 59.9444 61.9999 60.0282 61.9147 60.0859C61.8294 60.1436 61.7278 60.1722 61.6249 60.1674L59.2046 60.2009C59.0791 60.2095 58.9547 60.1727 58.8542 60.0971C58.7537 60.0216 58.6837 59.9123 58.6572 59.7894L58.4971 58.5178Z" stroke="#263238" stroke-width="1.16293" stroke-linecap="round" stroke-linejoin="round"/>
<path d="M57.8755 58.4526L58.4973 58.5178" stroke="#263238" stroke-width="1.16293" stroke-linecap="round" stroke-linejoin="round"/>
<path d="M62.4893 58.4023L63.7925 57.2852" stroke="#263238" stroke-width="1.16293" stroke-linecap="round" stroke-linejoin="round"/>
<path d="M59.0278 58.0671C59.0278 58.0671 60.1449 57.2125 61.1876 57.732" stroke="#263238" stroke-width="1.16293" stroke-linecap="round" stroke-linejoin="round"/>
<path d="M57.3539 57.8812C57.3539 57.8812 56.4974 56.9503 55.5293 57.5833" stroke="#263238" stroke-width="1.16293" stroke-linecap="round" stroke-linejoin="round"/>
<path d="M57.5774 61.1187C57.5774 61.1187 57.3912 61.9006 57.5774 62.0496C57.8943 62.2245 58.2602 62.29 58.6181 62.2358" stroke="#263238" stroke-width="0.581463" stroke-linecap="round" stroke-linejoin="round"/>
<path d="M57.0186 62.6382C57.0186 62.6382 57.7633 63.1967 58.4708 63.234C59.1783 63.2712 59.9956 62.7499 59.9956 62.7499" stroke="#263238" stroke-width="0.581463" stroke-linecap="round" stroke-linejoin="round"/>
<path d="M59.7725 58.8492C59.7725 58.8492 60.2193 59.3706 60.964 58.812" stroke="#263238" stroke-width="0.581463" stroke-linecap="round" stroke-linejoin="round"/>
<path d="M56.1069 58.6201C56.1069 58.6201 56.4793 59.1973 57.2911 58.7449" stroke="#263238" stroke-width="0.581463" stroke-linecap="round" stroke-linejoin="round"/>
<path d="M33.0144 52.8173C33.0144 52.8173 33.2508 56.3641 33.0721 56.6601L32.5489 57.5464C32.5489 57.5464 32.7853 60.0896 32.3124 60.3838C31.946 60.58 31.5441 60.7009 31.1302 60.7394C31.1302 60.7394 30.6573 62.631 30.4785 62.8675C30.2998 63.1039 29.2367 63.8729 28.883 63.9846C28.5292 64.0963 27.4047 64.1708 24.7441 62.5659C22.0835 60.961 21.0782 60.4378 21.1377 59.5516C21.1973 58.6653 21.3239 57.6599 21.3239 57.6599C21.3239 57.6599 21.62 53.4019 22.1524 52.1024C22.6849 50.8028 29.4247 50.0916 30.903 50.4472C32.3813 50.8028 33.0144 52.8173 33.0144 52.8173Z" fill="white" stroke="#263238" stroke-width="0.581463" stroke-linecap="round" stroke-linejoin="round"/>
<path d="M26.1558 58.6689L26.5709 58.965C26.5709 58.965 26.2153 60.3837 26.3848 61.0353" stroke="#263238" stroke-width="0.581463" stroke-linecap="round" stroke-linejoin="round"/>
<path d="M32.0667 57.4809C32.0071 57.7527 31.8638 57.9501 31.7483 57.924C31.6329 57.8979 31.5864 57.6596 31.6478 57.3878C31.7092 57.116 31.8507 56.9186 31.9662 56.9447C32.0816 56.9708 32.1282 57.2109 32.0667 57.4809Z" fill="#263238"/>
<path d="M31.4639 56.3957C31.4639 56.3957 32.1081 55.7515 32.6461 56.3603" stroke="#263238" stroke-width="0.581463" stroke-linecap="round" stroke-linejoin="round"/>
<path d="M30.65 52.3443C30.65 52.3443 31.417 53.763 31.3593 54.059C31.3016 54.355 28.8756 55.0644 28.8756 55.0644C28.8756 55.0644 28.6392 56.4831 28.2836 56.66L27.9298 56.8369C27.6462 56.4517 27.4082 56.035 27.2205 55.595C26.8072 54.7088 26.2151 54.4779 25.5653 55.3586C24.9155 56.2392 25.4462 58.3152 25.8018 58.492L26.1555 58.6689C26.1555 58.6689 25.8595 58.9649 24.7368 59.1437C23.6141 59.3224 22.7856 59.557 21.9589 59.3205C21.1323 59.0841 19.9482 56.8369 19.5386 53.9398C19.129 51.0428 20.4248 48.561 22.1451 47.7958C23.8655 47.0306 27.7623 47.7362 28.0564 47.9131C28.3506 48.09 30.3632 47.146 31.5455 47.7362C32.7278 48.3264 32.6626 48.9781 32.9642 49.3914C33.2658 49.8047 34.7963 49.2741 34.9154 50.7524C35.0346 52.2307 34.4425 53.1169 33.6736 53.2342C32.9046 53.3515 30.65 52.3443 30.65 52.3443Z" fill="#263238" stroke="#263238" stroke-width="0.581463" stroke-linecap="round" stroke-linejoin="round"/>
<path d="M16.6507 61.6255C16.6507 61.6255 10.9852 64.6472 9.9053 65.2449C8.82543 65.8425 8.66345 66.3787 8.60201 66.9205C8.54057 67.4623 8.60201 85.6971 8.60201 85.6971H39.2049C39.2049 85.6971 34.5634 71.7613 34.4107 70.2048C34.258 68.6483 33.9266 65.8872 33.4947 65.5632C33.0627 65.2393 26.9634 62.5415 26.9634 62.5415C26.9634 62.5415 25.5056 60.9775 22.0537 60.9775C18.6019 60.9775 16.6507 61.6255 16.6507 61.6255Z" fill="#2192FF" stroke="#263238" stroke-width="0.581463" stroke-linecap="round" stroke-linejoin="round"/>
<path d="M20.1587 72.7275C20.3188 72.7908 20.4808 72.8486 20.6428 72.9026" stroke="#263238" stroke-width="0.581463" stroke-linecap="round" stroke-linejoin="round"/>
<path d="M14.1172 67.7231C14.1172 67.7231 16.3514 70.8398 19.4029 72.3777" stroke="#263238" stroke-width="0.581463" stroke-linecap="round" stroke-linejoin="round"/>
<path d="M16.0566 71.3369C16.0566 71.3369 17.2966 72.5788 19.8864 73.2807" stroke="#263238" stroke-width="0.581463" stroke-linecap="round" stroke-linejoin="round"/>
<path d="M31.4322 66.8647C30.5702 67.8441 29.3563 69.4099 28.9541 70.8509" stroke="#263238" stroke-width="0.581463" stroke-linecap="round" stroke-linejoin="round"/>
<path d="M32.352 65.8872C32.352 65.8872 32.1807 66.0529 31.9126 66.3378" stroke="#263238" stroke-width="0.581463" stroke-linecap="round" stroke-linejoin="round"/>
<path d="M29.2762 69.125C29.2762 69.125 28.4663 70.6889 28.3062 71.6608" stroke="#263238" stroke-width="0.581463" stroke-linecap="round" stroke-linejoin="round"/>
<path d="M16.3271 61.8936C16.3271 61.8936 19.4569 61.7856 22.4246 61.8396C25.3924 61.8935 27.3362 62.8114 27.3362 62.8114C27.3362 62.8114 25.5544 60.6536 24.7463 60.1676C23.9383 59.6817 21.4546 58.8644 19.4048 59.5197C18.142 59.9439 17.0582 60.7799 16.3271 61.8936Z" fill="#2192FF" stroke="#263238" stroke-width="0.581463" stroke-linecap="round" stroke-linejoin="round"/>
<path d="M7.42719 85.6765L4.57486 74.7401C4.54718 74.6073 4.54946 74.47 4.58153 74.3382C4.61361 74.2064 4.67467 74.0834 4.76028 73.9782C4.84589 73.8729 4.95389 73.7881 5.07641 73.7299C5.19893 73.6717 5.33289 73.6415 5.46854 73.6416H28.1624C28.3709 73.6418 28.5731 73.7131 28.7356 73.8438C28.8981 73.9745 29.0111 74.1566 29.0561 74.3603L31.5751 85.6876" fill="#263238"/>
<path d="M7.42719 85.6765L4.57486 74.7401C4.54718 74.6073 4.54946 74.47 4.58153 74.3382C4.61361 74.2064 4.67467 74.0834 4.76028 73.9782C4.84589 73.8729 4.95389 73.7881 5.07641 73.7299C5.19893 73.6717 5.33289 73.6415 5.46854 73.6416H28.1624C28.3709 73.6418 28.5731 73.7131 28.7356 73.8438C28.8981 73.9745 29.0111 74.1566 29.0561 74.3603L31.5751 85.6876" stroke="#263238" stroke-width="0.581463" stroke-linecap="round" stroke-linejoin="round"/>
</svg>
