<svg width="124" height="98" viewBox="0 0 124 98" fill="none" xmlns="http://www.w3.org/2000/svg">
<path d="M123.5 85.9473H0.5V86.0127H123.5V85.9473Z" fill="#EBEBEB"/>
<path d="M111.174 90.1597H103.026V90.2251H111.174V90.1597Z" fill="#EBEBEB"/>
<path d="M81.9805 90.8716H79.8428V90.937H81.9805V90.8716Z" fill="#EBEBEB"/>
<path d="M102.782 87.73H91.0557V87.7954H102.782V87.73Z" fill="#EBEBEB"/>
<path d="M19.2306 88.1699H13.4053V88.2354H19.2306V88.1699Z" fill="#EBEBEB"/>
<path d="M27.7785 88.1699H21.4194V88.2354H27.7785V88.1699Z" fill="#EBEBEB"/>
<path d="M48.7423 89.2739H32.8408V89.3394H48.7423V89.2739Z" fill="#EBEBEB"/>
<path d="M58.8022 74.2701H11.3021C10.93 74.2694 10.5733 74.1116 10.3104 73.8313C10.0476 73.551 9.8999 73.1711 9.8999 72.7751V1.71087C9.90314 1.31711 10.0522 0.940609 10.3148 0.663149C10.5773 0.385689 10.9321 0.229678 11.3021 0.229004H58.8022C59.1748 0.229004 59.5321 0.386508 59.7955 0.666867C60.0589 0.947227 60.2069 1.32748 60.2069 1.72396V72.7751C60.2069 73.1716 60.0589 73.5518 59.7955 73.8322C59.5321 74.1126 59.1748 74.2701 58.8022 74.2701ZM11.3021 0.281367C10.9463 0.28206 10.6053 0.432974 10.3539 0.700983C10.1026 0.968993 9.9614 1.3322 9.9614 1.71087V72.7751C9.9614 73.1538 10.1026 73.517 10.3539 73.785C10.6053 74.053 10.9463 74.2039 11.3021 74.2046H58.8022C59.1583 74.2039 59.4995 74.0531 59.7513 73.7852C60.003 73.5172 60.1448 73.154 60.1454 72.7751V1.71087C60.1448 1.33196 60.003 0.968758 59.7513 0.700824C59.4995 0.432889 59.1583 0.282059 58.8022 0.281367H11.3021Z" fill="#EBEBEB"/>
<path d="M112.015 74.2701H64.5121C64.1397 74.2694 63.7828 74.1117 63.5196 73.8314C63.2563 73.5512 63.1081 73.1714 63.1074 72.7751V1.71087C63.1113 1.31687 63.2609 0.940373 63.5239 0.662985C63.7868 0.385597 64.1419 0.229671 64.5121 0.229004H112.015C112.384 0.230367 112.738 0.386681 113 0.664068C113.262 0.941455 113.411 1.31756 113.414 1.71087V72.7751C113.414 73.1707 113.267 73.5501 113.005 73.8304C112.742 74.1106 112.386 74.2687 112.015 74.2701ZM64.5121 0.281367C64.1561 0.282059 63.8148 0.432889 63.563 0.700824C63.3113 0.968758 63.1696 1.33196 63.1689 1.71087V72.7751C63.1696 73.154 63.3113 73.5172 63.563 73.7852C63.8148 74.0531 64.1561 74.2039 64.5121 74.2046H112.015C112.371 74.2039 112.712 74.0531 112.964 73.7852C113.215 73.5172 113.357 73.154 113.358 72.7751V1.71087C113.357 1.33196 113.215 0.968758 112.964 0.700824C112.712 0.432889 112.371 0.282059 112.015 0.281367H64.5121Z" fill="#EBEBEB"/>
<path d="M109.086 7.03564H70.2256V85.9465H109.086V7.03564Z" fill="#EBEBEB"/>
<path d="M106.196 9.60986H73.1167V85.9471H106.196V9.60986Z" fill="#F5F5F5"/>
<path d="M94.3096 15.9399H85.0083V18.6759H94.3096V15.9399Z" fill="white"/>
<path d="M98.4991 43.1187H103.545C103.753 43.1187 103.954 43.2069 104.101 43.364C104.249 43.5212 104.332 43.7343 104.332 43.9565C104.332 44.1787 104.249 44.3918 104.101 44.5489C103.954 44.706 103.753 44.7943 103.545 44.7943H98.4991C98.2903 44.7943 98.0901 44.706 97.9425 44.5489C97.7949 44.3918 97.7119 44.1787 97.7119 43.9565C97.7119 43.7343 97.7949 43.5212 97.9425 43.364C98.0901 43.2069 98.2903 43.1187 98.4991 43.1187Z" fill="white"/>
<path d="M43.6577 15.4326H17.813V37.6004H43.6577V15.4326Z" fill="#EBEBEB"/>
<path d="M42.2676 36.1237V16.9092H19.1977V36.1237H42.2676Z" fill="#FAFAFA"/>
<path d="M39.5801 26.7691V25.8501H21.8902V26.7691H39.5801Z" fill="#E0E0E0"/>
<path d="M39.5801 28.8609V27.9419H21.8902V28.8609H39.5801Z" fill="#E0E0E0"/>
<path d="M39.5801 30.9502V30.0312H21.8902V30.9502H39.5801Z" fill="#E0E0E0"/>
<path d="M35.1436 33.042V32.123H26.3245V33.042H35.1436Z" fill="#E0E0E0"/>
<path d="M21.902 16.9092C21.902 17.2866 21.8319 17.6602 21.6957 18.0086C21.5595 18.357 21.3599 18.6733 21.1084 18.9392C20.8569 19.2052 20.5585 19.4156 20.2303 19.5583C19.9021 19.7011 19.5506 19.7733 19.196 19.7709C18.7068 19.7722 18.2268 19.6299 17.8086 19.3598V15.4326H21.4986C21.7571 15.8764 21.8967 16.3871 21.902 16.9092Z" fill="#EBEBEB"/>
<path d="M43.6577 15.4326V19.3598C43.1434 19.6891 42.5404 19.8257 41.9447 19.748C41.3491 19.6703 40.7949 19.3828 40.3705 18.9311C39.9462 18.4795 39.676 17.8897 39.603 17.2557C39.53 16.6217 39.6584 15.98 39.9677 15.4326H43.6577Z" fill="#EBEBEB"/>
<path d="M21.9019 36.1257C21.9027 36.6451 21.77 37.1548 21.5181 37.5997H17.8281V33.6725C18.2363 33.4124 18.7019 33.2721 19.1775 33.2658C19.6532 33.2596 20.1219 33.3877 20.536 33.637C20.95 33.8863 21.2945 34.248 21.5345 34.6852C21.7744 35.1223 21.9012 35.6194 21.9019 36.1257Z" fill="#EBEBEB"/>
<path d="M43.6573 33.6703V37.5976H39.9673C39.7135 37.1535 39.5798 36.6434 39.5811 36.1236C39.5816 35.6166 39.7084 35.1188 39.9486 34.681C40.1888 34.2432 40.5338 33.881 40.9484 33.6314C41.363 33.3818 41.8324 33.2536 42.3087 33.26C42.785 33.2664 43.2512 33.4071 43.6597 33.6677L43.6573 33.6703Z" fill="#EBEBEB"/>
<path d="M32.9967 21.9815C33.1994 20.6527 32.3515 19.4007 31.103 19.185C29.8545 18.9693 28.678 19.8716 28.4754 21.2004C28.2727 22.5292 29.1205 23.7813 30.3691 23.997C31.6176 24.2127 32.794 23.3103 32.9967 21.9815Z" fill="#E0E0E0"/>
<path d="M64.5438 54.4634H13.4053V56.4218H64.5438V54.4634Z" fill="#EBEBEB"/>
<path d="M64.0997 56.4219H47.4849V85.9467H64.0997V56.4219Z" fill="#F5F5F5"/>
<path d="M30.6515 56.4219H14.0366V85.9467H30.6515V56.4219Z" fill="#F5F5F5"/>
<path d="M14.6049 56.4219H14.0366V85.9467H14.6049V56.4219Z" fill="#EBEBEB"/>
<path d="M48.0531 56.4219H47.4849V85.9467H48.0531V56.4219Z" fill="#EBEBEB"/>
<path d="M22.7638 49.7427H19.7085L19.9545 54.4632H22.5178L22.7638 49.7427Z" fill="#F0F0F0"/>
<path d="M49.2891 52.4165H33.3262V54.4639H49.2891V52.4165Z" fill="#F0F0F0"/>
<path d="M49.291 52.6572H41.9307V54.2255H49.291V52.6572Z" fill="#FAFAFA"/>
<path d="M61.9992 97.7707C88.3415 97.7707 109.696 96.4438 109.696 94.807C109.696 93.1702 88.3415 91.8433 61.9992 91.8433C35.6569 91.8433 14.3022 93.1702 14.3022 94.807C14.3022 96.4438 35.6569 97.7707 61.9992 97.7707Z" fill="#F5F5F5"/>
<path d="M84.3157 76.4748C88.6198 76.4748 92.109 72.7613 92.109 68.1805C92.109 63.5997 88.6198 59.8862 84.3157 59.8862C80.0116 59.8862 76.5225 63.5997 76.5225 68.1805C76.5225 72.7613 80.0116 76.4748 84.3157 76.4748Z" fill="white"/>
<path d="M84.315 76.5765C82.7546 76.577 81.229 76.085 79.9313 75.1627C78.6336 74.2404 77.6221 72.9292 77.0246 71.395C76.4271 69.8609 76.2705 68.1725 76.5746 66.5436C76.8788 64.9147 77.6299 63.4184 78.7332 62.2439C79.8364 61.0694 81.2421 60.2694 82.7726 59.9452C84.303 59.621 85.8894 59.7872 87.3311 60.4226C88.7728 61.058 90.005 62.1342 90.872 63.515C91.739 64.8959 92.2018 66.5193 92.2018 68.1801C92.1998 70.4058 91.3684 72.5399 89.8898 74.114C88.4112 75.6881 86.4063 76.5737 84.315 76.5765ZM84.315 59.9905C82.7925 59.9905 81.3042 60.4711 80.0384 61.3713C78.7725 62.2716 77.7859 63.5512 77.2034 65.0483C76.6208 66.5454 76.4686 68.1927 76.7658 69.7819C77.063 71.3711 77.7963 72.8308 78.8731 73.9764C79.9498 75.1219 81.3216 75.902 82.8149 76.2178C84.3082 76.5336 85.8559 76.371 87.2624 75.7505C88.6688 75.1301 89.8708 74.0797 90.7163 72.7321C91.5618 71.3846 92.0128 69.8005 92.0124 68.1801C92.0104 66.0083 91.1987 63.926 89.7556 62.3906C88.3124 60.8551 86.3557 59.9919 84.315 59.9905Z" fill="#407BFF"/>
<path d="M85.5707 63.479H83.0615V72.8834H85.5707V63.479Z" fill="#407BFF"/>
<path d="M88.7324 69.5177V66.8472H79.8961V69.5177H88.7324Z" fill="#407BFF"/>
<path d="M31.5247 5.48418L31.3574 5.29306C32.4962 4.14737 33.9411 3.40634 35.4927 3.17236L35.5271 3.43418C34.0256 3.65955 32.627 4.37591 31.5247 5.48418Z" fill="#407BFF"/>
<path d="M29.7029 8.34544L29.4741 8.25119C29.7224 7.58422 30.0534 6.95554 30.4581 6.38184L30.6549 6.53892C30.2646 7.09413 29.9445 7.7015 29.7029 8.34544Z" fill="#407BFF"/>
<path d="M36.5671 18.3757C40.2952 18.3757 43.3174 15.1592 43.3174 11.1915C43.3174 7.22379 40.2952 4.00732 36.5671 4.00732C32.8391 4.00732 29.8169 7.22379 29.8169 11.1915C29.8169 15.1592 32.8391 18.3757 36.5671 18.3757Z" fill="#407BFF"/>
<path d="M40.5977 7.95595C40.3377 7.66871 40.0266 7.43952 39.6824 7.28177C39.3382 7.12402 38.9679 7.04089 38.5932 7.03724C38.2185 7.03358 37.8468 7.10947 37.5 7.26047C37.1531 7.41148 36.838 7.63456 36.5732 7.91668C36.3085 7.63464 35.9936 7.41161 35.647 7.26064C35.3003 7.10967 34.9289 7.03379 34.5544 7.03745C34.1798 7.04111 33.8098 7.12422 33.4658 7.28194C33.1218 7.43965 32.8108 7.66879 32.5511 7.95595C32.042 8.54202 31.7677 9.31627 31.7866 10.1141C31.8054 10.912 32.1158 11.6706 32.6519 12.2288L35.8499 15.6323C35.9459 15.7345 36.0598 15.8155 36.1851 15.8707C36.3105 15.926 36.4448 15.9545 36.5805 15.9545C36.7162 15.9545 36.8506 15.926 36.976 15.8707C37.1013 15.8155 37.2152 15.7345 37.3112 15.6323L40.5092 12.2288C41.0435 11.6689 41.3518 10.9094 41.3683 10.1115C41.3848 9.31362 41.1084 8.54034 40.5977 7.95595Z" fill="white"/>
<path d="M36.5659 14.3309C36.5164 14.3291 36.4685 14.3114 36.4285 14.2801C36.3886 14.2488 36.3584 14.2053 36.3421 14.1555L34.9177 9.72296L34.3224 11.5766C34.3055 11.6281 34.2739 11.6727 34.232 11.7042C34.1901 11.7356 34.14 11.7523 34.0887 11.752H31.705C31.6397 11.752 31.5772 11.7244 31.531 11.6753C31.4849 11.6262 31.459 11.5596 31.459 11.4902C31.459 11.4208 31.4849 11.3542 31.531 11.3051C31.5772 11.256 31.6397 11.2284 31.705 11.2284H33.919L34.6914 8.82755C34.7082 8.77611 34.7395 8.73149 34.7812 8.69991C34.8229 8.66834 34.8727 8.65137 34.9239 8.65137C34.975 8.65137 35.0249 8.66834 35.0666 8.69991C35.1083 8.73149 35.1396 8.77611 35.1564 8.82755L36.6053 13.3386L38.0124 9.81197C38.0302 9.76702 38.0594 9.72825 38.0968 9.70003C38.1342 9.67181 38.1782 9.65527 38.224 9.65226C38.27 9.64945 38.3159 9.66048 38.3564 9.68409C38.3968 9.7077 38.4302 9.74294 38.4528 9.78579L39.1957 11.2258H41.4367C41.502 11.2258 41.5646 11.2534 41.6107 11.3025C41.6568 11.3516 41.6827 11.4181 41.6827 11.4876C41.6827 11.557 41.6568 11.6236 41.6107 11.6727C41.5646 11.7218 41.502 11.7494 41.4367 11.7494H39.053C39.009 11.7498 38.9657 11.7376 38.9276 11.7141C38.8895 11.6906 38.8581 11.6567 38.8365 11.6159L38.2535 10.5058L36.7923 14.1712C36.7734 14.2185 36.7419 14.2589 36.7017 14.2873C36.6614 14.3157 36.6142 14.3308 36.5659 14.3309Z" fill="#407BFF"/>
<path d="M74.0184 85.6341H48.3434C47.925 85.6391 47.5103 85.5513 47.1255 85.3765C46.7407 85.2016 46.3944 84.9434 46.1084 84.6184C45.8224 84.2934 45.6031 83.9086 45.4645 83.4885C45.3258 83.0684 45.2707 82.6221 45.3028 82.1782L49.4529 16.7246C49.5254 15.7899 49.9218 14.9171 50.5651 14.276C51.2083 13.6349 52.0526 13.2712 52.9338 13.2556H78.6137C79.0332 13.2505 79.449 13.3386 79.8347 13.5142C80.2204 13.6899 80.5674 13.9492 80.8535 14.2757C81.1397 14.6022 81.3587 14.9886 81.4966 15.4103C81.6345 15.832 81.6882 16.2796 81.6543 16.7246L77.4969 82.1782C77.422 83.1104 77.0249 83.9799 76.3823 84.6183C75.7397 85.2568 74.8974 85.6187 74.0184 85.6341Z" fill="#263238"/>
<path d="M79.7104 39.91H79.0634C78.9463 39.9116 78.8301 39.887 78.7224 39.838C78.6147 39.789 78.5178 39.7165 78.4379 39.6253C78.358 39.5342 78.2969 39.4262 78.2585 39.3084C78.22 39.1906 78.2051 39.0656 78.2147 38.9413L79.0093 26.4292C79.0278 26.1676 79.1379 25.9228 79.3179 25.7434C79.4978 25.564 79.7345 25.4631 79.981 25.4605H80.628C80.7451 25.459 80.8613 25.4835 80.969 25.5326C81.0767 25.5816 81.1736 25.654 81.2535 25.7452C81.3334 25.8364 81.3946 25.9444 81.433 26.0621C81.4714 26.1799 81.4863 26.305 81.4767 26.4292L80.6821 38.9413C80.6636 39.203 80.5535 39.4478 80.3736 39.6272C80.1936 39.8065 79.957 39.9075 79.7104 39.91Z" fill="#263238"/>
<path d="M49.0788 31.5639H48.4343C48.3389 31.5653 48.2443 31.5455 48.1565 31.5059C48.0687 31.4664 47.9895 31.4078 47.9241 31.334C47.8586 31.2601 47.8083 31.1726 47.7763 31.077C47.7443 30.9814 47.7313 30.8797 47.7381 30.7785L48.0259 26.2596C48.0441 26.0474 48.1352 25.8499 48.2819 25.7049C48.4286 25.56 48.6204 25.4778 48.8205 25.4741H49.4675C49.5625 25.4735 49.6567 25.4938 49.744 25.5337C49.8314 25.5736 49.9101 25.6322 49.9752 25.7059C50.0403 25.7796 50.0904 25.8669 50.1224 25.9621C50.1544 26.0574 50.1676 26.1586 50.1612 26.2596L49.8734 30.7785C49.8557 30.9908 49.7647 31.1887 49.618 31.3338C49.4712 31.4789 49.2791 31.5609 49.0788 31.5639Z" fill="#407BFF"/>
<path d="M48.568 39.6323H47.9211C47.8259 39.6333 47.7316 39.6133 47.6441 39.5735C47.5565 39.5338 47.4777 39.4751 47.4125 39.4013C47.3473 39.3275 47.2972 39.2402 47.2654 39.1447C47.2335 39.0493 47.2205 38.9479 47.2273 38.8468L47.5152 34.3279C47.5333 34.1158 47.6245 33.9183 47.7712 33.7733C47.9178 33.6283 48.1096 33.5461 48.3097 33.5425H48.9616C49.0567 33.5419 49.1509 33.5622 49.2382 33.6021C49.3256 33.6419 49.4043 33.7006 49.4694 33.7743C49.5345 33.848 49.5846 33.9352 49.6166 34.0305C49.6486 34.1257 49.6618 34.227 49.6554 34.3279L49.3675 38.8468C49.3498 39.0601 49.2581 39.2587 49.1103 39.4039C48.9625 39.5491 48.7692 39.6305 48.568 39.6323Z" fill="#407BFF"/>
<path d="M73.4755 85.6344H47.8004C47.3821 85.6393 46.9673 85.5516 46.5825 85.3767C46.1978 85.2019 45.8514 84.9437 45.5654 84.6187C45.2795 84.2936 45.0602 83.9088 44.9215 83.4887C44.7828 83.0686 44.7278 82.6224 44.7599 82.1784L48.9124 16.7249C48.9874 15.7898 49.3865 14.9178 50.0322 14.2786C50.6778 13.6393 51.5238 13.2785 52.4056 13.2663H78.0707C78.4893 13.2613 78.9043 13.3492 79.2892 13.5242C79.6742 13.6992 80.0207 13.9576 80.3067 14.2829C80.5927 14.6082 80.8119 14.9934 80.9505 15.4138C81.089 15.8342 81.1438 16.2807 81.1113 16.7249L76.9563 82.1784C76.8815 83.1111 76.484 83.9809 75.8409 84.6194C75.1978 85.2579 74.3548 85.6196 73.4755 85.6344Z" fill="#407BFF"/>
<path opacity="0.3" d="M45.0298 81.445L49.0839 17.5728H80.8326L76.7785 81.445H45.0298Z" fill="white"/>
<path opacity="0.1" d="M57.5635 81.445L68.8942 17.5728H76.0061L64.6753 81.445H57.5635Z" fill="white"/>
<path opacity="0.1" d="M52.1904 81.445L63.5212 17.5728H67.1251L55.7943 81.445H52.1904Z" fill="white"/>
<path d="M62.0339 14.8707H68.2257C68.2774 14.8697 68.3287 14.8803 68.3763 14.9019C68.4239 14.9234 68.4667 14.9553 68.5019 14.9955C68.5372 15.0357 68.5641 15.0834 68.5809 15.1354C68.5978 15.1874 68.6041 15.2426 68.5997 15.2974C68.5911 15.4128 68.5426 15.5206 68.4635 15.6C68.3843 15.6794 68.2803 15.7246 68.1716 15.7268H61.9798C61.928 15.7274 61.8767 15.7164 61.8291 15.6946C61.7815 15.6728 61.7387 15.6407 61.7035 15.6002C61.6683 15.5598 61.6414 15.512 61.6246 15.4598C61.6078 15.4077 61.6014 15.3523 61.6059 15.2974C61.6144 15.1823 61.6631 15.0748 61.7423 14.9958C61.8214 14.9169 61.9254 14.8723 62.0339 14.8707Z" fill="white"/>
<path d="M60.745 91.9301L58.5753 92.1501L57.793 86.8221L59.9627 86.5996L60.745 91.9301Z" fill="#FFB573"/>
<path d="M58.3268 91.0221L60.5998 90.2707C60.639 90.2562 60.682 90.2584 60.7196 90.277C60.7572 90.2956 60.7866 90.329 60.8015 90.3702L61.5395 92.2893C61.5579 92.3407 61.566 92.3956 61.5634 92.4506C61.5608 92.5055 61.5475 92.5593 61.5244 92.6085C61.5013 92.6577 61.4688 92.7013 61.4291 92.7364C61.3894 92.7716 61.3432 92.7977 61.2935 92.8129C60.4719 93.0747 59.6896 93.1349 58.6982 93.5983C57.5396 94.122 57.055 94.8236 55.8077 94.8236C54.9148 94.8236 54.713 93.9518 55.0919 93.8314C56.8139 93.2763 56.5876 92.8207 57.8372 91.3886C57.9672 91.2226 58.1361 91.0962 58.3268 91.0221Z" fill="#263238"/>
<path opacity="0.2" d="M57.793 86.8221L58.1964 89.5712L60.3686 89.3487L59.9651 86.5996L57.793 86.8221Z" fill="black"/>
<path d="M59.363 19.4993C56.5168 19.1433 53.6854 19.3815 50.8441 19.968C50.3706 20.0658 49.9387 20.3215 49.6109 20.6981C49.2832 21.0747 49.0766 21.5526 49.0212 22.0625C48.7137 24.9582 48.3619 31.4485 49.7346 41.1304L61.3655 40.0832C61.3876 38.3264 60.2142 30.3227 61.1834 22.018C61.2231 21.7248 61.2072 21.4262 61.1366 21.1397C61.0661 20.8532 60.9423 20.5846 60.7726 20.3498C60.6029 20.1151 60.3908 19.9189 60.1487 19.7728C59.9066 19.6267 59.6395 19.5337 59.363 19.4993Z" fill="white"/>
<path d="M52.5889 21.9813L53.0046 22.8662C53.024 22.9109 53.0548 22.9488 53.0936 22.9756C53.1323 23.0025 53.1773 23.0172 53.2235 23.0181L53.6737 23.0443C53.7541 23.048 53.8331 23.0221 53.8976 22.9709L54.6725 22.3557L53.7155 21.6147L52.5889 21.9813Z" fill="#263238"/>
<path d="M53.6903 22.7905C53.5262 22.7096 53.3403 22.6938 53.1663 22.746C52.7997 24.1206 52.3988 28.0661 52.3569 29.815C53.4689 33.2631 53.8329 33.6113 53.8329 33.6113L54.3963 29.4616C54.3963 29.4616 53.7641 25.2176 53.6903 22.7905Z" fill="#263238"/>
<path d="M56.8983 13.5303C56.6326 15.2373 56.4063 18.3555 57.5576 19.4577C56.7138 20.4003 55.6093 21.492 53.7151 21.6151C51.8209 21.7381 52.1136 20.3427 52.5933 19.5965C54.3621 19.0938 54.276 17.6905 53.9291 16.3788L56.8983 13.5303Z" fill="#FFB573"/>
<path d="M58.0405 19.3085C57.9064 19.2469 57.7672 19.1987 57.6248 19.1645C57.5899 19.1547 57.553 19.1573 57.5197 19.172C57.4863 19.1867 57.4584 19.2125 57.4403 19.2457C57.2582 19.5756 56.7023 21.0496 53.7158 21.6151C54.2078 21.924 54.8597 22.8823 55.1402 23.3431C56.0356 22.8483 58.3652 21.369 58.1438 19.4551C58.1393 19.4235 58.1275 19.3936 58.1095 19.368C58.0915 19.3424 58.0678 19.322 58.0405 19.3085Z" fill="#F5F5F5"/>
<path d="M52.613 19.6746C52.6193 19.6449 52.6185 19.6139 52.6106 19.5845C52.6028 19.5551 52.5882 19.5283 52.5682 19.5064C52.5481 19.4846 52.5233 19.4684 52.4959 19.4594C52.4685 19.4503 52.4394 19.4487 52.4112 19.4547C52.3078 19.4761 52.2059 19.5049 52.1062 19.5411C52.0832 19.5507 52.0616 19.564 52.0422 19.5804C51.8135 19.8056 50.5662 21.722 51.7347 23.272C51.9807 22.8504 52.8294 21.8948 53.7175 21.6147C52.8762 21.2115 52.4629 20.4601 52.613 19.6746Z" fill="#F5F5F5"/>
<path opacity="0.2" d="M55.6891 14.6929L53.9326 16.379C54.0173 16.6835 54.0766 16.9954 54.1097 17.311C54.7887 17.188 55.7014 16.3685 55.7506 15.6092C55.7838 15.3024 55.763 14.9916 55.6891 14.6929Z" fill="black"/>
<path d="M53.3422 8.36935C51.8268 9.00032 51.7284 10.3251 51.8662 11.7729C52.0039 13.2208 53.4849 12.2625 53.8145 11.3567C54.1441 10.4508 55.4406 7.49489 53.3422 8.36935Z" fill="#263238"/>
<path d="M58.1769 11.2578C57.7562 13.5382 57.616 14.8918 56.3909 15.9417C54.5435 17.5126 52.0417 16.1564 51.8203 13.8053C51.621 11.6872 52.3418 8.30716 54.5484 7.64739C55.0296 7.4966 55.5395 7.48205 56.0276 7.60518C56.5157 7.72831 56.9652 7.98486 57.3317 8.34948C57.6981 8.7141 57.9688 9.17416 58.1171 9.68422C58.2653 10.1943 58.2859 10.7367 58.1769 11.2578Z" fill="#FFB573"/>
<path d="M58.0884 13.1452C56.2852 13.2473 56.6665 12.1582 56.9937 11.5324C57.3209 10.9067 56.6542 9.87253 57.0897 9.33581C56.3123 9.6657 55.4931 9.39341 54.4525 8.62368C53.6457 8.02412 52.6346 10.4197 51.6506 9.218C50.7207 8.08434 51.5842 6.37469 53.8179 6.09979C56.0515 5.82488 56.4574 7.50573 57.9236 7.3565C59.3898 7.20726 58.8805 8.49277 58.5927 8.75458C59.8227 8.84098 60.4943 10.0925 58.0884 13.1452Z" fill="#263238"/>
<path d="M58.3101 8.9142C58.5922 8.74952 58.8278 8.50759 58.9926 8.21345C59.1574 7.91931 59.2453 7.58366 59.2473 7.24121C59.7344 8.14971 59.6827 9.18125 58.3101 8.9142Z" fill="#263238"/>
<path d="M53.6359 13.6918C53.8319 13.7279 54.0328 13.7214 54.2264 13.6728C54.42 13.6243 54.6024 13.5345 54.7626 13.409C54.7674 13.4041 54.7713 13.3982 54.7739 13.3917C54.7766 13.3852 54.7779 13.3781 54.7779 13.371C54.7779 13.3639 54.7766 13.3569 54.7739 13.3504C54.7713 13.3439 54.7674 13.338 54.7626 13.3331C54.753 13.3233 54.7402 13.3179 54.7269 13.3179C54.7136 13.3179 54.7009 13.3233 54.6913 13.3331C54.5119 13.4684 54.3054 13.5576 54.0881 13.5935C53.8708 13.6293 53.6486 13.611 53.4391 13.5399C53.4258 13.5364 53.4116 13.5381 53.3994 13.5449C53.3872 13.5516 53.3777 13.5629 53.3727 13.5766C53.3689 13.5905 53.3703 13.6054 53.3768 13.6181C53.3832 13.6309 53.3941 13.6404 53.4071 13.6446C53.4819 13.6676 53.5585 13.6834 53.6359 13.6918Z" fill="#263238"/>
<path d="M58.6113 13.8448C58.2745 14.3068 57.7807 14.6095 57.2362 14.6878C56.5203 14.7873 56.2817 14.0778 56.5818 13.4154C56.8549 12.8185 57.5658 12.0487 58.2251 12.2556C58.8844 12.4624 59.0246 13.2688 58.6113 13.8448Z" fill="#FFB573"/>
<path d="M57.9001 63.4239C57.9862 56.5879 58.8078 40.3057 58.8078 40.3057L49.7402 41.1199C49.7402 41.1199 51.5434 57.8996 52.6307 64.8743C53.7623 72.1239 57.2334 89.1078 57.2334 89.1078L60.9234 88.7727C60.9234 88.7727 59.5753 68.7099 57.9001 63.4239Z" fill="#263238"/>
<path d="M57.0129 89.2155L61.3893 88.8202L61.2171 87.3174L56.6562 87.642L57.0129 89.2155Z" fill="#407BFF"/>
<path d="M54.9433 11.3941C54.9211 11.58 54.808 11.7213 54.6973 11.7082C54.5866 11.6952 54.5103 11.5328 54.5349 11.3443C54.5595 11.1558 54.6702 11.0171 54.7809 11.0302C54.8916 11.0432 54.9679 11.2082 54.9433 11.3941Z" fill="#263238"/>
<path d="M52.9369 11.2259C52.9148 11.4144 52.8016 11.5532 52.6909 11.5401C52.5802 11.527 52.504 11.3647 52.5286 11.1788C52.5532 10.9929 52.6639 10.8515 52.7746 10.8646C52.8853 10.8777 52.9615 11.0296 52.9369 11.2259Z" fill="#263238"/>
<path d="M53.5031 11.4458C53.2068 11.9303 52.8511 12.3705 52.4453 12.7549C52.7061 13.0455 53.2448 12.9669 53.2448 12.9669L53.5031 11.4458Z" fill="#ED893E"/>
<path opacity="0.4" d="M51.6658 11.2729C51.6289 11.5714 51.9118 11.8201 52.303 11.8725C52.6941 11.9249 53.0557 11.6971 53.0902 11.3986" fill="#407BFF"/>
<path opacity="0.4" d="M53.9927 11.5513C53.9386 11.8471 54.2116 12.1142 54.5954 12.1927C54.9791 12.2713 55.3555 12.0618 55.4072 11.7686" fill="#407BFF"/>
<path d="M54.7478 12.2742C54.7036 12.2768 54.6592 12.2768 54.615 12.2742C54.4259 12.2502 54.2482 12.1652 54.1058 12.0307C54.0436 11.9742 53.9951 11.9026 53.9642 11.822C53.9334 11.7413 53.9212 11.654 53.9286 11.5673C53.8038 11.5095 53.6708 11.4741 53.535 11.4626C53.3986 11.4264 53.2558 11.4264 53.1193 11.4626C53.0849 11.782 52.7109 12.0019 52.2927 11.947C52.1036 11.925 51.9256 11.8408 51.7835 11.7061C51.7217 11.6493 51.6734 11.5776 51.6426 11.4971C51.6118 11.4165 51.5994 11.3293 51.6064 11.2427L51.7245 11.2584C51.7195 11.3253 51.7296 11.3926 51.754 11.4545C51.7784 11.5164 51.8164 11.5713 51.8647 11.6145C51.9886 11.7305 52.1433 11.8028 52.3075 11.8213C52.6617 11.871 52.9766 11.6956 53.0086 11.4338C53.0258 11.2872 53.3112 11.2977 53.5473 11.3291C53.7835 11.3605 54.0639 11.4312 54.0393 11.5752C54.0342 11.6421 54.0442 11.7095 54.0686 11.7714C54.093 11.8334 54.1311 11.8882 54.1796 11.9312C54.305 12.0458 54.4592 12.1187 54.6231 12.141C54.7871 12.1634 54.9536 12.1341 55.1021 12.0569C55.1594 12.0285 55.2094 11.9859 55.2479 11.9326C55.2865 11.8792 55.3124 11.8168 55.3235 11.7506V11.6878L58.3591 12.104L58.3443 12.2297L55.4219 11.8291C55.4006 11.902 55.3657 11.9695 55.3192 12.0276C55.2726 12.0857 55.2155 12.133 55.1513 12.1669C55.0269 12.2369 54.8885 12.2737 54.7478 12.2742Z" fill="#263238"/>
<path d="M55.7156 10.572C55.7331 10.572 55.7502 10.5666 55.7648 10.5563C55.7887 10.5415 55.8062 10.5173 55.8136 10.4889C55.821 10.4605 55.8176 10.4302 55.8042 10.4044C55.7279 10.2522 55.6175 10.1223 55.4828 10.0264C55.348 9.93045 55.1931 9.87146 55.0317 9.85463C55.0041 9.85319 54.977 9.86335 54.9563 9.88293C54.9356 9.90251 54.9229 9.92995 54.921 9.95935C54.9197 9.9881 54.929 10.0163 54.9469 10.0378C54.9648 10.0593 54.99 10.0725 55.017 10.0745C55.1446 10.0905 55.2667 10.1394 55.3726 10.2169C55.4785 10.2945 55.565 10.3984 55.6246 10.5196C55.6339 10.5363 55.6473 10.55 55.6633 10.5592C55.6793 10.5684 55.6974 10.5728 55.7156 10.572Z" fill="#263238"/>
<path d="M52.2878 10.2759C52.3049 10.2777 52.322 10.2751 52.3379 10.2682C52.3537 10.2614 52.3678 10.2506 52.3789 10.2367C52.4584 10.1258 52.5613 10.0363 52.6792 9.97539C52.7971 9.91447 52.9268 9.88379 53.0578 9.88584C53.0714 9.88728 53.0851 9.88584 53.0982 9.88161C53.1112 9.87739 53.1234 9.87044 53.1339 9.86119C53.1444 9.85194 53.1531 9.84057 53.1595 9.82772C53.1658 9.81487 53.1697 9.80081 53.171 9.78635C53.1727 9.77223 53.1718 9.7579 53.1682 9.74417C53.1647 9.73045 53.1586 9.71761 53.1504 9.7064C53.1421 9.6952 53.1319 9.68585 53.1202 9.67889C53.1085 9.67194 53.0957 9.66753 53.0824 9.66591C52.9172 9.66131 52.7532 9.69799 52.6037 9.77301C52.4542 9.84803 52.3232 9.95931 52.2214 10.0979C52.2039 10.1202 52.1953 10.1489 52.1976 10.1778C52.1999 10.2068 52.2129 10.2336 52.2337 10.2524C52.2498 10.2647 52.2683 10.2727 52.2878 10.2759Z" fill="#263238"/>
<path d="M65.4552 62.3216C63.5733 52.0271 63.1502 43.9763 61.3642 40.0674L52.5796 41.1146C52.5796 41.1146 57.812 56.4543 60.3679 63.0023C63.0223 69.8095 68.2621 81.4393 68.2621 81.4393H72.6507C72.6507 81.4393 68.5548 67.0107 65.4552 62.3216Z" fill="#263238"/>
<path d="M37.6105 23.3503L36.6609 22.7115C36.5068 22.6058 36.323 22.5603 36.1409 22.5827C35.9587 22.6052 35.7895 22.6942 35.6622 22.8345L35.0177 23.5571C34.9482 23.6351 34.8946 23.7274 34.86 23.8284C34.8255 23.9293 34.8107 24.0367 34.8167 24.144C34.8227 24.2512 34.8493 24.356 34.8949 24.4518C34.9404 24.5477 35.004 24.6326 35.0816 24.7013L35.5416 25.1202C35.9418 25.481 36.4086 25.7486 36.9119 25.9056L38.3018 26.3428L39.2144 25.2956C39.4924 24.2038 37.6105 23.3503 37.6105 23.3503Z" fill="#FFB573"/>
<path d="M51.6667 22.8617C51.3223 23.7571 50.9852 24.5896 50.6187 25.4405C50.2522 26.2914 49.8807 27.1319 49.4699 27.9671C49.0591 28.8022 48.6212 29.6322 48.1243 30.4648C47.8783 30.8784 47.6052 31.2921 47.2952 31.7084C46.962 32.1674 46.5825 32.5862 46.1636 32.9572C45.887 33.1978 45.5818 33.3985 45.2559 33.5542C45.1526 33.5961 45.0566 33.6379 44.9435 33.6746L44.7713 33.7243C44.6846 33.747 44.5967 33.7636 44.5081 33.7741C44.2082 33.81 43.9046 33.787 43.6126 33.706C43.2475 33.5972 42.9006 33.4285 42.5843 33.206C42.3475 33.0487 42.1214 32.8737 41.9078 32.6823C41.1979 32.0226 40.5435 31.2981 39.9521 30.5171C39.379 29.784 38.8378 29.0483 38.3187 28.2969C37.7996 27.5455 37.3003 26.8072 36.7886 26.0192L39.5093 24.1498C40.3679 25.6249 41.318 27.0375 42.3531 28.3781C42.8289 28.9991 43.3531 29.5762 43.9201 30.1035C44.0299 30.1991 44.1458 30.2866 44.267 30.3653C44.358 30.4307 44.449 30.4569 44.3851 30.4333C44.2986 30.408 44.208 30.4027 44.1194 30.4176C44.0836 30.4211 44.0482 30.4282 44.0136 30.4386H43.9939C43.9816 30.4386 43.9816 30.4386 43.9792 30.4386C44.0351 30.3997 44.0885 30.3568 44.1391 30.3103C44.3636 30.0934 44.5672 29.853 44.7467 29.5929C44.9558 29.2944 45.1649 28.9593 45.3641 28.6111C45.7714 27.8871 46.1426 27.1408 46.4761 26.3752C46.8205 25.5898 47.1526 24.8043 47.4601 23.9875C47.7676 23.1706 48.0603 22.3407 48.3088 21.5474L51.6667 22.8617Z" fill="#407BFF"/>
<g opacity="0.6">
<path d="M51.6662 22.8622C51.3218 23.7576 50.9847 24.5901 50.6182 25.441C50.2517 26.2919 49.8802 27.1324 49.4694 27.9675C49.0586 28.8027 48.6207 29.6327 48.1238 30.4652C47.8778 30.8789 47.6047 31.2926 47.2947 31.7089C46.9615 32.1679 46.5821 32.5867 46.1631 32.9577C45.8865 33.1983 45.5813 33.399 45.2554 33.5547C45.1521 33.5965 45.0561 33.6384 44.943 33.6751L44.7708 33.7248C44.6842 33.7475 44.5962 33.7641 44.5076 33.7746C44.2077 33.8105 43.9042 33.7875 43.6121 33.7065C43.247 33.5977 42.9001 33.429 42.5838 33.2064C42.347 33.0491 42.1209 32.8742 41.9073 32.6828C41.1974 32.0231 40.543 31.2986 39.9516 30.5176C39.3785 29.7845 38.8373 29.0488 38.3182 28.2974C37.7991 27.546 37.2998 26.8077 36.7881 26.0196L39.5088 24.1503C40.3675 25.6254 41.3175 27.038 42.3526 28.3786C42.8284 28.9996 43.3526 29.5767 43.9196 30.1039C44.0295 30.1996 44.1454 30.2871 44.2665 30.3658C44.3575 30.4312 44.4485 30.4574 44.3846 30.4338C44.2981 30.4085 44.2075 30.4032 44.1189 30.4181C44.0831 30.4216 44.0477 30.4286 44.0131 30.4391H43.9934C43.9811 30.4391 43.9811 30.4391 43.9787 30.4391C44.0346 30.4002 44.088 30.3573 44.1386 30.3108C44.3631 30.0939 44.5667 29.8535 44.7462 29.5934C44.9553 29.2949 45.1644 28.9598 45.3636 28.6116C45.7709 27.8876 46.1421 27.1413 46.4756 26.3757C46.82 25.5903 47.1521 24.8048 47.4596 23.988C47.7671 23.1711 48.0598 22.3411 48.3083 21.5479L51.6662 22.8622Z" fill="white"/>
</g>
<path d="M58.1068 18.8418C57.1843 20.6745 53.9002 27.6571 53.5017 31.9666C52.0478 28.0393 52.3652 19.3524 52.3652 19.3524C51.329 19.4598 50.3126 19.7243 49.3467 20.1378C49.0355 20.2739 48.7657 20.4991 48.5672 20.7884C48.3688 21.0776 48.2495 21.4197 48.2225 21.7768C47.9394 26.2716 48.0729 30.7853 48.621 35.2523C49.6419 43.7089 50.589 56.8599 50.589 56.8599C50.589 56.8599 58.7193 56.4986 64.9923 55.09C64.2273 48.6258 61.6098 37.7919 61.5852 34.891C61.5557 31.1576 61.6369 23.8582 61.7476 20.8107C61.7662 20.3804 61.6395 19.9573 61.3904 19.6178C61.1414 19.2783 60.7864 19.0448 60.3897 18.9596C59.6372 18.8112 58.8693 18.7716 58.1068 18.8418Z" fill="#407BFF"/>
<path opacity="0.7" d="M58.1068 18.8423C57.1843 20.675 53.9002 27.6576 53.5017 31.9671C52.0478 28.0398 52.3652 19.3528 52.3652 19.3528C51.329 19.4603 50.3126 19.7248 49.3467 20.1383C49.0355 20.2744 48.7657 20.4996 48.5672 20.7889C48.3688 21.0781 48.2495 21.4202 48.2225 21.7772C47.9394 26.2721 48.0729 30.7858 48.621 35.2528C49.6419 43.7094 50.589 56.8603 50.589 56.8603C50.589 56.8603 58.7193 56.499 64.9923 55.0905C64.2273 48.6263 61.6098 37.7924 61.5852 34.8915C61.5557 31.158 61.6369 23.856 61.7476 20.8085C61.7709 20.3914 61.6551 19.9788 61.4206 19.6436C61.1862 19.3083 60.8481 19.0719 60.4659 18.9758C59.6893 18.8138 58.8952 18.7689 58.1068 18.8423Z" fill="white"/>
<path d="M56.1917 55.4569C54.7797 47.1652 53.6604 34.9987 53.5693 33.5352H53.6948C53.7858 34.9987 54.9076 47.1495 56.3172 55.4412L56.1917 55.4569Z" fill="white"/>
<path d="M55.4866 40.7062H47.9885C47.8371 40.699 47.692 40.6397 47.5749 40.5373C47.4578 40.4348 47.3751 40.2948 47.3391 40.1381L44.8323 27.736C44.814 27.6683 44.811 27.5969 44.8236 27.5277C44.8362 27.4585 44.8641 27.3935 44.9049 27.3381C44.9457 27.2826 44.9984 27.2383 45.0584 27.2087C45.1185 27.1791 45.1844 27.1651 45.2505 27.1678H52.7461C52.898 27.1745 53.0436 27.2336 53.1612 27.336C53.2788 27.4385 53.3619 27.5789 53.398 27.736L55.9048 40.1381C55.9231 40.2058 55.9261 40.2772 55.9135 40.3463C55.9009 40.4155 55.873 40.4805 55.8322 40.536C55.7913 40.5914 55.7387 40.6358 55.6786 40.6654C55.6186 40.695 55.5527 40.709 55.4866 40.7062Z" fill="white"/>
<path d="M55.2532 40.8111H47.6272C47.473 40.8035 47.3253 40.743 47.2061 40.6388C47.0868 40.5345 47.0024 40.392 46.9655 40.2325L44.4144 27.6209C44.3962 27.5518 44.3935 27.4791 44.4067 27.4087C44.4198 27.3383 44.4484 27.2721 44.4902 27.2157C44.5319 27.1593 44.5856 27.1142 44.6468 27.0841C44.708 27.0539 44.7751 27.0396 44.8425 27.0423H52.4685C52.6226 27.0499 52.7704 27.1104 52.8896 27.2147C53.0089 27.3189 53.0933 27.4614 53.1302 27.6209L55.6788 40.2325C55.6975 40.3014 55.7006 40.3741 55.6878 40.4446C55.675 40.515 55.6467 40.5812 55.6051 40.6377C55.5636 40.6942 55.51 40.7394 55.4488 40.7696C55.3876 40.7997 55.3206 40.814 55.2532 40.8111Z" fill="#407BFF"/>
<path d="M56.1273 33.6956L54.2307 33.6197C54.0026 33.6113 53.7755 33.6541 53.564 33.7453L52.58 34.1643C52.4877 34.2032 52.4037 34.2615 52.3331 34.3358C52.2624 34.4101 52.2066 34.4988 52.1689 34.5965C52.1313 34.6943 52.1125 34.7992 52.1138 34.9048C52.1151 35.0105 52.1365 35.1148 52.1766 35.2115L52.5702 36.1174C52.6496 36.2931 52.7834 36.4343 52.9492 36.5173C53.115 36.6002 53.3026 36.6199 53.4804 36.5729L54.5652 36.2849C54.5652 36.2849 56.6021 36.1122 56.6759 34.9759L56.1273 33.6956Z" fill="#FFB573"/>
<path d="M61.3649 19.9653C61.8348 20.7508 62.2653 21.4681 62.6884 22.2379C63.1115 23.0076 63.5272 23.7695 63.9184 24.5654C64.3095 25.3613 64.681 26.1834 65.018 27.0631C65.193 27.5238 65.3425 27.995 65.4657 28.4743C65.6243 29.0584 65.6973 29.6651 65.6822 30.273V30.3751C65.6831 30.3925 65.6831 30.41 65.6822 30.4274C65.6822 30.5217 65.6576 30.6159 65.6404 30.7102C65.6232 30.8044 65.601 30.8777 65.5764 30.972C65.5518 31.0663 65.5248 31.116 65.4977 31.1893C65.4037 31.4158 65.283 31.6287 65.1385 31.8229C64.9376 32.0902 64.709 32.3326 64.4571 32.5455C64.0702 32.8699 63.6588 33.1597 63.2271 33.4121C62.4677 33.854 61.6859 34.2509 60.8852 34.6007C60.1103 34.9516 59.3379 35.271 58.5605 35.5721C57.7831 35.8732 57.0181 36.1638 56.2087 36.4518L55.2715 33.1529C56.0095 32.9382 56.7622 32.6738 57.4978 32.4067C58.2333 32.1397 58.9738 31.8412 59.6724 31.5297C60.358 31.2282 61.0267 30.8847 61.6749 30.5007C61.9484 30.3394 62.2092 30.1546 62.4547 29.9483C62.5192 29.8963 62.5771 29.8355 62.6269 29.7677C62.6057 29.793 62.589 29.8223 62.5777 29.8541C62.5777 29.8776 62.5654 29.8933 62.5531 29.9221C62.5434 29.9529 62.536 29.9844 62.5309 30.0164C62.5206 30.0566 62.514 30.0978 62.5113 30.1394C62.5113 30.1551 62.5113 30.1578 62.5113 30.1525V30.1342C62.4941 29.8858 62.4487 29.6405 62.376 29.4037C62.2776 29.061 62.161 28.7244 62.0266 28.3958C61.7259 27.6711 61.3859 26.9656 61.0082 26.2829C60.6244 25.5812 60.2161 24.8796 59.7782 24.1884C59.3403 23.4972 58.8926 22.8086 58.4424 22.1803L61.3649 19.9653Z" fill="#407BFF"/>
<g opacity="0.7">
<path d="M61.3644 19.9658C61.8343 20.7513 62.2648 21.4686 62.6879 22.2384C63.111 23.0081 63.5268 23.77 63.9179 24.5659C64.309 25.3618 64.6805 26.1839 65.0175 27.0636C65.1925 27.5243 65.342 27.9955 65.4652 28.4748C65.6238 29.0589 65.6969 29.6656 65.6817 30.2734V30.3756C65.6826 30.393 65.6826 30.4105 65.6817 30.4279C65.6817 30.5222 65.6571 30.6164 65.6399 30.7107C65.6227 30.8049 65.6005 30.8782 65.5759 30.9725C65.5513 31.0667 65.5243 31.1165 65.4972 31.1898C65.4032 31.4163 65.2825 31.6292 65.1381 31.8234C64.9371 32.0907 64.7085 32.3331 64.4566 32.546C64.0697 32.8704 63.6583 33.1602 63.2266 33.4126C62.4672 33.8545 61.6854 34.2514 60.8847 34.6012C60.1098 34.9521 59.3374 35.2715 58.56 35.5726C57.7827 35.8737 57.0176 36.1643 56.2083 36.4523L55.271 33.1534C56.009 32.9387 56.7618 32.6743 57.4973 32.4072C58.2328 32.1402 58.9733 31.8417 59.6719 31.5302C60.3576 31.2287 61.0262 30.8851 61.6744 30.5012C61.9479 30.3398 62.2087 30.1551 62.4542 29.9488C62.5187 29.8967 62.5766 29.836 62.6264 29.7681C62.6052 29.7935 62.5885 29.8228 62.5772 29.8545C62.5772 29.8781 62.5649 29.8938 62.5526 29.9226C62.5429 29.9534 62.5355 29.9849 62.5305 30.0169C62.5201 30.0571 62.5135 30.0983 62.5108 30.1399C62.5108 30.1556 62.5108 30.1582 62.5108 30.153V30.1347C62.4936 29.8863 62.4482 29.641 62.3755 29.4042C62.2771 29.0614 62.1605 28.7249 62.0262 28.3962C61.7254 27.6716 61.3854 26.9661 61.0077 26.2834C60.624 25.5817 60.2156 24.8801 59.7777 24.1889C59.3398 23.4977 58.8921 22.8091 58.4419 22.1808L61.3644 19.9658Z" fill="white"/>
</g>
<path d="M58.8741 29.0507C58.8577 29.0505 58.8416 29.0458 58.8274 29.0371C58.8132 29.0284 58.8014 29.016 58.7929 29.001C58.7857 28.9895 58.7808 28.9767 58.7783 28.9632C58.7759 28.9496 58.7761 28.9357 58.7789 28.9223C58.7816 28.9088 58.7869 28.8961 58.7944 28.8849C58.8019 28.8737 58.8114 28.8642 58.8225 28.857L59.2062 28.5952C59.5644 28.3547 59.8456 28.0042 60.0125 27.59C60.1794 27.1758 60.2242 26.7174 60.141 26.2755L59.3686 22.1126C59.312 21.8014 59.1585 21.5195 58.9328 21.3126C58.7071 21.1058 58.4224 20.986 58.1248 20.9727C57.8272 20.9593 57.534 21.0533 57.2928 21.2392C57.0516 21.4252 56.8763 21.6923 56.7954 21.9974L55.7007 26.0791C55.5812 26.5106 55.5877 26.9705 55.7195 27.3979C55.8514 27.8253 56.1022 28.2 56.4387 28.4721L56.8028 28.7653C56.8233 28.7824 56.8366 28.8074 56.8398 28.8349C56.8431 28.8623 56.8359 28.8901 56.82 28.912C56.8123 28.9227 56.8027 28.9317 56.7917 28.9384C56.7807 28.9451 56.7685 28.9495 56.756 28.9512C56.7434 28.9529 56.7306 28.9519 56.7184 28.9483C56.7062 28.9447 56.6947 28.9386 56.6847 28.9303L56.3403 28.6397C55.9704 28.3432 55.6939 27.934 55.5476 27.4664C55.4013 26.9988 55.3921 26.4948 55.5211 26.0215L56.6183 21.9398C56.7125 21.5913 56.914 21.2865 57.1904 21.0745C57.4668 20.8624 57.8022 20.7553 58.1426 20.7704C58.4831 20.7855 58.8089 20.9219 59.0678 21.1577C59.3267 21.3935 59.5037 21.7151 59.5703 22.0707L60.3427 26.2362C60.4339 26.719 60.3851 27.2199 60.2028 27.6725C60.0205 28.1251 59.7133 28.508 59.3218 28.7706L58.9356 29.0324C58.9271 29.0397 58.9172 29.0451 58.9066 29.0483C58.8961 29.0514 58.885 29.0522 58.8741 29.0507Z" fill="#263238"/>
<path d="M59.4665 22.1987L56.704 22.0757C56.691 22.075 56.6784 22.0716 56.6667 22.0657C56.655 22.0598 56.6445 22.0515 56.6358 22.0413C56.6271 22.0311 56.6204 22.0192 56.6161 22.0062C56.6117 21.9932 56.6098 21.9795 56.6105 21.9657C56.6129 21.9384 56.6249 21.913 56.644 21.8946C56.6631 21.8762 56.688 21.8661 56.7138 21.8662L59.4739 21.9893C59.4868 21.9899 59.4995 21.9933 59.5112 21.9992C59.5229 22.0051 59.5334 22.0134 59.5421 22.0236C59.5508 22.0338 59.5575 22.0458 59.5618 22.0587C59.5662 22.0717 59.5681 22.0855 59.5674 22.0992C59.5671 22.1129 59.5642 22.1263 59.5589 22.1387C59.5537 22.1512 59.5461 22.1624 59.5367 22.1716C59.5273 22.1809 59.5163 22.1881 59.5042 22.1927C59.4921 22.1974 59.4793 22.1994 59.4665 22.1987Z" fill="#263238"/>
<path d="M58.1218 20.9787C58.0963 20.9781 58.072 20.9672 58.0537 20.9483C58.0354 20.9293 58.0246 20.9037 58.0234 20.8766C58.0234 20.353 57.8709 19.4445 57.4108 19.2455C57.3981 19.241 57.3864 19.2337 57.3764 19.2241C57.3664 19.2146 57.3584 19.203 57.3527 19.19C57.3471 19.177 57.3441 19.1629 57.3438 19.1486C57.3435 19.1343 57.3459 19.1201 57.351 19.1069C57.356 19.0936 57.3635 19.0816 57.3731 19.0716C57.3827 19.0616 57.3941 19.0537 57.4066 19.0486C57.4191 19.0434 57.4325 19.041 57.4459 19.0416C57.4593 19.0421 57.4725 19.0456 57.4846 19.0518C58.1661 19.3502 58.2226 20.7169 58.2226 20.8845C58.2227 20.9121 58.2127 20.9386 58.1949 20.9586C58.177 20.9786 58.1526 20.9905 58.1267 20.9918L58.1218 20.9787Z" fill="#263238"/>
<path d="M49.6716 24.5368H49.6519C49.6265 24.5312 49.6043 24.5151 49.59 24.492C49.5757 24.469 49.5706 24.4409 49.5756 24.4138C49.9004 22.6937 51.2435 19.9787 52.4268 19.1775C52.4376 19.1704 52.4496 19.1656 52.4622 19.1634C52.4747 19.1613 52.4875 19.1618 52.4999 19.1649C52.5123 19.1681 52.5239 19.1739 52.5342 19.1819C52.5444 19.1899 52.5531 19.1999 52.5596 19.2115C52.5668 19.2228 52.5717 19.2354 52.5741 19.2487C52.5765 19.2621 52.5763 19.2758 52.5735 19.289C52.5708 19.3023 52.5655 19.3148 52.558 19.3257C52.5506 19.3367 52.5411 19.346 52.5301 19.3529C51.3862 20.1226 50.0824 22.7565 49.7675 24.4504C49.7635 24.4745 49.7517 24.4963 49.7342 24.5121C49.7167 24.5278 49.6945 24.5366 49.6716 24.5368Z" fill="#263238"/>
<path d="M50.4783 24.8068C50.3258 25.2231 49.9863 25.4744 49.7403 25.3671C49.4943 25.2597 49.3984 24.8435 49.5509 24.4167C49.7034 23.9899 50.0429 23.7491 50.2889 23.859C50.5349 23.969 50.6333 24.3905 50.4783 24.8068Z" fill="white"/>
<path d="M56.973 28.8627C56.973 29.0565 56.8598 29.211 56.7393 29.2057C56.6187 29.2005 56.5253 29.0382 56.5326 28.8418C56.54 28.6454 56.6458 28.491 56.7663 28.4988C56.8869 28.5067 56.9804 28.6664 56.973 28.8627Z" fill="white"/>
<path d="M59.0936 28.9563C59.0936 29.1501 58.9829 29.3046 58.8599 29.2993C58.7369 29.2941 58.6483 29.1318 58.6557 28.9354C58.6631 28.739 58.7664 28.5872 58.9017 28.5924C59.037 28.5977 59.101 28.7678 59.0936 28.9563Z" fill="white"/>
<path d="M100.811 25.3242L100.565 25.3085C100.606 24.751 100.538 24.1907 100.365 23.6629C100.191 23.1351 99.9168 22.6514 99.5585 22.2425C99.2002 21.8336 98.7659 21.5084 98.2833 21.2876C97.8007 21.0668 97.2802 20.9551 96.7549 20.9597V20.6979C97.3139 20.6929 97.8678 20.8115 98.3814 21.0463C98.8951 21.2811 99.3573 21.627 99.7387 22.062C100.12 22.497 100.412 23.0116 100.597 23.5731C100.782 24.1347 100.855 24.731 100.811 25.3242Z" fill="#407BFF"/>
<path d="M100.942 26.421L100.8 28.5889L101.046 28.6072L101.188 26.4394L100.942 26.421Z" fill="#407BFF"/>
<path d="M96.7547 21.6139H79.7807C78.8537 21.6302 77.9656 22.0128 77.289 22.6874C76.6124 23.3619 76.1958 24.2802 76.1202 25.2636L75.9652 27.6959C75.93 28.1639 75.9868 28.6346 76.1319 29.0779C76.2771 29.5213 76.5075 29.9276 76.8083 30.271C77.1092 30.6143 77.474 30.8872 77.8794 31.0722C78.2849 31.2573 78.7221 31.3504 79.1632 31.3456H96.1372L99.4287 33.5056L99.9502 25.2636C99.9858 24.7958 99.9293 24.3251 99.7845 23.8818C99.6396 23.4384 99.4095 23.0321 99.1088 22.6887C98.8081 22.3453 98.4435 22.0723 98.0382 21.8873C97.6328 21.7022 97.1957 21.6091 96.7547 21.6139Z" fill="#407BFF"/>
<path d="M95.8942 25.0986H80.1724V25.706H95.8942V25.0986Z" fill="white"/>
<path d="M95.7567 27.2534H84.084V27.8608H95.7567V27.2534Z" fill="white"/>
<path d="M71.2198 34.6262H88.5678C89.0188 34.621 89.4659 34.7159 89.8805 34.9049C90.2951 35.094 90.6681 35.3729 90.9758 35.724C91.2834 36.0751 91.5189 36.4905 91.6672 36.9439C91.8155 37.3972 91.8734 37.8785 91.8371 38.357L91.6797 40.8443C91.6017 41.8492 91.1757 42.7875 90.4842 43.4769C89.7928 44.1664 88.8853 44.5578 87.938 44.5751H70.5876L66.9419 46.7874L67.4782 38.357C67.5556 37.3519 67.9815 36.4132 68.673 35.7237C69.3646 35.0341 70.2723 34.643 71.2198 34.6262Z" fill="white"/>
<path opacity="0.15" d="M71.2198 34.6262H88.5678C89.0188 34.621 89.4659 34.7159 89.8805 34.9049C90.2951 35.094 90.6681 35.3729 90.9758 35.724C91.2834 36.0751 91.5189 36.4905 91.6672 36.9439C91.8155 37.3972 91.8734 37.8785 91.8371 38.357L91.6797 40.8443C91.6017 41.8492 91.1757 42.7875 90.4842 43.4769C89.7928 44.1664 88.8853 44.5578 87.938 44.5751H70.5876L66.9419 46.7874L67.4782 38.357C67.5556 37.3519 67.9815 36.4132 68.673 35.7237C69.3646 35.0341 70.2723 34.643 71.2198 34.6262Z" fill="#407BFF"/>
<path opacity="0.5" d="M87.687 38.1895H71.6084V38.8126H87.687V38.1895Z" fill="#407BFF"/>
<path opacity="0.5" d="M77.8239 40.3911H71.4697V41.0142H77.8239V40.3911Z" fill="#407BFF"/>
<path opacity="0.5" d="M83.4379 40.3911H79.3789V41.0142H83.4379V40.3911Z" fill="#407BFF"/>
</svg>
