<svg width="104" height="100" viewBox="0 0 104 100" fill="none" xmlns="http://www.w3.org/2000/svg">
<path d="M51.8759 99.4997C80.4 99.4997 103.523 85.3491 103.523 67.8934C103.523 50.4377 80.4 36.2871 51.8759 36.2871C23.3519 36.2871 0.228516 50.4377 0.228516 67.8934C0.228516 85.3491 23.3519 99.4997 51.8759 99.4997Z" fill="#F0F0F0"/>
<path d="M94.1132 72.4507L95.9266 71.4033C95.9868 71.3829 96.0392 71.344 96.0762 71.2923C96.1133 71.2406 96.1332 71.1786 96.1332 71.1149C96.1332 71.0513 96.1133 70.9893 96.0762 70.9375C96.0392 70.8858 95.9868 70.847 95.9266 70.8265L77.2396 60.0412C77.0848 59.9627 76.9137 59.9219 76.7402 59.9219C76.5666 59.9219 76.3955 59.9627 76.2407 60.0412L74.4274 61.0886C74.3671 61.109 74.3148 61.1478 74.2777 61.1996C74.2406 61.2513 74.2207 61.3133 74.2207 61.377C74.2207 61.4406 74.2406 61.5026 74.2777 61.5544C74.3148 61.6061 74.3671 61.6449 74.4274 61.6653L93.1143 72.4507C93.2691 72.5291 93.4402 72.57 93.6138 72.57C93.7873 72.57 93.9584 72.5291 94.1132 72.4507Z" fill="#E0E0E0"/>
<path d="M29.892 79.2559C37.1381 79.2559 43.0121 75.8649 43.0121 71.6819C43.0121 67.4989 37.1381 64.1079 29.892 64.1079C22.646 64.1079 16.772 67.4989 16.772 71.6819C16.772 75.8649 22.646 79.2559 29.892 79.2559Z" fill="#E0E0E0"/>
<path d="M14.0557 77.8155C17.7915 77.8155 20.8199 76.0668 20.8199 73.9097C20.8199 71.7526 17.7915 70.0039 14.0557 70.0039C10.3199 70.0039 7.2915 71.7526 7.2915 73.9097C7.2915 76.0668 10.3199 77.8155 14.0557 77.8155Z" fill="#E0E0E0"/>
<path d="M57.4242 73.2999C67.0873 73.2999 74.9207 68.7779 74.9207 63.1998C74.9207 57.6216 67.0873 53.0996 57.4242 53.0996C47.7612 53.0996 39.9277 57.6216 39.9277 63.1998C39.9277 68.7779 47.7612 73.2999 57.4242 73.2999Z" fill="#E0E0E0"/>
<path d="M73.8224 84.4426C79.0578 84.4426 83.3019 81.9926 83.3019 78.9703C83.3019 75.9481 79.0578 73.498 73.8224 73.498C68.5869 73.498 64.3428 75.9481 64.3428 78.9703C64.3428 81.9926 68.5869 84.4426 73.8224 84.4426Z" fill="#E0E0E0"/>
<path d="M49.9875 84.1571C48.1419 83.0889 45.1428 83.0889 43.2833 84.1571C42.552 84.5816 42.1137 85.1076 41.9614 85.6543C40.1919 86.7271 40.2173 88.4228 42.0398 89.4748C43.8624 90.5268 46.8846 90.5429 48.7418 89.4748C49.4754 89.0526 49.9114 88.5266 50.066 87.9775C51.8332 86.9047 51.8101 85.2114 49.9875 84.1571Z" fill="#E0E0E0"/>
<path d="M64.4535 86.6116L62.7971 85.6565L60.5154 84.3391C60.0262 84.0905 59.4851 83.9609 58.9363 83.9609C58.3875 83.9609 57.8464 84.0905 57.3571 84.3391C56.4874 84.8421 56.492 85.6588 57.3571 86.1617L59.6434 87.4767L61.2975 88.4341C61.7868 88.6827 62.3279 88.8123 62.8767 88.8123C63.4255 88.8123 63.9666 88.6827 64.4558 88.4341C65.3325 87.9289 65.3279 87.1122 64.4535 86.6116Z" fill="#E0E0E0"/>
<path d="M85.0384 80.4581L86.6971 79.503L88.9788 78.1834C89.4684 77.936 90.0093 77.8071 90.5579 77.8071C91.1065 77.8071 91.6474 77.936 92.1371 78.1834C93.0068 78.6886 93.0022 79.5053 92.1371 80.0082L89.8508 81.3232L88.1898 82.2899C87.7005 82.5385 87.1594 82.6681 86.6106 82.6681C86.0618 82.6681 85.5207 82.5385 85.0314 82.2899C84.1617 81.7754 84.164 80.9587 85.0384 80.4581Z" fill="#E0E0E0"/>
<path d="M74.7173 7.48356L76.2284 8.35562C76.2211 8.28896 76.2173 8.22197 76.2169 8.15491V7.71888C76.2169 6.93911 76.7637 6.62304 77.4396 7.01293C77.7285 7.18915 77.9762 7.42514 78.1663 7.70504C78.2771 6.72686 79.0453 6.36004 79.9797 6.89989C80.5147 7.24733 80.9598 7.71654 81.2786 8.26911C81.5974 8.82168 81.7808 9.44189 81.8137 10.079V10.7342C81.8206 10.9956 81.7677 11.2552 81.6592 11.4932L82.9165 12.2176C83.1138 12.3461 83.2779 12.5195 83.3954 12.7236C83.5129 12.9277 83.5804 13.1567 83.5925 13.3919C83.5925 13.8233 83.2902 13.9986 82.9165 13.7818L74.7173 9.04773C74.52 8.91954 74.3558 8.74659 74.2379 8.54294C74.12 8.33929 74.0519 8.1107 74.0391 7.87576C74.046 7.44204 74.3505 7.2667 74.7173 7.48356Z" fill="#EBEBEB"/>
<path d="M84.7158 3.47L85.5602 3.79068V1.94506C85.5602 0.489324 86.7137 0.140962 87.9825 0.867676C89.2422 1.5967 90.2642 3.36849 90.2642 4.82423V5.09646C90.442 5.04189 90.6298 5.02828 90.8136 5.05665C90.9974 5.08502 91.1724 5.15463 91.3254 5.26026C91.8035 5.57246 92.2014 5.99289 92.4868 6.48749C92.7721 6.98209 92.937 7.53695 92.968 8.10713V8.23402L94.1215 8.90536C94.4355 9.10999 94.6969 9.38549 94.8849 9.70967C95.0728 10.0339 95.1819 10.3976 95.2035 10.7717C95.2035 11.4639 94.7191 11.7407 94.1215 11.3946L84.7158 5.96852C84.4009 5.76271 84.1389 5.48569 83.9509 5.15985C83.763 4.83401 83.6543 4.46851 83.6338 4.0929C83.6338 3.4031 84.1183 3.12395 84.7158 3.47Z" fill="#EBEBEB"/>
<path d="M95.3714 67.7551C94.6793 63.9601 95.7774 60.0358 97.0578 57.8465C98.3382 55.6571 100.59 53.8645 102.426 54.206C104.138 54.5243 104.272 56.6883 102.505 58.3932C100.738 60.0981 97.6115 63.3626 96.7602 65.5912C96.1927 67.0746 95.8697 68.0435 95.8697 68.0435L95.3714 67.7551Z" fill="#407BFF"/>
<path opacity="0.15" d="M95.3714 67.7551C94.6793 63.9601 95.7774 60.0358 97.0578 57.8465C98.3382 55.6571 100.59 53.8645 102.426 54.206C104.138 54.5243 104.272 56.6883 102.505 58.3932C100.738 60.0981 97.6115 63.3626 96.7602 65.5912C96.1927 67.0746 95.8697 68.0435 95.8697 68.0435L95.3714 67.7551Z" fill="black"/>
<path d="M95.5571 66.9017C95.581 66.8962 95.6025 66.8831 95.6183 66.8644C95.6341 66.8457 95.6434 66.8223 95.6448 66.7979C95.9009 61.4917 99.456 56.7 101.814 55.4081C101.837 55.3929 101.854 55.3694 101.861 55.3422C101.868 55.315 101.865 55.2862 101.851 55.2616C101.838 55.237 101.815 55.2185 101.789 55.2097C101.762 55.2009 101.733 55.2025 101.708 55.2143C99.3037 56.5293 95.6817 61.4063 95.421 66.7863C95.4197 66.8159 95.4302 66.8448 95.45 66.8669C95.4698 66.8889 95.4975 66.9022 95.5271 66.904L95.5571 66.9017Z" fill="white"/>
<path d="M95.4474 70.3455C95.565 69.4619 96.6009 68.4376 98.1027 67.0349C99.7707 65.4846 102.025 64.5525 102.426 63.4774C102.899 62.1855 101.734 61.2027 99.8561 61.7195C97.9782 62.2363 95.0113 65.3231 95.0552 69.3142L95.4474 70.3455Z" fill="#407BFF"/>
<path d="M95.1467 70.0358C95.168 70.0312 95.1874 70.0204 95.2026 70.0048C95.2178 69.9893 95.228 69.9695 95.2321 69.9482C96.1549 65.3041 99.3063 63.2578 100.836 62.831C100.864 62.823 100.888 62.8041 100.903 62.7783C100.917 62.7526 100.921 62.7222 100.913 62.6937C100.905 62.6653 100.886 62.6411 100.861 62.6266C100.835 62.6121 100.804 62.6085 100.776 62.6164C99.0825 63.0917 95.9657 65.1541 95.0083 69.9043C95.0028 69.9333 95.009 69.9634 95.0253 69.9879C95.0417 70.0125 95.0671 70.0297 95.096 70.0358C95.1126 70.04 95.1301 70.04 95.1467 70.0358Z" fill="white"/>
<path d="M10.8737 65.2309C10.8737 65.2309 10.4953 61.9849 8.87349 59.4633C7.25164 56.9417 5.02536 55.3868 2.96519 55.2276C0.90501 55.0684 -0.772199 56.9809 1.44716 58.2821C3.66652 59.5833 7.59539 60.9098 9.42486 65.7984L10.8737 65.2309Z" fill="#407BFF"/>
<path opacity="0.15" d="M10.8737 65.2309C10.8737 65.2309 10.4953 61.9849 8.87349 59.4633C7.25164 56.9417 5.02536 55.3868 2.96519 55.2276C0.90501 55.0684 -0.772199 56.9809 1.44716 58.2821C3.66652 59.5833 7.59539 60.9098 9.42486 65.7984L10.8737 65.2309Z" fill="black"/>
<path d="M10.2662 64.3883H10.2869C10.3007 64.383 10.3132 64.3749 10.3238 64.3647C10.3343 64.3545 10.3428 64.3422 10.3486 64.3287C10.3544 64.3152 10.3574 64.3006 10.3575 64.2859C10.3576 64.2712 10.3548 64.2566 10.3492 64.2429C8.14831 58.8676 3.97951 56.6298 2.08314 56.2006C2.06839 56.1954 2.05272 56.1934 2.03713 56.1947C2.02155 56.196 2.00642 56.2006 1.99274 56.2081C1.97905 56.2157 1.96712 56.2261 1.95773 56.2386C1.94834 56.2511 1.94171 56.2654 1.93827 56.2807C1.93482 56.2959 1.93465 56.3117 1.93775 56.3271C1.94086 56.3424 1.94717 56.3569 1.95628 56.3696C1.96539 56.3823 1.97709 56.3929 1.9906 56.4008C2.00412 56.4087 2.01914 56.4136 2.03469 56.4152C3.88031 56.8374 7.97759 59.036 10.1439 64.326C10.154 64.3489 10.1716 64.3676 10.1939 64.3789C10.2162 64.3903 10.2417 64.3936 10.2662 64.3883Z" fill="white"/>
<path d="M7.66173 71.9074C7.82772 72.3614 8.13118 72.7522 8.52982 73.0256C8.92846 73.2989 9.40243 73.4411 9.8857 73.4323C10.2538 73.448 10.6139 73.3216 10.8916 73.0794C11.3899 72.5995 11.3114 71.7944 11.5583 71.1484C11.8905 70.2786 12.781 69.6973 12.8941 68.7352C12.9188 68.5394 12.9037 68.3406 12.8498 68.1507C12.7959 67.9608 12.7042 67.7838 12.5803 67.6302C12.4453 67.4871 12.3004 67.3537 12.1466 67.2311C11.9782 67.0811 11.7913 66.9542 11.616 66.8158C11.3637 66.6401 11.1617 66.4015 11.03 66.1237C10.8662 65.7246 10.9562 65.2747 10.9077 64.8479C10.8544 64.419 10.6616 64.0196 10.3589 63.7111C10.0563 63.4026 9.66058 63.2022 9.23281 63.1407C8.8022 63.0741 8.36735 63.0387 7.93165 63.0346C7.28568 63.0346 6.60972 63.286 5.96606 63.1476C5.3224 63.0092 4.75026 62.7416 4.09737 62.6862C3.75456 62.6392 3.40556 62.6707 3.07666 62.7782C2.74777 62.8857 2.44757 63.0664 2.19868 63.3068C2.05617 63.4451 1.94986 63.6164 1.88911 63.8055C1.82836 63.9945 1.81504 64.1957 1.85032 64.3911C1.95875 64.8133 2.35556 65.0832 2.72699 65.3139C3.09842 65.5446 3.50446 65.7869 3.6498 66.1952C3.95895 67.0188 3.06843 67.9555 3.4191 68.7652C3.50337 68.9309 3.62045 69.0777 3.76323 69.1966C3.90601 69.3156 4.0715 69.4043 4.24963 69.4573C4.53801 69.5612 4.84023 69.6119 5.13784 69.688C5.28237 69.7089 5.42793 69.722 5.57387 69.7273C6.00682 69.7037 6.43553 69.8229 6.79428 70.0664C7.34797 70.4793 7.39642 71.2637 7.66173 71.9074Z" fill="#407BFF"/>
<path d="M9.29146 66.687C9.28307 66.6721 9.2712 66.6594 9.25686 66.6501C7.1367 64.4354 4.21831 63.6694 3.25859 63.6002C3.2324 63.5989 3.20673 63.6078 3.18695 63.625C3.16717 63.6422 3.15481 63.6664 3.15246 63.6925C3.15119 63.7184 3.16015 63.7438 3.1774 63.7633C3.19465 63.7827 3.21883 63.7945 3.24474 63.7963C4.1514 63.8609 6.85524 64.5646 8.9108 66.5786C8.17768 66.4486 7.42559 66.4717 6.70181 66.6464C5.97803 66.8211 5.29822 67.1436 4.70509 67.5937C4.69588 67.6027 4.68857 67.6135 4.68358 67.6254C4.67858 67.6372 4.67601 67.65 4.67601 67.6629C4.67601 67.6758 4.67858 67.6886 4.68358 67.7004C4.68857 67.7123 4.69588 67.7231 4.70509 67.7321C4.71546 67.7444 4.72864 67.7539 4.74351 67.7599C4.75838 67.7659 4.77449 67.7683 4.79045 67.7667C4.81022 67.7635 4.82864 67.7547 4.84351 67.7413C5.45229 67.2814 6.15443 66.9605 6.90056 66.801C7.64669 66.6416 8.41869 66.6476 9.16227 66.8185C10.4026 68.1273 11.1777 69.8079 11.3678 71.601C11.3712 71.6252 11.3834 71.6474 11.4022 71.6631C11.4209 71.6789 11.4448 71.6872 11.4693 71.6864C11.4952 71.6835 11.519 71.6704 11.5354 71.6501C11.5518 71.6298 11.5596 71.6039 11.557 71.5779C11.3599 69.7429 10.5637 68.024 9.29146 66.687Z" fill="white"/>
<path d="M95.529 69.8321V35.4228C95.4984 34.8683 95.3378 34.3287 95.06 33.8478C94.7823 33.3668 94.3953 32.958 93.9302 32.6544L77.6265 23.2302C76.7429 22.7203 76.0254 23.1333 76.0254 24.153V58.5808C76.056 59.1356 76.217 59.6753 76.4951 60.1563C76.7733 60.6373 77.1609 61.046 77.6265 61.3492L93.9302 70.755C94.8138 71.274 95.529 70.8611 95.529 69.8321Z" fill="#E0E0E0"/>
<path d="M94.7858 70.2755V35.8569C94.756 35.3022 94.5957 34.7624 94.3178 34.2814C94.04 33.8003 93.6526 33.3916 93.1871 33.0885L76.8833 23.6735C75.9997 23.1637 75.2822 23.5766 75.2822 24.5963V59.0149C75.3129 59.5697 75.4738 60.1094 75.752 60.5904C76.0301 61.0714 76.4177 61.4801 76.8833 61.7833L93.1709 71.1983C94.0637 71.7082 94.7858 71.2952 94.7858 70.2755Z" fill="#F5F5F5"/>
<path d="M93.171 33.088L78.4683 24.5981C82.8355 27.4196 91.6183 32.4997 92.7165 33.3649C93.8146 34.23 94.3821 34.7952 94.3821 37.5867C94.3821 40.3782 94.7859 68.3786 94.7859 68.3786V35.8495C94.7532 35.2946 94.5898 34.7552 94.3092 34.2753C94.0286 33.7954 93.6386 33.3886 93.171 33.088Z" fill="#FAFAFA"/>
<path d="M84.4659 29.7039C84.5236 29.7429 84.5713 29.795 84.605 29.856C84.6386 29.9169 84.6574 29.985 84.6597 30.0546V64.3624C84.6597 64.4939 84.5743 64.5493 84.4659 64.4893C84.4089 64.4498 84.3619 64.3975 84.3286 64.3366C84.2954 64.2757 84.2768 64.2079 84.2744 64.1386V29.8308C84.2744 29.6901 84.3598 29.6439 84.4659 29.7039Z" fill="#E0E0E0"/>
<g style="mix-blend-mode:hard-light" opacity="0.7">
<path d="M82.7891 58.3297C82.7892 58.2206 82.78 58.1118 82.7614 58.0044C82.7614 57.979 82.7452 57.8982 82.7406 57.8821C82.536 56.9695 81.9776 56.1755 81.188 55.6743L78.3873 54.0593L78.3619 54.0478C78.0599 53.8544 77.7114 53.7459 77.3529 53.7336C76.9945 53.7213 76.6394 53.8057 76.3249 53.978C76.0103 54.1502 75.7479 54.404 75.5652 54.7126C75.3826 55.0212 75.2863 55.3733 75.2866 55.7319C75.2872 55.841 75.2973 55.9499 75.3166 56.0572C75.3222 56.0984 75.3299 56.1392 75.3397 56.1795C75.5424 57.091 76.0982 57.885 76.8854 58.3873L79.6884 60.0023L79.7115 60.0138C80.0136 60.2078 80.3623 60.3168 80.7211 60.3294C81.0798 60.342 81.4354 60.2577 81.7503 60.0854C82.0652 59.9131 82.3279 59.6591 82.5107 59.3501C82.6935 59.0411 82.7896 58.6886 82.7891 58.3297Z" fill="#FAFAFA"/>
</g>
<path d="M76.7773 54.8636C76.7773 55.821 77.4948 57.0091 78.3784 57.519L81.1792 59.1339C82.0627 59.6438 82.7802 59.2816 82.7802 58.3241C82.7802 57.3667 82.0627 56.1786 81.1792 55.6688L78.3784 54.0538C77.4856 53.5463 76.7773 53.9131 76.7773 54.8636Z" fill="#E0E0E0"/>
<path d="M77.1925 53.7334C76.6772 53.7542 76.1899 53.9736 75.8325 54.3455C75.4752 54.7175 75.2756 55.2132 75.2754 55.729C75.276 55.8381 75.286 55.9469 75.3054 56.0543C75.311 56.0954 75.3187 56.1362 75.3285 56.1765C75.5069 56.9585 75.9403 57.6589 76.5604 58.1675C75.7876 57.097 75.3515 56.4142 75.5384 55.3529C75.6156 54.9463 75.8156 54.5731 76.1113 54.2836C76.407 53.994 76.7844 53.802 77.1925 53.7334Z" fill="white"/>
<path d="M78.5256 58.7243C78.4067 58.6392 78.3126 58.5241 78.2526 58.3908C78.1926 58.2575 78.169 58.1107 78.1841 57.9653C78.2061 57.5594 78.3234 57.1645 78.5266 56.8126C78.7299 56.4606 79.0133 56.1616 79.3538 55.9397C79.472 55.8536 79.6111 55.8004 79.7566 55.7858C79.9022 55.7713 80.049 55.7957 80.182 55.8567L81.6862 56.7287C82.0668 56.9493 82.3442 57.312 82.4573 57.7371C82.5704 58.1622 82.5101 58.6148 82.2895 58.9954C82.0689 59.3759 81.7062 59.6533 81.2811 59.7664C80.856 59.8796 80.4034 59.8192 80.0228 59.5987L78.5256 58.7243Z" fill="#F5F5F5"/>
<path d="M76.4515 57.5238C76.0801 57.2991 75.8116 56.9378 75.7036 56.5173C75.5955 56.0969 75.6566 55.6509 75.8737 55.275C76.0908 54.8991 76.4466 54.6233 76.8647 54.5067C77.2828 54.3902 77.73 54.4422 78.1102 54.6515L80.1866 55.8558C80.0536 55.7948 79.9068 55.7704 79.7612 55.785C79.6156 55.7996 79.4766 55.8527 79.3583 55.9389C79.0178 56.1607 78.7344 56.4598 78.5312 56.8117C78.3279 57.1637 78.2106 57.5586 78.1887 57.9644C78.1735 58.1098 78.1972 58.2566 78.2571 58.3899C78.3171 58.5232 78.4113 58.6383 78.5301 58.7234L76.4515 57.5238Z" fill="#407BFF"/>
<path opacity="0.4" d="M76.824 55.0925C76.7402 55.2379 76.7174 55.4105 76.7607 55.5727C76.8039 55.7348 76.9096 55.8732 77.0547 55.9576L79.5601 57.411C79.7713 57.0622 79.8897 56.6651 79.9039 56.2575C79.9039 56.216 79.9039 56.1791 79.9039 56.1422L77.6937 54.8595C77.6215 54.8171 77.5415 54.7894 77.4585 54.7782C77.3755 54.7669 77.291 54.7723 77.2101 54.794C77.1292 54.8157 77.0534 54.8532 76.9871 54.9045C76.9208 54.9557 76.8653 55.0196 76.824 55.0925Z" fill="white"/>
<path d="M78.5256 58.7243C78.4067 58.6392 78.3126 58.5241 78.2526 58.3908C78.1926 58.2575 78.169 58.1107 78.1841 57.9653C78.2061 57.5594 78.3234 57.1645 78.5266 56.8126C78.7299 56.4606 79.0133 56.1616 79.3538 55.9397C79.472 55.8536 79.6111 55.8004 79.7566 55.7858C79.9022 55.7713 80.049 55.7957 80.182 55.8567L81.6862 56.7287C82.0668 56.9493 82.3442 57.312 82.4573 57.7371C82.5704 58.1622 82.5101 58.6148 82.2895 58.9954C82.0689 59.3759 81.7062 59.6533 81.2811 59.7664C80.856 59.8796 80.4034 59.8192 80.0228 59.5987L78.5256 58.7243Z" fill="#F5F5F5"/>
<path opacity="0.1" d="M79.3527 55.9391C79.0122 56.1609 78.7288 56.46 78.5255 56.8119C78.3223 57.1639 78.205 57.5588 78.183 57.9646C78.1679 58.11 78.1915 58.2568 78.2515 58.3901C78.3115 58.5235 78.4057 58.6385 78.5245 58.7236L78.4068 58.6544L78.3168 58.6037C78.1977 58.5189 78.1032 58.4039 78.0432 58.2705C77.9832 58.1371 77.9598 57.9901 77.9754 57.8447C77.9973 57.4388 78.1147 57.0439 78.3179 56.692C78.5212 56.34 78.8045 56.0409 79.1451 55.8191C79.2633 55.7329 79.4024 55.6798 79.5479 55.6652C79.6935 55.6506 79.8403 55.6751 79.9733 55.736L80.1809 55.856C80.0479 55.7951 79.9011 55.7706 79.7555 55.7852C79.61 55.7998 79.4709 55.8529 79.3527 55.9391Z" fill="black"/>
<path d="M82.5029 57.9876C82.5372 58.2922 82.4862 58.6004 82.3555 58.8777C82.2248 59.155 82.0197 59.3905 81.7629 59.558C81.5062 59.7255 81.208 59.8184 80.9015 59.8262C80.595 59.8341 80.2924 59.7566 80.0275 59.6025L78.5256 58.7281C78.4067 58.643 78.3126 58.5279 78.2526 58.3946C78.1926 58.2613 78.169 58.1145 78.1841 57.9691C78.1857 57.7983 78.2098 57.6284 78.2557 57.4639L80.768 58.9173C81.5939 59.3879 82.4937 58.5274 82.5029 57.9876Z" fill="#E0E0E0"/>
<path d="M81.9283 58.0506C81.8867 58.1226 81.8313 58.1858 81.7653 58.2364C81.6993 58.287 81.6239 58.3241 81.5436 58.3455C81.4632 58.3669 81.3794 58.3723 81.2969 58.3613C81.2145 58.3502 81.135 58.3231 81.0631 58.2813L78.5254 56.8117C78.7228 56.4547 79.0078 56.1538 79.3536 55.9373C79.3865 55.9178 79.4204 55.9001 79.4551 55.8843L81.6999 57.1831C81.8451 57.2679 81.9508 57.4069 81.9937 57.5696C82.0365 57.7322 82.013 57.9052 81.9283 58.0506Z" fill="white"/>
<path opacity="0.1" d="M75.9615 55.0852C75.9799 55.0598 76.0007 55.0367 76.0215 55.0114L76.0653 54.9606C76.0815 54.9421 76.0999 54.926 76.1184 54.9075L76.1737 54.8522L76.206 54.8268C76.2933 54.7521 76.3885 54.6871 76.4898 54.633L76.6028 54.5776C76.1414 54.8591 75.8438 56.0657 76.6697 56.5432C76.9512 56.707 77.3734 56.9585 78.2478 57.466C78.2019 57.6306 78.1778 57.8005 78.1762 57.9713C78.1611 58.1167 78.1847 58.2635 78.2447 58.3968C78.3047 58.5301 78.3988 58.6452 78.5177 58.7303L76.4414 57.5306C76.061 57.3102 75.7836 56.9479 75.6698 56.5233C75.5561 56.0986 75.6154 55.6462 75.8346 55.2651C75.8623 55.2213 75.89 55.1775 75.92 55.1359L75.9615 55.0852Z" fill="black"/>
<g style="mix-blend-mode:hard-light" opacity="0.7">
<path d="M93.2769 64.337C93.2766 64.2281 93.2681 64.1193 93.2515 64.0117C93.2515 63.9863 93.233 63.9056 93.2284 63.8894C93.0248 62.977 92.4672 62.1829 91.6781 61.6816L88.8751 60.0667L88.8497 60.0551C88.5477 59.8617 88.1992 59.7532 87.8407 59.7409C87.4823 59.7286 87.1272 59.813 86.8127 59.9853C86.4981 60.1576 86.2357 60.4113 86.053 60.7199C85.8704 61.0285 85.7741 61.3806 85.7744 61.7393C85.775 61.8484 85.7851 61.9572 85.8044 62.0646C85.8044 62.0876 85.8206 62.1499 85.8275 62.1868C86.0297 63.0986 86.5857 63.8927 87.3732 64.3947L90.1762 66.0096H90.1993C90.5013 66.2036 90.8501 66.3126 91.2088 66.3252C91.5676 66.3378 91.9232 66.2535 92.2381 66.0812C92.553 65.9089 92.8157 65.6549 92.9985 65.3459C93.1812 65.0369 93.2774 64.6844 93.2769 64.3254V64.337Z" fill="#FAFAFA"/>
</g>
<path d="M87.2754 60.8715C87.2754 61.8289 87.9906 63.0193 88.8742 63.5292L91.6772 65.1441C92.5585 65.6539 93.276 65.2917 93.276 64.3343C93.276 63.3769 92.5585 62.1888 91.6772 61.6789L88.8742 60.064C87.9906 59.5542 87.2754 59.9118 87.2754 60.8715Z" fill="#E0E0E0"/>
<path d="M87.6916 59.7402C87.1764 59.7616 86.6894 59.9812 86.3322 60.353C85.975 60.7248 85.7752 61.2202 85.7744 61.7358C85.775 61.8449 85.7851 61.9537 85.8044 62.0611C85.8044 62.0842 85.8206 62.1465 85.8275 62.1834C86.0059 62.9653 86.4393 63.6657 87.0594 64.1743C86.2889 63.1039 85.8505 62.421 86.0374 61.3621C86.1148 60.9553 86.3148 60.5819 86.6105 60.2921C86.9061 60.0022 87.2833 59.8096 87.6916 59.7402Z" fill="white"/>
<path d="M89.0186 64.7316C88.9 64.6468 88.8059 64.5322 88.7459 64.3993C88.686 64.2664 88.6623 64.1199 88.6772 63.9749C88.6991 63.5688 88.8165 63.1735 89.0197 62.8212C89.2229 62.4689 89.5063 62.1694 89.8469 61.947C89.9651 61.8609 90.1042 61.8078 90.2497 61.7932C90.3953 61.7786 90.5421 61.803 90.6751 61.864L92.1793 62.736C92.3677 62.8449 92.5329 62.9899 92.6653 63.1626C92.7977 63.3354 92.8948 63.5325 92.951 63.7428C93.0073 63.953 93.0215 64.1723 92.993 64.3881C92.9645 64.6039 92.8938 64.8119 92.7849 65.0004C92.676 65.1888 92.531 65.354 92.3582 65.4864C92.1855 65.6188 91.9884 65.7159 91.7781 65.7721C91.5679 65.8284 91.3486 65.8426 91.1328 65.8141C90.917 65.7856 90.709 65.7149 90.5205 65.606L89.0186 64.7316Z" fill="#F5F5F5"/>
<path d="M86.9428 63.5318C86.5622 63.3119 86.2846 62.9497 86.171 62.5251C86.0575 62.1004 86.1172 61.6481 86.3372 61.2675C86.5572 60.8869 86.9193 60.6093 87.3439 60.4957C87.7686 60.3822 88.221 60.4419 88.6015 60.6619L90.6779 61.8639C90.5449 61.8029 90.398 61.7785 90.2525 61.7931C90.1069 61.8077 89.9679 61.8608 89.8496 61.9469C89.5091 62.1693 89.2257 62.4687 89.0225 62.8211C88.8192 63.1734 88.7019 63.5686 88.68 63.9748C88.665 64.1198 88.6887 64.2662 88.7487 64.3992C88.8087 64.5321 88.9028 64.6467 89.0214 64.7315L86.9428 63.5318Z" fill="#407BFF"/>
<path opacity="0.4" d="M87.3238 61.1005C87.2821 61.1724 87.2549 61.2519 87.2439 61.3343C87.2328 61.4168 87.2382 61.5006 87.2596 61.581C87.2811 61.6613 87.3181 61.7367 87.3688 61.8027C87.4194 61.8687 87.4825 61.9241 87.5546 61.9657L90.06 63.4214C90.2705 63.0723 90.3888 62.6753 90.4037 62.2679C90.4037 62.2287 90.4037 62.1894 90.4037 62.1525L88.1936 60.8698C88.1215 60.8273 88.0416 60.7995 87.9587 60.7881C87.8758 60.7767 87.7914 60.7819 87.7105 60.8034C87.6296 60.8248 87.5537 60.8621 87.4874 60.9132C87.421 60.9642 87.3654 61.0279 87.3238 61.1005Z" fill="white"/>
<path d="M89.0186 64.7316C88.9 64.6468 88.8059 64.5322 88.7459 64.3993C88.686 64.2664 88.6623 64.1199 88.6772 63.9749C88.6991 63.5688 88.8165 63.1735 89.0197 62.8212C89.2229 62.4689 89.5063 62.1694 89.8469 61.947C89.9651 61.8609 90.1042 61.8078 90.2497 61.7932C90.3953 61.7786 90.5421 61.803 90.6751 61.864L92.1793 62.736C92.3677 62.8449 92.5329 62.9899 92.6653 63.1626C92.7977 63.3354 92.8948 63.5325 92.951 63.7428C93.0073 63.953 93.0215 64.1723 92.993 64.3881C92.9645 64.6039 92.8938 64.8119 92.7849 65.0004C92.676 65.1888 92.531 65.354 92.3582 65.4864C92.1855 65.6188 91.9884 65.7159 91.7781 65.7721C91.5679 65.8284 91.3486 65.8426 91.1328 65.8141C90.917 65.7856 90.709 65.7149 90.5205 65.606L89.0186 64.7316Z" fill="#F5F5F5"/>
<path opacity="0.1" d="M89.8506 61.9469C89.5101 62.1692 89.2267 62.4687 89.0235 62.821C88.8203 63.1734 88.7029 63.5686 88.681 63.9747C88.666 64.1198 88.6898 64.2662 88.7497 64.3991C88.8097 64.532 88.9038 64.6467 89.0224 64.7315L88.9048 64.6646L88.8148 64.6115C88.6958 64.5271 88.6014 64.4124 88.5414 64.2795C88.4814 64.1465 88.4579 63.9999 88.4734 63.8548C88.4953 63.4486 88.6126 63.0534 88.8158 62.7011C89.0191 62.3487 89.3024 62.0493 89.643 61.8269C89.7613 61.7408 89.9003 61.6877 90.0459 61.6731C90.1914 61.6585 90.3383 61.6829 90.4712 61.7439L90.6789 61.8638C90.5459 61.8029 90.3991 61.7784 90.2535 61.793C90.1079 61.8076 89.9689 61.8607 89.8506 61.9469Z" fill="black"/>
<path d="M93.0006 63.9946C93.0349 64.2992 92.9838 64.6074 92.8532 64.8847C92.7225 65.162 92.5174 65.3976 92.2606 65.5651C92.0039 65.7326 91.7056 65.8254 91.3992 65.8333C91.0927 65.8411 90.7901 65.7637 90.5251 65.6095L89.0186 64.7306C88.9 64.6458 88.8059 64.5311 88.7459 64.3982C88.686 64.2653 88.6623 64.1189 88.6772 63.9739C88.6788 63.8023 88.7028 63.6316 88.7487 63.4663C89.6277 63.9715 90.7005 64.5944 91.2611 64.9197C92.0916 65.3973 92.9914 64.5368 93.0006 63.9946Z" fill="#E0E0E0"/>
<path d="M92.4283 64.0647C92.3867 64.1368 92.3313 64.1999 92.2653 64.2505C92.1993 64.3011 92.1239 64.3382 92.0436 64.3597C91.9632 64.3811 91.8794 64.3865 91.797 64.3754C91.7145 64.3644 91.635 64.3372 91.5631 64.2954L89.0254 62.8259C89.2228 62.4689 89.5078 62.168 89.8536 61.9515C89.8882 61.9307 89.9228 61.9146 89.9551 61.8984L92.1999 63.1973C92.3447 63.2825 92.45 63.4215 92.4927 63.584C92.5355 63.7465 92.5123 63.9193 92.4283 64.0647Z" fill="white"/>
<path opacity="0.1" d="M86.4604 61.0948C86.4791 61.0692 86.4991 61.0445 86.5204 61.021C86.5337 61.003 86.5484 60.9861 86.5642 60.9702L86.6173 60.9149C86.6354 60.896 86.6546 60.8783 86.6749 60.8618C86.6858 60.8508 86.6983 60.8415 86.7118 60.8341C86.7991 60.7587 86.8942 60.6929 86.9956 60.638C87.0302 60.6196 87.0671 60.6011 87.1063 60.585C86.6449 60.8641 86.3473 62.073 87.1733 62.5482C87.4547 62.712 87.8792 62.9635 88.7513 63.471C88.7054 63.6364 88.6813 63.807 88.6797 63.9786C88.6648 64.1236 88.6885 64.2701 88.7485 64.403C88.8084 64.5359 88.9025 64.6505 89.0212 64.7353L86.9449 63.5356C86.5644 63.3152 86.2871 62.9528 86.1737 62.528C86.0604 62.1032 86.1204 61.6508 86.3404 61.2701C86.3659 61.2257 86.3936 61.1826 86.4235 61.1409L86.4604 61.0948Z" fill="black"/>
<g style="mix-blend-mode:hard-light" opacity="0.7">
<path d="M82.7891 49.6681C82.7892 49.5583 82.78 49.4487 82.7614 49.3405C82.7614 49.3174 82.7452 49.2344 82.7406 49.2205C82.6397 48.7682 82.4506 48.3402 82.1842 47.961C81.9178 47.5817 81.5793 47.2587 81.188 47.0104L78.3873 45.3955H78.3619C78.0599 45.2021 77.7114 45.0935 77.3529 45.0813C76.9945 45.069 76.6394 45.1534 76.3249 45.3256C76.0103 45.4979 75.7479 45.7517 75.5652 46.0603C75.3826 46.3689 75.2863 46.721 75.2866 47.0796C75.2872 47.1887 75.2973 47.2975 75.3166 47.4049C75.3218 47.4461 75.3295 47.4869 75.3397 47.5272C75.5423 48.4393 76.0981 49.234 76.8854 49.7373L79.6884 51.3522H79.7115C80.0136 51.5462 80.3623 51.6553 80.7211 51.6679C81.0798 51.6805 81.4354 51.5962 81.7503 51.4238C82.0652 51.2515 82.3279 50.9975 82.5107 50.6885C82.6935 50.3796 82.7896 50.0271 82.7891 49.6681Z" fill="#FAFAFA"/>
</g>
<path d="M76.7773 46.2029C76.7773 47.158 77.4948 48.3484 78.3784 48.8583L81.1792 50.4732C82.0627 50.9831 82.7802 50.6208 82.7802 49.6657C82.7802 48.7106 82.0627 47.5202 81.1792 47.008L78.3784 45.3931C77.4856 44.8833 76.7773 45.2455 76.7773 46.2029Z" fill="#E0E0E0"/>
<path d="M77.1925 45.0703C76.6774 45.0917 76.1904 45.3112 75.8332 45.6831C75.476 46.0549 75.2761 46.5503 75.2754 47.0659C75.276 47.175 75.286 47.2838 75.3054 47.3912C75.3106 47.4324 75.3183 47.4732 75.3285 47.5135C75.5069 48.2954 75.9403 48.9958 76.5604 49.5044C75.7876 48.434 75.3515 47.7511 75.5384 46.6922C75.6158 46.2854 75.8158 45.912 76.1114 45.6221C76.4071 45.3323 76.7843 45.1397 77.1925 45.0703Z" fill="white"/>
<path d="M78.5237 50.0604C78.4029 49.9762 78.3068 49.8612 78.2456 49.7273C78.1843 49.5934 78.1601 49.4455 78.1754 49.299C78.1973 48.8929 78.3146 48.4976 78.5178 48.1453C78.7211 47.793 79.0044 47.4935 79.345 47.2712C79.4634 47.1852 79.6025 47.1323 79.7481 47.1181C79.8937 47.1039 80.0405 47.1289 80.1732 47.1904L81.6774 48.0602C81.8663 48.1689 82.0319 48.3138 82.1648 48.4866C82.2977 48.6594 82.3953 48.8566 82.452 49.0671C82.5086 49.2776 82.5233 49.4972 82.4951 49.7133C82.4669 49.9295 82.3964 50.1379 82.2876 50.3268C82.1789 50.5157 82.034 50.6813 81.8612 50.8142C81.6884 50.9471 81.4912 51.0447 81.2807 51.1014C81.0702 51.158 80.8506 51.1727 80.6345 51.1445C80.4183 51.1163 80.2099 51.0458 80.021 50.937L78.5237 50.0604Z" fill="#F5F5F5"/>
<path d="M76.4481 48.8609C76.2597 48.752 76.0946 48.6071 75.9621 48.4343C75.8297 48.2616 75.7326 48.0644 75.6764 47.8542C75.6202 47.6439 75.6059 47.4246 75.6344 47.2089C75.6629 46.9931 75.7336 46.785 75.8426 46.5966C75.9515 46.4081 76.0964 46.243 76.2692 46.1106C76.4419 45.9782 76.639 45.8811 76.8493 45.8248C77.0596 45.7686 77.2789 45.7543 77.4946 45.7828C77.7104 45.8113 77.9185 45.8821 78.1069 45.991L80.1832 47.1953C80.0505 47.1337 79.9037 47.1088 79.7581 47.123C79.6125 47.1372 79.4734 47.19 79.355 47.276C79.0129 47.4966 78.7276 47.7948 78.5224 48.1464C78.3172 48.4979 78.1977 48.8929 78.1738 49.2993C78.1586 49.4443 78.1822 49.5908 78.2422 49.7238C78.3022 49.8567 78.3964 49.9714 78.5152 50.056L76.4481 48.8609Z" fill="#407BFF"/>
<path opacity="0.4" d="M76.8241 46.4298C76.7403 46.5756 76.7174 46.7486 76.7606 46.9111C76.8039 47.0737 76.9096 47.2125 77.0548 47.2973L79.5603 48.7507C79.7712 48.4017 79.8895 48.0047 79.904 47.5972C79.904 47.558 79.904 47.5211 79.904 47.4842L77.6939 46.2015C77.6219 46.1588 77.5422 46.1309 77.4594 46.1194C77.3765 46.1078 77.2922 46.1128 77.2113 46.134C77.1304 46.1553 77.0545 46.1923 76.9881 46.2431C76.9216 46.2939 76.8659 46.3574 76.8241 46.4298Z" fill="white"/>
<path d="M78.5237 50.0604C78.4029 49.9762 78.3068 49.8612 78.2456 49.7273C78.1843 49.5934 78.1601 49.4455 78.1754 49.299C78.1973 48.8929 78.3146 48.4976 78.5178 48.1453C78.7211 47.793 79.0044 47.4935 79.345 47.2712C79.4634 47.1852 79.6025 47.1323 79.7481 47.1181C79.8937 47.1039 80.0405 47.1289 80.1732 47.1904L81.6774 48.0602C81.8663 48.1689 82.0319 48.3138 82.1648 48.4866C82.2977 48.6594 82.3953 48.8566 82.452 49.0671C82.5086 49.2776 82.5233 49.4972 82.4951 49.7133C82.4669 49.9295 82.3964 50.1379 82.2876 50.3268C82.1789 50.5157 82.034 50.6813 81.8612 50.8142C81.6884 50.9471 81.4912 51.0447 81.2807 51.1014C81.0702 51.158 80.8506 51.1727 80.6345 51.1445C80.4183 51.1163 80.2099 51.0458 80.021 50.937L78.5237 50.0604Z" fill="#F5F5F5"/>
<path opacity="0.1" d="M79.3527 47.2763C79.0115 47.4974 78.7271 47.7958 78.5227 48.1473C78.3183 48.4988 78.1996 48.8936 78.1762 49.2995C78.161 49.4446 78.1846 49.5911 78.2446 49.724C78.3045 49.857 78.3988 49.9716 78.5176 50.0562L78.4069 49.9916L78.3169 49.9386C78.1977 49.8543 78.1032 49.7397 78.0432 49.6067C77.9831 49.4736 77.9598 49.327 77.9754 49.1819C77.9974 48.7757 78.1147 48.3805 78.3179 48.0281C78.5211 47.6758 78.8045 47.3763 79.1451 47.154C79.2635 47.068 79.4026 47.0151 79.5482 47.0009C79.6938 46.9868 79.8406 47.0117 79.9733 47.0732L80.181 47.1932C80.048 47.132 79.9012 47.1074 79.7555 47.122C79.6099 47.1366 79.4709 47.1899 79.3527 47.2763Z" fill="black"/>
<path d="M82.5013 49.3244C82.5356 49.6291 82.4845 49.9372 82.3539 50.2145C82.2232 50.4918 82.018 50.7274 81.7613 50.8949C81.5046 51.0624 81.2063 51.1552 80.8999 51.1631C80.5934 51.1709 80.2908 51.0935 80.0258 50.9393L78.5239 50.0627C78.4028 49.9783 78.3065 49.8629 78.2452 49.7286C78.1839 49.5942 78.1599 49.4459 78.1756 49.2991C78.1773 49.1275 78.2014 48.9569 78.2471 48.7915L80.7595 50.2449C81.5923 50.7271 82.492 49.8689 82.5013 49.3244Z" fill="#E0E0E0"/>
<path d="M81.9283 49.3898C81.8439 49.5349 81.7055 49.6406 81.5433 49.6838C81.3812 49.727 81.2085 49.7043 81.0631 49.6205L78.5254 48.1509C78.7221 47.7928 79.0072 47.491 79.3536 47.2743L79.4551 47.2212L81.6999 48.52C81.8453 48.6053 81.951 48.7447 81.9938 48.9077C82.0367 49.0707 82.0131 49.2441 81.9283 49.3898Z" fill="white"/>
<path opacity="0.1" d="M75.9613 46.425C75.98 46.3994 76.0001 46.3748 76.0213 46.3512C76.0347 46.3332 76.0493 46.3163 76.0652 46.3004C76.0817 46.2816 76.0994 46.2639 76.1182 46.2474L76.1736 46.192L76.2059 46.1666C76.2931 46.0912 76.3882 46.0255 76.4896 45.9705L76.6027 45.9175C76.1413 46.1966 75.8437 47.4055 76.6696 47.8831C76.951 48.0446 77.3732 48.296 78.2476 48.8059C78.203 48.9668 78.179 49.1327 78.1761 49.2996C78.1609 49.4447 78.1845 49.5912 78.2445 49.7241C78.3045 49.8571 78.3987 49.9717 78.5175 50.0563L76.4412 48.8566C76.061 48.6366 75.7836 48.2748 75.6699 47.8505C75.5561 47.4262 75.6153 46.9741 75.8344 46.5934C75.8621 46.5473 75.8898 46.5058 75.9198 46.4642C75.9324 46.4499 75.9463 46.4368 75.9613 46.425Z" fill="black"/>
<g style="mix-blend-mode:hard-light" opacity="0.7">
<path d="M93.2769 55.6754C93.2766 55.5657 93.2681 55.4562 93.2515 55.3478C93.2515 55.3247 93.233 55.244 93.2284 55.2278C93.1279 54.776 92.9392 54.3484 92.6731 53.9695C92.4071 53.5907 92.069 53.268 91.6781 53.02L88.8751 51.4051L88.8497 51.3936C88.5473 51.2009 88.1988 51.093 87.8405 51.0812C87.4821 51.0694 87.1272 51.1541 86.8129 51.3265C86.4985 51.4989 86.2362 51.7526 86.0536 52.0611C85.8709 52.3696 85.7745 52.7215 85.7744 53.08C85.775 53.1883 85.7851 53.2964 85.8044 53.403C85.8044 53.4284 85.8206 53.4907 85.8275 53.5253C86.0296 54.4376 86.5855 55.2325 87.3732 55.7354L90.1762 57.3503L90.1993 57.3619C90.5013 57.5559 90.8501 57.6649 91.2088 57.6775C91.5676 57.6901 91.9232 57.6058 92.2381 57.4335C92.553 57.2611 92.8157 57.0071 92.9984 56.6982C93.1812 56.3892 93.2774 56.0367 93.2769 55.6777V55.6754Z" fill="#FAFAFA"/>
</g>
<path d="M87.2754 52.2104C87.2754 53.1678 87.9906 54.356 88.8742 54.8658L91.6772 56.4807C92.5585 56.9906 93.276 56.6284 93.276 55.6733C93.276 54.7182 92.5585 53.5277 91.6772 53.0179L88.8742 51.403C87.9906 50.8908 87.2754 51.253 87.2754 52.2104Z" fill="#E0E0E0"/>
<path d="M87.6916 51.0801C87.1762 51.1009 86.6889 51.3203 86.3315 51.6922C85.9742 52.0642 85.7746 52.5599 85.7744 53.0757C85.775 53.184 85.7851 53.292 85.8044 53.3986C85.8044 53.424 85.8206 53.4863 85.8275 53.5209C86.0052 54.3031 86.4388 55.0037 87.0594 55.5119C86.2889 54.4414 85.8505 53.7608 86.0374 52.6996C86.1146 52.293 86.3146 51.9198 86.6103 51.6303C86.9061 51.3407 87.2834 51.1487 87.6916 51.0801Z" fill="white"/>
<path d="M89.0187 56.0708C88.8999 55.9856 88.8057 55.8706 88.7458 55.7373C88.6858 55.6039 88.6622 55.4571 88.6773 55.3117C88.6994 54.9056 88.8168 54.5105 89.02 54.1582C89.2232 53.8059 89.5065 53.5063 89.847 53.2839C89.9653 53.1979 90.1045 53.145 90.2501 53.1308C90.3957 53.1166 90.5425 53.1416 90.6752 53.2031L92.1794 54.0729C92.3727 54.1793 92.5428 54.3233 92.6798 54.4963C92.8168 54.6693 92.9178 54.8679 92.9771 55.0805C93.0363 55.293 93.0526 55.5153 93.0249 55.7342C92.9972 55.9531 92.926 56.1643 92.8157 56.3554C92.7053 56.5465 92.5579 56.7137 92.3822 56.8471C92.2064 56.9805 92.0058 57.0775 91.792 57.1325C91.5783 57.1874 91.3558 57.1991 91.1374 57.1669C90.9191 57.1348 90.7094 57.0594 90.5206 56.9451L89.0187 56.0708Z" fill="#F5F5F5"/>
<path d="M86.9428 54.8688C86.5622 54.6488 86.2846 54.2867 86.171 53.862C86.0575 53.4374 86.1172 52.985 86.3372 52.6044C86.5572 52.2238 86.9193 51.9462 87.3439 51.8326C87.7686 51.7191 88.221 51.7788 88.6015 51.9988L90.6779 53.2031C90.5451 53.1416 90.3984 53.1166 90.2528 53.1308C90.1072 53.145 89.968 53.1978 89.8496 53.2838C89.5092 53.5063 89.2259 53.8058 89.0227 54.1581C88.8195 54.5104 88.7021 54.9056 88.68 55.3117C88.6648 55.4571 88.6885 55.6039 88.7484 55.7372C88.8084 55.8705 88.9026 55.9856 89.0214 56.0707L86.9428 54.8688Z" fill="#407BFF"/>
<path opacity="0.4" d="M87.3232 52.4368C87.2393 52.5826 87.2165 52.7556 87.2597 52.9181C87.3029 53.0806 87.4087 53.2194 87.5539 53.3042L90.0593 54.7577C90.2702 54.4087 90.3885 54.0117 90.403 53.6042C90.403 53.5649 90.403 53.528 90.403 53.4911L88.1929 52.2084C88.1209 52.1661 88.0412 52.1385 87.9584 52.127C87.8756 52.1156 87.7914 52.1207 87.7106 52.1419C87.6298 52.1631 87.5539 52.2001 87.4875 52.2507C87.421 52.3013 87.3651 52.3646 87.3232 52.4368Z" fill="white"/>
<path d="M89.0187 56.0708C88.8999 55.9856 88.8057 55.8706 88.7458 55.7373C88.6858 55.6039 88.6622 55.4571 88.6773 55.3117C88.6994 54.9056 88.8168 54.5105 89.02 54.1582C89.2232 53.8059 89.5065 53.5063 89.847 53.2839C89.9653 53.1979 90.1045 53.145 90.2501 53.1308C90.3957 53.1166 90.5425 53.1416 90.6752 53.2031L92.1794 54.0729C92.3727 54.1793 92.5428 54.3233 92.6798 54.4963C92.8168 54.6693 92.9178 54.8679 92.9771 55.0805C93.0363 55.293 93.0526 55.5153 93.0249 55.7342C92.9972 55.9531 92.926 56.1643 92.8157 56.3554C92.7053 56.5465 92.5579 56.7137 92.3822 56.8471C92.2064 56.9805 92.0058 57.0775 91.792 57.1325C91.5783 57.1874 91.3558 57.1991 91.1374 57.1669C90.9191 57.1348 90.7094 57.0594 90.5206 56.9451L89.0187 56.0708Z" fill="#F5F5F5"/>
<path opacity="0.1" d="M89.8509 53.2837C89.5105 53.5062 89.2272 53.8057 89.024 54.158C88.8208 54.5103 88.7034 54.9055 88.6813 55.3116C88.6661 55.457 88.6897 55.6038 88.7497 55.7371C88.8097 55.8704 88.9039 55.9855 89.0227 56.0706L88.905 56.0014L88.8151 55.9483C88.6957 55.8642 88.6011 55.7497 88.541 55.6166C88.481 55.4835 88.4577 55.3368 88.4736 55.1916C88.4957 54.7855 88.6131 54.3903 88.8163 54.038C89.0195 53.6857 89.3028 53.3862 89.6433 53.1637C89.7616 53.0777 89.9008 53.0249 90.0464 53.0107C90.192 52.9965 90.3388 53.0215 90.4715 53.083L90.6791 53.203C90.5464 53.1414 90.3997 53.1165 90.254 53.1307C90.1084 53.1449 89.9693 53.1977 89.8509 53.2837Z" fill="black"/>
<path d="M93.0007 55.3338C93.0396 55.6822 92.966 56.0339 92.7907 56.3374C92.5707 56.7182 92.2084 56.9961 91.7836 57.1098C91.3588 57.2236 90.9061 57.164 90.5252 56.9442L89.0187 56.0698C88.8999 55.9847 88.8057 55.8696 88.7458 55.7363C88.6858 55.603 88.6622 55.4562 88.6773 55.3108C88.679 55.1392 88.7031 54.9686 88.7488 54.8032L91.2612 56.2567C92.0917 56.7342 92.9914 55.876 93.0007 55.3338Z" fill="#E0E0E0"/>
<path d="M92.4283 55.3963C92.3867 55.4683 92.3313 55.5315 92.2653 55.5821C92.1993 55.6327 92.1239 55.6698 92.0436 55.6912C91.9632 55.7126 91.8794 55.718 91.7969 55.707C91.7145 55.696 91.635 55.6688 91.5631 55.627L89.0254 54.1574C89.2227 53.7997 89.5077 53.4981 89.8536 53.2807L89.9551 53.23L92.1999 54.5288C92.272 54.5706 92.3352 54.6262 92.3858 54.6925C92.4364 54.7588 92.4733 54.8344 92.4946 54.915C92.5158 54.9957 92.5209 55.0797 92.5095 55.1623C92.4981 55.2449 92.4705 55.3244 92.4283 55.3963Z" fill="white"/>
<path opacity="0.1" d="M86.4607 52.4323C86.4794 52.4067 86.4994 52.3821 86.5207 52.3585C86.5345 52.3424 86.5483 52.3239 86.5645 52.3078L86.6175 52.2547L86.6752 52.1993L86.7052 52.174C86.7925 52.0993 86.8876 52.0343 86.989 51.9802C87.0245 51.959 87.0615 51.9405 87.0997 51.9248C86.6383 52.204 86.3407 53.4128 87.1666 53.8904C87.4481 54.0542 87.8726 54.3057 88.7446 54.8132C88.6989 54.9786 88.6748 55.1492 88.6731 55.3208C88.658 55.4661 88.6816 55.6129 88.7416 55.7463C88.8015 55.8796 88.8957 55.9946 89.0145 56.0798L86.9382 54.8778C86.7497 54.7691 86.5845 54.6243 86.452 54.4516C86.3196 54.279 86.2225 54.0819 86.1664 53.8716C86.1102 53.6614 86.0961 53.4421 86.1248 53.2264C86.1536 53.0107 86.2246 52.8028 86.3338 52.6146C86.3593 52.5702 86.387 52.5271 86.4168 52.4854L86.4607 52.4323Z" fill="black"/>
<g style="mix-blend-mode:hard-light" opacity="0.7">
<path d="M82.7891 41.0064C82.7892 40.8974 82.78 40.7886 82.7614 40.6811C82.7614 40.6557 82.7452 40.575 82.7406 40.5588C82.536 39.6463 81.9776 38.8522 81.188 38.351L78.3873 36.7361L78.3619 36.7246C78.0599 36.5312 77.7114 36.4226 77.3529 36.4104C76.9945 36.3981 76.6394 36.4825 76.3249 36.6547C76.0103 36.827 75.7479 37.0807 75.5652 37.3894C75.3826 37.698 75.2863 38.0501 75.2866 38.4087C75.2872 38.5178 75.2973 38.6266 75.3166 38.734C75.3222 38.7751 75.3299 38.8159 75.3397 38.8563C75.5424 39.7678 76.0982 40.5617 76.8854 41.0641L79.6884 42.679H79.7115C80.0136 42.873 80.3623 42.982 80.7211 42.9946C81.0798 43.0072 81.4354 42.923 81.7503 42.7506C82.0652 42.5783 82.3279 42.3243 82.5107 42.0153C82.6935 41.7064 82.7896 41.3539 82.7891 40.9949V41.0064Z" fill="#FAFAFA"/>
</g>
<path d="M76.7773 37.5339C76.7773 38.4913 77.4948 39.6795 78.3784 40.1893L81.1792 41.8042C82.0627 42.3141 82.7802 41.9519 82.7802 40.9945C82.7802 40.037 82.0627 38.8489 81.1792 38.3391L78.3784 36.7242C77.4856 36.2235 76.7773 36.5857 76.7773 37.5339Z" fill="#E0E0E0"/>
<path d="M77.1925 36.4102C76.6772 36.431 76.1899 36.6503 75.8325 37.0223C75.4752 37.3942 75.2756 37.89 75.2754 38.4057C75.276 38.5148 75.286 38.6237 75.3054 38.731C75.311 38.7722 75.3187 38.813 75.3285 38.8533C75.5069 39.6352 75.9403 40.3356 76.5604 40.8443C75.7876 39.7738 75.3515 39.0909 75.5384 38.0297C75.6156 37.6231 75.8156 37.2499 76.1113 36.9603C76.407 36.6708 76.7844 36.4788 77.1925 36.4102Z" fill="white"/>
<path d="M78.5256 41.4006C78.4067 41.3154 78.3126 41.2004 78.2526 41.0671C78.1926 40.9337 78.169 40.7869 78.1841 40.6415C78.2061 40.2357 78.3234 39.8408 78.5266 39.4888C78.7299 39.1369 79.0133 38.8378 79.3538 38.616C79.472 38.5298 79.6111 38.4767 79.7566 38.4621C79.9022 38.4475 80.049 38.472 80.182 38.5329L81.6862 39.405C81.8746 39.5142 82.0397 39.6595 82.172 39.8325C82.3043 40.0055 82.4013 40.2029 82.4573 40.4134C82.5133 40.6238 82.5273 40.8433 82.4985 41.0592C82.4697 41.2751 82.3987 41.4832 82.2895 41.6716C82.1803 41.8601 82.035 42.0252 81.862 42.1575C81.689 42.2898 81.4916 42.3867 81.2811 42.4427C81.0706 42.4987 80.8512 42.5128 80.6353 42.484C80.4194 42.4552 80.2113 42.3841 80.0228 42.2749L78.5256 41.4006Z" fill="#F5F5F5"/>
<path d="M76.4515 40.2005C76.0801 39.9758 75.8116 39.6145 75.7036 39.1941C75.5955 38.7737 75.6566 38.3277 75.8737 37.9518C76.0908 37.5759 76.4466 37.3 76.8647 37.1835C77.2828 37.0669 77.73 37.1189 78.1102 37.3283L80.1866 38.5326C80.0536 38.4716 79.9068 38.4472 79.7612 38.4618C79.6156 38.4764 79.4766 38.5295 79.3583 38.6156C79.0178 38.8375 78.7344 39.1365 78.5312 39.4885C78.3279 39.8404 78.2106 40.2354 78.1887 40.6412C78.1735 40.7866 78.1972 40.9334 78.2571 41.0667C78.3171 41.2 78.4113 41.3151 78.5301 41.4002L76.4515 40.2005Z" fill="#407BFF"/>
<path opacity="0.4" d="M76.824 37.764C76.7402 37.9094 76.7174 38.0821 76.7607 38.2442C76.8039 38.4064 76.9096 38.5448 77.0547 38.6292L79.5601 40.0826C79.7713 39.7337 79.8897 39.3366 79.9039 38.9291C79.9039 38.8875 79.9039 38.8506 79.9039 38.8137L77.6891 37.5333C77.6172 37.4915 77.5377 37.4643 77.4553 37.4533C77.3728 37.4423 77.289 37.4477 77.2087 37.4691C77.1283 37.4905 77.0529 37.5276 76.9869 37.5782C76.9209 37.6288 76.8655 37.692 76.824 37.764Z" fill="white"/>
<path d="M78.5256 41.4006C78.4067 41.3154 78.3126 41.2004 78.2526 41.0671C78.1926 40.9337 78.169 40.7869 78.1841 40.6415C78.2061 40.2357 78.3234 39.8408 78.5266 39.4888C78.7299 39.1369 79.0133 38.8378 79.3538 38.616C79.472 38.5298 79.6111 38.4767 79.7566 38.4621C79.9022 38.4475 80.049 38.472 80.182 38.5329L81.6862 39.405C81.8746 39.5142 82.0397 39.6595 82.172 39.8325C82.3043 40.0055 82.4013 40.2029 82.4573 40.4134C82.5133 40.6238 82.5273 40.8433 82.4985 41.0592C82.4697 41.2751 82.3987 41.4832 82.2895 41.6716C82.1803 41.8601 82.035 42.0252 81.862 42.1575C81.689 42.2898 81.4916 42.3867 81.2811 42.4427C81.0706 42.4987 80.8512 42.5128 80.6353 42.484C80.4194 42.4552 80.2113 42.3841 80.0228 42.2749L78.5256 41.4006Z" fill="#F5F5F5"/>
<path opacity="0.1" d="M79.3527 38.6158C79.0122 38.8377 78.7288 39.1367 78.5255 39.4887C78.3223 39.8406 78.205 40.2356 78.183 40.6414C78.1679 40.7868 78.1915 40.9336 78.2515 41.0669C78.3115 41.2002 78.4057 41.3153 78.5245 41.4004L78.4068 41.3312L78.3168 41.2804C78.1977 41.1956 78.1032 41.0806 78.0432 40.9472C77.9832 40.8138 77.9598 40.6669 77.9754 40.5214C77.9973 40.1156 78.1147 39.7207 78.3179 39.3687C78.5212 39.0168 78.8045 38.7177 79.1451 38.4959C79.2633 38.4097 79.4024 38.3566 79.5479 38.342C79.6935 38.3274 79.8403 38.3518 79.9733 38.4128L80.1809 38.5328C80.0479 38.4718 79.9011 38.4474 79.7555 38.462C79.61 38.4766 79.4709 38.5297 79.3527 38.6158Z" fill="black"/>
<path d="M82.5029 40.6638C82.5372 40.9685 82.4862 41.2766 82.3555 41.5539C82.2248 41.8313 82.0197 42.0668 81.7629 42.2343C81.5062 42.4018 81.208 42.4946 80.9015 42.5025C80.595 42.5103 80.2924 42.4329 80.0275 42.2788L78.5256 41.4044C78.4067 41.3193 78.3126 41.2042 78.2526 41.0709C78.1926 40.9376 78.169 40.7908 78.1841 40.6454C78.1857 40.4746 78.2098 40.3047 78.2557 40.1401L80.768 41.5936C81.5939 42.0642 82.4937 41.206 82.5029 40.6638Z" fill="#E0E0E0"/>
<path d="M81.9283 40.7259C81.8867 40.7979 81.8313 40.8611 81.7653 40.9117C81.6993 40.9623 81.6239 40.9994 81.5436 41.0208C81.4632 41.0422 81.3794 41.0476 81.2969 41.0366C81.2145 41.0255 81.135 40.9984 81.0631 40.9566L78.5254 39.487C78.7228 39.13 79.0078 38.8291 79.3536 38.6126C79.3865 38.5931 79.4204 38.5754 79.4551 38.5596L81.6999 39.8584C81.8451 39.9432 81.9508 40.0822 81.9937 40.2449C82.0365 40.4075 82.013 40.5805 81.9283 40.7259Z" fill="white"/>
<path opacity="0.1" d="M75.9615 37.7649L76.0215 37.691L76.0653 37.6403L76.1184 37.5872L76.1737 37.5319L76.206 37.5065C76.2939 37.4325 76.3889 37.3676 76.4898 37.3127L76.6028 37.2573C76.1414 37.5388 75.8438 38.7454 76.6697 39.2229C76.9512 39.3867 77.3734 39.6382 78.2478 40.1457C78.2019 40.3103 78.1778 40.4801 78.1762 40.651C78.1611 40.7964 78.1847 40.9432 78.2447 41.0765C78.3047 41.2098 78.3988 41.3248 78.5177 41.41L76.4414 40.2103C76.061 39.9899 75.7836 39.6276 75.6698 39.2029C75.5561 38.7783 75.6154 38.3259 75.8346 37.9448C75.8623 37.901 75.89 37.8572 75.92 37.8156L75.9615 37.7649Z" fill="black"/>
<g style="mix-blend-mode:hard-light" opacity="0.7">
<path d="M93.2769 47.0134C93.2766 46.9045 93.2681 46.7958 93.2515 46.6881C93.2515 46.6628 93.233 46.582 93.2284 46.5659C93.0248 45.6535 92.4672 44.8593 91.6781 44.358L88.8751 42.7431H88.8497C88.5477 42.5497 88.1992 42.4412 87.8407 42.4289C87.4823 42.4166 87.1272 42.501 86.8127 42.6733C86.4981 42.8456 86.2357 43.0993 86.053 43.4079C85.8704 43.7165 85.7741 44.0686 85.7744 44.4273C85.775 44.5363 85.7851 44.6452 85.8044 44.7525C85.8044 44.7756 85.8206 44.8379 85.8275 44.8748C86.0297 45.7866 86.5857 46.5807 87.3732 47.0826L90.1762 48.6976H90.1993C90.5013 48.8916 90.8501 49.0006 91.2088 49.0132C91.5676 49.0258 91.9232 48.9415 92.2381 48.7692C92.553 48.5968 92.8157 48.3428 92.9985 48.0339C93.1812 47.7249 93.2774 47.3724 93.2769 47.0134Z" fill="#FAFAFA"/>
</g>
<path d="M87.2754 43.5505C87.2754 44.5057 87.9906 45.6961 88.8742 46.2059L91.6772 47.8209C92.5585 48.3307 93.276 47.9685 93.276 47.0111C93.276 46.0537 92.5585 44.8656 91.6772 44.3557L88.8742 42.7408C87.9906 42.2309 87.2754 42.5931 87.2754 43.5505Z" fill="#E0E0E0"/>
<path d="M87.6916 42.417C87.1764 42.4384 86.6894 42.6579 86.3322 43.0297C85.975 43.4016 85.7752 43.897 85.7744 44.4126C85.775 44.5217 85.7851 44.6305 85.8044 44.7379C85.8044 44.7609 85.8206 44.8232 85.8275 44.8601C86.0059 45.6421 86.4393 46.3425 87.0594 46.8511C86.2889 45.7806 85.8505 45.0978 86.0374 44.0388C86.1148 43.6321 86.3148 43.2587 86.6105 42.9688C86.9061 42.6789 87.2833 42.4864 87.6916 42.417Z" fill="white"/>
<path d="M89.0186 47.4074C88.9 47.3226 88.8059 47.208 88.7459 47.0751C88.686 46.9421 88.6623 46.7957 88.6772 46.6507C88.6991 46.2445 88.8165 45.8493 89.0197 45.497C89.2229 45.1446 89.5063 44.8452 89.8469 44.6228C89.9651 44.5367 90.1042 44.4836 90.2497 44.469C90.3953 44.4544 90.5421 44.4788 90.6751 44.5398L92.1793 45.4118C92.5599 45.6318 92.8375 45.9939 92.951 46.4186C93.0646 46.8432 93.0048 47.2956 92.7849 47.6762C92.5649 48.0567 92.2028 48.3343 91.7781 48.4479C91.3535 48.5615 90.9011 48.5017 90.5205 48.2818L89.0186 47.4074Z" fill="#F5F5F5"/>
<path d="M86.9428 46.2086C86.5622 45.9886 86.2846 45.6265 86.171 45.2018C86.0575 44.7772 86.1172 44.3248 86.3372 43.9443C86.5572 43.5637 86.9193 43.2861 87.3439 43.1725C87.7686 43.0589 88.221 43.1187 88.6015 43.3387L90.6779 44.5406C90.5449 44.4797 90.398 44.4552 90.2525 44.4698C90.1069 44.4844 89.9679 44.5375 89.8496 44.6237C89.5091 44.846 89.2257 45.1455 89.0225 45.4978C88.8192 45.8501 88.7019 46.2454 88.68 46.6515C88.6648 46.7964 88.6881 46.9427 88.7477 47.0755C88.8072 47.2084 88.9009 47.3232 89.0191 47.4082L86.9428 46.2086Z" fill="#407BFF"/>
<path opacity="0.4" d="M87.3232 43.7763C87.2393 43.922 87.2165 44.0951 87.2597 44.2576C87.3029 44.4201 87.4087 44.5589 87.5539 44.6437L90.0593 46.0972C90.2698 45.748 90.3881 45.3511 90.403 44.9437C90.403 44.9044 90.403 44.8652 90.403 44.8283L88.1929 43.5456C88.1208 43.5031 88.041 43.4753 87.958 43.4639C87.8751 43.4525 87.7907 43.4577 87.7098 43.4791C87.6289 43.5006 87.553 43.5379 87.4867 43.5889C87.4203 43.6399 87.3647 43.7036 87.3232 43.7763Z" fill="white"/>
<path d="M89.0186 47.4074C88.9 47.3226 88.8059 47.208 88.7459 47.0751C88.686 46.9421 88.6623 46.7957 88.6772 46.6507C88.6991 46.2445 88.8165 45.8493 89.0197 45.497C89.2229 45.1446 89.5063 44.8452 89.8469 44.6228C89.9651 44.5367 90.1042 44.4836 90.2497 44.469C90.3953 44.4544 90.5421 44.4788 90.6751 44.5398L92.1793 45.4118C92.5599 45.6318 92.8375 45.9939 92.951 46.4186C93.0646 46.8432 93.0048 47.2956 92.7849 47.6762C92.5649 48.0567 92.2028 48.3343 91.7781 48.4479C91.3535 48.5615 90.9011 48.5017 90.5205 48.2818L89.0186 47.4074Z" fill="#F5F5F5"/>
<path opacity="0.1" d="M89.8514 44.6227C89.5108 44.845 89.2274 45.1445 89.0242 45.4968C88.821 45.8491 88.7036 46.2444 88.6817 46.6505C88.6662 46.7952 88.6893 46.9413 88.7484 47.0742C88.8075 47.207 88.9007 47.3219 89.0185 47.4072L88.9009 47.3403L88.8109 47.2873C88.6919 47.2028 88.5975 47.0882 88.5375 46.9552C88.4775 46.8222 88.454 46.6757 88.4695 46.5306C88.4914 46.1244 88.6087 45.7292 88.8119 45.3768C89.0152 45.0245 89.2985 44.725 89.6391 44.5027C89.7574 44.4165 89.8964 44.3634 90.042 44.3488C90.1875 44.3342 90.3344 44.3587 90.4673 44.4196L90.675 44.5396C90.5426 44.4795 90.3966 44.4556 90.252 44.4701C90.1073 44.4847 89.9691 44.5373 89.8514 44.6227Z" fill="black"/>
<path d="M93.0006 46.6714C93.0349 46.976 92.9838 47.2842 92.8532 47.5615C92.7225 47.8388 92.5174 48.0743 92.2606 48.2418C92.0039 48.4093 91.7056 48.5022 91.3992 48.51C91.0927 48.5179 90.7901 48.4404 90.5251 48.2863L89.0186 47.4073C88.9 47.3225 88.8059 47.2079 88.7459 47.075C88.686 46.9421 88.6623 46.7957 88.6772 46.6506C88.6788 46.479 88.7028 46.3084 88.7487 46.1431C89.6277 46.6483 90.7005 47.2735 91.2611 47.5965C92.0916 48.074 92.9914 47.2228 93.0006 46.6714Z" fill="#E0E0E0"/>
<path d="M92.4283 46.7361C92.3867 46.8082 92.3313 46.8713 92.2653 46.9219C92.1993 46.9725 92.1239 47.0096 92.0436 47.031C91.9632 47.0525 91.8794 47.0578 91.797 47.0468C91.7145 47.0358 91.635 47.0086 91.5631 46.9668L89.0254 45.4973C89.2228 45.1402 89.5078 44.8393 89.8536 44.6229C89.8882 44.6021 89.9228 44.586 89.9551 44.5698L92.1999 45.8687C92.3447 45.9539 92.45 46.0929 92.4927 46.2554C92.5355 46.4178 92.5123 46.5907 92.4283 46.7361Z" fill="white"/>
<path opacity="0.1" d="M86.462 43.7624C86.4808 43.7368 86.5008 43.7122 86.522 43.6886C86.5354 43.6706 86.55 43.6537 86.5659 43.6379L86.6189 43.5825C86.637 43.5636 86.6563 43.5459 86.6766 43.5294C86.6855 43.5198 86.6956 43.5112 86.7066 43.504C86.7938 43.4286 86.889 43.3629 86.9904 43.3079C87.025 43.2895 87.0619 43.271 87.1011 43.2549C86.6397 43.534 86.3421 44.7429 87.168 45.2182C87.4495 45.382 87.8739 45.6334 88.746 46.141C88.7001 46.3063 88.6761 46.4769 88.6745 46.6485C88.6596 46.7944 88.6838 46.9415 88.7446 47.0749C88.8055 47.2083 88.9007 47.3231 89.0205 47.4075L86.9442 46.2079C86.5639 45.9879 86.2866 45.6259 86.1733 45.2015C86.0599 44.777 86.1198 44.325 86.3398 43.9447C86.3647 43.8992 86.3925 43.8553 86.4228 43.8132L86.462 43.7624Z" fill="black"/>
<g style="mix-blend-mode:hard-light" opacity="0.7">
<path d="M82.7897 32.3455C82.7899 32.2357 82.7806 32.1261 82.762 32.0179C82.762 31.9948 82.7459 31.9118 82.7413 31.898C82.6384 31.4449 82.4471 31.0167 82.1783 30.6378C81.9095 30.2589 81.5684 29.9369 81.1748 29.6901L78.3741 28.0752H78.3487C78.0465 27.8826 77.6982 27.7747 77.34 27.7628C76.9819 27.7509 76.6272 27.8354 76.3129 28.0076C75.9986 28.1797 75.7363 28.4331 75.5535 28.7412C75.3706 29.0494 75.2739 29.401 75.2734 29.7593C75.2741 29.8684 75.2841 29.9773 75.3034 30.0846C75.3086 30.1258 75.3163 30.1667 75.3265 30.2069C75.5291 31.1191 76.0849 31.9138 76.8722 32.417L79.6752 34.032L79.6983 34.0435C80.0004 34.2375 80.3491 34.3465 80.7079 34.3591C81.0666 34.3717 81.4222 34.2874 81.7371 34.1151C82.052 33.9428 82.3147 33.6888 82.4975 33.3798C82.6803 33.0708 82.7764 32.7183 82.7759 32.3594L82.7897 32.3455Z" fill="#FAFAFA"/>
</g>
<path d="M76.7773 28.8799C76.7773 29.8373 77.4948 31.0254 78.3784 31.5352L81.1768 33.1502C82.0604 33.66 82.7779 33.2978 82.7779 32.3427C82.7779 31.3876 82.0604 30.1972 81.1768 29.6873L78.3761 28.0724C77.4856 27.5602 76.7773 27.9224 76.7773 28.8799Z" fill="#E0E0E0"/>
<path d="M77.1925 27.7476C76.6774 27.769 76.1904 27.9885 75.8332 28.3603C75.476 28.7321 75.2761 29.2275 75.2754 29.7431C75.276 29.8522 75.286 29.9611 75.3054 30.0684C75.3106 30.1096 75.3183 30.1505 75.3285 30.1907C75.5062 30.9729 75.9397 31.6735 76.5604 32.1817C75.7876 31.1112 75.3515 30.4283 75.5384 29.3694C75.6158 28.9626 75.8158 28.5893 76.1114 28.2994C76.4071 28.0095 76.7843 27.817 77.1925 27.7476Z" fill="white"/>
<path d="M78.5237 32.7374C78.4048 32.6528 78.3106 32.5382 78.2506 32.4052C78.1906 32.2723 78.167 32.1257 78.1822 31.9807C78.2041 31.5745 78.3215 31.1793 78.5247 30.827C78.7279 30.4746 79.0113 30.1752 79.3519 29.9528C79.4702 29.8668 79.6094 29.814 79.755 29.7998C79.9006 29.7856 80.0474 29.8105 80.1801 29.8721L81.6843 30.7418C81.8762 30.8492 82.0448 30.9937 82.1804 31.1669C82.3159 31.3401 82.4157 31.5385 82.4739 31.7506C82.532 31.9627 82.5474 32.1843 82.5192 32.4024C82.4909 32.6205 82.4196 32.8308 82.3093 33.0211C82.199 33.2113 82.052 33.3778 81.8768 33.5107C81.7016 33.6437 81.5017 33.7404 81.2887 33.7954C81.0758 33.8504 80.854 33.8624 80.6364 33.8309C80.4187 33.7994 80.2095 33.7249 80.0209 33.6118L78.5237 32.7374Z" fill="#F5F5F5"/>
<path d="M76.4481 31.5348C76.2597 31.4259 76.0946 31.2809 75.9621 31.1081C75.8297 30.9354 75.7326 30.7383 75.6764 30.528C75.6202 30.3177 75.6059 30.0985 75.6344 29.8827C75.6629 29.6669 75.7336 29.4589 75.8426 29.2704C75.9515 29.082 76.0964 28.9168 76.2692 28.7844C76.4419 28.652 76.639 28.5549 76.8493 28.4987C77.0596 28.4424 77.2789 28.4282 77.4946 28.4567C77.7104 28.4852 77.9185 28.5559 78.1069 28.6648L80.1832 29.8691C80.0505 29.8076 79.9037 29.7826 79.7581 29.7968C79.6125 29.811 79.4734 29.8638 79.355 29.9498C79.0144 30.1722 78.731 30.4717 78.5278 30.824C78.3246 31.1763 78.2073 31.5716 78.1853 31.9777C78.1701 32.1228 78.1938 32.2693 78.2537 32.4022C78.3137 32.5352 78.408 32.6498 78.5268 32.7344L76.4481 31.5348Z" fill="#407BFF"/>
<path opacity="0.4" d="M76.8241 29.1066C76.7403 29.2524 76.7174 29.4254 76.7606 29.5879C76.8039 29.7504 76.9096 29.8892 77.0548 29.974L79.5603 31.4275C79.7712 31.0785 79.8895 30.6815 79.904 30.274C79.904 30.2347 79.904 30.1978 79.904 30.1609L77.6939 28.8782C77.6219 28.8356 77.5422 28.8077 77.4594 28.7961C77.3765 28.7845 77.2922 28.7895 77.2113 28.8108C77.1304 28.832 77.0545 28.8691 76.9881 28.9199C76.9216 28.9707 76.8659 29.0341 76.8241 29.1066Z" fill="white"/>
<path d="M78.5237 32.7374C78.4048 32.6528 78.3106 32.5382 78.2506 32.4052C78.1906 32.2723 78.167 32.1257 78.1822 31.9807C78.2041 31.5745 78.3215 31.1793 78.5247 30.827C78.7279 30.4746 79.0113 30.1752 79.3519 29.9528C79.4702 29.8668 79.6094 29.814 79.755 29.7998C79.9006 29.7856 80.0474 29.8105 80.1801 29.8721L81.6843 30.7418C81.8762 30.8492 82.0448 30.9937 82.1804 31.1669C82.3159 31.3401 82.4157 31.5385 82.4739 31.7506C82.532 31.9627 82.5474 32.1843 82.5192 32.4024C82.4909 32.6205 82.4196 32.8308 82.3093 33.0211C82.199 33.2113 82.052 33.3778 81.8768 33.5107C81.7016 33.6437 81.5017 33.7404 81.2887 33.7954C81.0758 33.8504 80.854 33.8624 80.6364 33.8309C80.4187 33.7994 80.2095 33.7249 80.0209 33.6118L78.5237 32.7374Z" fill="#F5F5F5"/>
<path opacity="0.1" d="M79.3527 29.9522C79.0122 30.1745 78.7288 30.474 78.5256 30.8263C78.3223 31.1786 78.205 31.5739 78.1831 31.98C78.1679 32.1251 78.1915 32.2716 78.2515 32.4046C78.3115 32.5375 78.4057 32.6522 78.5245 32.7368L78.4069 32.6698L78.3169 32.6168C78.1977 32.5325 78.1032 32.4179 78.0432 32.2849C77.9831 32.1519 77.9598 32.0052 77.9754 31.8601C77.9974 31.4539 78.1147 31.0587 78.3179 30.7064C78.5211 30.354 78.8045 30.0546 79.1451 29.8322C79.2635 29.7462 79.4026 29.6934 79.5482 29.6792C79.6938 29.665 79.8406 29.6899 79.9733 29.7515L80.181 29.8714C80.0482 29.8099 79.9015 29.7849 79.7559 29.7991C79.6103 29.8133 79.4711 29.8662 79.3527 29.9522Z" fill="black"/>
<path d="M82.5007 31.9967C82.5396 32.3451 82.466 32.6967 82.2908 33.0003C82.182 33.1896 82.0369 33.3556 81.8639 33.4888C81.6909 33.6221 81.4933 33.7199 81.2825 33.7766C81.0716 33.8334 80.8516 33.8481 80.6351 33.8198C80.4186 33.7914 80.2098 33.7207 80.0206 33.6116L78.5188 32.735C78.3999 32.6504 78.3057 32.5357 78.2457 32.4028C78.1857 32.2698 78.1621 32.1233 78.1773 31.9782C78.1791 31.8067 78.2031 31.6361 78.2488 31.4707L80.7612 32.9241C81.5917 33.404 82.4915 32.5458 82.5007 31.9967Z" fill="#E0E0E0"/>
<path d="M81.9283 32.0661C81.8439 32.2111 81.7055 32.3168 81.5433 32.3601C81.3812 32.4033 81.2085 32.3805 81.0631 32.2968L78.5254 30.8272C78.7221 30.469 79.0072 30.1672 79.3536 29.9505L79.4551 29.8975L81.6999 31.1963C81.8453 31.2815 81.951 31.4209 81.9938 31.584C82.0367 31.747 82.0131 31.9204 81.9283 32.0661Z" fill="white"/>
<path opacity="0.1" d="M75.9613 29.1012C75.98 29.0755 76.0001 29.0509 76.0213 29.0273C76.0347 29.0094 76.0493 28.9924 76.0652 28.9766L76.1182 28.9235L76.1736 28.8682L76.2059 28.8428C76.2931 28.7673 76.3882 28.7016 76.4896 28.6467C76.5262 28.6259 76.5639 28.6074 76.6027 28.5913C76.1413 28.8705 75.8437 30.0793 76.6696 30.5569C76.951 30.7184 77.3732 30.9722 78.2476 31.4797C78.2019 31.6451 78.1778 31.8157 78.1761 31.9873C78.1609 32.1323 78.1845 32.2788 78.2445 32.4118C78.3045 32.5447 78.3987 32.6594 78.5175 32.744L76.4412 31.5443C76.061 31.3243 75.7836 30.9624 75.6699 30.5382C75.5561 30.1139 75.6153 29.6618 75.8344 29.2811C75.8621 29.235 75.8898 29.1934 75.9198 29.1519C75.9318 29.1336 75.9457 29.1165 75.9613 29.1012Z" fill="black"/>
<g style="mix-blend-mode:hard-light" opacity="0.7">
<path d="M93.2769 38.3522C93.2766 38.2425 93.2681 38.133 93.2515 38.0246C93.2515 38.0015 93.233 37.9207 93.2284 37.9046C93.1279 37.4527 92.9392 37.0251 92.6731 36.6463C92.4071 36.2674 92.069 35.9448 91.6781 35.6968L88.8751 34.0819L88.8497 34.0703C88.5473 33.8776 88.1988 33.7697 87.8405 33.7579C87.4821 33.7461 87.1272 33.8308 86.8129 34.0032C86.4985 34.1756 86.2362 34.4293 86.0536 34.7378C85.8709 35.0463 85.7745 35.3982 85.7744 35.7568C85.775 35.8651 85.7851 35.9732 85.8044 36.0797C85.8044 36.1051 85.8206 36.1674 85.8275 36.202C86.0296 37.1144 86.5855 37.9093 87.3732 38.4121L90.1762 40.0271H90.1993C90.5013 40.2211 90.8501 40.3301 91.2088 40.3427C91.5676 40.3553 91.9232 40.271 92.2381 40.0987C92.553 39.9263 92.8157 39.6723 92.9984 39.3634C93.1812 39.0544 93.2774 38.7019 93.2769 38.3429V38.3522Z" fill="#FAFAFA"/>
</g>
<path d="M87.2754 34.8879C87.2754 35.8454 87.9906 37.0335 88.8742 37.5433L91.6772 39.1583C92.5585 39.6681 93.276 39.3059 93.276 38.3485C93.276 37.3911 92.5585 36.203 91.6772 35.6931L88.8742 34.0782C87.9906 33.5683 87.2754 33.9305 87.2754 34.8879Z" fill="#E0E0E0"/>
<path d="M87.6916 33.7568C87.1762 33.7777 86.6889 33.997 86.3315 34.369C85.9742 34.7409 85.7746 35.2366 85.7744 35.7524C85.775 35.8607 85.7851 35.9688 85.8044 36.0754C85.8044 36.1008 85.8206 36.1631 85.8275 36.1977C86.0052 36.9799 86.4388 37.6805 87.0594 38.1886C86.2889 37.1182 85.8505 36.4376 86.0374 35.3764C86.1146 34.9698 86.3146 34.5966 86.6103 34.307C86.9061 34.0175 87.2834 33.8255 87.6916 33.7568Z" fill="white"/>
<path d="M89.0187 38.7469C88.8999 38.6618 88.8057 38.5467 88.7458 38.4134C88.6858 38.2801 88.6622 38.1333 88.6773 37.9879C88.6994 37.5818 88.8168 37.1866 89.02 36.8343C89.2232 36.482 89.5065 36.1825 89.847 35.96C89.9656 35.8747 90.1047 35.8223 90.2502 35.8081C90.3957 35.7939 90.5423 35.8185 90.6752 35.8793L92.1794 36.7514C92.3678 36.8603 92.533 37.0052 92.6654 37.178C92.7978 37.3507 92.8949 37.5478 92.9511 37.7581C93.0074 37.9684 93.0216 38.1877 92.9931 38.4034C92.9646 38.6192 92.8939 38.8273 92.785 39.0157C92.6761 39.2042 92.5311 39.3693 92.3583 39.5017C92.1856 39.6341 91.9885 39.7312 91.7782 39.7875C91.568 39.8437 91.3487 39.858 91.1329 39.8295C90.9171 39.8009 90.7091 39.7302 90.5206 39.6213L89.0187 38.7469Z" fill="#F5F5F5"/>
<path d="M86.9428 37.5455C86.5622 37.3255 86.2846 36.9634 86.171 36.5388C86.0575 36.1141 86.1172 35.6617 86.3372 35.2812C86.5572 34.9006 86.9193 34.623 87.3439 34.5094C87.7686 34.3958 88.221 34.4556 88.6015 34.6756L90.6779 35.8798C90.545 35.819 90.3983 35.7945 90.2529 35.8086C90.1074 35.8228 89.9683 35.8752 89.8496 35.9606C89.5092 36.1831 89.2259 36.4826 89.0227 36.8349C88.8195 37.1872 88.7021 37.5824 88.68 37.9885C88.6648 38.1339 88.6885 38.2807 88.7484 38.414C88.8084 38.5473 88.9026 38.6623 89.0214 38.7475L86.9428 37.5455Z" fill="#407BFF"/>
<path opacity="0.4" d="M87.3232 35.1136C87.2393 35.2593 87.2165 35.4323 87.2597 35.5948C87.3029 35.7574 87.4087 35.8962 87.5539 35.981L90.0593 37.4344C90.2702 37.0855 90.3885 36.6884 90.403 36.2809C90.403 36.2417 90.403 36.2048 90.403 36.1679L88.1929 34.8852C88.1209 34.8429 88.0412 34.8152 87.9584 34.8038C87.8756 34.7924 87.7914 34.7974 87.7106 34.8187C87.6298 34.8399 87.5539 34.8769 87.4875 34.9275C87.421 34.9781 87.3651 35.0413 87.3232 35.1136Z" fill="white"/>
<path d="M89.0187 38.7469C88.8999 38.6618 88.8057 38.5467 88.7458 38.4134C88.6858 38.2801 88.6622 38.1333 88.6773 37.9879C88.6994 37.5818 88.8168 37.1866 89.02 36.8343C89.2232 36.482 89.5065 36.1825 89.847 35.96C89.9656 35.8747 90.1047 35.8223 90.2502 35.8081C90.3957 35.7939 90.5423 35.8185 90.6752 35.8793L92.1794 36.7514C92.3678 36.8603 92.533 37.0052 92.6654 37.178C92.7978 37.3507 92.8949 37.5478 92.9511 37.7581C93.0074 37.9684 93.0216 38.1877 92.9931 38.4034C92.9646 38.6192 92.8939 38.8273 92.785 39.0157C92.6761 39.2042 92.5311 39.3693 92.3583 39.5017C92.1856 39.6341 91.9885 39.7312 91.7782 39.7875C91.568 39.8437 91.3487 39.858 91.1329 39.8295C90.9171 39.8009 90.7091 39.7302 90.5206 39.6213L89.0187 38.7469Z" fill="#F5F5F5"/>
<path opacity="0.1" d="M89.8507 35.961C89.5103 36.1834 89.227 36.483 89.0238 36.8352C88.8206 37.1875 88.7032 37.5827 88.6811 37.9888C88.666 38.1342 88.6896 38.281 88.7495 38.4143C88.8095 38.5477 88.9037 38.6627 89.0225 38.7478L88.9049 38.6786L88.8149 38.6279C88.6957 38.5431 88.6013 38.4281 88.5412 38.2947C88.4812 38.1613 88.4578 38.0143 88.4735 37.8689C88.4956 37.4628 88.613 37.0676 88.8162 36.7153C89.0194 36.363 89.3027 36.0635 89.6431 35.841C89.7615 35.755 89.9006 35.7022 90.0462 35.688C90.1919 35.6738 90.3386 35.6987 90.4713 35.7602L90.679 35.8802C90.5461 35.8194 90.3994 35.7948 90.254 35.809C90.1085 35.8232 89.9694 35.8756 89.8507 35.961Z" fill="black"/>
<path d="M93.0007 38.0111C93.0396 38.3594 92.966 38.7111 92.7907 39.0146C92.5707 39.3955 92.2084 39.6733 91.7836 39.7871C91.3588 39.9009 90.9061 39.8413 90.5252 39.6214L89.0187 38.747C88.8999 38.6619 88.8057 38.5468 88.7458 38.4135C88.6858 38.2802 88.6622 38.1334 88.6773 37.988C88.679 37.8164 88.7031 37.6458 88.7488 37.4805L91.2612 38.9339C92.0917 39.4115 92.9914 38.5532 93.0007 38.0111Z" fill="#E0E0E0"/>
<path d="M92.4264 38.0734C92.3848 38.1455 92.3295 38.2086 92.2634 38.2592C92.1974 38.3099 92.1221 38.3469 92.0417 38.3684C91.9613 38.3898 91.8775 38.3952 91.7951 38.3841C91.7126 38.3731 91.6332 38.3459 91.5613 38.3041L89.0166 36.8415C89.2139 36.4838 89.4989 36.1822 89.8448 35.9648L89.9463 35.9141L92.1911 37.2129C92.3357 37.2965 92.4415 37.4337 92.4855 37.5948C92.5296 37.7559 92.5083 37.9279 92.4264 38.0734Z" fill="white"/>
<path opacity="0.1" d="M86.4607 35.1091C86.4794 35.0835 86.4994 35.0588 86.5207 35.0353C86.5345 35.0191 86.5483 35.0007 86.5645 34.9845L86.6175 34.9315L86.6752 34.8761L86.7052 34.8507C86.7925 34.776 86.8876 34.711 86.989 34.6569C87.0245 34.6357 87.0615 34.6172 87.0997 34.6016C86.6383 34.883 86.3407 36.0896 87.1666 36.5672C87.4481 36.731 87.8726 36.9824 88.7446 37.49C88.6989 37.6553 88.6748 37.8259 88.6731 37.9975C88.658 38.1429 88.6816 38.2897 88.7416 38.423C88.8015 38.5563 88.8957 38.6714 89.0145 38.7565L86.9382 37.5546C86.7497 37.4459 86.5845 37.301 86.452 37.1284C86.3196 36.9557 86.2225 36.7586 86.1664 36.5484C86.1102 36.3382 86.0961 36.1189 86.1248 35.9032C86.1536 35.6875 86.2246 35.4796 86.3338 35.2914C86.3593 35.2469 86.387 35.2038 86.4168 35.1622L86.4607 35.1091Z" fill="black"/>
<path d="M68.2704 25.3758C67.6033 24.9932 66.9094 24.6594 66.1941 24.3768C65.533 24.1217 64.9638 23.6739 64.5603 23.0914C64.1567 22.5089 63.9375 21.8187 63.9309 21.1101V17.1235H50.9147V21.1101C50.9099 21.8203 50.6912 22.5125 50.2871 23.0965C49.8829 23.6805 49.3121 24.1291 48.6492 24.3838C47.9339 24.6663 47.24 25.0002 46.5728 25.3827C43.5737 27.113 42.0811 29.3808 42.0811 31.6463V61.7069C42.0811 63.9724 43.5783 66.2402 46.5728 67.9704C52.5711 71.431 62.2768 71.431 68.2589 67.9704C71.258 66.2402 72.753 63.9747 72.753 61.7069V31.6394C72.7645 29.3715 71.258 27.106 68.2704 25.3758Z" fill="#407BFF"/>
<path opacity="0.7" d="M68.2704 25.3758C67.6033 24.9932 66.9094 24.6594 66.1941 24.3768C65.533 24.1217 64.9638 23.6739 64.5603 23.0914C64.1567 22.5089 63.9375 21.8187 63.9309 21.1101V17.1235H50.9147V21.1101C50.9099 21.8203 50.6912 22.5125 50.2871 23.0965C49.8829 23.6805 49.3121 24.1291 48.6492 24.3838C47.9339 24.6663 47.24 25.0002 46.5728 25.3827C43.5737 27.113 42.0811 29.3808 42.0811 31.6463V61.7069C42.0811 63.9724 43.5783 66.2402 46.5728 67.9704C52.5711 71.431 62.2768 71.431 68.2589 67.9704C71.258 66.2402 72.753 63.9747 72.753 61.7069V31.6394C72.7645 29.3715 71.258 27.106 68.2704 25.3758Z" fill="white"/>
<path d="M57.4313 70.5591C65.8979 70.5591 72.7615 66.6351 72.7615 61.7947C72.7615 56.9542 65.8979 53.0303 57.4313 53.0303C48.9646 53.0303 42.1011 56.9542 42.1011 61.7947C42.1011 66.6351 48.9646 70.5591 57.4313 70.5591Z" fill="#407BFF"/>
<path opacity="0.5" d="M57.4313 70.5591C65.8979 70.5591 72.7615 66.6351 72.7615 61.7947C72.7615 56.9542 65.8979 53.0303 57.4313 53.0303C48.9646 53.0303 42.1011 56.9542 42.1011 61.7947C42.1011 66.6351 48.9646 70.5591 57.4313 70.5591Z" fill="white"/>
<path opacity="0.4" d="M65.1744 21.3154C62.3529 19.6866 58.3664 19.133 54.7489 19.6613V17.1235H50.9147V21.1078C50.9107 21.8184 50.6923 22.5113 50.2881 23.0958C49.8839 23.6803 49.3127 24.1292 48.6492 24.3838C47.9349 24.6685 47.2411 25.0023 46.5728 25.3827C46.5475 25.3827 46.5267 25.4127 46.499 25.4242C43.5506 27.1499 42.0811 29.3969 42.0811 31.6532V61.6976C42.0811 63.9677 43.5783 66.2309 46.5728 67.9612C50.8824 70.4505 57.116 71.138 62.5052 70.0491C50.0334 70.905 47.0342 65.6173 47.0342 61.7922V32.5645C47.0342 31.2149 47.2373 30.1006 48.1878 29.1616C48.6495 29.5842 49.1581 29.9526 49.7035 30.2598C53.983 32.7283 60.9156 32.7283 65.1906 30.2598C69.4655 27.7912 69.4539 23.7885 65.1744 21.3154Z" fill="white"/>
<path opacity="0.4" d="M68.2704 25.3758C67.6033 24.9932 66.9093 24.6594 66.1941 24.3768C65.533 24.1217 64.9638 23.6739 64.5603 23.0914C64.1567 22.5089 63.9375 21.8187 63.9309 21.1101V17.1235H62.5098V22.4597C62.5098 23.6893 63.5687 24.859 64.7937 25.528C66.0188 26.1971 69.913 27.8881 70.8566 29.7384C71.7563 31.4986 71.4633 34.9984 71.4633 39.151V60.3757C71.4633 63.0703 70.3398 66.9692 65.3359 69.3131C66.3531 68.9658 67.3362 68.5256 68.2727 67.9981C71.2719 66.2678 72.7645 64.0923 72.7645 61.7068V31.6394C72.7645 29.3715 71.258 27.106 68.2704 25.3758Z" fill="white"/>
<path d="M68.3856 22.7183V23.8533C68.3856 25.4683 67.3221 27.097 65.1743 28.3405C60.8993 30.8067 53.969 30.8067 49.6826 28.3405C48.7391 27.8254 47.9194 27.1105 47.2809 26.2457C46.7734 25.5581 46.4942 24.7287 46.4827 23.8741V22.6952C46.4792 22.448 46.5079 22.2014 46.5681 21.9616C46.8334 20.5912 47.8762 19.2624 49.6826 18.2196C49.7342 18.1871 49.7881 18.1586 49.844 18.1342C54.1374 15.7534 60.9524 15.7857 65.1743 18.2196C66.9807 19.2624 68.035 20.5912 68.3003 21.9524C68.3606 22.2031 68.3893 22.4604 68.3856 22.7183Z" fill="#F0F0F0"/>
<path d="M58.3377 29.0119V24.9815C58.3377 23.3874 58.7415 25.5444 55.9453 25.5444C53.5207 25.5444 51.3636 19.9522 49.8548 18.1343C49.7989 18.1586 49.7449 18.1871 49.6933 18.2196C47.8869 19.2624 46.8441 20.5913 46.5788 21.9616C46.5186 22.2014 46.4899 22.4481 46.4935 22.6953V23.8742C46.5049 24.7287 46.7841 25.5582 47.2917 26.2458C47.9302 27.1106 48.7498 27.8255 49.6933 28.3406C53.9798 30.8068 60.9101 30.8068 65.185 28.3406C62.1536 29.531 58.3377 30.5322 58.3377 29.0119Z" fill="#E0E0E0"/>
<path d="M57.4319 29.0163C63.4803 29.0163 68.3834 26.1851 68.3834 22.6927C68.3834 19.2003 63.4803 16.3691 57.4319 16.3691C51.3836 16.3691 46.4805 19.2003 46.4805 22.6927C46.4805 26.1851 51.3836 29.0163 57.4319 29.0163Z" fill="#455A64"/>
<path d="M68.383 18.9217V21.1872C68.3865 21.4451 68.3579 21.7024 68.2976 21.9532C68.0323 23.3143 66.978 24.6432 65.1716 25.6836C63.2568 26.791 60.8136 27.3954 58.3243 27.5039C55.2306 27.6515 52.0515 27.0425 49.6799 25.6744C48.7405 25.1614 47.9217 24.4534 47.2783 23.5981C46.9266 23.1105 46.6849 22.5525 46.57 21.9624C46.5098 21.7195 46.4811 21.4698 46.4847 21.2195V18.901C46.4847 17.286 47.5482 15.6711 49.6845 14.4253C49.876 14.3192 50.0675 14.2131 50.2705 14.1162C54.5754 11.9591 61.0928 12.0652 65.1762 14.4253C67.3194 15.6688 68.3922 17.2953 68.383 18.9217Z" fill="#F0F0F0"/>
<path d="M57.4319 25.1681C63.4803 25.1681 68.3834 22.337 68.3834 18.8446C68.3834 15.3522 63.4803 12.521 57.4319 12.521C51.3836 12.521 46.4805 15.3522 46.4805 18.8446C46.4805 22.337 51.3836 25.1681 57.4319 25.1681Z" fill="#FAFAFA"/>
<path d="M47.2809 23.59C47.9244 24.4454 48.7432 25.1533 49.6826 25.6663C52.0542 27.0367 55.2333 27.6435 58.327 27.4958C58.357 26.6999 58.8022 26.0908 55.9346 25.5371C53.5538 25.0757 50.0332 24.0883 48.3906 21.486C46.8818 19.0936 47.7493 15.9491 50.2685 14.1035C50.0655 14.2004 49.874 14.3065 49.6826 14.4127C47.5463 15.6469 46.4827 17.2618 46.4827 18.8883V21.2069C46.4792 21.4571 46.5079 21.7068 46.5681 21.9497C46.6837 22.5418 46.927 23.1015 47.2809 23.59Z" fill="#E0E0E0"/>
<path d="M68.3234 42.5009C62.3043 45.943 52.5456 45.943 46.5266 42.5009C43.5159 40.7822 42.0117 38.5259 42.0117 36.272V51.1569C42.0117 53.4109 43.5159 55.6672 46.5266 57.3859C52.5456 60.828 62.3043 60.828 68.3234 57.3859C71.334 55.6672 72.8382 53.4109 72.8382 51.1569V36.272C72.8382 38.5259 71.334 40.7822 68.3234 42.5009Z" fill="#407BFF"/>
<path d="M68.3234 41.075C62.3043 44.5148 52.5456 44.5148 46.5266 41.075C43.5159 39.354 42.0117 37.1 42.0117 34.8461V49.731C42.0117 51.9873 43.5159 54.2412 46.5266 55.96C52.5456 59.3998 62.3043 59.3998 68.3234 55.96C71.334 54.2389 72.8382 51.985 72.8382 49.731V34.8438C72.8382 37.1 71.334 39.354 68.3234 41.075Z" fill="#FAFAFA"/>
<path d="M52.4274 49.851C52.4142 48.9197 52.215 48.0004 51.8414 47.1472V47.1287C51.4146 46.1551 50.7964 45.3385 50.1089 44.9416C49.1053 44.3649 48.2632 45.3131 47.9287 46.6396C47.8964 46.7734 47.7396 46.7804 47.7188 46.6396C47.4143 44.9094 46.5376 42.8815 45.504 42.2909C44.8119 41.8964 44.1983 42.0025 43.7738 42.4893C43.4116 42.9138 43.1901 43.6128 43.1924 44.5241C43.1924 47.3479 44.8973 49.8833 46.323 52.5525L47.8618 55.1295L49.3245 54.2759C50.7272 53.2585 52.432 52.6748 52.4274 49.851Z" fill="#407BFF"/>
<path d="M45.7043 48.9282L46.3618 47.2048C46.3778 47.15 46.4113 47.1019 46.4571 47.0678C46.5028 47.0336 46.5585 47.0153 46.6156 47.0156C46.6732 47.016 46.7289 47.0362 46.7734 47.0727C46.8179 47.1092 46.8485 47.1599 46.8601 47.2163L47.8775 51.1729L48.6873 48.9581C48.7061 48.9076 48.7402 48.8642 48.7848 48.834C48.8295 48.8038 48.8825 48.7883 48.9365 48.7897C48.9896 48.7931 49.0403 48.8128 49.0817 48.8463C49.123 48.8798 49.1529 48.9253 49.1672 48.9766L49.7693 51.1175L51.8618 52.3241L51.8133 52.3979C51.7415 52.498 51.6645 52.5943 51.5826 52.6863L51.5388 52.7371L49.414 51.5097C49.3562 51.4766 49.3138 51.4218 49.2964 51.3575L48.8811 49.8833L48.039 52.1903C48.0198 52.2424 47.9843 52.2869 47.9377 52.3173C47.8912 52.3476 47.8361 52.3621 47.7806 52.3587C47.7257 52.3545 47.6736 52.3327 47.632 52.2966C47.5905 52.2604 47.5617 52.2118 47.5499 52.158L46.5741 48.3514L46.1127 49.3873C46.1023 49.425 46.0834 49.4598 46.0574 49.489C46.0314 49.5182 45.999 49.541 45.9627 49.5557C45.9258 49.5712 45.8857 49.5781 45.8457 49.5757C45.8057 49.5733 45.7668 49.5617 45.732 49.5418L44.0594 48.5752L44.0479 48.5521C43.9671 48.3699 43.8887 48.1899 43.8172 48.0076L43.7295 47.7908L45.7043 48.9282Z" fill="#FAFAFA"/>
<path d="M57.5413 48.9002C56.953 48.9002 56.3601 48.8817 55.758 48.8448C55.6972 48.8406 55.6405 48.8126 55.6003 48.7668C55.5601 48.7209 55.5396 48.6611 55.5434 48.6002C55.5476 48.5394 55.5756 48.4827 55.6214 48.4425C55.6673 48.4023 55.7271 48.3819 55.788 48.3857C59.8414 48.6325 63.6319 48.0235 66.7602 46.6208C66.7879 46.6084 66.8178 46.6015 66.8482 46.6007C66.8785 46.5998 66.9088 46.6049 66.9372 46.6158C66.9655 46.6266 66.9915 46.6429 67.0136 46.6637C67.0357 46.6846 67.0534 46.7096 67.0659 46.7373C67.0783 46.765 67.0851 46.7949 67.086 46.8253C67.0869 46.8557 67.0817 46.8859 67.0709 46.9143C67.0601 46.9427 67.0438 46.9686 67.0229 46.9907C67.0021 47.0128 66.9771 47.0306 66.9494 47.043C64.2225 48.268 60.9972 48.9002 57.5413 48.9002Z" fill="#E0E0E0"/>
<path d="M57.5413 51.406C56.953 51.406 56.3601 51.3876 55.758 51.3506C55.6972 51.3465 55.6405 51.3184 55.6003 51.2726C55.5601 51.2268 55.5396 51.1669 55.5434 51.1061C55.5476 51.0453 55.5756 50.9886 55.6214 50.9484C55.6673 50.9082 55.7271 50.8877 55.788 50.8915C59.8414 51.1384 63.6319 50.5293 66.7602 49.1267C66.8162 49.1016 66.8798 49.0998 66.9372 49.1216C66.9945 49.1435 67.0408 49.1872 67.0659 49.2432C67.091 49.2992 67.0928 49.3628 67.0709 49.4201C67.0491 49.4775 67.0053 49.5238 66.9494 49.5489C64.2225 50.7739 60.9972 51.406 57.5413 51.406Z" fill="#E0E0E0"/>
<path d="M57.5391 53.9138C56.9508 53.9138 56.3579 53.8953 55.7557 53.8584C55.6946 53.8544 55.6375 53.8263 55.597 53.7802C55.5565 53.7342 55.5361 53.6739 55.54 53.6127C55.544 53.5515 55.5721 53.4944 55.6182 53.454C55.6643 53.4135 55.7246 53.393 55.7857 53.397C59.8392 53.6462 63.6296 53.0371 66.758 51.6344C66.8137 51.6095 66.877 51.6076 66.9341 51.6292C66.9911 51.6508 67.0373 51.6942 67.0625 51.7498C67.0752 51.7775 67.0823 51.8074 67.0834 51.8379C67.0845 51.8684 67.0795 51.8987 67.0688 51.9273C67.0581 51.9558 67.0418 51.9819 67.0209 52.0041C67 52.0263 66.975 52.0442 66.9471 52.0566C64.2202 53.277 60.995 53.9138 57.5391 53.9138Z" fill="#E0E0E0"/>
<path d="M49.1908 85.6377C49.1665 85.5665 49.1373 85.4971 49.1032 85.43C49.0743 85.3727 49.042 85.3172 49.0063 85.2639C48.8399 85.0229 48.6303 84.8148 48.388 84.6503V85.2893L47.8412 84.9709V84.3365C46.3186 83.6144 44.0669 83.6675 42.6458 84.4864C42.1638 84.7302 41.7861 85.1398 41.5823 85.64C41.5823 85.6769 41.5615 85.7115 41.5523 85.7484C41.5249 85.8531 41.5109 85.9609 41.5107 86.0691V87.3356C41.5156 87.639 41.6147 87.9333 41.7945 88.1777C42.022 88.4826 42.3123 88.7352 42.6458 88.9183C44.1615 89.7926 46.6162 89.7926 48.1273 88.9183C48.884 88.4799 49.2647 87.9078 49.2647 87.3356V86.0691C49.2642 85.9222 49.2392 85.7764 49.1908 85.6377Z" fill="#F0F0F0"/>
<path d="M46.6024 83.9423C45.2574 83.6862 43.7163 83.8662 42.6458 84.4845C42.1638 84.7282 41.7861 85.1379 41.5823 85.638C41.5823 85.6749 41.5615 85.7095 41.5523 85.7464C41.5249 85.8511 41.5109 85.9589 41.5107 86.0671V87.3337C41.5156 87.637 41.6147 87.9313 41.7945 88.1757C42.022 88.4807 42.3123 88.7332 42.6458 88.9163C43.7163 89.5346 45.2574 89.7122 46.6024 89.4561V83.9423Z" fill="#EBEBEB"/>
<path d="M42.6483 84.4843C41.2271 85.3056 41.1395 86.6044 42.3876 87.4834L47.8414 84.3343C46.3187 83.6145 44.0694 83.6745 42.6483 84.4843Z" fill="#FAFAFA"/>
<path d="M42.3843 87.1509C42.3843 87.1509 40.8778 85.9974 42.5527 84.5416C41.2238 85.3629 41.1684 86.6179 42.3866 87.4831L47.8404 84.334L42.3843 87.1509Z" fill="white"/>
<path d="M48.3869 84.6504L42.9331 87.7995C44.4557 88.5193 46.7074 88.4708 48.1285 87.6495C49.5497 86.8282 49.635 85.5201 48.3869 84.6504Z" fill="#FAFAFA"/>
<path d="M42.9331 87.7995C44.4557 88.5193 46.7074 88.4708 48.1285 87.6495C48.2867 87.5593 48.4365 87.455 48.5761 87.3381C45.7869 88.7361 43.5445 87.751 43.5445 87.751L48.3892 84.6504L42.9331 87.7995Z" fill="white"/>
<path d="M47.8415 84.9684L42.3877 88.1314V87.4831L47.8415 84.334V84.9684Z" fill="#E0E0E0"/>
<path opacity="0.2" d="M42.9345 87.7998L42.9368 88.4481L42.3877 88.132L42.9345 87.7998Z" fill="black"/>
<path d="M50.7201 83.6069C50.6963 83.5348 50.667 83.4647 50.6325 83.397C50.6025 83.3406 50.5694 83.2859 50.5333 83.2332C50.3678 82.9922 50.1589 82.7841 49.9173 82.6195V83.254L49.3682 82.9356V82.3012C47.8456 81.5814 45.5962 81.6321 44.1751 82.4534C43.692 82.6956 43.3138 83.1058 43.1116 83.6069C43.1 83.6439 43.0885 83.6785 43.0793 83.7131C43.0537 83.8181 43.0406 83.9257 43.04 84.0337V85.3026C43.0449 85.606 43.144 85.9003 43.3238 86.1447C43.5508 86.4494 43.8413 86.7013 44.1751 86.8829C45.6885 87.7573 48.1432 87.7573 49.6566 86.8829C50.4133 86.4469 50.7917 85.8747 50.7917 85.3026V84.0337C50.7917 83.8885 50.7675 83.7442 50.7201 83.6069Z" fill="#F0F0F0"/>
<path d="M48.1199 81.9091C46.7726 81.6531 45.2338 81.8353 44.1634 82.4536C43.6802 82.6958 43.3021 83.1059 43.0998 83.6071C43.0883 83.644 43.0768 83.6786 43.0675 83.7132C43.042 83.8182 43.0288 83.9259 43.0283 84.0339V85.3028C43.0331 85.6061 43.1323 85.9004 43.3121 86.1448C43.5391 86.4496 43.8296 86.7015 44.1634 86.8831C45.2338 87.5014 46.7726 87.6813 48.1199 87.4252V81.9091Z" fill="#EBEBEB"/>
<path d="M44.1639 82.4537C42.7428 83.2727 42.6551 84.5716 43.9032 85.4528L49.357 82.3061C47.8344 81.5816 45.585 81.6324 44.1639 82.4537Z" fill="#FAFAFA"/>
<path d="M43.9025 85.1206C43.9025 85.1206 42.396 83.9671 44.0709 82.509C42.7398 83.3326 42.6867 84.5854 43.9025 85.4505L49.3563 82.3037L43.9025 85.1206Z" fill="white"/>
<path d="M49.9074 82.6201L44.4536 85.7692C45.9763 86.489 48.2256 86.4383 49.6467 85.617C51.0679 84.7956 51.1532 83.4991 49.9074 82.6201Z" fill="#FAFAFA"/>
<path d="M44.4536 85.7692C45.9763 86.489 48.2256 86.4383 49.6467 85.617C49.8047 85.5272 49.9544 85.4237 50.0943 85.3078C47.3074 86.7036 45.0627 85.7185 45.0627 85.7185L49.9074 82.6201L44.4536 85.7692Z" fill="white"/>
<path d="M49.3591 82.9358L43.9053 86.1011V85.4505L49.3591 82.3037V82.9358Z" fill="#E0E0E0"/>
<path opacity="0.2" d="M44.4543 85.7681V86.4163L43.9053 86.1003L44.4543 85.7681Z" fill="black"/>
<path d="M60.3096 86.9922C60.0789 86.8584 59.9336 86.57 59.9336 86.1593C59.9579 85.7125 60.0871 85.2777 60.3108 84.8901C60.5344 84.5025 60.8462 84.1731 61.2209 83.9284C61.3508 83.8341 61.5035 83.7761 61.6632 83.7603C61.823 83.7444 61.984 83.7714 62.1299 83.8385L63.7863 84.7982C64.2048 85.0402 64.5101 85.4385 64.6349 85.9056C64.7597 86.3726 64.6939 86.8701 64.4519 87.2886C64.2099 87.7071 63.8116 88.0124 63.3445 88.1372C62.8775 88.262 62.38 88.1962 61.9615 87.9542L60.3096 86.9922Z" fill="#F5F5F5"/>
<path d="M58.0273 85.6719C57.8032 85.5613 57.6042 85.4059 57.4426 85.2153C57.281 85.0247 57.1603 84.803 57.088 84.5638C57.0156 84.3246 56.9931 84.0732 57.0219 83.825C57.0507 83.5767 57.1302 83.3371 57.2554 83.1209C57.3806 82.9046 57.5489 82.7164 57.7499 82.5679C57.9508 82.4193 58.1801 82.3136 58.4236 82.2574C58.667 82.2011 58.9194 82.1954 59.1652 82.2406C59.4109 82.2859 59.6447 82.3811 59.8522 82.5205L62.1292 83.8447C61.9833 83.7777 61.8223 83.7507 61.6625 83.7665C61.5028 83.7823 61.3501 83.8404 61.2202 83.9347C60.8455 84.1793 60.5337 84.5088 60.3101 84.8964C60.0864 85.2839 59.9572 85.7188 59.9329 86.1656C59.9329 86.5762 60.0759 86.8577 60.309 86.9984L58.0273 85.6719Z" fill="#407BFF"/>
<path opacity="0.4" d="M58.4376 82.9978C58.391 83.0768 58.3606 83.1643 58.3482 83.2552C58.3357 83.3461 58.3415 83.4386 58.3651 83.5273C58.3887 83.6159 58.4297 83.699 58.4857 83.7717C58.5418 83.8444 58.6117 83.9052 58.6914 83.9506L61.4483 85.5493C61.6805 85.1647 61.8107 84.7272 61.8267 84.2782C61.8267 84.2343 61.8267 84.1928 61.8267 84.1536L59.3904 82.7509C59.3118 82.704 59.2246 82.6732 59.134 82.6603C59.0434 82.6473 58.9511 82.6525 58.8625 82.6754C58.7739 82.6984 58.6907 82.7387 58.6178 82.794C58.5448 82.8494 58.4836 82.9186 58.4376 82.9978Z" fill="white"/>
<path d="M60.3096 86.9922C60.0789 86.8584 59.9336 86.57 59.9336 86.1593C59.9579 85.7125 60.0871 85.2777 60.3108 84.8901C60.5344 84.5025 60.8462 84.1731 61.2209 83.9284C61.3508 83.8341 61.5035 83.7761 61.6632 83.7603C61.823 83.7444 61.984 83.7714 62.1299 83.8385L63.7863 84.7982C64.2048 85.0402 64.5101 85.4385 64.6349 85.9056C64.7597 86.3726 64.6939 86.8701 64.4519 87.2886C64.2099 87.7071 63.8116 88.0124 63.3445 88.1372C62.8775 88.262 62.38 88.1962 61.9615 87.9542L60.3096 86.9922Z" fill="#F5F5F5"/>
<path opacity="0.1" d="M61.2188 83.9281C60.8442 84.1727 60.5324 84.5022 60.3087 84.8898C60.085 85.2774 59.9558 85.7122 59.9315 86.159C59.9315 86.5696 60.0746 86.8511 60.3076 86.9918L60.1784 86.918L60.0792 86.8603C59.8485 86.7265 59.7031 86.4381 59.7031 86.0275C59.7269 85.5805 59.8559 85.1455 60.0796 84.7579C60.3033 84.3702 60.6154 84.0408 60.9904 83.7966C61.1203 83.7023 61.273 83.6442 61.4327 83.6284C61.5925 83.6126 61.7536 83.6396 61.8994 83.7066L62.1301 83.8381C61.984 83.7707 61.8224 83.7434 61.6622 83.7592C61.5021 83.7751 61.349 83.8334 61.2188 83.9281Z" fill="black"/>
<path d="M64.6838 86.182C64.7272 86.5655 64.6463 86.9529 64.4531 87.287C64.3334 87.4945 64.1739 87.6764 63.9839 87.8222C63.7938 87.9681 63.5769 88.075 63.3455 88.1369C63.1141 88.1988 62.8727 88.2145 62.6352 88.1831C62.3978 88.1517 62.1688 88.0737 61.9615 87.9538L60.3096 86.9917C60.0789 86.8579 59.9336 86.5695 59.9336 86.1589C59.9354 85.9702 59.9617 85.7825 60.012 85.6006L62.7805 87.1994C63.6848 87.7254 64.6745 86.7795 64.6838 86.182Z" fill="#EBEBEB"/>
<path d="M64.0552 86.2533C64.0098 86.333 63.949 86.4029 63.8763 86.4589C63.8037 86.5149 63.7206 86.556 63.6319 86.5796C63.5433 86.6032 63.4508 86.6089 63.3599 86.5965C63.269 86.584 63.1815 86.5536 63.1024 86.507L60.3086 84.8921C60.5242 84.4975 60.8381 84.1653 61.2199 83.9278L61.3306 83.8701L63.7991 85.2982C63.8794 85.3434 63.9498 85.4041 64.0062 85.4769C64.0627 85.5497 64.104 85.633 64.1279 85.7219C64.1517 85.8109 64.1576 85.9037 64.1451 85.9949C64.1326 86.0862 64.1021 86.174 64.0552 86.2533Z" fill="white"/>
<path opacity="0.1" d="M57.4901 82.9821C57.5109 82.9544 57.5316 82.9268 57.5547 82.9014L57.6032 82.846L57.6608 82.786C57.6812 82.7649 57.7028 82.7448 57.7254 82.7261L57.7577 82.6984C57.854 82.6165 57.9584 82.5446 58.0692 82.4838L58.1914 82.4238C57.6816 82.7307 57.3586 84.0595 58.2653 84.5855C58.5767 84.7655 59.0427 85.0469 60.0025 85.596C59.9522 85.7779 59.9258 85.9656 59.924 86.1543C59.924 86.5649 60.0671 86.8464 60.3001 86.9871L58.0184 85.6675C57.5998 85.4253 57.2945 85.0269 57.1695 84.5597C57.0444 84.0925 57.11 83.5948 57.3517 83.1759C57.3794 83.1275 57.4117 83.0813 57.444 83.0352L57.4901 82.9821Z" fill="black"/>
<path d="M89.3683 80.8202C89.4997 80.727 89.604 80.6006 89.6705 80.4539C89.7369 80.3071 89.7632 80.1453 89.7466 79.9851C89.7221 79.5386 89.5928 79.1042 89.3692 78.717C89.1455 78.3298 88.8338 78.0008 88.4593 77.7565C88.104 77.5512 87.781 77.5258 87.548 77.6665L85.8939 78.6239C85.4751 78.8656 85.1694 79.2638 85.0442 79.7308C84.9189 80.1979 84.9843 80.6956 85.226 81.1144C85.4677 81.5332 85.8659 81.8389 86.3329 81.9641C86.8 82.0894 87.2976 82.0239 87.7164 81.7823L89.3683 80.8202Z" fill="#F5F5F5"/>
<path d="M91.6502 79.5005C92.0691 79.2589 92.3747 78.8607 92.5 78.3936C92.6252 77.9266 92.5598 77.4289 92.3181 77.0101C92.0764 76.5913 91.6783 76.2856 91.2112 76.1604C90.7442 76.0351 90.2465 76.1005 89.8277 76.3422L87.5483 77.6757C87.779 77.5396 88.1043 77.5603 88.4596 77.7657C88.8341 78.0099 89.1458 78.339 89.3695 78.7262C89.5931 79.1134 89.7225 79.5478 89.7469 79.9942C89.7635 80.1545 89.7373 80.3163 89.6708 80.463C89.6043 80.6098 89.5 80.7362 89.3686 80.8294L91.6502 79.5005Z" fill="#407BFF"/>
<path opacity="0.4" d="M91.2396 76.8241C91.2861 76.9033 91.3164 76.9909 91.3286 77.0819C91.3409 77.1729 91.335 77.2655 91.3111 77.3541C91.2873 77.4428 91.2461 77.5259 91.1898 77.5984C91.1336 77.671 91.0634 77.7317 90.9835 77.7769L88.2289 79.3757C87.9965 78.9911 87.8662 78.5535 87.8506 78.1045C87.8506 78.063 87.8506 78.0214 87.8506 77.9799L90.2822 76.568C90.3616 76.5208 90.4496 76.4899 90.5411 76.4772C90.6326 76.4646 90.7257 76.4703 90.8149 76.4942C90.9041 76.5181 90.9877 76.5596 91.0606 76.6162C91.1335 76.6729 91.1944 76.7435 91.2396 76.8241Z" fill="white"/>
<path d="M89.3683 80.8202C89.4997 80.727 89.604 80.6006 89.6705 80.4539C89.7369 80.3071 89.7632 80.1453 89.7466 79.9851C89.7221 79.5386 89.5928 79.1042 89.3692 78.717C89.1455 78.3298 88.8338 78.0008 88.4593 77.7565C88.104 77.5512 87.781 77.5258 87.548 77.6665L85.8939 78.6239C85.4751 78.8656 85.1694 79.2638 85.0442 79.7308C84.9189 80.1979 84.9843 80.6956 85.226 81.1144C85.4677 81.5332 85.8659 81.8389 86.3329 81.9641C86.8 82.0894 87.2976 82.0239 87.7164 81.7823L89.3683 80.8202Z" fill="#F5F5F5"/>
<path opacity="0.1" d="M88.4585 77.7571C88.833 78.0014 89.1447 78.3304 89.3684 78.7176C89.592 79.1048 89.7213 79.5392 89.7458 79.9857C89.7624 80.1459 89.7361 80.3077 89.6697 80.4545C89.6032 80.6012 89.4989 80.7276 89.3675 80.8208L89.499 80.7447L89.5959 80.687C89.7275 80.5945 89.8319 80.4686 89.8985 80.3221C89.965 80.1757 89.9911 80.0141 89.9742 79.8542C89.9499 79.4077 89.8207 78.9732 89.597 78.586C89.3734 78.1988 89.0615 77.8697 88.6869 77.6256C88.5568 77.5309 88.4038 77.4725 88.2437 77.4563C88.0836 77.4401 87.9221 77.4667 87.7756 77.5333L87.5449 77.6671C87.7802 77.531 88.0963 77.5518 88.4585 77.7571Z" fill="black"/>
<path d="M84.9926 80.0106C84.9562 80.3451 85.0133 80.6832 85.1574 80.9873C85.3016 81.2914 85.5272 81.5495 85.8093 81.7331C86.0913 81.9166 86.4187 82.0184 86.7551 82.0271C87.0915 82.0358 87.4238 81.9511 87.7149 81.7824L89.3667 80.8203C89.4982 80.7271 89.6025 80.6007 89.6689 80.454C89.7354 80.3072 89.7617 80.1454 89.7451 79.9852C89.7425 79.7971 89.7154 79.6102 89.6643 79.4292L86.8959 81.028C85.9916 81.5517 85.0042 80.6081 84.9926 80.0106Z" fill="#EBEBEB"/>
<path d="M85.6241 80.0792C85.6693 80.1592 85.73 80.2293 85.8026 80.2855C85.8752 80.3418 85.9582 80.383 86.0469 80.4069C86.1356 80.4307 86.2281 80.4366 86.3191 80.4243C86.4101 80.4121 86.4977 80.3818 86.5769 80.3353L89.3707 78.7204C89.1537 78.3274 88.8401 77.9963 88.4595 77.7584C88.423 77.7369 88.3852 77.7176 88.3464 77.7007L85.8779 79.1287C85.7985 79.1741 85.7288 79.2349 85.673 79.3073C85.6172 79.3798 85.5763 79.4627 85.5527 79.551C85.5291 79.6394 85.5233 79.7316 85.5355 79.8223C85.5478 79.9129 85.5779 80.0003 85.6241 80.0792Z" fill="white"/>
<path opacity="0.1" d="M92.1887 76.82L92.1241 76.737L92.0734 76.6816L92.0157 76.6239L91.9534 76.5639L91.9211 76.5363C91.8246 76.4536 91.7194 76.3817 91.6074 76.3217L91.4851 76.2617C91.9973 76.5709 92.3202 77.8997 91.4113 78.4234C91.0998 78.6034 90.6361 78.8848 89.6741 79.4362C89.7251 79.6172 89.7522 79.8041 89.7548 79.9922C89.7714 80.1524 89.7451 80.3142 89.6787 80.461C89.6122 80.6077 89.5079 80.7341 89.3765 80.8273L91.6581 79.5077C91.8656 79.388 92.0475 79.2286 92.1933 79.0385C92.3392 78.8485 92.4461 78.6315 92.508 78.4001C92.5699 78.1687 92.5856 77.9274 92.5542 77.6899C92.5228 77.4524 92.4448 77.2235 92.3248 77.0161C92.2972 76.9677 92.2672 76.9192 92.2349 76.8731L92.1887 76.82Z" fill="black"/>
<path d="M81.2683 59.4198C81.2683 58.3193 80.5416 57.2166 79.0858 56.3768C76.1767 54.6973 71.4588 54.6973 68.5496 56.3768C67.0939 57.2166 66.3672 58.3193 66.3672 59.4198V78.5474C66.3672 79.6478 67.0939 80.7483 68.5496 81.588C71.4588 83.2698 76.1767 83.2698 79.0858 81.588C80.5416 80.7483 81.2683 79.6478 81.2683 78.5474V59.4198Z" fill="#407BFF"/>
<path opacity="0.4" d="M78.4053 56.0332V81.9342C78.6418 81.8343 78.8728 81.7219 79.0974 81.5974C79.5304 81.3527 79.9285 81.0509 80.2809 80.6999V57.2767C79.9281 56.9256 79.5301 56.623 79.0974 56.3769C78.8667 56.2524 78.636 56.1393 78.4053 56.0332Z" fill="white"/>
<path opacity="0.4" d="M76.4521 82.5683C76.8144 82.4887 77.1725 82.3909 77.5249 82.2753V55.6914C77.1728 55.5748 76.8147 55.477 76.4521 55.3984V82.5683Z" fill="white"/>
<path opacity="0.1" d="M81.1391 58.6264C80.677 58.0052 80.086 57.4912 79.4065 57.1199C76.5343 55.4612 72.0033 55.3481 68.9003 56.7762V56.1948C68.7826 56.2548 68.6696 56.3125 68.5496 56.3771C67.0939 57.2168 66.3672 58.3196 66.3672 59.42V62.3315V74.3765V78.5476C66.3672 79.6481 67.0939 80.7485 68.5496 81.5883C71.4588 83.2701 76.1767 83.2701 79.0858 81.5883C79.5794 81.3123 80.0275 80.9622 80.4147 80.5501C79.0305 81.8444 75.5699 82.5572 73.016 82.052C70.4622 81.5468 68.9003 79.9134 68.9003 78.7506V74.9625C70.3376 75.74 72.2178 76.116 74.0542 76.116V68.3782C72.2086 68.3782 70.3376 68.0945 68.9003 67.3216V63.9164C72.0033 65.3445 76.5343 65.2315 79.4065 63.5727C80.1624 63.1664 80.803 62.5751 81.2683 61.854V59.42C81.2674 59.1503 81.2238 58.8825 81.1391 58.6264Z" fill="black"/>
<path opacity="0.1" d="M67.6245 79.0802V57.0273C66.7871 57.7494 66.3672 58.5846 66.3672 59.4197V78.5473C66.3672 79.6478 67.0939 80.7482 68.5496 81.588C69.4312 82.0783 70.3864 82.4226 71.3781 82.6077C68.5796 81.8487 67.6245 79.9361 67.6245 79.0802Z" fill="black"/>
<path d="M81.7193 56.0168C81.7193 54.8494 80.9488 53.6798 79.4123 52.7869C76.3255 51.0059 71.3216 51.0059 68.2348 52.7869C66.6914 53.6775 65.9277 54.8471 65.9277 56.0168V59.5188C65.9277 60.6862 66.6983 61.8559 68.2348 62.7487C71.3216 64.5297 76.3255 64.5297 79.4123 62.7487C80.9557 61.8582 81.7193 60.6885 81.7193 59.5188V56.0168Z" fill="#E0E0E0"/>
<mask id="mask0_483_54913" style="mask-type:luminance" maskUnits="userSpaceOnUse" x="65" y="51" width="17" height="14">
<path d="M81.7218 56.0168C81.7218 54.8494 80.9512 53.6798 79.4148 52.7869C76.3279 51.0059 71.324 51.0059 68.2372 52.7869C66.6938 53.6775 65.9302 54.8471 65.9302 56.0168V59.5188C65.9302 60.6862 66.7007 61.8559 68.2372 62.7487C71.324 64.5297 76.3279 64.5297 79.4148 62.7487C80.9582 61.8582 81.7218 60.6885 81.7218 59.5188V56.0168Z" fill="white"/>
</mask>
<g mask="url(#mask0_483_54913)">
<g opacity="0.2">
<path d="M81.9062 55.6919H81.5278V61.1411H81.9062V55.6919Z" fill="black"/>
<path d="M81.0346 57.1631H80.6562V62.6423H81.0346V57.1631Z" fill="black"/>
<path d="M79.7133 58.1763H79.335V63.6831H79.7133V58.1763Z" fill="black"/>
<path d="M78.2089 58.8057H77.8306V64.3425H78.2089V58.8057Z" fill="black"/>
<path d="M76.5551 59.2256H76.1768V64.7924H76.5551V59.2256Z" fill="black"/>
<path d="M74.8032 59.436H74.4248V65.0329H74.8032V59.436Z" fill="black"/>
<path d="M73.0258 59.4297H72.6475V65.0542H73.0258V59.4297Z" fill="black"/>
<path d="M71.2905 59.1982H70.9121V64.8528H71.2905V59.1982Z" fill="black"/>
<path d="M69.6645 58.7295H69.2861V64.414H69.6645V58.7295Z" fill="black"/>
<path d="M68.1908 58.0059H67.8125V63.7204H68.1908V58.0059Z" fill="black"/>
<path d="M67.0204 56.9971H66.6421V62.7393H67.0204V56.9971Z" fill="black"/>
<path d="M66.1005 55.3682H65.7222V61.1403H66.1005V55.3682Z" fill="black"/>
</g>
<path opacity="0.1" d="M75.7074 63.9436C71.797 63.9667 69.7322 62.6955 69.107 61.6597C68.6294 60.8707 68.5487 59.4172 68.5487 57.9684C68.5487 57.9684 68.108 54.6832 68.1934 54.674C68.2788 54.6647 67.2545 54.4433 66.4954 54.291C66.1266 54.789 65.9233 55.3901 65.9141 56.0097V59.5187C65.9141 60.6861 66.6846 61.8558 68.2211 62.7486C70.2559 63.9159 73.112 64.3127 75.7074 63.9436Z" fill="black"/>
</g>
<path d="M73.8165 60.5807C78.1817 60.5807 81.7204 58.5376 81.7204 56.0174C81.7204 53.4972 78.1817 51.4541 73.8165 51.4541C69.4513 51.4541 65.9126 53.4972 65.9126 56.0174C65.9126 58.5376 69.4513 60.5807 73.8165 60.5807Z" fill="#EBEBEB"/>
<path d="M79.8321 58.973C82.4805 57.1804 82.3421 54.4858 79.4076 52.7901C77.9034 51.9227 75.947 51.4797 73.9699 51.459C72.9588 51.6161 71.9828 51.9487 71.0861 52.4418C68.4192 53.9667 68.4192 57.012 71.0861 58.537C73.467 59.8981 77.1675 60.0411 79.8321 58.973Z" fill="#F5F5F5"/>
<path opacity="0.1" d="M68.9782 81.2491C71.6497 82.5918 75.9846 82.5918 78.6561 81.2491C81.3277 79.9064 81.33 77.7286 78.6561 76.3859C75.9823 75.0432 71.6497 75.0432 68.9782 76.3859C66.3066 77.7286 66.3043 79.9064 68.9782 81.2491Z" fill="black"/>
<path d="M66.3672 64.4473C66.3672 65.5477 67.0939 66.6482 68.5496 67.4879C70.0054 68.3277 71.911 68.7476 73.8166 68.7476V76.3308C71.911 76.3308 70.0031 75.9109 68.5496 75.0711C67.0962 74.2314 66.3672 73.1309 66.3672 72.0305V64.4473Z" fill="white"/>
<path d="M66.5195 57.7676C66.5195 57.7676 69.0896 60.356 74.0543 60.2199C79.019 60.0838 81.0077 57.3731 81.2684 56.5287C81.4021 56.0337 81.4109 55.5133 81.2942 55.0141C81.1774 54.5148 80.9387 54.0523 80.5993 53.668C80.9353 53.9622 81.208 54.3218 81.4008 54.7247C81.5935 55.1277 81.7023 55.5656 81.7205 56.0119V59.5186C81.7205 59.8139 81.8728 60.8336 80.2694 62.1532C80.2694 62.1532 81.2107 61.0851 81.2107 60.0584V57.6361C81.2107 57.6361 79.4527 60.5752 74.0589 60.5752C68.6651 60.5752 66.7918 58.2082 66.5195 57.7676Z" fill="white"/>
<path d="M26.2514 56.2637H11.7842V72.591H26.2514V56.2637Z" fill="#407BFF"/>
<path d="M33.4848 56.2637H19.0176V72.591H33.4848V56.2637Z" fill="#407BFF"/>
<path opacity="0.7" d="M26.2514 56.2637H11.7842V72.591H26.2514V56.2637Z" fill="white"/>
<path opacity="0.2" d="M33.4811 56.2637H26.2334V72.591H33.4811V56.2637Z" fill="white"/>
<path d="M29.7068 67.687C30.7235 67.6633 31.5143 66.2209 31.4733 64.4655C31.4322 62.71 30.5748 61.3062 29.5581 61.33C28.5414 61.3538 27.7506 62.7961 27.7916 64.5516C27.8327 66.307 28.6902 67.7108 29.7068 67.687Z" fill="white"/>
<path d="M30.743 63.9714L29.9576 63.9902L29.927 62.6592L29.3203 62.6733L29.3508 64.0043L28.4878 64.0255L28.5113 65.0625L29.3744 65.0414L29.4073 66.3606L30.014 66.3465L29.9834 65.0273L30.7689 65.0085L30.743 63.9714Z" fill="#407BFF"/>
<path d="M20.7788 56.2637H17.8486V59.1938H20.7788V56.2637Z" fill="#F5F5F5"/>
<path d="M20.7788 62.1162H17.8486V72.5904H20.7788V62.1162Z" fill="#F5F5F5"/>
<path d="M30.8862 42.8706H19.0176V56.2678H30.8862V42.8706Z" fill="#407BFF"/>
<path d="M36.8208 42.8706H24.9521V56.2678H36.8208V42.8706Z" fill="#407BFF"/>
<path opacity="0.7" d="M29.0355 42.8706H19.0176V56.2678H29.0355V42.8706Z" fill="white"/>
<path opacity="0.2" d="M36.8219 42.8706H29.0356V56.2678H36.8219V42.8706Z" fill="white"/>
<path d="M34.4367 49.6034C34.472 51.0426 33.8229 52.2278 32.9881 52.2466C32.1533 52.2654 31.4501 51.1132 31.4172 49.674C31.3843 48.2348 32.0333 47.0425 32.8658 47.0425C33.6983 47.0425 34.4038 48.1619 34.4367 49.6034Z" fill="white"/>
<path d="M33.8448 49.1966L33.2004 49.2107L33.1746 48.1172L32.676 48.1289L32.7019 49.2224L31.9917 49.2389L32.0129 50.0902L32.7207 50.0737L32.7466 51.1578L33.2451 51.1437L33.2192 50.062L33.8636 50.0479L33.8448 49.1966Z" fill="#407BFF"/>
<path d="M23.9926 42.8706H21.5869V56.2678H23.9926V42.8706Z" fill="#F5F5F5"/>
</svg>
