<svg width="430" height="308" viewBox="0 0 430 308" fill="none" xmlns="http://www.w3.org/2000/svg">
<mask id="mask0_483_51939" style="mask-type:alpha" maskUnits="userSpaceOnUse" x="-9" y="18" width="445" height="263">
<path d="M432.343 18.8802L-8.70019 33.1236L-3.52473 265.986C84.799 262.138 181.668 270.348 181.668 270.348C181.668 270.348 345.818 292.702 435.296 271.382L432.343 18.8802Z" fill="#D9D9D9" stroke="black" stroke-width="0.554163"/>
</mask>
<g mask="url(#mask0_483_51939)">
<mask id="mask1_483_51939" style="mask-type:luminance" maskUnits="userSpaceOnUse" x="-165" y="108" width="209" height="159">
<path d="M43.418 108.721H-165V266.747H43.418V108.721Z" fill="white"/>
</mask>
<g mask="url(#mask1_483_51939)">
<g opacity="0.67">
<path d="M21.1509 219.733C10.1775 216.039 -2.80145 220.935 -9.19943 231.176C-8.03268 217.02 -13.6605 201.351 -25.5947 195.164C-37.5289 188.977 -54.885 196.872 -56.0288 211.029C-61.893 189.679 -68.4206 167.497 -82.9704 151.616C-87.9547 146.246 -93.8856 141.992 -100.418 139.102C-105.766 136.189 -111.718 134.783 -117.713 135.015C-123.708 134.782 -129.66 136.188 -135.008 139.102C-141.545 142.002 -147.479 146.266 -152.463 151.648C-167.006 167.529 -173.533 189.712 -179.405 211.061C-180.541 196.905 -197.897 188.993 -209.832 195.197C-221.766 201.4 -227.371 217.052 -226.234 231.209C-232.632 220.967 -245.604 216.072 -256.577 219.766C-266.102 222.97 -273.407 232.419 -275.031 242.913H39.5974C37.9731 232.419 30.6678 223.003 21.1509 219.733Z" fill="#2192FF" fill-opacity="0.2"/>
</g>
</g>
<mask id="mask2_483_51939" style="mask-type:luminance" maskUnits="userSpaceOnUse" x="289" y="108" width="172" height="153">
<path d="M460.308 108.092H289.188V260.404H460.308V108.092Z" fill="white"/>
</mask>
<g mask="url(#mask2_483_51939)">
<g opacity="0.67">
<path d="M323.252 245.602C318.341 240.453 313.186 234.813 311.981 227.571C310.776 220.33 315.794 211.535 322.657 212.369C318.789 205.538 315.567 198.309 313.041 190.791C310.753 183.909 308.992 176.397 310.753 169.327C311.531 166.231 312.953 163.363 314.913 160.939C316.872 158.515 319.318 156.598 322.066 155.331C324.815 154.064 327.796 153.481 330.785 153.624C333.774 153.768 336.694 154.635 339.327 156.16C340.692 137.549 352.29 120.017 368.548 113.282C384.806 106.547 404.854 111.484 416.163 125.673C427.647 140.091 429.127 160.508 430.05 179.43C436.913 171.428 448.626 167.169 457.433 172.539C464.297 176.732 467.598 185.396 469.269 193.676C472.186 208.258 471.567 223.398 467.469 237.649L323.252 245.602Z" fill="#2192FF" fill-opacity="0.2"/>
</g>
</g>
<mask id="mask3_483_51939" style="mask-type:luminance" maskUnits="userSpaceOnUse" x="405" y="122" width="48" height="122">
<path d="M447.845 218.344C447.315 217.569 446.934 216.688 446.724 215.753C446.473 214.192 447.113 212.655 447.632 211.217C450.575 203.109 449.813 192.802 445.893 185.552C446.454 185.286 446.957 184.899 447.373 184.416C447.996 183.557 448.285 182.474 448.181 181.392C448.069 180.323 447.831 179.273 447.472 178.269C446.802 179.4 446.036 180.461 445.184 181.441C444.836 181.908 444.537 182.415 444.292 182.953C443.488 181.943 442.93 180.735 442.667 179.438C442.362 177.338 443.331 175.351 444.055 173.447C447.556 164.35 445.771 152.065 439.999 145.477C438.389 143.655 436.514 142.208 435.263 139.919C433.677 137.001 433.364 133.193 432.556 129.735C431.747 126.278 429.955 122.673 427.302 122.379C424.038 122.036 421.758 126.883 421.155 131.288C420.553 135.694 420.767 140.508 418.997 144.276C418.117 145.896 417.096 147.423 415.947 148.837C415.947 148.542 415.909 148.24 415.894 147.938C415.906 147.402 415.788 146.872 415.551 146.401C415.366 146.137 415.142 145.907 414.887 145.723L412.683 143.9C412.753 146.279 413.534 148.571 414.91 150.439C414.635 150.913 414.384 151.403 414.147 151.902C413.901 151.601 413.628 151.328 413.331 151.084C412.065 150.167 410.673 149.466 409.206 149.008C409.748 150.499 410.449 151.917 411.295 153.234C411.707 153.937 412.253 154.538 412.897 154.999C409.984 163.99 411.578 175.621 413.431 185.666C405.324 192.589 403.975 210.432 410.868 219.472C406.667 222.888 404.386 230.22 405.53 236.726C405.961 239.218 406.901 241.576 408.283 243.633H450.766C451.761 241.453 452.368 239.095 452.558 236.677C453.046 230.106 450.88 223.55 447.845 218.344Z" fill="white"/>
</mask>
<g mask="url(#mask3_483_51939)">
<path d="M447.845 218.344C447.315 217.569 446.934 216.688 446.724 215.753C446.473 214.192 447.113 212.655 447.632 211.217C450.575 203.109 449.813 192.802 445.893 185.552C446.454 185.286 446.957 184.899 447.373 184.416C447.996 183.557 448.285 182.474 448.181 181.392C448.069 180.323 447.831 179.273 447.472 178.269C446.802 179.4 446.036 180.461 445.184 181.441C444.836 181.908 444.537 182.415 444.292 182.953C443.488 181.943 442.93 180.735 442.667 179.438C442.362 177.338 443.331 175.351 444.055 173.447C447.556 164.35 445.771 152.065 439.999 145.477C438.389 143.655 436.514 142.208 435.263 139.919C433.677 137.001 433.364 133.193 432.556 129.735C431.747 126.278 429.955 122.673 427.302 122.379C424.038 122.036 421.758 126.883 421.155 131.288C420.553 135.694 420.767 140.508 418.997 144.276C418.117 145.896 417.096 147.423 415.947 148.837C415.947 148.542 415.909 148.24 415.894 147.938C415.906 147.402 415.788 146.872 415.551 146.401C415.366 146.137 415.142 145.907 414.887 145.723L412.683 143.9C412.753 146.279 413.534 148.571 414.91 150.439C414.635 150.913 414.384 151.403 414.147 151.902C413.901 151.601 413.628 151.328 413.331 151.084C412.065 150.167 410.673 149.466 409.206 149.008C409.748 150.499 410.449 151.917 411.295 153.234C411.707 153.937 412.253 154.538 412.897 154.999C409.984 163.99 411.578 175.621 413.431 185.666C405.324 192.589 403.975 210.432 410.868 219.472C406.667 222.888 404.386 230.22 405.53 236.726C405.961 239.218 406.901 241.576 408.283 243.633H450.766C451.761 241.453 452.368 239.095 452.558 236.677C453.046 230.106 450.88 223.55 447.845 218.344Z" fill="#00847E"/>
<path opacity="0.49" d="M421.91 245.643C421.91 245.643 416.214 244.556 416.214 236.276C416.214 236.276 412.638 235.941 411.334 233.522C411.14 233.159 411.006 232.764 410.937 232.353C410.327 228.871 414.796 234.102 415.612 234.536C416.428 234.969 414.186 231.707 413.98 230.179C413.774 228.651 416.42 231.92 416.42 231.92C416.42 231.92 412.157 225.169 416.824 221.245C416.824 221.245 403.822 210.792 416.214 189.884C415.681 188.126 415.408 186.289 415.406 184.44L417.434 186.402C417.434 186.402 413.164 160.794 419.996 151.101C420.156 150.88 420.317 150.667 420.484 150.463C420.484 150.463 424.145 140.876 424.145 135.645C424.145 130.414 424.953 120.18 428.407 119.968C431.862 119.755 445.275 145.665 448.326 156.749C451.376 167.832 455.441 204.236 455.441 204.236L454.831 241.695L453 245.839L421.91 245.643Z" fill="#10566D"/>
<path d="M420.483 161.783C420.483 161.783 418.653 158.735 419.873 156.34C420.477 157.074 420.859 157.988 420.968 158.96C421.077 159.932 420.908 160.917 420.483 161.783Z" fill="#10566D"/>
<path d="M419.471 177.231C419.471 177.231 417.641 174.182 418.861 171.788C419.463 172.523 419.844 173.436 419.953 174.408C420.062 175.38 419.894 176.364 419.471 177.231Z" fill="#10566D"/>
<path d="M425.159 151.076C425.159 151.076 423.329 148.027 424.549 145.633C425.153 146.367 425.535 147.28 425.644 148.253C425.753 149.225 425.584 150.209 425.159 151.076Z" fill="#00847E"/>
<path d="M420.69 225.822C420.69 225.822 418.86 222.774 420.08 220.379C420.684 221.114 421.065 222.027 421.174 222.999C421.283 223.971 421.114 224.955 420.69 225.822Z" fill="#00847E"/>
<path d="M426.585 144.578C426.585 144.578 424.755 141.53 425.975 139.135C426.579 139.869 426.96 140.783 427.069 141.755C427.178 142.727 427.009 143.711 426.585 144.578Z" fill="#00847E"/>
<path d="M423.74 166.794C423.74 166.794 421.91 163.745 423.13 161.35C423.734 162.085 424.115 162.998 424.224 163.97C424.333 164.942 424.164 165.927 423.74 166.794Z" fill="#00847E"/>
<path d="M415.611 203.386C415.611 203.386 413.781 200.338 415.001 197.943C415.604 198.678 415.986 199.591 416.095 200.563C416.204 201.535 416.035 202.519 415.611 203.386Z" fill="#00847E"/>
<path d="M418.86 194.894C418.86 194.894 417.03 191.846 418.25 189.451C418.853 190.185 419.235 191.099 419.344 192.071C419.453 193.043 419.284 194.027 418.86 194.894Z" fill="#00847E"/>
<path d="M420.652 168.641C420.652 168.641 417.846 166.622 418.075 163.9C418.901 164.319 419.59 164.996 420.05 165.842C420.51 166.688 420.72 167.664 420.652 168.641Z" fill="#10566D"/>
<path d="M425.739 199.128C425.739 199.128 422.932 197.109 423.161 194.396C423.988 194.811 424.678 195.486 425.138 196.331C425.598 197.177 425.808 198.152 425.739 199.128Z" fill="#10566D"/>
<path d="M422.696 190.856C422.696 190.856 419.882 188.837 420.111 186.116C420.939 186.533 421.629 187.209 422.09 188.056C422.552 188.902 422.763 189.879 422.696 190.856Z" fill="#10566D"/>
<path d="M419.035 215.467C419.035 215.467 416.228 213.448 416.457 210.734C417.283 211.151 417.972 211.826 418.433 212.671C418.893 213.516 419.103 214.491 419.035 215.467Z" fill="#10566D"/>
<path d="M423.916 205.234C423.916 205.234 421.102 203.215 421.331 200.493C422.158 200.91 422.848 201.587 423.31 202.433C423.771 203.279 423.983 204.256 423.916 205.234Z" fill="#10566D"/>
</g>
<mask id="mask4_483_51939" style="mask-type:luminance" maskUnits="userSpaceOnUse" x="284" y="188" width="26" height="66">
<path d="M306.9 239.775C306.619 239.364 306.417 238.897 306.306 238.401C306.253 237.551 306.422 236.702 306.794 235.949C307.551 233.734 307.86 231.371 307.7 229.017C307.539 226.664 306.913 224.374 305.863 222.3C306.154 222.157 306.414 221.951 306.626 221.695C306.964 221.232 307.12 220.645 307.06 220.06C307 219.5 306.872 218.95 306.679 218.425C306.34 219.036 305.946 219.611 305.505 220.142C305.319 220.396 305.158 220.67 305.024 220.959C304.599 220.423 304.304 219.783 304.163 219.096C304.003 217.976 304.513 216.913 304.925 215.9C306.786 211.061 305.833 204.531 302.76 201.024C301.815 200.148 300.97 199.155 300.243 198.065C299.404 196.512 299.237 194.485 298.802 192.646C298.367 190.807 297.422 188.895 296.011 188.739C294.272 188.56 293.06 191.134 292.739 193.48C292.419 195.826 292.534 198.384 291.588 200.387C291.128 201.26 290.586 202.082 289.971 202.839V202.365C289.978 202.08 289.915 201.798 289.788 201.547C289.691 201.405 289.572 201.281 289.437 201.179L288.263 200.215C288.3 201.479 288.715 202.696 289.445 203.689C289.3 203.942 289.163 204.204 289.033 204.465C288.902 204.309 288.756 204.166 288.599 204.04C287.928 203.553 287.189 203.183 286.41 202.945C286.702 203.735 287.073 204.488 287.516 205.193C287.738 205.563 288.029 205.88 288.37 206.124C286.845 210.93 287.668 217.101 288.652 222.471C284.344 226.149 283.627 235.647 287.295 240.453C285.053 242.268 283.848 246.174 284.45 249.632C284.679 250.959 285.179 252.215 285.914 253.31H308.517C309.042 252.149 309.363 250.893 309.463 249.607C309.61 246.121 308.712 242.675 306.9 239.775Z" fill="white"/>
</mask>
<g mask="url(#mask4_483_51939)">
<path d="M306.9 239.775C306.619 239.364 306.417 238.897 306.306 238.401C306.253 237.551 306.422 236.702 306.794 235.949C307.551 233.734 307.86 231.371 307.7 229.017C307.539 226.664 306.913 224.374 305.863 222.3C306.154 222.157 306.414 221.951 306.626 221.695C306.964 221.232 307.12 220.645 307.06 220.06C307 219.5 306.872 218.95 306.679 218.425C306.34 219.036 305.946 219.611 305.505 220.142C305.319 220.396 305.158 220.67 305.024 220.959C304.599 220.423 304.304 219.783 304.163 219.096C304.003 217.976 304.513 216.913 304.925 215.9C306.786 211.061 305.833 204.531 302.76 201.024C301.815 200.148 300.97 199.155 300.243 198.065C299.404 196.512 299.237 194.485 298.802 192.646C298.367 190.807 297.422 188.895 296.011 188.739C294.272 188.56 293.06 191.134 292.739 193.48C292.419 195.826 292.534 198.384 291.588 200.387C291.128 201.26 290.586 202.082 289.971 202.839V202.365C289.978 202.08 289.915 201.798 289.788 201.547C289.691 201.405 289.572 201.281 289.437 201.179L288.263 200.215C288.3 201.479 288.715 202.696 289.445 203.689C289.3 203.942 289.163 204.204 289.033 204.465C288.902 204.309 288.756 204.166 288.599 204.04C287.928 203.553 287.189 203.183 286.41 202.945C286.702 203.735 287.073 204.488 287.516 205.193C287.738 205.563 288.029 205.88 288.37 206.124C286.845 210.93 287.668 217.101 288.652 222.471C284.344 226.149 283.627 235.647 287.295 240.453C285.053 242.268 283.848 246.174 284.45 249.632C284.679 250.959 285.179 252.215 285.914 253.31H308.517C309.042 252.149 309.363 250.893 309.463 249.607C309.61 246.121 308.712 242.675 306.9 239.775Z" fill="#00847E"/>
<path opacity="0.49" d="M293.106 254.299C293.106 254.299 290.055 253.719 290.055 249.313C290.055 249.313 288.149 249.141 287.455 247.85C287.352 247.657 287.28 247.447 287.242 247.229C286.921 245.373 289.301 248.161 289.728 248.389C290.155 248.618 288.965 246.886 288.866 246.076C288.767 245.267 290.162 247 290.162 247C290.162 247 287.874 243.404 290.376 241.278C290.376 241.278 283.459 235.721 290.055 224.596C289.769 223.66 289.622 222.681 289.621 221.695L290.704 222.741C290.704 222.741 288.416 209.116 292.069 203.942C292.153 203.828 292.236 203.713 292.328 203.607C292.419 203.501 294.272 198.507 294.272 195.728C294.272 192.949 294.707 187.497 296.56 187.383C298.413 187.268 305.528 201.057 307.152 206.999C308.777 212.941 310.965 232.255 310.965 232.255L310.645 252.19L309.669 254.389L293.106 254.299Z" fill="#10566D"/>
<path d="M292.35 209.688C292.35 209.688 291.374 208.053 292.023 206.795C292.344 207.184 292.548 207.67 292.607 208.187C292.665 208.703 292.576 209.227 292.35 209.688Z" fill="#10566D"/>
<path d="M291.778 217.911C291.778 217.911 290.802 216.276 291.45 215.017C291.771 215.407 291.974 215.893 292.033 216.409C292.092 216.926 292.003 217.449 291.778 217.911Z" fill="#10566D"/>
<path d="M294.83 204.007C294.83 204.007 293.854 202.373 294.502 201.114C294.823 201.504 295.026 201.99 295.085 202.506C295.143 203.023 295.054 203.546 294.83 204.007Z" fill="#00847E"/>
<path d="M292.458 243.755C292.458 243.755 291.482 242.12 292.13 240.862C292.452 241.251 292.656 241.737 292.715 242.254C292.773 242.77 292.684 243.294 292.458 243.755Z" fill="#00847E"/>
<path d="M295.592 200.534C295.592 200.534 294.616 198.899 295.264 197.64C295.586 198.03 295.79 198.516 295.848 199.032C295.907 199.549 295.817 200.073 295.592 200.534Z" fill="#00847E"/>
<path d="M294.067 212.377C294.067 212.377 293.099 210.742 293.747 209.484C294.069 209.874 294.272 210.36 294.329 210.877C294.386 211.394 294.295 211.917 294.067 212.377Z" fill="#00847E"/>
<path d="M289.749 231.822C289.749 231.822 288.781 230.187 289.429 228.92C289.75 229.312 289.953 229.799 290.01 230.318C290.068 230.836 289.977 231.36 289.749 231.822Z" fill="#00847E"/>
<path d="M291.48 227.302C291.48 227.302 290.512 225.667 291.16 224.4C291.479 224.793 291.681 225.28 291.738 225.798C291.795 226.316 291.705 226.84 291.48 227.302Z" fill="#00847E"/>
<path d="M292.441 213.333C292.441 213.333 290.916 212.263 291.069 210.816C291.508 211.038 291.875 211.397 292.12 211.846C292.365 212.296 292.477 212.814 292.441 213.333Z" fill="#10566D"/>
<path d="M295.142 229.541C295.142 229.541 293.617 228.463 293.769 227.016C294.21 227.238 294.577 227.599 294.822 228.05C295.067 228.501 295.179 229.021 295.142 229.541Z" fill="#10566D"/>
<path d="M293.524 225.152C293.524 225.152 291.999 224.081 292.152 222.635C292.591 222.856 292.958 223.216 293.203 223.665C293.448 224.115 293.56 224.633 293.524 225.152Z" fill="#10566D"/>
<path d="M291.573 238.246C291.573 238.246 290.048 237.175 290.201 235.729C290.641 235.949 291.009 236.307 291.254 236.757C291.5 237.207 291.611 237.727 291.573 238.246Z" fill="#10566D"/>
<path d="M294.173 232.811C294.173 232.811 292.648 231.732 292.801 230.285C293.24 230.509 293.606 230.87 293.851 231.321C294.096 231.771 294.208 232.291 294.173 232.811Z" fill="#10566D"/>
</g>
<g opacity="0.08">
<path d="M56.4574 249.362C52.6445 243.766 48.8317 238.162 45.0189 232.549C38.7505 223.33 32.4136 214.02 24.5515 206.836C16.6894 199.651 7.05812 194.673 -2.75616 195.393C-16.368 196.39 -27.6846 207.735 -39.0773 216.856C-42.2725 219.415 -45.6507 221.875 -49.4254 222.659C-52.6511 223.322 -55.953 222.709 -59.2321 222.782C-66.3697 222.929 -73.2557 226.362 -79.2343 231.127C-85.2128 235.892 -90.3754 241.965 -95.5151 247.997L56.4574 249.362Z" fill="#2192FF" fill-opacity="0.8"/>
</g>
<g opacity="0.08">
<path d="M379.269 256.857L366.305 240.036C359.198 230.817 351.999 221.515 343.085 214.323C334.17 207.13 323.258 202.16 312.094 202.88C296.652 203.885 283.81 215.222 270.915 224.343C267.285 226.902 263.45 229.362 259.164 230.146C255.504 230.808 251.752 230.195 248.038 230.269C239.94 230.424 232.123 233.849 225.344 238.614C218.565 243.379 212.693 249.452 206.859 255.484L379.269 256.857Z" fill="#2192FF" fill-opacity="0.5"/>
</g>
<path d="M357.842 246.673V195.147L345.26 175.376L330.542 163.418L315.817 175.376L303.234 195.147V246.673H357.842Z" fill="#D65804"/>
<g style="mix-blend-mode:multiply" opacity="0.19">
<path d="M304.301 200.656C305.75 198.27 307.145 195.834 308.541 193.415C310.92 189.287 313.383 185.241 316.029 181.318C317.846 178.696 319.872 176.248 322.084 174.003C324.626 171.315 327.34 168.822 330.206 166.54C330.892 165.992 331.616 165.429 332.364 164.905L330.541 163.426L315.824 175.384L303.218 195.147V202.373C303.6 201.801 303.981 201.228 304.301 200.656Z" fill="#975F26"/>
</g>
<path d="M424.977 195.082H357.085V246.673H424.977V195.082Z" fill="#D65804"/>
<g style="mix-blend-mode:multiply" opacity="0.21">
<path d="M424.787 194.82H356.895V246.411H424.787V194.82Z" fill="#10566D"/>
</g>
<g style="mix-blend-mode:multiply" opacity="0.56">
<path d="M326.842 181.963H320.23V193.365H326.842V181.963Z" fill="#10566D"/>
</g>
<path d="M319.469 181.138V194.216H327.621V181.138H319.469ZM326.85 193.398H320.239V181.955H326.858L326.85 193.398Z" fill="white"/>
<g style="mix-blend-mode:multiply" opacity="0.56">
<path d="M336.199 181.963H329.587V193.365H336.199V181.963Z" fill="#10566D"/>
</g>
<g style="mix-blend-mode:multiply" opacity="0.14">
<path d="M326.857 191.396V184.154C325.118 187.301 323.303 190.407 321.32 193.366H325.896C326.201 192.704 326.521 192.05 326.857 191.396Z" fill="#10566D"/>
</g>
<g style="mix-blend-mode:multiply" opacity="0.14">
<path d="M331.662 193.366H336.238V184.375C334.682 187.361 333.157 190.358 331.662 193.366Z" fill="#10566D"/>
</g>
<path d="M328.825 181.138V194.216H336.969V181.138H328.825ZM336.199 193.398H329.587V181.955H336.199V193.398Z" fill="white"/>
<g style="mix-blend-mode:multiply" opacity="0.56">
<path d="M375.837 203.983H370.354V213.44H375.837V203.983Z" fill="#10566D"/>
</g>
<path d="M369.715 203.296V214.118H376.479V203.296H369.715ZM375.815 213.431H370.325V203.983H375.808L375.815 213.431Z" fill="white"/>
<g style="mix-blend-mode:multiply" opacity="0.56">
<path d="M397.664 203.983H392.181V213.44H397.664V203.983Z" fill="#10566D"/>
</g>
<path d="M391.54 203.296V214.118H398.304V203.296H391.54ZM397.64 213.431H392.157V203.983H397.64V213.431Z" fill="white"/>
<g style="mix-blend-mode:multiply" opacity="0.56">
<path d="M417.147 203.705H411.664V213.162H417.147V203.705Z" fill="#10566D"/>
</g>
<path d="M411.03 203.018V213.84H417.787V203.018H411.03ZM417.131 213.153H411.648V203.705H417.131V213.153Z" fill="white"/>
<g style="mix-blend-mode:overlay" opacity="0.23">
<path d="M316.503 196.054H303.234V197.518H316.503V196.054Z" fill="white"/>
</g>
<g style="mix-blend-mode:overlay" opacity="0.23">
<path d="M357.056 202.307H343.788V203.77H357.056V202.307Z" fill="white"/>
</g>
<g style="mix-blend-mode:overlay" opacity="0.23">
<path d="M423.529 215.859H410.261V217.322H423.529V215.859Z" fill="white"/>
</g>
<g style="mix-blend-mode:overlay" opacity="0.23">
<path d="M395.87 231.012H382.602V232.475H395.87V231.012Z" fill="white"/>
</g>
<g style="mix-blend-mode:overlay" opacity="0.23">
<path d="M404.053 233.939H390.784V235.402H404.053V233.939Z" fill="white"/>
</g>
<g style="mix-blend-mode:overlay" opacity="0.23">
<path d="M415.093 218.924H401.825V220.387H415.093V218.924Z" fill="white"/>
</g>
<g style="mix-blend-mode:overlay" opacity="0.23">
<path d="M363.125 239.922H349.856V241.385H363.125V239.922Z" fill="white"/>
</g>
<g style="mix-blend-mode:overlay" opacity="0.23">
<path d="M349.239 205.094H335.971V206.558H349.239V205.094Z" fill="white"/>
</g>
<g style="mix-blend-mode:multiply" opacity="0.56">
<path d="M327.011 218.164H312.834V246.166H327.011V218.164Z" fill="#10566D"/>
</g>
<path d="M312.369 217.821V246.706H327.529V217.821H312.369ZM326.568 245.889H313.292V218.654H326.568V245.889Z" fill="white"/>
<path d="M326.33 245.993L327.161 245.527L313.844 218.2L313.012 218.666L326.33 245.993Z" fill="white"/>
<path d="M327.155 218.655L326.29 218.171L312.835 245.78L313.7 246.265L327.155 218.655Z" fill="white"/>
<g style="mix-blend-mode:multiply" opacity="0.56">
<path d="M342.17 218.164H327.994V246.166H342.17V218.164Z" fill="#10566D"/>
</g>
<path d="M327.514 217.821V246.706H342.674V217.821H327.514ZM341.736 245.889H328.452V218.654H341.736V245.889Z" fill="white"/>
<path d="M341.498 246.016L342.329 245.551L329.012 218.224L328.18 218.689L341.498 246.016Z" fill="white"/>
<path d="M342.322 218.662L341.457 218.178L328.002 245.787L328.867 246.272L342.322 218.662Z" fill="white"/>
<g style="mix-blend-mode:multiply" opacity="0.19">
<path d="M424.977 209.508V195.082H357.085L357.253 197.461L424.977 209.508Z" fill="#975F26"/>
</g>
<mask id="mask5_483_51939" style="mask-type:luminance" maskUnits="userSpaceOnUse" x="330" y="163" width="97" height="35">
<path d="M330.539 163.418L345.165 175.915L358.411 197.566L426.135 197.035L413.88 175.735L398.316 163.132L330.539 163.418Z" fill="white"/>
</mask>
<g mask="url(#mask5_483_51939)">
<path d="M330.539 163.418L345.158 175.915L358.403 197.567L426.135 197.035L413.88 175.735L398.316 163.132L330.539 163.418Z" fill="#975F26"/>
<g style="mix-blend-mode:overlay" opacity="0.18">
<path d="M413.148 175.147L398.316 163.132L330.539 163.418L344.258 175.147H413.148Z" fill="white"/>
</g>
<g style="mix-blend-mode:multiply" opacity="0.11">
<path d="M414.345 185.658C408.862 187.015 403.295 187.963 397.713 188.764C396.32 188.971 394.922 189.167 393.519 189.352L392.589 189.483H392.436L392.207 189.524C391.445 189.638 390.644 189.753 389.859 189.851C387.129 190.219 384.391 190.48 381.646 190.668C375.696 191.076 369.725 190.914 363.802 190.186C359.891 189.718 356.032 188.845 352.279 187.579L358.38 197.575L426.104 197.043L418.852 184.44C417.372 184.881 415.855 185.282 414.345 185.658Z" fill="#10566D"/>
</g>
<g style="mix-blend-mode:multiply" opacity="0.21">
<path d="M423.702 198.049L423.893 197.91L419.127 190.096H422.177V189.843L418.997 189.884L414.46 182.429L418.891 182.323V182.078L414.315 182.184L410.556 176.005L410.083 175.637L416.733 175.555V175.31L409.778 175.392L403.921 170.815L409.038 170.758V170.504L403.609 170.57L398.805 166.81L406.308 166.72V166.475L398.5 166.573L392.231 161.669L392.094 161.865L398.118 166.573L390.241 166.671L383.858 161.677L383.721 161.873L389.821 166.671L381.959 166.769L375.462 161.685L375.325 161.889L381.57 166.793L373.724 166.883L367.12 161.718L366.982 161.914L373.342 166.892L365.511 166.99L358.785 161.701L358.648 161.898L365.114 166.965L357.298 167.063L350.496 161.701L350.358 161.906L356.939 167.055L349.131 167.153L342.191 161.71L342.054 161.914L348.749 167.153L340.956 167.251L333.887 161.701L333.75 161.898L340.552 167.235L333.079 167.325V167.57L340.864 167.472L345.638 171.223L334.642 171.354V171.599L345.951 171.469L351.8 176.054L343.503 176.152V176.397L351.99 176.291L356.398 183.525L345.722 183.77V184.023L356.573 183.762L360.722 190.562L348.993 190.709V190.954L360.874 190.807L365.198 197.902L365.389 197.771L361.141 190.807L369.118 190.709L373.51 197.926L373.708 197.787L369.385 190.709L377.369 190.611L381.845 197.967L382.036 197.836L377.643 190.635L385.643 190.537L390.218 197.992L390.409 197.861L385.948 190.505L393.962 190.407L398.576 197.992L398.774 197.853L394.199 190.407L402.228 190.309L406.918 198.008L407.109 197.877L402.48 190.309L410.525 190.21L415.291 198.033L415.482 197.894L410.8 190.202L418.86 190.104L423.702 198.049ZM410.357 176.128L414.033 182.16L406.026 182.348L402.145 175.972L401.801 175.703L409.671 175.596L410.357 176.128ZM392.818 175.547L384.964 175.645L379.115 171.06L386.962 170.97L392.818 175.547ZM387.351 170.962L395.213 170.872L401.069 175.449L393.207 175.547L387.351 170.962ZM384.583 175.645L376.743 175.743L370.894 171.158L378.726 171.068L384.583 175.645ZM376.362 175.743L368.538 175.842L362.697 171.256L370.521 171.166L376.362 175.743ZM368.149 175.85L360.34 175.94L354.492 171.354L362.3 171.264L368.149 175.85ZM368.462 176.087L372.732 183.1L364.802 183.279L360.455 176.152L368.462 176.087ZM368.752 176.087L376.667 175.989L376.835 176.119L380.999 182.952L373.053 183.14L368.752 176.087ZM377.033 175.989L384.895 175.891L385.185 176.119L389.219 182.74L381.258 182.928L377.033 175.989ZM385.368 175.989L385.284 175.931L393.139 175.833L393.558 176.168L397.47 182.585L389.501 182.773L385.368 175.989ZM393.756 175.989L393.543 175.833L401.413 175.735L401.962 176.168L405.774 182.397L397.775 182.544L393.756 175.989ZM409.358 175.367L401.481 175.466L395.625 170.88L403.502 170.79L409.358 175.367ZM398.385 166.769L403.189 170.529L395.304 170.619L390.508 166.867L398.385 166.769ZM390.119 166.867L394.923 170.627L387.099 170.692L382.303 166.941L390.119 166.867ZM381.875 166.965L386.672 170.725L378.825 170.815L374.029 167.063L381.875 166.965ZM373.647 167.071L378.436 170.823L370.605 170.913L365.816 167.161L373.647 167.071ZM365.427 167.169L370.216 170.921L362.392 171.011L357.611 167.259L365.427 167.169ZM357.222 167.268L362.011 171.019L354.202 171.109L349.421 167.366L357.222 167.268ZM341.208 167.464L349.001 167.366L353.782 171.117L345.989 171.207L341.208 167.464ZM352.028 175.94L346.302 171.452L354.095 171.362L359.944 175.948L352.082 176.038L352.028 175.94ZM352.234 176.283L360.203 176.185L364.55 183.32L356.634 183.508L352.234 176.283ZM360.935 190.554L356.825 183.77L364.741 183.582L368.942 190.472L360.935 190.554ZM369.179 190.456L364.985 183.557L372.915 183.369L377.17 190.358L369.179 190.456ZM377.437 190.358L373.175 183.369L381.121 183.181L385.437 190.26L377.437 190.358ZM385.711 190.251L381.395 183.173L389.387 182.952L393.756 190.121L385.711 190.251ZM393.993 190.153L389.661 182.952L397.638 182.764L402.061 190.031L393.993 190.153ZM402.297 190.055L397.867 182.789L405.858 182.601L410.335 189.957L402.297 190.055ZM410.609 189.949L406.133 182.593L414.132 182.405L418.708 189.851L410.609 189.949Z" fill="#10566D"/>
</g>
</g>
<g style="mix-blend-mode:multiply" opacity="0.19">
<path d="M322.641 198.638H309.853V199.823H322.641V198.638Z" fill="#10566D"/>
</g>
<g style="mix-blend-mode:multiply" opacity="0.19">
<path d="M362.988 213.767H350.2V214.952H362.988V213.767Z" fill="#10566D"/>
</g>
<g style="mix-blend-mode:multiply" opacity="0.19">
<path d="M386.353 236.922H373.565V238.107H386.353V236.922Z" fill="#10566D"/>
</g>
<g style="mix-blend-mode:multiply" opacity="0.19">
<path d="M394.513 216.832H381.725V218.017H394.513V216.832Z" fill="#10566D"/>
</g>
<g style="mix-blend-mode:multiply" opacity="0.19">
<path d="M419.647 229.125H406.859V230.31H419.647V229.125Z" fill="#10566D"/>
</g>
<g style="mix-blend-mode:multiply" opacity="0.19">
<path d="M317.791 213.767H305.002V214.952H317.791V213.767Z" fill="#10566D"/>
</g>
<path d="M301.16 198.67L303.28 198.973L316.518 175.981L331.159 163.827L330.541 163.418L315.176 175.31L301.16 198.67Z" fill="white"/>
<path d="M330.075 164.505C330.075 164.505 343.275 175.654 344.289 177.288C345.303 178.923 356.719 198.776 356.719 198.776L426.113 197.035L424.954 195.082L358.732 196.324L346.295 175.654L330.517 163.393" fill="white"/>
<path d="M-67.0929 224.041V230.669H-77.3647V234.944H-67.0929V247.024H-63.0208V234.944H-48.776V247.024H-44.7115V234.944H-30.4667V247.024H-26.3946V234.944H-12.1498V247.024H-8.08527V234.944H6.15953V247.024H10.2317V234.944H24.4765V247.024H28.5486V234.944H42.7858V247.024H46.8579V219.733H-77.3647V224.008L-67.0929 224.041ZM28.5486 230.669V224.041H42.7858V230.669H28.5486ZM10.2469 230.669V224.041H24.4917V230.669H10.2469ZM-8.05477 230.669V224.041H6.19004V230.669H-8.05477ZM-26.3564 230.669V224.041H-12.1116V230.669H-26.3564ZM-44.6581 230.669V224.041H-30.4133V230.669H-44.6581ZM-62.9598 224.041H-48.715V230.669H-63.0208L-62.9598 224.041Z" fill="#975F26"/>
<g style="mix-blend-mode:overlay" opacity="0.23">
<path d="M46.8121 221.736H-77.3647V219.733H46.8579V221.703L46.8121 221.736Z" fill="white"/>
</g>
<g style="mix-blend-mode:multiply" opacity="0.1">
<path d="M46.8121 232.811H46.8579V247.033H42.7858V234.944H28.5486V247.024H24.4765V234.944H10.2317V247.024H6.15953V234.944H-8.08527V247.024H-12.1498V234.944H-26.3946V247.024H-30.4667V234.944H-44.7115V247.024H-48.776V234.944H-63.0208V247.024H-67.0929V234.944H-77.3647V232.811H46.8121Z" fill="#10566D"/>
</g>
<path d="M452.019 234.045C425.817 233.538 399.783 235.876 373.703 238.336C327.766 242.668 281.89 248.071 235.808 250.425C189.421 252.795 143.232 250.539 96.9208 247.613C9.77437 242.104 -77.7076 234.298 -164.999 240.412V290.025H460.308V234.266C457.548 234.176 454.78 234.094 452.019 234.045Z" fill="#38E54D"/>
<path d="M452.019 234.07C425.817 233.563 399.783 235.9 373.703 238.361C327.766 242.693 281.89 248.095 235.808 250.449C189.421 252.828 143.232 250.564 96.9208 247.638C9.77437 242.129 -77.7076 234.323 -164.999 240.437V250.645C-77.7305 244.532 9.77437 252.337 96.9208 257.846C143.232 260.772 189.421 263.028 235.808 260.658C281.89 258.296 327.766 252.901 373.703 248.569C399.783 246.117 425.817 243.763 452.019 244.27C454.78 244.327 457.548 244.409 460.308 244.499V234.29C457.548 234.2 454.78 234.119 452.019 234.07Z" fill="#A1D860"/>
<g opacity="0.38">
<path d="M307.236 107.614C307.072 106.456 306.586 105.379 305.841 104.523C305.096 103.667 304.128 103.071 303.062 102.815C301.996 102.559 300.883 102.654 299.869 103.087C298.854 103.52 297.985 104.272 297.376 105.243C297.612 102.391 296.476 99.2196 294.059 97.969C291.641 96.7185 288.141 98.3123 287.912 101.173C286.723 96.8656 285.404 92.3784 282.468 89.1744C279.532 85.9704 274.453 84.5318 271.082 87.2127C267.14 90.3514 267.636 96.7348 268.612 101.925C267.669 101.651 266.663 101.781 265.808 102.29C264.954 102.798 264.318 103.644 264.036 104.647C263.927 105.158 263.916 105.688 264.005 106.204C264.094 106.72 264.281 107.211 264.555 107.646L307.236 107.614Z" fill="#2192FF" fill-opacity="0.2"/>
</g>
<g opacity="0.38">
<path d="M166.945 140.843C167.107 139.683 167.592 138.604 168.337 137.746C169.082 136.888 170.052 136.291 171.119 136.036C172.186 135.78 173.301 135.877 174.316 136.313C175.331 136.75 176.199 137.505 176.805 138.48C176.577 135.62 177.713 132.457 180.123 131.206C182.532 129.956 186.04 131.549 186.269 134.41C187.458 130.094 188.778 125.615 191.714 122.403C194.649 119.191 199.728 117.761 203.099 120.442C207.041 123.58 206.553 129.964 205.577 135.154C206.52 134.877 207.527 135.007 208.382 135.516C209.237 136.024 209.873 136.871 210.153 137.876C210.262 138.387 210.273 138.917 210.184 139.433C210.094 139.949 209.907 140.44 209.634 140.875L166.945 140.843Z" fill="#2192FF" fill-opacity="0.2"/>
</g>
<g opacity="0.67">
<path d="M342.491 42.6229C341.318 42.261 340.069 42.303 338.92 42.743C337.771 43.1829 336.779 43.9986 336.086 45.075C336.33 42.0835 335.14 38.7732 332.616 37.4736C330.092 36.174 326.432 37.8251 326.188 40.8166C324.945 36.313 323.572 31.6214 320.499 28.2703C319.452 27.1255 318.206 26.2119 316.831 25.5812C315.687 25.0104 314.44 24.7146 313.178 24.7146C311.916 24.7146 310.669 25.0104 309.525 25.5812C308.145 26.197 306.892 27.0967 305.835 28.2294C302.784 31.5805 301.389 36.2721 300.146 40.7757C299.902 37.7842 296.234 36.125 293.717 37.4328C291.201 38.7405 290.004 42.0426 290.248 45.0341C289.614 44.0159 288.709 43.2268 287.65 42.7705C286.59 42.3141 285.427 42.2119 284.313 42.4771C283.198 42.7424 282.185 43.3627 281.405 44.2567C280.626 45.1507 280.117 46.2764 279.945 47.4861H346.411C346.229 46.3715 345.768 45.3307 345.078 44.4744C344.387 43.618 343.494 42.9782 342.491 42.6229Z" fill="#2192FF" fill-opacity="0.2"/>
</g>
<g opacity="0.67">
<path d="M444.149 70.1584C442.976 69.7966 441.727 69.8385 440.577 70.2785C439.428 70.7185 438.436 71.5342 437.743 72.6105C437.987 69.619 436.797 66.3087 434.273 65.001C431.749 63.6932 428.089 65.3606 427.845 68.3521C426.609 63.7995 425.229 59.1079 422.179 55.7568C421.126 54.6182 419.871 53.7176 418.488 53.1086C417.344 52.5377 416.097 52.2419 414.835 52.2419C413.573 52.2419 412.327 52.5377 411.183 53.1086C409.799 53.7176 408.544 54.6182 407.492 55.7568C404.442 59.1079 403.046 63.7995 401.803 68.3031C401.559 65.3116 397.891 63.6523 395.375 64.9519C392.858 66.2515 391.661 69.5699 391.905 72.5614C391.272 71.5433 390.366 70.7542 389.307 70.2978C388.248 69.8415 387.084 69.7392 385.97 70.0045C384.856 70.2697 383.842 70.8901 383.063 71.784C382.283 72.678 381.774 73.8038 381.603 75.0135H448.068C447.882 73.9013 447.42 72.8635 446.73 72.0091C446.041 71.1547 445.149 70.5154 444.149 70.1584Z" fill="#2192FF" fill-opacity="0.2"/>
</g>
<g opacity="0.43">
<path d="M406.02 290.025C406.084 289.29 405.979 288.549 405.715 287.867C405.261 286.815 404.482 285.963 403.509 285.455C402.537 284.947 401.431 284.815 400.377 285.08C401.291 283.931 401.83 282.494 401.913 280.987C401.996 279.48 401.618 277.986 400.837 276.729C400.056 275.473 398.914 274.525 397.584 274.027C396.254 273.53 394.809 273.51 393.469 273.972C392.065 269.322 388.931 263.993 384.432 264.687C381.832 265.096 379.857 267.581 379.094 270.27C378.332 272.959 378.492 275.852 378.682 278.664C377.661 275.885 373.779 275.264 371.651 277.193C369.524 279.122 369.158 282.702 370.279 285.44C369.774 284.287 368.954 283.325 367.928 282.683C366.901 282.042 365.717 281.75 364.532 281.846C363.347 281.943 362.218 282.424 361.294 283.225C360.37 284.026 359.695 285.109 359.359 286.331C359.435 283.356 358.116 280.225 355.653 278.852C353.19 277.479 349.674 278.411 348.53 281.124C347.219 276.809 345.747 272.24 342.43 269.395C339.113 266.551 333.401 266.502 331.327 270.458C330.114 272.763 330.48 275.632 331.121 278.182C329.237 274.839 324.258 274.782 321.642 277.528C319.026 280.274 318.683 284.794 319.881 288.489C319.105 288.182 318.256 288.168 317.472 288.447C316.687 288.726 316.015 289.283 315.564 290.025H406.02Z" fill="#10566D"/>
</g>
<g opacity="0.43">
<path d="M50.3356 290.025C50.3916 289.29 50.2871 288.552 50.0306 287.867C49.575 286.807 48.7896 285.949 47.8089 285.44C46.8282 284.932 45.7131 284.805 44.6544 285.08C45.5681 283.931 46.1073 282.494 46.1903 280.987C46.2732 279.48 45.8955 277.986 45.1142 276.729C44.3329 275.473 43.1908 274.525 41.861 274.027C40.5313 273.53 39.0864 273.51 37.7455 273.972C36.3195 269.322 33.2083 263.993 28.6938 264.687C26.1011 265.096 24.1184 267.581 23.3559 270.27C22.5933 272.959 22.7534 275.852 22.9441 278.664C21.9146 275.885 18.0407 275.264 15.9055 277.193C13.7704 279.122 13.4425 282.669 14.5406 285.44C14.0359 284.287 13.216 283.325 12.1895 282.683C11.163 282.042 9.97866 281.75 8.7937 281.846C7.60875 281.943 6.47927 282.424 5.55527 283.225C4.63128 284.026 3.9565 285.109 3.62055 286.331C3.69681 283.356 2.36993 280.225 -0.0855408 278.852C-2.54102 277.479 -6.06408 278.411 -7.20794 281.124C-8.52719 276.809 -9.99132 272.24 -13.3085 269.395C-16.6257 266.551 -22.3297 266.502 -24.4115 270.458C-25.6164 272.763 -25.258 275.632 -24.6098 278.182C-26.4933 274.839 -31.4729 274.782 -34.0885 277.528C-36.7041 280.274 -37.0473 284.794 -35.8501 288.489C-36.6267 288.183 -37.4769 288.169 -38.2621 288.448C-39.0473 288.727 -39.7212 289.283 -40.1738 290.025H50.3356Z" fill="#10566D"/>
</g>
<path d="M422.849 247.262C422.458 246.821 421.952 246.517 421.397 246.388C420.842 246.26 420.264 246.314 419.738 246.542C420.054 246.304 420.323 246.001 420.529 245.651C420.735 245.301 420.874 244.911 420.938 244.503C421.002 244.095 420.991 243.677 420.903 243.274C420.816 242.871 420.655 242.491 420.43 242.155C420.205 241.818 419.919 241.534 419.591 241.317C419.262 241.099 418.897 240.954 418.515 240.889C418.134 240.825 417.744 240.842 417.369 240.939C416.994 241.037 416.641 241.213 416.329 241.458C416.399 240.21 416.299 238.957 416.032 237.739C415.898 237.131 415.648 236.559 415.298 236.06C414.947 235.56 414.504 235.144 413.996 234.838C413.29 234.513 412.509 234.424 411.755 234.583C411.001 234.742 410.31 235.141 409.771 235.729C408.71 236.941 408.126 238.545 408.139 240.208C407.894 239.566 407.422 239.056 406.826 238.787C406.229 238.519 405.558 238.516 404.959 238.777C404.376 239.043 403.887 239.501 403.564 240.085C403.556 239.294 403.459 238.506 403.274 237.739C403.138 237.131 402.886 236.56 402.534 236.06C402.183 235.561 401.739 235.145 401.231 234.838C400.525 234.513 399.743 234.424 398.99 234.583C398.236 234.742 397.544 235.141 397.006 235.729C395.944 236.94 395.361 238.546 395.382 240.208C395.136 239.566 394.664 239.056 394.068 238.787C393.472 238.519 392.8 238.516 392.202 238.777C391.616 239.077 391.121 239.547 390.773 240.134C390.425 240.721 390.238 241.401 390.234 242.096C390.256 243.491 390.697 244.841 391.492 245.946C390.555 245.553 389.617 246.918 389.967 247.932C390.2 248.412 390.553 248.814 390.987 249.091C391.421 249.368 391.918 249.51 392.423 249.501L404.372 249.346C404.636 249.425 404.907 249.477 405.181 249.501L422.14 249.289C423.246 248.994 423.559 248.21 422.849 247.262Z" fill="#5BA534"/>
<path d="M394.794 228.242L398.043 239.816C398.188 240.314 398.928 240.167 398.806 239.66C397.723 235.802 396.637 231.942 395.549 228.078C395.412 227.588 394.665 227.735 394.787 228.242H394.794Z" fill="#5BA534"/>
<path d="M393.568 226.746C393.568 226.746 391.921 227.8 392.226 228.324C392.531 228.847 393.965 227.4 393.568 226.746Z" fill="white"/>
<path d="M393.789 226.803C393.789 226.803 392.713 228.512 393.194 228.839C393.674 229.166 394.384 227.237 393.789 226.803Z" fill="white"/>
<path d="M394.063 226.893C394.063 226.893 393.53 228.879 394.063 229.035C394.597 229.19 394.727 227.089 394.063 226.893Z" fill="white"/>
<path d="M395.489 226.207C395.489 226.207 397.357 226.705 397.205 227.294C397.052 227.882 395.306 226.959 395.489 226.207Z" fill="white"/>
<path d="M395.238 226.444C395.238 226.444 396.847 227.58 396.519 228.079C396.191 228.577 394.849 227.09 395.238 226.444Z" fill="white"/>
<path d="M395.024 226.64C395.024 226.64 396.222 228.275 395.787 228.626C395.352 228.978 394.46 227.089 395.024 226.64Z" fill="white"/>
<path d="M394.68 226.713C394.68 226.713 395.595 228.65 395.053 228.92C394.512 229.19 394.001 227.089 394.68 226.713Z" fill="white"/>
<path d="M395.718 226.419C395.779 226.738 395.314 227.114 394.681 227.236C394.048 227.359 393.499 227.236 393.438 226.893C393.377 226.55 393.834 226.198 394.467 226.076C395.1 225.953 395.657 226.092 395.718 226.419Z" fill="#FFC648"/>
<path d="M394.649 226.901C394.451 226.951 394.244 226.952 394.045 226.906C393.846 226.859 393.659 226.765 393.498 226.632C393.446 226.709 393.424 226.806 393.437 226.901C393.498 227.228 394.055 227.384 394.68 227.245C395.305 227.106 395.778 226.738 395.717 226.427C395.699 226.346 395.656 226.274 395.595 226.223C395.492 226.402 395.354 226.556 395.191 226.673C395.028 226.79 394.843 226.868 394.649 226.901Z" fill="#FF8021"/>
<path d="M386.796 232.754C387.864 232.263 388.321 236.023 388.321 236.023C386.918 235.157 385.728 233.244 386.796 232.754Z" fill="#5BA534"/>
<path d="M390.211 238.026C389.586 237.47 389.007 236.987 388.48 236.587C387.847 236.775 385.239 237.453 385.232 236.358C385.232 235.435 386.383 235.418 387.52 235.892C387.047 235.573 386.627 235.32 386.292 235.132C384.767 235.05 383.097 234.127 383.737 233.179C384.263 232.402 385.674 233.996 386.299 234.748C387.59 235.468 388.807 236.331 389.929 237.323C389.167 236.007 388.9 234.258 389.929 234.209C390.959 234.159 390.448 236.93 390.303 237.658C391.217 238.471 392.09 239.336 392.919 240.249L392.69 240.478C391.927 239.66 391.264 238.99 390.608 238.377C389.914 238.761 387.695 239.881 387.474 238.859C387.253 237.838 388.831 237.592 390.211 238.026Z" fill="#5BA534"/>
<path d="M144.809 269.011C145.976 267.45 148.18 267.156 149.934 267.826C149.397 267.442 148.938 266.946 148.583 266.368C148.229 265.789 147.987 265.141 147.871 264.46C147.755 263.779 147.769 263.081 147.91 262.406C148.052 261.73 148.318 261.093 148.695 260.531C149.071 259.968 149.549 259.493 150.1 259.133C150.651 258.773 151.264 258.535 151.902 258.434C152.541 258.333 153.192 258.371 153.817 258.545C154.441 258.719 155.027 259.026 155.539 259.448C155.433 257.396 155.597 255.337 156.027 253.334C156.248 252.333 156.66 251.392 157.238 250.571C157.815 249.749 158.545 249.065 159.382 248.561C161.67 247.359 164.537 248.144 166.337 250.032C168.084 252.02 169.044 254.657 169.013 257.388C169.646 255.214 172.285 254.176 174.252 255.043C175.206 255.484 176.007 256.236 176.54 257.192C176.548 255.89 176.707 254.594 177.013 253.334C177.235 252.334 177.648 251.394 178.225 250.572C178.803 249.751 179.532 249.066 180.368 248.561C182.656 247.359 185.523 248.144 187.33 250.032C189.071 252.025 190.029 254.659 190.007 257.388C190.64 255.214 193.271 254.176 195.238 255.043C196.201 255.535 197.016 256.308 197.588 257.274C198.16 258.239 198.466 259.358 198.471 260.502C198.436 262.8 197.712 265.024 196.405 266.845C197.93 266.191 199.455 268.439 198.906 270.114C198.357 271.79 196.527 272.566 194.872 272.689L175.205 272.444C174.771 272.582 174.323 272.664 173.871 272.689L145.961 272.346C144.161 271.847 143.643 270.572 144.809 269.011Z" fill="#5BA534"/>
<path d="M190.983 237.715L185.645 256.775C185.416 257.593 184.188 257.339 184.425 256.514L189.763 237.461C189.991 236.644 191.219 236.889 190.983 237.715Z" fill="#5BA534"/>
<path d="M193.003 235.263C193.003 235.263 195.718 237.012 195.214 237.862C194.711 238.712 192.393 236.325 193.003 235.263Z" fill="white"/>
<path d="M192.645 235.328C192.645 235.328 194.422 238.14 193.629 238.687C192.836 239.235 191.662 236.08 192.645 235.328Z" fill="white"/>
<path d="M192.187 235.483C192.187 235.483 193.072 238.753 192.187 239.006C191.303 239.26 191.051 235.843 192.187 235.483Z" fill="white"/>
<path d="M189.861 234.355C189.861 234.355 186.811 235.173 187.04 236.145C187.268 237.118 190.143 235.59 189.861 234.355Z" fill="white"/>
<path d="M190.251 234.74C190.251 234.74 187.605 236.611 188.146 237.437C188.688 238.263 190.899 235.802 190.251 234.74Z" fill="white"/>
<path d="M190.61 235.066C190.61 235.066 188.635 237.723 189.383 238.336C190.13 238.949 191.533 235.859 190.61 235.066Z" fill="white"/>
<path d="M191.174 235.181C191.174 235.181 189.649 238.377 190.564 238.818C191.479 239.26 192.287 235.778 191.174 235.181Z" fill="white"/>
<path d="M189.465 234.699C189.366 235.238 190.129 235.843 191.166 236.064C192.203 236.285 193.118 236.064 193.217 235.5C193.316 234.936 192.554 234.356 191.524 234.135C190.495 233.914 189.595 234.168 189.465 234.699Z" fill="#FFC648"/>
<path d="M191.227 235.5C191.553 235.582 191.893 235.584 192.22 235.506C192.548 235.428 192.854 235.272 193.118 235.05C193.162 235.114 193.194 235.187 193.211 235.264C193.228 235.341 193.23 235.422 193.217 235.5C193.118 236.031 192.203 236.317 191.166 236.064C190.129 235.81 189.366 235.246 189.465 234.699C189.496 234.567 189.569 234.451 189.671 234.372C189.841 234.667 190.068 234.92 190.336 235.115C190.604 235.309 190.908 235.44 191.227 235.5Z" fill="#FF8021"/>
<path d="M204.145 245.128C202.384 244.311 201.652 250.482 201.652 250.482C203.94 249.084 205.907 245.945 204.145 245.128Z" fill="#5BA534"/>
<path d="M198.526 253.808C199.548 252.885 200.508 252.1 201.378 251.438C202.422 251.741 206.716 252.86 206.716 251.054C206.716 249.534 204.825 249.517 202.979 250.294C203.742 249.763 204.443 249.354 205.008 249.043C207.516 248.904 210.254 247.409 209.202 245.831C208.332 244.548 206.014 247.155 204.992 248.414C202.862 249.596 200.855 251.018 199.006 252.656C200.287 250.482 200.707 247.597 199.006 247.523C197.306 247.45 198.152 252.002 198.396 253.195C196.893 254.535 195.457 255.959 194.095 257.462L194.461 257.846C195.666 256.522 196.81 255.394 197.885 254.389C199.029 255.01 202.689 256.841 203.048 255.206C203.406 253.571 200.791 253.097 198.526 253.808Z" fill="#5BA534"/>
<path d="M41.2903 245.333C41.561 245.028 41.9107 244.818 42.2941 244.729C42.6775 244.64 43.0769 244.677 43.4407 244.834C43.2259 244.669 43.0436 244.46 42.9042 244.219C42.7648 243.978 42.6709 243.71 42.6281 243.43C42.5853 243.151 42.5942 242.865 42.6545 242.589C42.7148 242.313 42.8252 242.052 42.9794 241.822C43.1336 241.592 43.3286 241.396 43.5533 241.247C43.778 241.098 44.028 240.997 44.2889 240.951C44.5498 240.905 44.8167 240.915 45.0741 240.979C45.3316 241.044 45.5747 241.162 45.7895 241.328C45.7429 240.469 45.8123 239.607 45.9954 238.769C46.0881 238.35 46.2605 237.956 46.502 237.611C46.7434 237.267 47.0486 236.979 47.3985 236.767C47.8861 236.545 48.4247 236.486 48.9443 236.596C49.4638 236.707 49.9402 236.983 50.3115 237.388C51.0444 238.22 51.4464 239.325 51.4325 240.469C51.5154 240.25 51.6378 240.051 51.7928 239.882C51.9477 239.714 52.1321 239.58 52.3354 239.488C52.5387 239.396 52.7569 239.348 52.9775 239.347C53.1981 239.346 53.4168 239.391 53.6211 239.48C54.0263 239.664 54.3658 239.982 54.5895 240.388C54.5927 239.836 54.6593 239.287 54.7878 238.753C54.8822 238.334 55.0553 237.941 55.2966 237.597C55.5379 237.252 55.8422 236.964 56.1909 236.75C56.6785 236.529 57.2172 236.469 57.7367 236.58C58.2563 236.691 58.7327 236.967 59.1039 237.372C59.8368 238.204 60.2388 239.309 60.2249 240.453C60.394 240.01 60.7202 239.657 61.1321 239.471C61.5439 239.286 62.0075 239.283 62.4211 239.464C62.8321 239.673 63.1781 240.005 63.4175 240.42C63.6569 240.834 63.7796 241.314 63.7709 241.802C63.7621 242.764 63.4594 243.697 62.9092 244.458C63.5497 244.188 64.1979 245.128 63.9539 245.823C63.7902 246.152 63.543 246.425 63.2407 246.61C62.9385 246.796 62.5935 246.885 62.2457 246.869L54.01 246.771C53.8263 246.828 53.6368 246.861 53.4457 246.869L41.7784 246.706C41.0234 246.526 40.8023 245.986 41.2903 245.333Z" fill="#A1D860"/>
<path d="M60.629 232.222C59.8817 234.881 59.137 237.54 58.3947 240.199C58.2956 240.543 57.7846 240.437 57.8762 240.093L60.1181 232.116C60.2172 231.773 60.7282 231.879 60.629 232.222Z" fill="#A1D860"/>
<path d="M61.4841 231.176C61.4841 231.176 62.6204 231.903 62.4145 232.263C62.2086 232.623 61.2249 231.642 61.4841 231.176Z" fill="white"/>
<path d="M61.3226 231.225C61.3226 231.225 62.0851 232.402 61.7343 232.631C61.3836 232.86 60.9108 231.528 61.3226 231.225Z" fill="white"/>
<path d="M61.1397 231.291C61.1397 231.291 61.5057 232.664 61.1397 232.77C60.7736 232.876 60.6592 231.446 61.1397 231.291Z" fill="white"/>
<path d="M60.1638 230.825C60.1638 230.825 58.8751 231.16 58.9819 231.568C59.0886 231.977 60.2782 231.34 60.1638 230.825Z" fill="white"/>
<path d="M60.3246 230.98C60.3246 230.98 59.2189 231.797 59.4477 232.108C59.6764 232.418 60.5992 231.421 60.3246 230.98Z" fill="white"/>
<path d="M60.4769 231.119C60.4769 231.119 59.6457 232.231 59.966 232.484C60.2863 232.737 60.8582 231.446 60.4769 231.119Z" fill="white"/>
<path d="M60.7201 231.176C60.7201 231.176 60.0871 232.516 60.4608 232.696C60.8345 232.876 61.1776 231.413 60.7201 231.176Z" fill="white"/>
<path d="M59.9973 230.964C59.9592 231.192 60.2718 231.446 60.7065 231.536C61.1412 231.626 61.53 231.536 61.5682 231.299C61.6063 231.062 61.2937 230.825 60.859 230.727C60.4243 230.628 60.0354 230.743 59.9973 230.964Z" fill="#FFC648"/>
<path d="M60.7204 231.299C60.8526 231.33 60.9896 231.33 61.1216 231.297C61.2535 231.265 61.377 231.201 61.483 231.111C61.5022 231.137 61.5161 231.167 61.524 231.2C61.5318 231.232 61.5335 231.266 61.5287 231.299C61.4906 231.519 61.1017 231.626 60.667 231.536C60.2324 231.446 59.9045 231.193 59.9579 230.964C59.9699 230.908 59.9996 230.859 60.0417 230.825C60.1146 230.953 60.2134 231.062 60.3309 231.144C60.4483 231.226 60.5814 231.279 60.7204 231.299Z" fill="#FF8021"/>
<path d="M66.1433 235.336C65.3808 234.993 65.0986 237.576 65.0986 237.576C66.0595 236.987 66.883 235.671 66.1433 235.336Z" fill="#A1D860"/>
<path d="M63.771 238.965C64.2057 238.581 64.6022 238.254 64.9682 237.976C65.4029 238.099 67.2026 238.573 67.2102 237.813C67.2102 237.175 66.4476 237.167 65.6393 237.494C65.9672 237.274 66.2494 237.102 66.4858 236.971C67.5381 236.914 68.6896 236.276 68.2473 235.622C67.8813 235.091 66.9128 236.178 66.4858 236.71C65.5934 237.204 64.7524 237.799 63.9769 238.483C64.5107 237.576 64.6861 236.366 63.9769 236.334C63.2677 236.301 63.6185 238.213 63.7253 238.712C63.0947 239.272 62.4915 239.867 61.918 240.494L62.0781 240.657C62.5814 240.102 63.0618 239.627 63.5117 239.211C63.9845 239.472 65.5173 240.249 65.6698 239.538C65.8223 238.826 64.7395 238.671 63.771 238.965Z" fill="#A1D860"/>
<path d="M353.044 242.096L351.053 233.555L355.041 238.892C355.041 238.892 354.043 231.413 354.538 229.811C355.034 228.209 357.032 238.892 357.032 238.892L359.022 231.413L359.525 239.963C359.525 239.963 361.516 234.625 363.01 233.555C364.505 232.484 362.515 238.892 362.515 238.892L363.01 243.167L353.044 242.096Z" fill="#A1D860"/>
<path d="M1.09594 256.326L-1.04688 247.098L3.25402 252.819C3.25402 252.819 2.1788 244.752 2.72022 243.011C3.26165 241.27 5.41209 252.819 5.41209 252.819L7.56253 244.752L8.09634 253.972C8.09634 253.972 10.2544 248.21 11.8634 247.057C13.4724 245.905 11.3296 252.779 11.3296 252.779L11.8634 257.397L1.09594 256.326Z" fill="#5BA534"/>
<g style="mix-blend-mode:overlay" opacity="0.4">
<path d="M115.436 270.76C116.337 270.76 117.068 270.361 117.068 269.869C117.068 269.377 116.337 268.978 115.436 268.978C114.534 268.978 113.804 269.377 113.804 269.869C113.804 270.361 114.534 270.76 115.436 270.76Z" fill="#A1D860"/>
</g>
<g style="mix-blend-mode:overlay" opacity="0.4">
<path d="M149.277 275.19C149.277 275.681 148.515 276.081 147.646 276.081C146.776 276.081 146.014 275.681 146.014 275.19C146.014 274.7 146.776 274.307 147.646 274.307C148.515 274.307 149.277 274.7 149.277 275.19Z" fill="#A1D860"/>
</g>
<g style="mix-blend-mode:overlay" opacity="0.4">
<path d="M158.246 279.04C158.246 279.522 157.483 279.923 156.614 279.923C155.745 279.923 154.982 279.522 154.982 279.04C154.982 278.558 155.745 278.149 156.614 278.149C157.483 278.149 158.246 278.582 158.246 279.04Z" fill="#A1D860"/>
</g>
<g style="mix-blend-mode:overlay" opacity="0.4">
<path d="M126.447 272.534C126.447 273.016 125.685 273.417 124.815 273.417C123.946 273.417 123.184 273.016 123.184 272.534C123.184 272.052 123.946 271.643 124.815 271.643C125.685 271.643 126.447 272.044 126.447 272.534Z" fill="#A1D860"/>
</g>
<g style="mix-blend-mode:overlay" opacity="0.4">
<path d="M131.342 276.081C131.342 276.572 130.579 276.964 129.71 276.964C128.841 276.964 128.078 276.572 128.078 276.081C128.078 275.591 128.841 275.19 129.71 275.19C130.579 275.19 131.342 275.591 131.342 276.081Z" fill="#A1D860"/>
</g>
<g style="mix-blend-mode:overlay" opacity="0.4">
<path d="M85.6795 270.752C85.6795 271.243 84.917 271.643 84.0553 271.643C83.1935 271.643 82.4233 271.243 82.4233 270.752C82.4233 270.262 83.1859 269.869 84.0553 269.869C84.9246 269.869 85.6795 270.262 85.6795 270.752Z" fill="#A1D860"/>
</g>
<g style="mix-blend-mode:overlay" opacity="0.4">
<path d="M77.1246 276.376C77.1246 276.866 76.3621 277.258 75.4927 277.258C74.6234 277.258 73.8608 276.866 73.8608 276.376C73.8608 275.885 74.6234 275.485 75.4927 275.485C76.3621 275.485 77.1246 275.885 77.1246 276.376Z" fill="#A1D860"/>
</g>
<g style="mix-blend-mode:overlay" opacity="0.4">
<path d="M112.996 274.005C112.996 274.495 112.233 274.896 111.364 274.896C110.495 274.896 109.732 274.495 109.732 274.005C109.732 273.515 110.495 273.122 111.364 273.122C112.233 273.122 112.996 273.515 112.996 274.005Z" fill="#A1D860"/>
</g>
<g style="mix-blend-mode:overlay" opacity="0.4">
<path d="M395.916 252.877C395.916 253.367 395.154 253.759 394.284 253.759C393.415 253.759 392.652 253.367 392.652 252.877C392.652 252.386 393.415 251.986 394.284 251.986C395.154 251.986 395.916 252.427 395.916 252.877Z" fill="#A1D860"/>
</g>
<g style="mix-blend-mode:overlay" opacity="0.4">
<path d="M428.118 258.198C428.118 258.688 427.356 259.089 426.486 259.089C425.617 259.089 424.854 258.688 424.854 258.198C424.854 257.707 425.617 257.315 426.486 257.315C427.356 257.315 428.118 257.707 428.118 258.198Z" fill="#A1D860"/>
</g>
<g style="mix-blend-mode:overlay" opacity="0.4">
<path d="M405.289 255.541C405.289 256.024 404.526 256.424 403.657 256.424C402.787 256.424 402.025 256.024 402.025 255.541C402.025 255.059 402.787 254.65 403.657 254.65C404.526 254.65 405.289 255.051 405.289 255.541Z" fill="#A1D860"/>
</g>
<g style="mix-blend-mode:overlay" opacity="0.4">
<path d="M410.185 259.088C410.185 259.579 409.423 259.971 408.553 259.971C407.684 259.971 406.921 259.579 406.921 259.088C406.921 258.598 407.684 258.198 408.553 258.198C409.423 258.198 410.185 258.598 410.185 259.088Z" fill="#A1D860"/>
</g>
<g style="mix-blend-mode:overlay" opacity="0.4">
<path d="M364.521 253.759C364.521 254.25 363.797 254.65 362.897 254.65C361.997 254.65 361.265 254.25 361.265 253.759C361.265 253.269 362.028 252.877 362.897 252.877C363.766 252.877 364.521 253.245 364.521 253.759Z" fill="#A1D860"/>
</g>
<g style="mix-blend-mode:overlay" opacity="0.4">
<path d="M354.333 260.274C355.234 260.274 355.965 259.875 355.965 259.383C355.965 258.891 355.234 258.492 354.333 258.492C353.431 258.492 352.701 258.891 352.701 259.383C352.701 259.875 353.431 260.274 354.333 260.274Z" fill="#A1D860"/>
</g>
<g style="mix-blend-mode:overlay" opacity="0.4">
<path d="M391.837 257.012C391.837 257.503 391.074 257.903 390.205 257.903C389.335 257.903 388.573 257.503 388.573 257.012C388.573 256.522 389.335 256.13 390.205 256.13C391.074 256.13 391.837 256.514 391.837 257.012Z" fill="#A1D860"/>
</g>
<g style="mix-blend-mode:multiply" opacity="0.09">
<path d="M270.237 271.398C283.71 271.398 294.632 269.996 294.632 268.267C294.632 266.538 283.71 265.137 270.237 265.137C256.764 265.137 245.842 266.538 245.842 268.267C245.842 269.996 256.764 271.398 270.237 271.398Z" fill="#10566D"/>
</g>
<path d="M278.817 267.785C278.816 267.508 278.887 267.236 279.022 267C279.156 266.763 279.349 266.571 279.579 266.445L280.693 260.413C280.693 260.413 277.581 250.441 277.429 249.91C277.276 249.379 276.14 246.289 277.711 244.785C277.711 244.785 283.751 242.733 285.085 245.357C285.085 245.357 283.179 253.71 283.354 254.953C283.529 256.195 284.056 257.053 284.025 257.487C283.995 257.92 281.341 266.518 281.341 266.518C281.341 266.518 280.799 266.592 280.807 266.78C280.815 266.968 280.883 267.703 280.883 267.703L278.817 267.785Z" fill="white"/>
<path d="M282.629 252.321C282.642 253.161 282.423 253.987 282 254.695C281.576 255.403 280.967 255.96 280.249 256.298C279.531 256.636 278.736 256.74 277.963 256.595C277.191 256.45 276.475 256.064 275.907 255.485C275.338 254.906 274.942 254.16 274.768 253.341C274.593 252.521 274.649 251.665 274.927 250.879C275.205 250.093 275.693 249.413 276.331 248.923C276.969 248.434 277.727 248.157 278.511 248.128C279.038 248.113 279.563 248.209 280.056 248.412C280.548 248.614 280.999 248.919 281.381 249.309C281.764 249.698 282.071 250.165 282.285 250.682C282.499 251.199 282.616 251.756 282.629 252.321Z" fill="#FF8021"/>
<g style="mix-blend-mode:multiply" opacity="0.19">
<path d="M282.628 252.582C282.628 252.501 282.628 252.411 282.628 252.321C282.61 251.76 282.489 251.209 282.273 250.699C282.056 250.189 281.748 249.729 281.365 249.347C280.983 248.964 280.534 248.666 280.044 248.47C279.554 248.273 279.033 248.182 278.51 248.201C277.988 248.221 277.473 248.35 276.997 248.582C276.521 248.815 276.093 249.145 275.736 249.555C275.379 249.965 275.101 250.446 274.917 250.971C274.734 251.496 274.649 252.055 274.667 252.615C274.702 253.662 275.083 254.661 275.742 255.435C278.11 254.698 280.414 253.744 282.628 252.582Z" fill="#10566D"/>
</g>
<path d="M275.956 255.427C275.956 255.427 275.346 257.012 275.788 256.955C276.23 256.898 276.634 255.876 276.634 255.876C276.634 255.876 275.948 255.19 275.956 255.427Z" fill="#FF8021"/>
<path d="M277.847 256.391C277.847 256.391 277.847 258.108 278.244 257.871C278.64 257.634 278.64 256.522 278.64 256.522C278.64 256.522 277.755 256.179 277.847 256.391Z" fill="#FF8021"/>
<path d="M280.029 256.162C280.029 256.162 280.913 257.601 281.104 257.168C281.294 256.735 280.753 255.811 280.753 255.811C280.753 255.811 279.838 256.04 280.029 256.162Z" fill="#FF8021"/>
<path d="M252.34 249.158C252.34 249.158 254.528 259.17 254.757 260.691C254.908 262.462 254.964 264.241 254.925 266.02C254.925 266.02 253.804 267.009 254.017 268.047L256.412 267.965C256.412 267.965 256.107 266.731 256.633 266.526C257.159 266.322 257.091 250.318 257.091 250.318C257.091 250.318 253.499 246.575 252.34 249.158Z" fill="white"/>
<path d="M257.936 248.88C257.936 248.88 260.124 258.892 260.345 260.412C260.497 262.181 260.556 263.958 260.521 265.733C260.521 265.733 259.392 266.731 259.606 267.769L262 267.679C262 267.679 261.695 266.453 262.221 266.248C262.747 266.044 262.679 250.04 262.679 250.04C262.679 250.04 259.095 246.264 257.936 248.88Z" fill="white"/>
<path d="M244.591 231.225C244.591 231.225 245.354 229.492 245.644 229.787C245.933 230.081 245.735 231.421 245.735 231.421C245.735 231.421 244.553 232.075 244.591 231.225Z" fill="#FFC648"/>
<path d="M246.154 240.894C246.154 240.894 253.376 253.71 253.833 254.168C254.291 254.626 254.344 241.548 254.131 237.552C254.131 237.552 248.892 234.895 248.617 234.707C248.343 234.519 245.765 239.963 246.154 240.894Z" fill="white"/>
<path d="M251.539 250.163C251.539 250.163 259.225 257.838 269.04 256.432C269.04 256.432 282.316 255.484 286.342 245.341C286.342 245.341 287.723 237.739 286.152 235.99C284.581 234.241 254.452 236.587 254.452 236.587L248.618 234.707L251.539 250.163Z" fill="white"/>
<path opacity="0.22" d="M281.989 244.098C280.586 248.12 277.886 251.602 274.134 253.155C269.01 255.272 262.46 255.648 257.358 252.983C257.358 253.4 257.358 253.8 257.358 254.225C260.971 256.158 265.029 256.925 269.04 256.432C269.04 256.432 280.357 255.615 285.268 247.515C284.155 246.379 283.095 245.226 281.989 244.098Z" fill="#ACEFFF"/>
<path d="M253.064 252.427C253.422 252.304 253.826 251.708 254.086 251.454C254.7 250.737 255.494 250.223 256.373 249.975C257.06 249.828 257.746 249.975 258.425 249.893C258.819 249.83 259.195 249.67 259.523 249.426C259.851 249.182 260.122 248.861 260.316 248.487C260.563 247.927 260.656 247.303 260.584 246.688C260.512 246.073 260.279 245.492 259.912 245.014C259.149 243.837 258.135 242.848 257.273 241.744C256.526 240.699 255.906 239.557 255.428 238.344C255.127 237.692 254.756 237.081 254.322 236.521L248.648 234.691C248.374 234.511 245.796 239.946 246.185 240.878C246.185 240.878 250.685 248.863 252.804 252.452C252.892 252.463 252.98 252.455 253.064 252.427Z" fill="#09323D"/>
<path d="M283.009 249.427C282.664 248.95 282.228 248.557 281.729 248.275C281.231 247.993 280.682 247.828 280.119 247.793C279.204 247.866 278.396 248.741 277.679 249.272C276.489 250.171 275.117 250.776 273.95 251.724C273.381 252.199 272.94 252.828 272.672 253.546C272.404 254.264 272.318 255.046 272.425 255.811C275.513 255.075 280.051 253.457 283.353 249.951C283.255 249.764 283.14 249.589 283.009 249.427Z" fill="#09323D"/>
<path d="M257.303 239.815C258.707 241.238 260.201 241.189 261.978 240.796C265.646 239.979 268.262 244.278 271.891 244.376C274.049 244.433 275.384 242.905 277.145 241.867C278.48 241.05 280.196 241.009 281.393 240.053C282.59 239.096 283.62 237.175 284.443 235.696L284.535 235.533C278.694 234.854 259.751 236.195 255.397 236.522C255.801 237.755 256.452 238.879 257.303 239.815Z" fill="#09323D"/>
<path d="M263.747 249.101C264.51 249.779 264.967 250.858 265.898 251.275C266.942 251.749 268.185 250.972 268.948 250.196C269.75 249.407 270.264 248.338 270.397 247.18C270.397 246.166 269.634 245.766 268.872 245.316C268.255 244.82 267.549 244.469 266.797 244.286C266.241 244.286 265.745 244.85 265.272 245.406C265.272 245.508 265.252 245.608 265.211 245.7C264.769 246.64 264.06 246.853 263.297 247.409C262.847 247.727 262.535 248.144 262.878 248.553C263.091 248.774 263.503 248.872 263.747 249.101Z" fill="#09323D"/>
<path d="M285.589 235.655C286.202 236.184 286.697 236.854 287.037 237.615C287.378 238.376 287.555 239.209 287.556 240.052C287.617 243.028 290.408 255.762 290.408 255.762H289.417C289.417 255.762 286.763 240.796 286.145 239.644C286.145 239.611 284.323 235.573 285.589 235.655Z" fill="white"/>
<path d="M289.263 255.272C289.263 255.272 287.997 255.868 288.92 257.928L289.217 257.495C289.217 257.495 288.897 258.418 290.323 260.879C290.811 259.935 291.062 258.871 291.051 257.793C291.041 256.714 290.769 255.656 290.262 254.724L289.263 255.272Z" fill="#09323D"/>
<path d="M285.137 267.491C285.077 267.22 285.088 266.938 285.169 266.674C285.25 266.41 285.397 266.175 285.595 265.995L285.381 259.857C285.381 259.857 280.196 250.923 279.937 250.449C279.677 249.975 277.9 247.245 279.105 245.39C279.105 245.39 284.542 241.891 286.403 244.123C286.403 244.123 286.35 252.713 286.792 253.882C287.234 255.051 287.921 255.754 287.989 256.187C288.058 256.62 287.326 265.635 287.326 265.635C287.326 265.635 286.815 265.832 286.861 266.02C286.906 266.208 287.135 266.902 287.135 266.902L285.137 267.491Z" fill="white"/>
<path d="M281.377 266.518C281.377 266.518 281.53 266.036 281.758 265.284L279.814 265.358L279.616 266.445C279.386 266.571 279.193 266.763 279.058 267C278.924 267.236 278.853 267.508 278.853 267.785L280.927 267.704C280.927 267.704 280.859 266.976 280.851 266.78C280.843 266.584 281.377 266.518 281.377 266.518Z" fill="#09323D"/>
<path d="M254.696 266.322C254.462 266.544 254.278 266.821 254.16 267.131C254.043 267.442 253.994 267.778 254.018 268.112L256.412 268.03C256.412 268.03 256.107 266.796 256.633 266.592C256.679 266.592 256.717 266.453 256.748 266.24L254.696 266.322Z" fill="#09323D"/>
<path d="M260.196 266.085C259.985 266.3 259.823 266.563 259.721 266.854C259.619 267.146 259.581 267.459 259.608 267.769L262.003 267.679C262.003 267.679 261.698 266.453 262.224 266.249C262.224 266.249 262.293 266.151 262.323 266.003L260.196 266.085Z" fill="#09323D"/>
<path d="M287.327 265.636C287.327 265.636 287.327 265.431 287.373 265.08L285.566 265.145V265.963C285.368 266.142 285.22 266.377 285.14 266.641C285.059 266.905 285.048 267.188 285.108 267.458L287.106 266.87C287.106 266.87 286.885 266.175 286.831 265.987C286.778 265.799 287.327 265.636 287.327 265.636Z" fill="#09323D"/>
<path d="M247.482 232.353C247.12 231.96 246.685 231.652 246.206 231.448C245.727 231.244 245.214 231.149 244.699 231.168C243.96 231.192 243.245 231.454 242.647 231.92C241.496 232.647 237.233 235.304 236.913 235.353C236.592 235.402 235.166 235.279 235.464 236.644C235.659 237.417 236.057 238.114 236.609 238.652C237.162 239.191 237.847 239.549 238.583 239.685C239.994 239.766 245.095 239.979 245.446 240.093C245.797 240.208 249.373 246.371 249.373 246.371L254.536 236.898L247.482 232.353Z" fill="white"/>
<path d="M247.482 232.353C246.866 231.695 246.059 231.283 245.195 231.184C245.159 231.497 245.087 231.805 244.981 232.1C244.524 233.375 243.601 233.734 242.404 233.8C242.02 233.784 241.637 233.854 241.28 234.006C240.922 234.158 240.599 234.389 240.329 234.682C239.978 235.085 239.601 235.462 239.201 235.81C238.783 236.118 238.285 236.278 237.778 236.268C237.27 236.258 236.779 236.078 236.372 235.753C236.262 235.681 236.179 235.572 236.135 235.442C236.009 235.455 235.886 235.5 235.778 235.572C235.67 235.645 235.58 235.743 235.514 235.86C235.448 235.977 235.408 236.109 235.398 236.245C235.389 236.381 235.408 236.518 235.457 236.644C235.652 237.417 236.05 238.113 236.602 238.652C237.155 239.191 237.839 239.549 238.576 239.685C239.986 239.766 245.088 239.979 245.439 240.093C245.789 240.208 249.366 247.041 249.366 247.041L254.917 236.538L247.482 232.353Z" fill="#09323D"/>
<path d="M235.952 237.715C236.145 237.651 236.317 237.531 236.452 237.37C236.586 237.209 236.677 237.012 236.715 236.799C236.822 236.08 237.34 235.483 236.921 235.328C236.501 235.173 235.098 235.328 235.472 236.62C235.598 237.001 235.759 237.368 235.952 237.715Z" fill="#FF8021"/>
<g style="mix-blend-mode:multiply" opacity="0.19">
<path d="M236.982 235.385C236.982 235.467 236.982 235.557 236.982 235.639C236.941 235.921 236.824 236.185 236.645 236.397C236.466 236.609 236.233 236.76 235.975 236.832C235.837 236.861 235.694 236.861 235.556 236.832C235.665 237.138 235.803 237.431 235.967 237.707C236.16 237.643 236.333 237.523 236.467 237.362C236.601 237.201 236.692 237.004 236.73 236.791C236.806 236.154 237.264 235.59 236.982 235.385Z" fill="#10566D"/>
</g>
<path d="M236.409 238.36C236.821 238.304 237.236 238.271 237.652 238.262H238.262C238.468 238.255 238.675 238.236 238.879 238.205C238.504 238.417 238.084 238.524 237.659 238.516C237.238 238.525 236.817 238.473 236.409 238.36Z" fill="white"/>
<path d="M242.213 235.639C242.129 235.647 242.045 235.634 241.967 235.601C241.889 235.569 241.819 235.517 241.763 235.451C241.605 235.214 241.534 234.923 241.565 234.633V234.462C241.57 234.428 241.588 234.399 241.613 234.379C241.639 234.359 241.671 234.351 241.702 234.355C241.717 234.358 241.731 234.365 241.744 234.374C241.757 234.383 241.768 234.394 241.777 234.408C241.785 234.422 241.791 234.437 241.794 234.454C241.797 234.47 241.797 234.486 241.793 234.503V234.674C241.763 234.889 241.81 235.108 241.923 235.287C241.958 235.326 242.001 235.356 242.049 235.374C242.096 235.392 242.147 235.399 242.197 235.394C242.244 235.395 242.291 235.385 242.333 235.364C242.376 235.342 242.413 235.311 242.442 235.271C242.576 235.024 242.627 234.736 242.586 234.454C242.584 234.437 242.585 234.42 242.59 234.404C242.594 234.387 242.601 234.372 242.611 234.359C242.621 234.346 242.634 234.335 242.648 234.328C242.662 234.32 242.677 234.316 242.693 234.315C242.723 234.312 242.753 234.321 242.777 234.341C242.801 234.361 242.817 234.389 242.823 234.421C242.865 234.774 242.792 235.132 242.617 235.434C242.566 235.496 242.504 235.546 242.434 235.581C242.365 235.616 242.29 235.636 242.213 235.639Z" fill="white"/>
<path opacity="0.64" d="M278.373 243.256C278.373 243.534 278.373 243.804 278.373 244.074C278.373 244.343 278.373 244.629 278.373 244.891C278.4 245.439 278.453 245.984 278.533 246.526C278.617 247.066 278.74 247.599 278.899 248.12L279.037 248.504C279.081 248.632 279.132 248.757 279.189 248.88C279.281 249.133 279.426 249.362 279.54 249.615C279.211 249.179 278.941 248.694 278.739 248.177C278.544 247.65 278.403 247.102 278.32 246.542C278.234 246.002 278.196 245.455 278.205 244.907C278.212 244.353 278.268 243.8 278.373 243.256Z" fill="#09323D"/>
<path opacity="0.64" d="M257.121 254.307C257.053 253.721 257.022 253.132 257.03 252.541C257.034 251.953 257.08 251.365 257.167 250.784C257.305 251.955 257.289 253.141 257.121 254.307Z" fill="#09323D"/>
<path d="M246.895 231.994C246.895 231.994 248.595 230.719 250.143 232.86C250.143 232.86 247.924 235.247 245.888 233.637C245.888 233.628 246.254 232.231 246.895 231.994Z" fill="#09323D"/>
<path d="M246.171 233.808C247.49 234.625 248.832 233.889 249.572 233.334C248.42 233.091 247.226 233.257 246.171 233.808Z" fill="#FF8021"/>
<g style="mix-blend-mode:multiply" opacity="0.19">
<path d="M246.963 233.465C246.697 233.552 246.441 233.673 246.201 233.824C246.506 234.009 246.843 234.126 247.192 234.168C247.54 234.21 247.893 234.176 248.229 234.069C247.767 233.984 247.332 233.776 246.963 233.465Z" fill="#10566D"/>
</g>
<path d="M256.099 236.898C256.177 237.082 256.2 237.287 256.166 237.486C256.132 237.684 256.042 237.867 255.908 238.009C255.64 238.289 255.385 238.584 255.145 238.892C254.474 239.987 255.26 241.646 254.52 242.693C253.925 243.51 252.697 243.461 251.965 244.164C251.378 244.72 251.241 245.635 250.944 246.412C250.89 246.606 250.8 246.786 250.68 246.942C250.559 247.098 250.41 247.226 250.242 247.319C249.891 247.458 249.396 247.221 249.403 246.812L248.778 245.684L254.162 236.252L255.938 236.489L256.099 236.898Z" fill="#09323D"/>
<path d="M235.892 236.178C235.892 236.178 236.09 235.483 236.38 235.753C236.669 236.023 235.892 236.178 235.892 236.178Z" fill="#09323D"/>
<path d="M282.627 243.51C282.627 243.51 281.293 242.178 280.835 243.853C280.378 245.529 282.993 246.82 282.993 246.82C282.993 246.82 284.519 245.243 284.435 243.551C284.351 241.859 283.184 241.973 282.627 243.51Z" fill="#09323D"/>
<path opacity="0.6" d="M245.537 233.53C245.574 233.33 245.638 233.138 245.727 232.958C245.813 232.775 245.92 232.604 246.048 232.451C246.175 232.294 246.324 232.159 246.49 232.051C246.659 231.947 246.852 231.896 247.047 231.904C246.883 231.983 246.729 232.085 246.589 232.206C246.455 232.329 246.33 232.463 246.215 232.606C245.979 232.893 245.773 233.211 245.537 233.53Z" fill="white"/>
<path opacity="0.5" d="M245.43 240.093C245.76 240.052 246.087 239.981 246.406 239.881C246.717 239.786 247.012 239.643 247.283 239.456C247.547 239.269 247.764 239.017 247.916 238.72C248.067 238.406 248.162 238.066 248.198 237.715C248.246 238.082 248.204 238.457 248.076 238.802C247.926 239.135 247.694 239.417 247.405 239.619C247.112 239.819 246.786 239.955 246.444 240.02C246.113 240.11 245.77 240.134 245.43 240.093Z" fill="white"/>
<g style="mix-blend-mode:overlay" opacity="0.43">
<path d="M235.64 235.794C235.64 235.794 235.32 236.391 235.64 236.284C235.96 236.178 235.93 235.402 235.64 235.794Z" fill="white"/>
</g>
</g>
</svg>
